<?xml version="1.0" encoding="UTF-8" standalone="no"?>
<!DOCTYPE svg PUBLIC "-//W3C//DTD SVG 1.1//EN" "http://www.w3.org/Graphics/SVG/1.1/DTD/svg11.dtd">
<!-- Created with Vectornator (http://vectornator.io/) -->
<svg height="19.659911452539763mm" stroke-miterlimit="10" style="fill-rule:nonzero;clip-rule:evenodd;stroke-linecap:round;stroke-linejoin:round;" version="1.1" viewBox="0 0 419.58 55.7358" width="147.99999999999997mm" xml:space="preserve" xmlns="http://www.w3.org/2000/svg" xmlns:xlink="http://www.w3.org/1999/xlink">
<defs/>
<clipPath id="ArtboardFrame">
<rect height="55.7358" width="419.58" x="0" y="0"/>
</clipPath>
<g clip-path="url(#ArtboardFrame)" id="Layer-1">
<path d="M31.5869 6.77011C22.3544 6.77011 14.8681 16.2204 14.8681 27.8679C14.8681 39.5154 22.3544 48.9657 31.5869 48.9657L387.993 48.9657C397.226 48.9657 404.712 39.5154 404.712 27.8679C404.712 16.2204 397.226 6.77011 387.993 6.77011L31.5869 6.77011Z" fill="none" opacity="1" stroke="#12031f" stroke-linecap="butt" stroke-linejoin="round" stroke-width="10.8606"/>
<path d="M395.633 27.8397C395.633 21.8483 399.698 16.9914 404.712 16.9914C409.726 16.9914 413.791 21.8483 413.791 27.8397C413.791 33.8311 409.726 38.688 404.712 38.688C399.698 38.688 395.633 33.8311 395.633 27.8397Z" fill="#12031f" fill-rule="nonzero" opacity="1" stroke="none"/>
<path d="M5.78943 26.1678C5.78943 20.1764 9.8541 15.3194 14.8681 15.3194C19.8821 15.3194 23.9468 20.1764 23.9468 26.1678C23.9468 32.1591 19.8821 37.0161 14.8681 37.0161C9.8541 37.0161 5.78943 32.1591 5.78943 26.1678Z" fill="#12031f" fill-rule="nonzero" opacity="1" stroke="none"/>
<path d="M31.5869 6.74188C22.3544 6.74188 14.8681 14.6506 14.8681 24.3981C14.8681 34.1456 22.3544 42.0544 31.5869 42.0544L387.993 42.0544C397.226 42.0544 404.712 34.1456 404.712 24.3981C404.712 14.6506 397.226 6.74188 387.993 6.74188L31.5869 6.74188Z" fill="none" opacity="1" stroke="#8a7f84" stroke-linecap="butt" stroke-linejoin="round" stroke-width="10.8606"/>
<path d="M31.5869 6.74188C22.3544 6.74188 14.8681 14.6506 14.8681 24.3981C14.8681 34.1456 22.3544 42.0544 31.5869 42.0544L387.993 42.0544C397.226 42.0544 404.712 34.1456 404.712 24.3981C404.712 14.6506 397.226 6.74188 387.993 6.74188L31.5869 6.74188Z" fill="none" opacity="1" stroke="#b5a5ac" stroke-linecap="butt" stroke-linejoin="round" stroke-width="4.50105"/>
<path d="M5.78943 24.3981C5.78943 19.3841 9.8541 15.3194 14.8681 15.3194C19.8821 15.3194 23.9468 19.3841 23.9468 24.3981C23.9468 29.4122 19.8821 33.4768 14.8681 33.4768C9.8541 33.4768 5.78943 29.4122 5.78943 24.3981Z" fill="#8a7f84" fill-rule="nonzero" opacity="1" stroke="none"/>
<path d="M395.633 24.3981C395.633 19.3841 399.698 15.3194 404.712 15.3194C409.726 15.3194 413.791 19.3841 413.791 24.3981C413.791 29.4122 409.726 33.4768 404.712 33.4768C399.698 33.4768 395.633 29.4122 395.633 24.3981Z" fill="#8a7f84" fill-rule="nonzero" opacity="1" stroke="none"/>
<path d="M7.07358 24.3981C7.07358 20.0933 10.5633 16.6036 14.8681 16.6036C19.1729 16.6036 22.6627 20.0933 22.6627 24.3981C22.6627 28.7029 19.1729 32.1927 14.8681 32.1927C10.5633 32.1927 7.07358 28.7029 7.07358 24.3981Z" fill="#b5a5ac" fill-rule="nonzero" opacity="1" stroke="none"/>
<path d="M396.917 24.3981C396.917 20.0933 400.407 16.6036 404.712 16.6036C409.017 16.6036 412.506 20.0933 412.506 24.3981C412.506 28.7029 409.017 32.1927 404.712 32.1927C400.407 32.1927 396.917 28.7029 396.917 24.3981Z" fill="#b5a5ac" fill-rule="nonzero" opacity="1" stroke="none"/>
<path d="M-54.8975 24.5512C-54.9406 24.5454-54.9835 24.5397-55.026 24.534C-55.0685 24.5282-55.1107 24.5225-55.1526 24.5169C-55.1945 24.5111-55.2362 24.5055-55.2775 24.4997C-55.3188 24.4941-55.3599 24.4884-55.4006 24.4827C-55.4413 24.477-55.4817 24.4713-55.5219 24.4657C-55.5621 24.46-55.6019 24.4544-55.6415 24.4487C-55.681 24.4431-55.7203 24.4374-55.7593 24.4317C-55.7983 24.426-55.837 24.4204-55.8754 24.4147C-55.9138 24.409-55.9519 24.4033-55.9898 24.3977C-56.0277 24.392-56.0652 24.3863-56.1025 24.3806C-56.1398 24.3749-56.1768 24.3692-56.2136 24.3634C-56.2503 24.3577-56.2867 24.3519-56.3229 24.3462C-56.3591 24.3404-56.395 24.3347-56.4306 24.3289C-56.4663 24.3231-56.5016 24.3173-56.5368 24.3115C-56.5719 24.3057-56.6067 24.2999-56.6412 24.294C-56.6758 24.2881-56.7101 24.2823-56.7441 24.2764C-56.7781 24.2704-56.8119 24.2645-56.8454 24.2586C-56.8789 24.2527-56.9121 24.2467-56.9451 24.2407C-56.9781 24.2346-57.0108 24.2286-57.0432 24.2226C-57.0757 24.2165-57.108 24.2104-57.1399 24.2043C-57.1719 24.1982-57.2035 24.1921-57.235 24.1858C-57.2665 24.1796-57.2976 24.1734-57.3286 24.1672C-57.3595 24.1609-57.3902 24.1546-57.4207 24.1482C-57.4511 24.1419-57.4812 24.1355-57.5112 24.1291C-57.5412 24.1227-57.5709 24.1163-57.6004 24.1097C-57.6299 24.1033-57.6591 24.0967-57.6881 24.0901C-57.717 24.0835-57.7458 24.0768-57.7743 24.0702C-57.8028 24.0635-57.8311 24.0567-57.8591 24.0499C-57.8871 24.0431-57.9149 24.0363-57.9425 24.0294C-57.9701 24.0225-57.9974 24.0155-58.0245 24.0085C-58.0516 24.0015-58.0785 23.9945-58.1052 23.9873C-58.1317 23.9802-58.1582 23.973-58.1844 23.9658C-58.2106 23.9586-58.2366 23.9513-58.2623 23.9439C-58.2881 23.9365-58.3136 23.9291-58.3389 23.9216C-58.3642 23.9141-58.3893 23.9065-58.4141 23.8989C-58.439 23.8913-58.4637 23.8836-58.4882 23.8758C-58.5126 23.868-58.5368 23.8602-58.5608 23.8523C-58.5848 23.8444-58.6086 23.8365-58.6322 23.8284C-58.6558 23.8203-58.6792 23.8122-58.7023 23.804C-58.7255 23.7958-58.7485 23.7875-58.7712 23.7791C-58.794 23.7708-58.8165 23.7624-58.8389 23.7538C-58.8613 23.7454-58.8834 23.7367-58.9053 23.728C-58.9273 23.7193-58.9491 23.7105-58.9706 23.7017C-58.9922 23.6928-59.0135 23.6839-59.0347 23.6749C-59.0558 23.6658-59.0768 23.6567-59.0976 23.6475C-59.1183 23.6383-59.1389 23.629-59.1593 23.6196C-59.1797 23.6102-59.1999 23.6007-59.2199 23.5911C-59.2399 23.5815-59.2597 23.5718-59.2794 23.562C-59.299 23.5523-59.3185 23.5424-59.3377 23.5324C-59.357 23.5224-59.376 23.5124-59.395 23.5022C-59.4139 23.492-59.4326 23.4817-59.4512 23.4713C-59.4697 23.4609-59.4881 23.4505-59.5062 23.4398C-59.5245 23.4293-59.5425 23.4185-59.5603 23.4077C-59.5782 23.3969-59.5959 23.386-59.6133 23.3749C-59.6309 23.3639-59.6482 23.3527-59.6654 23.3415C-59.6826 23.3302-59.6995 23.3189-59.7164 23.3073C-59.7332 23.2958-59.7499 23.2842-59.7664 23.2725C-59.7829 23.2607-59.7992 23.2489-59.8154 23.2369C-59.8316 23.2249-59.8476 23.2129-59.8635 23.2007C-59.8794 23.1884-59.895 23.1761-59.9106 23.1636C-59.9262 23.1512-59.9415 23.1385-59.9568 23.1259C-59.972 23.1131-59.9871 23.1002-60.0021 23.0873C-60.017 23.0744-60.0318 23.0612-60.0464 23.048C-60.061 23.0347-60.0755 23.0213-60.0898 23.0078C-60.1042 22.9943-60.1184 22.9807-60.1325 22.9669C-60.1465 22.9531-60.1605 22.9392-60.1742 22.9251C-60.188 22.911-60.2016 22.8969-60.2151 22.8825C-60.2286 22.8682-60.242 22.8536-60.2551 22.8391C-60.2684 22.8244-60.2815 22.8096-60.2944 22.7948C-60.3074 22.7798-60.3202 22.7647-60.3329 22.7495C-60.3456 22.7343-60.3581 22.7189-60.3706 22.7034C-60.383 22.6879-60.3953 22.6722-60.4075 22.6564C-60.4196 22.6406-60.4317 22.6246-60.4436 22.6085C-60.4555 22.5923-60.4673 22.576-60.479 22.5596C-60.4906 22.5432-60.5023 22.5265-60.5137 22.5098C-60.5251 22.493-60.5365 22.4761-60.5476 22.4589C-60.5588 22.4418-60.57 22.4246-60.581 22.4072C-60.5919 22.3898-60.6028 22.3722-60.6135 22.3544C-60.6243 22.3367-60.635 22.3187-60.6455 22.3006C-60.656 22.2825-60.6664 22.2643-60.6768 22.2458C-60.6871 22.2274-60.6973 22.2088-60.7074 22.19C-60.7174 22.1713-60.7275 22.1522-60.7374 22.1332C-60.7473 22.114-60.7572 22.0947-60.7668 22.0752C-60.7765 22.0557-60.7861 22.036-60.7957 22.0162C-60.8052 21.9963-60.8145 21.9763-60.8239 21.9561C-60.8332 21.9358-60.8424 21.9154-60.8516 21.8948C-60.8607 21.8742-60.8698 21.8534-60.8787 21.8325C-60.8877 21.8116-60.8966 21.7904-60.9053 21.769C-60.9141 21.7477-60.9228 21.7262-60.9314 21.7044C-60.94 21.6827-60.9485 21.6608-60.957 21.6386C-60.9654 21.6165-60.9738 21.5942-60.9821 21.5717C-60.9904 21.5492-60.9986 21.5265-61.0067 21.5036C-61.0148 21.4806-61.0229 21.4575-61.0309 21.4342C-61.0388 21.4109-61.0467 21.3874-61.0546 21.3637C-61.0624 21.3399-61.0702 21.316-61.0779 21.2919C-61.0856 21.2677-61.0932 21.2434-61.1008 21.2188C-61.1084 21.1942-61.1158 21.1695-61.1233 21.1445C-61.1307 21.1196-61.1381 21.0944-61.1454 21.069C-61.1526 21.0436-61.1599 21.018-61.1671 20.9921C-61.1743 20.9662-61.1814 20.9402-61.1885 20.9139C-61.1955 20.8877-61.2025 20.8611-61.2095 20.8345C-61.2165 20.8077-61.2234 20.7808-61.2303 20.7537C-61.2371 20.7265-61.2439 20.6991-61.2507 20.6715C-61.2574 20.6439-61.2641 20.6161-61.2708 20.588C-61.2774 20.5599-61.284 20.5316-61.2906 20.5031C-61.2972 20.4746-61.3037 20.4459-61.3102 20.4168C-61.3167 20.3879-61.3231 20.3586-61.3295 20.3292C-61.3359 20.2998-61.3423 20.27-61.3486 20.2401C-61.355 20.2102-61.3612 20.18-61.3675 20.1496C-61.3738 20.1192-61.3799 20.0885-61.3861 20.0576C-61.3924 20.0267-61.3985 19.9956-61.4046 19.9642C-61.4107 19.9329-61.4168 19.9013-61.4229 19.8694C-61.429 19.8375-61.435 19.8054-61.4411 19.773C-61.4471 19.7407-61.4531 19.708-61.4591 19.6752C-61.465 19.6423-61.471 19.6092-61.4769 19.5758C-61.4829 19.5424-61.4888 19.5088-61.4947 19.4749C-61.5005 19.441-61.5064 19.4068-61.5123 19.3725C-61.5182 19.3381-61.524 19.3034-61.5299 19.2685C-61.5357 19.2335-61.5416 19.1984-61.5474 19.1629C-61.5532 19.1275-61.559 19.0918-61.5648 19.0558C-61.5706 19.0198-61.5764 18.9836-61.5822 18.947C-61.588 18.9105-61.5938 18.8738-61.5995 18.8367C-61.6053 18.7996-61.6111 18.7624-61.6169 18.7248C-61.6226 18.6872-61.6284 18.6493-61.6342 18.6112C-61.64 18.573-61.6458 18.5346-61.6516 18.4959C-61.6574 18.4572-61.6632 18.4183-61.669 18.3791C-61.6749 18.3397-61.6806 18.3002-61.6865 18.2604C-61.6923 18.2206-61.6981 18.1805-61.704 18.1401C-61.7083 18.1803-61.7126 18.2201-61.717 18.2597C-61.7213 18.2993-61.7256 18.3386-61.73 18.3776C-61.7343 18.4167-61.7386 18.4554-61.743 18.4938C-61.7473 18.5323-61.7517 18.5705-61.7561 18.6084C-61.7604 18.6462-61.7648 18.6839-61.7692 18.7213C-61.7735 18.7586-61.7779 18.7957-61.7823 18.8326C-61.7867 18.8694-61.7911 18.9059-61.7955 18.9422C-61.8 18.9785-61.8044 19.0145-61.8088 19.0502C-61.8133 19.0859-61.8177 19.1214-61.8223 19.1566C-61.8267 19.1919-61.8313 19.2267-61.8358 19.2615C-61.8403 19.2962-61.8448 19.3305-61.8494 19.3647C-61.854 19.3989-61.8586 19.4328-61.8633 19.4664C-61.8679 19.5001-61.8726 19.5335-61.8772 19.5666C-61.8819 19.5997-61.8866 19.6326-61.8914 19.6652C-61.8961 19.6978-61.9009 19.7302-61.9057 19.7623C-61.9105 19.7945-61.9153 19.8263-61.9203 19.8579C-61.9252 19.8896-61.9301 19.9209-61.935 19.9521C-61.9399 19.9832-61.945 20.014-61.9499 20.0447C-61.955 20.0753-61.9601 20.1057-61.9652 20.1359C-61.9703 20.166-61.9755 20.1959-61.9806 20.2256C-61.9859 20.2553-61.9911 20.2847-61.9964 20.3139C-62.0017 20.3431-62.0071 20.372-62.0125 20.4007C-62.0179 20.4294-62.0233 20.4579-62.0288 20.4862C-62.0343 20.5144-62.0399 20.5424-62.0455 20.5703C-62.0511 20.598-62.0567 20.6256-62.0625 20.6529C-62.0682 20.6802-62.074 20.7073-62.0798 20.7342C-62.0857 20.761-62.0916 20.7877-62.0975 20.8141C-62.1035 20.8405-62.1095 20.8667-62.1156 20.8927C-62.1217 20.9187-62.1278 20.9444-62.1341 20.9699C-62.1403 20.9955-62.1466 21.0208-62.1529 21.0459C-62.1593 21.071-62.1657 21.0958-62.1722 21.1205C-62.1787 21.1451-62.1853 21.1696-62.1919 21.1938C-62.1986 21.218-62.2053 21.242-62.2121 21.2659C-62.2189 21.2897-62.2258 21.3133-62.2327 21.3367C-62.2397 21.36-62.2467 21.3832-62.2538 21.4062C-62.2609 21.4292-62.2681 21.4519-62.2754 21.4745C-62.2827 21.497-62.29 21.5194-62.2975 21.5416C-62.3049 21.5637-62.3124 21.5856-62.3201 21.6074C-62.3277 21.6292-62.3354 21.6507-62.3432 21.6721C-62.351 21.6934-62.3589 21.7146-62.3669 21.7356C-62.3749 21.7565-62.383 21.7772-62.3911 21.7979C-62.3993 21.8184-62.4076 21.8388-62.4159 21.859C-62.4243 21.8792-62.4328 21.8992-62.4414 21.919C-62.45 21.9388-62.4586 21.9584-62.4674 21.9779C-62.4762 21.9973-62.4851 22.0165-62.494 22.0356C-62.503 22.0547-62.5121 22.0736-62.5213 22.0923C-62.5305 22.111-62.5398 22.1295-62.5492 22.1479C-62.5586 22.1662-62.5681 22.1843-62.5778 22.2023C-62.5874 22.2203-62.5971 22.2381-62.607 22.2557C-62.6169 22.2734-62.6269 22.2908-62.6369 22.3081C-62.6471 22.3253-62.6573 22.3425-62.6676 22.3594C-62.6779 22.3763-62.6884 22.3931-62.699 22.4097C-62.7095 22.4263-62.7202 22.4427-62.731 22.4589C-62.7419 22.4753-62.7528 22.4913-62.7639 22.5073C-62.775 22.5232-62.7862 22.5389-62.7975 22.5546C-62.8088 22.5702-62.8203 22.5856-62.8319 22.6009C-62.8435 22.6162-62.8552 22.6313-62.867 22.6463C-62.8789 22.6612-62.8909 22.676-62.903 22.6907C-62.9151 22.7053-62.9274 22.7198-62.9398 22.7342C-62.9522 22.7485-62.9647 22.7627-62.9774 22.7767C-62.9901 22.7908-63.0029 22.8047-63.0159 22.8184C-63.0288 22.8321-63.042 22.8457-63.0552 22.8592C-63.0684 22.8726-63.0819 22.8859-63.0954 22.899C-63.109 22.9122-63.1227 22.9252-63.1365 22.9381C-63.1504 22.9509-63.1644 22.9637-63.1785 22.9763C-63.1927 22.9888-63.2069 23.0013-63.2214 23.0136C-63.2359 23.0259-63.2505 23.0381-63.2653 23.0501C-63.2801 23.0621-63.295 23.074-63.3101 23.0858C-63.3252 23.0976-63.3405 23.1092-63.3558 23.1207C-63.3713 23.1322-63.3868 23.1436-63.4026 23.1548C-63.4184 23.1661-63.4342 23.1772-63.4503 23.1882C-63.4664 23.1991-63.4827 23.21-63.4991 23.2207C-63.5155 23.2315-63.532 23.2421-63.5488 23.2526C-63.5656 23.263-63.5825 23.2734-63.5996 23.2837C-63.6167 23.2939-63.634 23.304-63.6515 23.314C-63.6689 23.3241-63.6865 23.334-63.7044 23.3437C-63.7222 23.3535-63.7402 23.3632-63.7583 23.3727C-63.7765 23.3823-63.7948 23.3917-63.8134 23.401C-63.8319 23.4104-63.8507 23.4196-63.8696 23.4286C-63.8885 23.4378-63.9076 23.4467-63.9268 23.4556C-63.9462 23.4646-63.9656 23.4733-63.9853 23.482C-64.0049 23.4906-64.0249 23.4992-64.0449 23.5077C-64.0649 23.5162-64.0852 23.5245-64.1056 23.5328C-64.1261 23.5411-64.1467 23.5493-64.1676 23.5573C-64.1884 23.5654-64.2094 23.5734-64.2306 23.5813C-64.2519 23.5891-64.2733 23.5969-64.295 23.6046C-64.3166 23.6123-64.3384 23.6199-64.3605 23.6274C-64.3826 23.635-64.4048 23.6424-64.4273 23.6497C-64.4497 23.657-64.4724 23.6642-64.4953 23.6714C-64.5182 23.6785-64.5413 23.6856-64.5646 23.6925C-64.5879 23.6995-64.6114 23.7064-64.6352 23.7132C-64.6589 23.72-64.6828 23.7267-64.707 23.7335C-64.7312 23.7401-64.7555 23.7467-64.7802 23.7532C-64.8048 23.7596-64.8296 23.7661-64.8546 23.7724C-64.8797 23.7787-64.905 23.785-64.9305 23.7912C-64.956 23.7974-64.9816 23.8035-65.0076 23.8096C-65.0335 23.8157-65.0597 23.8216-65.0861 23.8275C-65.1125 23.8334-65.1392 23.8392-65.1661 23.845C-65.1929 23.8508-65.22 23.8565-65.2473 23.8622C-65.2747 23.8678-65.3022 23.8733-65.33 23.8789C-65.3579 23.8844-65.3859 23.8899-65.4142 23.8952C-65.4425 23.9007-65.471 23.906-65.4997 23.9113C-65.5285 23.9165-65.5575 23.9217-65.5868 23.9269C-65.616 23.9321-65.6455 23.9372-65.6752 23.9422C-65.7049 23.9472-65.735 23.9523-65.7652 23.9572C-65.7954 23.9622-65.8259 23.9671-65.8566 23.9719C-65.8873 23.9768-65.9183 23.9816-65.9495 23.9864C-65.9808 23.9911-66.0123 23.9958-66.044 24.0005C-66.0758 24.0052-66.1078 24.0098-66.1401 24.0143C-66.1723 24.019-66.2049 24.0234-66.2376 24.028C-66.2704 24.0324-66.3035 24.037-66.3367 24.0414C-66.3701 24.0458-66.4036 24.0501-66.4375 24.0545C-66.4713 24.0588-66.5054 24.0631-66.5398 24.0674C-66.5741 24.0717-66.6087 24.0759-66.6437 24.0802C-66.6786 24.0844-66.7138 24.0886-66.7492 24.0927C-66.7846 24.0969-66.8204 24.101-66.8564 24.1051C-66.8924 24.1092-66.9287 24.1133-66.9652 24.1173C-67.0018 24.1214-67.0386 24.1254-67.0757 24.1294C-67.1129 24.1334-67.1502 24.1374-67.1879 24.1413C-67.2255 24.1453-67.2635 24.1492-67.3017 24.1532C-67.34 24.1571-67.3785 24.161-67.4173 24.1649C-67.4561 24.1687-67.4952 24.1727-67.5346 24.1765C-67.574 24.1803-67.6137 24.1842-67.6536 24.188C-67.6936 24.1919-67.7339 24.1957-67.7744 24.1995C-67.8149 24.2034-67.8558 24.2072-67.8969 24.2109C-67.9381 24.2148-67.9795 24.2185-68.0213 24.2223C-68.063 24.2262-68.105 24.2299-68.1474 24.2337C-68.1897 24.2375-68.2324 24.2412-68.2753 24.245C-68.2322 24.2508-68.1894 24.2565-68.1468 24.2623C-68.1043 24.268-68.0621 24.2737-68.0202 24.2794C-67.9783 24.2851-67.9366 24.2908-67.8953 24.2965C-67.854 24.3022-67.813 24.3078-67.7722 24.3135C-67.7315 24.3192-67.6911 24.3249-67.6509 24.3305C-67.6107 24.3362-67.5709 24.3418-67.5313 24.3475C-67.4918 24.3532-67.4525 24.3588-67.4135 24.3646C-67.3745 24.3702-67.3358 24.3759-67.2974 24.3816C-67.259 24.3872-67.2209 24.3929-67.183 24.3986C-67.1452 24.4043-67.1076 24.41-67.0703 24.4157C-67.0331 24.4214-66.996 24.4271-66.9593 24.4328C-66.9225 24.4386-66.8861 24.4443-66.8499 24.4501C-66.8137 24.4558-66.7778 24.4616-66.7421 24.4674C-66.7066 24.4731-66.6712 24.479-66.6361 24.4848C-66.6009 24.4905-66.5662 24.4964-66.5316 24.5022C-66.497 24.5081-66.4627 24.514-66.4287 24.52C-66.3947 24.5258-66.3609 24.5317-66.3274 24.5377C-66.2939 24.5436-66.2607 24.5496-66.2277 24.5556C-66.1947 24.5616-66.162 24.5676-66.1295 24.5737C-66.0971 24.5797-66.0649 24.5859-66.0329 24.592C-66.001 24.5981-65.9693 24.6043-65.9378 24.6104C-65.9064 24.6166-65.8752 24.6228-65.8443 24.6291C-65.8133 24.6354-65.7826 24.6416-65.7521 24.648C-65.7217 24.6544-65.6915 24.6607-65.6615 24.6671C-65.6316 24.6736-65.6018 24.68-65.5724 24.6865C-65.543 24.693-65.5137 24.6996-65.4847 24.7062C-65.4558 24.7128-65.4271 24.7194-65.3985 24.7261C-65.37 24.7328-65.3417 24.7396-65.3137 24.7464C-65.2857 24.7532-65.2578 24.76-65.2303 24.7669C-65.2027 24.7738-65.1754 24.7807-65.1483 24.7878C-65.1212 24.7948-65.0943 24.8018-65.0676 24.809C-65.041 24.8161-65.0146 24.8233-64.9884 24.8305C-64.9622 24.8378-64.9362 24.8451-64.9105 24.8524C-64.8847 24.8598-64.8592 24.8672-64.8339 24.8747C-64.8086 24.8822-64.7835 24.8898-64.7586 24.8973C-64.7338 24.905-64.7091 24.9127-64.6847 24.9205C-64.6602 24.9282-64.636 24.9361-64.612 24.944C-64.588 24.9519-64.5642 24.9599-64.5406 24.9679C-64.517 24.9759-64.4936 24.9841-64.4704 24.9923C-64.4473 25.0005-64.4243 25.0088-64.4016 25.0171C-64.3788 25.0255-64.3562 25.034-64.3339 25.0425C-64.3115 25.051-64.2894 25.0596-64.2675 25.0683C-64.2455 25.0769-64.2237 25.0857-64.2022 25.0946C-64.1806 25.1035-64.1593 25.1124-64.1381 25.1215C-64.117 25.1304-64.096 25.1396-64.0752 25.1488C-64.0545 25.158-64.0339 25.1673-64.0135 25.1768C-63.9931 25.1861-63.9728 25.1956-63.9529 25.2052C-63.9329 25.2148-63.9131 25.2245-63.8934 25.2343C-63.8738 25.244-63.8543 25.2539-63.8351 25.2639C-63.8158 25.2739-63.7967 25.2839-63.7778 25.2941C-63.7589 25.3043-63.7402 25.3146-63.7216 25.325C-63.7031 25.3353-63.6847 25.3459-63.6665 25.3565C-63.6483 25.3671-63.6303 25.3778-63.6124 25.3886C-63.5946 25.3994-63.5769 25.4104-63.5594 25.4214C-63.5419 25.4324-63.5246 25.4436-63.5074 25.4549C-63.4902 25.4661-63.4732 25.4775-63.4564 25.489C-63.4395 25.5005-63.4229 25.5121-63.4064 25.5238C-63.3899 25.5356-63.3736 25.5474-63.3574 25.5594C-63.3412 25.5714-63.3252 25.5834-63.3093 25.5957C-63.2934 25.6079-63.2777 25.6202-63.2622 25.6327C-63.2466 25.6452-63.2312 25.6577-63.216 25.6705C-63.2007 25.6832-63.1857 25.696-63.1707 25.709C-63.1558 25.722-63.141 25.7351-63.1264 25.7484C-63.1117 25.7616-63.0972 25.775-63.0829 25.7885C-63.0685 25.802-63.0544 25.8156-63.0403 25.8294C-63.0263 25.8432-63.0123 25.8571-62.9985 25.8712C-62.9848 25.8852-62.9711 25.8995-62.9577 25.9138C-62.9442 25.9282-62.9308 25.9426-62.9176 25.9573C-62.9043 25.9719-62.8912 25.9867-62.8783 26.0016C-62.8654 26.0165-62.8525 26.0316-62.8399 26.0468C-62.8272 26.0621-62.8146 26.0774-62.8022 26.0929C-62.7898 26.1084-62.7775 26.1241-62.7653 26.1399C-62.7531 26.1558-62.7411 26.1717-62.7292 26.1879C-62.7173 26.204-62.7054 26.2203-62.6937 26.2367C-62.6821 26.2532-62.6705 26.2698-62.6591 26.2866C-62.6476 26.3034-62.6363 26.3203-62.6251 26.3374C-62.6139 26.3544-62.6028 26.3717-62.5918 26.3892C-62.5808 26.4065-62.57 26.4242-62.5592 26.4419C-62.5485 26.4597-62.5378 26.4776-62.5273 26.4957C-62.5167 26.5138-62.5064 26.5321-62.4961 26.5505C-62.4857 26.5689-62.4755 26.5875-62.4654 26.6063C-62.4553 26.6251-62.4453 26.6441-62.4354 26.6632C-62.4255 26.6823-62.4157 26.7016-62.406 26.7211C-62.3963 26.7406-62.3866 26.7603-62.3772 26.7802C-62.3676 26.8-62.3582 26.82-62.3489 26.8403C-62.3396 26.8605-62.3304 26.8809-62.3212 26.9015C-62.3121 26.9221-62.303 26.9429-62.2941 26.9638C-62.2851 26.9848-62.2762 27.0059-62.2675 27.0273C-62.2587 27.0486-62.25 27.0702-62.2413 27.0919C-62.2327 27.1136-62.2242 27.1355-62.2157 27.1577C-62.2073 27.1798-62.199 27.2021-62.1907 27.2246C-62.1824 27.2472-62.1742 27.2699-62.166 27.2928C-62.1579 27.3157-62.1499 27.3388-62.1419 27.3621C-62.1339 27.3854-62.126 27.4089-62.1182 27.4327C-62.1103 27.4564-62.1026 27.4804-62.0949 27.5045C-62.0871 27.5286-62.0795 27.553-62.0719 27.5775C-62.0644 27.602-62.0569 27.6268-62.0495 27.6518C-62.0421 27.6768-62.0347 27.702-62.0274 27.7274C-62.0201 27.7528-62.0129 27.7784-62.0056 27.8043C-61.9984 27.8301-61.9913 27.8561-61.9843 27.8824C-61.9772 27.9087-61.9702 27.9352-61.9632 27.9619C-61.9562 27.9886-61.9493 28.0156-61.9425 28.0427C-61.9356 28.0698-61.9288 28.0972-61.9221 28.1248C-61.9153 28.1524-61.9087 28.1802-61.902 28.2083C-61.8954 28.2364-61.8887 28.2647-61.8822 28.2932C-61.8756 28.3217-61.869 28.3505-61.8626 28.3795C-61.8561 28.4085-61.8497 28.4377-61.8432 28.4671C-61.8368 28.4966-61.8305 28.5263-61.8241 28.5562C-61.8178 28.5862-61.8116 28.6163-61.8053 28.6467C-61.799 28.6771-61.7928 28.7078-61.7867 28.7387C-61.7804 28.7696-61.7743 28.8007-61.7682 28.8321C-61.7621 28.8635-61.7559 28.8951-61.7499 28.927C-61.7438 28.9588-61.7378 28.9909-61.7317 29.0233C-61.7257 29.0557-61.7197 29.0883-61.7137 29.1211C-61.7078 29.1541-61.7018 29.1871-61.6958 29.2205C-61.6899 29.2539-61.684 29.2875-61.6781 29.3214C-61.6722 29.3553-61.6663 29.3894-61.6605 29.4238C-61.6546 29.4582-61.6488 29.4929-61.6429 29.5278C-61.6371 29.5628-61.6312 29.5979-61.6254 29.6334C-61.6196 29.6688-61.6138 29.7046-61.608 29.7405C-61.6022 29.7765-61.5964 29.8128-61.5906 29.8493C-61.5848 29.8858-61.579 29.9225-61.5733 29.9596C-61.5675 29.9966-61.5617 30.034-61.5559 30.0715C-61.5502 30.1091-61.5444 30.147-61.5386 30.1851C-61.5328 30.2233-61.527 30.2617-61.5212 30.3004C-61.5154 30.3391-61.5096 30.378-61.5038 30.4173C-61.498 30.4565-61.4922 30.4961-61.4863 30.5359C-61.4805 30.5757-61.4746 30.6158-61.4688 30.6562C-61.4645 30.616-61.4602 30.5762-61.4558 30.5366C-61.4515 30.497-61.4472 30.4577-61.4428 30.4187C-61.4385 30.3796-61.4341 30.3409-61.4298 30.3025C-61.4254 30.264-61.4211 30.2258-61.4167 30.1879C-61.4124 30.15-61.408 30.1124-61.4036 30.075C-61.3993 30.0376-61.3949 30.0006-61.3905 29.9638C-61.3861 29.9269-61.3817 29.8904-61.3773 29.8541C-61.3728 29.8178-61.3684 29.7818-61.3639 29.7461C-61.3595 29.7103-61.355 29.6749-61.3505 29.6397C-61.346 29.6044-61.3415 29.5695-61.337 29.5348C-61.3325 29.5001-61.328 29.4657-61.3233 29.4315C-61.3187 29.3974-61.3142 29.3634-61.3095 29.3298C-61.3049 29.2961-61.3002 29.2628-61.2955 29.2297C-61.2909 29.1966-61.2861 29.1637-61.2814 29.131C-61.2767 29.0984-61.2719 29.066-61.2671 29.0339C-61.2623 29.0018-61.2574 28.9699-61.2525 28.9383C-61.2477 28.9066-61.2428 28.8753-61.2378 28.8442C-61.2328 28.8131-61.2278 28.7822-61.2228 28.7516C-61.2178 28.7209-61.2127 28.6906-61.2076 28.6604C-61.2025 28.6303-61.1974 28.6003-61.1921 28.5707C-61.1869 28.541-61.1816 28.5116-61.1764 28.4824C-61.171 28.4532-61.1657 28.4242-61.1603 28.3955C-61.1549 28.3668-61.1495 28.3383-61.1439 28.3101C-61.1385 28.2818-61.1329 28.2538-61.1273 28.226C-61.1217 28.1983-61.1161 28.1707-61.1103 28.1434C-61.1046 28.1161-61.0988 28.0889-61.093 28.0621C-61.0872 28.0352-61.0813 28.0086-61.0753 27.9822C-61.0693 27.9557-61.0633 27.9296-61.0572 27.9036C-61.0511 27.8777-61.045 27.8519-61.0388 27.8264C-61.0325 27.8008-61.0263 27.7755-61.0199 27.7504C-61.0135 27.7253-61.0071 27.7004-61.0006 27.6758C-60.9941 27.6511-60.9875 27.6267-60.9809 27.6024C-60.9742 27.5782-60.9676 27.5542-60.9607 27.5304C-60.954 27.5066-60.9471 27.483-60.9401 27.4596C-60.9331 27.4362-60.9261 27.4131-60.919 27.3901C-60.9119 27.3671-60.9047 27.3443-60.8975 27.3218C-60.8902 27.2992-60.8828 27.2769-60.8754 27.2547C-60.8679 27.2325-60.8604 27.2106-60.8527 27.1888C-60.8451 27.1671-60.8374 27.1456-60.8296 27.1242C-60.8218 27.1029-60.8139 27.0817-60.806 27.0607C-60.7979 27.0398-60.7899 27.019-60.7817 26.9984C-60.7735 26.9778-60.7653 26.9575-60.7569 26.9373C-60.7485 26.9171-60.74 26.8971-60.7314 26.8773C-60.7229 26.8575-60.7142 26.8379-60.7055 26.8184C-60.6967 26.799-60.6878 26.7797-60.6788 26.7606C-60.6698 26.7416-60.6608 26.7227-60.6515 26.704C-60.6424 26.6853-60.633 26.6668-60.6237 26.6485C-60.6143 26.6301-60.6047 26.612-60.5951 26.594C-60.5854 26.576-60.5757 26.5582-60.5658 26.5406C-60.556 26.523-60.546 26.5055-60.5359 26.4882C-60.5258 26.4709-60.5156 26.4538-60.5053 26.4369C-60.4949 26.4199-60.4845 26.4032-60.4739 26.3866C-60.4633 26.37-60.4526 26.3536-60.4418 26.3373C-60.431 26.3211-60.4201 26.305-60.409 26.2891C-60.3979 26.2731-60.3867 26.2574-60.3753 26.2417C-60.3641 26.2262-60.3526 26.2107-60.341 26.1954C-60.3294 26.1801-60.3177 26.165-60.3058 26.1501C-60.294 26.1351-60.282 26.1203-60.2699 26.1057C-60.2577 26.091-60.2454 26.0765-60.2331 26.0621C-60.2207 26.0478-60.2081 26.0336-60.1954 26.0196C-60.1828 26.0055-60.17 25.9917-60.157 25.978C-60.144 25.9642-60.1309 25.9506-60.1177 25.9372C-60.1044 25.9237-60.091 25.9104-60.0775 25.8973C-60.0639 25.8841-60.0502 25.8711-60.0364 25.8582C-60.0225 25.8454-60.0085 25.8326-59.9944 25.8201C-59.9802 25.8075-59.9659 25.795-59.9514 25.7827C-59.937 25.7704-59.9223 25.7582-59.9075 25.7462C-59.8928 25.7342-59.8779 25.7223-59.8627 25.7105C-59.8477 25.6988-59.8324 25.6871-59.8171 25.6756C-59.8016 25.6642-59.786 25.6527-59.7702 25.6415C-59.7545 25.6302-59.7386 25.6192-59.7226 25.6082C-59.7065 25.5972-59.6902 25.5863-59.6738 25.5756C-59.6574 25.5649-59.6408 25.5542-59.624 25.5438C-59.6073 25.5333-59.5904 25.5229-59.5733 25.5126C-59.5561 25.5024-59.5389 25.4923-59.5214 25.4822C-59.5039 25.4722-59.4863 25.4624-59.4685 25.4526C-59.4507 25.4428-59.4327 25.4331-59.4145 25.4236C-59.3963 25.414-59.378 25.4046-59.3594 25.3953C-59.3409 25.3859-59.3222 25.3767-59.3033 25.3676C-59.2843 25.3585-59.2653 25.3495-59.246 25.3407C-59.2267 25.3318-59.2072 25.3229-59.1876 25.3143C-59.1679 25.3056-59.148 25.2971-59.128 25.2886C-59.1079 25.2801-59.0877 25.2717-59.0672 25.2635C-59.0468 25.2552-59.0262 25.247-59.0053 25.2389C-58.9844 25.2309-58.9634 25.2229-58.9422 25.215C-58.921 25.2071-58.8995 25.1994-58.8779 25.1916C-58.8563 25.1839-58.8344 25.1764-58.8123 25.1689C-58.7903 25.1613-58.7681 25.154-58.7456 25.1466C-58.7231 25.1393-58.7004 25.1321-58.6776 25.1249C-58.6547 25.1177-58.6316 25.1107-58.6082 25.1037C-58.5849 25.0967-58.5614 25.0898-58.5377 25.083C-58.5139 25.0762-58.4659 25.0628-58.4659 25.0628C-58.4659 25.0628-58.4173 25.0496-58.3927 25.0431C-58.368 25.0366-58.3432 25.0302-58.3182 25.0239C-58.2931 25.0175-58.2679 25.0113-58.2424 25.0051C-58.2169 24.9988-58.1912 24.9927-58.1652 24.9867C-58.1393 24.9806-58.1131 24.9747-58.0867 24.9687C-58.0603 24.9629-58.0337 24.957-58.0068 24.9512C-57.98 24.9455-57.9529 24.9397-57.9255 24.9341C-57.8982 24.9285-57.8706 24.9229-57.8428 24.9173C-57.815 24.9119-57.787 24.9064-57.7587 24.901C-57.7304 24.8956-57.7019 24.8902-57.6731 24.885C-57.6443 24.8797-57.6153 24.8745-57.5861 24.8693C-57.5569 24.8642-57.5274 24.8591-57.4976 24.854C-57.4679 24.849-57.4379 24.8439-57.4076 24.839C-57.3774 24.834-57.347 24.8291-57.3162 24.8243C-57.2855 24.8194-57.2545 24.8146-57.2232 24.8099C-57.192 24.8051-57.1605 24.8004-57.1287 24.7957C-57.097 24.7911-57.065 24.7865-57.0327 24.7819C-57.0004 24.7773-56.9679 24.7728-56.9352 24.7683C-56.9024 24.7638-56.8693 24.7593-56.836 24.7549C-56.8027 24.7505-56.7692 24.7461-56.7353 24.7418C-56.7015 24.7374-56.6674 24.7331-56.633 24.7288C-56.5986 24.7246-56.564 24.7203-56.5291 24.7161C-56.4942 24.7118-56.459 24.7077-56.4236 24.7036C-56.3882 24.6994-56.3524 24.6952-56.3164 24.6911C-56.2804 24.6871-56.2441 24.683-56.2076 24.6789C-56.1711 24.6749-56.1342 24.6709-56.0971 24.6669C-56.06 24.6629-56.0226 24.6589-55.9849 24.655C-55.9473 24.651-55.9093 24.6471-55.8711 24.6431C-55.8328 24.6392-55.7943 24.6353-55.7555 24.6314C-55.7167 24.6276-55.6776 24.6236-55.6383 24.6199C-55.5988 24.616-55.5592 24.6121-55.5192 24.6083C-55.4793 24.6045-55.439 24.6006-55.3984 24.5969C-55.3579 24.593-55.317 24.5892-55.2759 24.5854C-55.2347 24.5816-55.1933 24.5778-55.1516 24.574C-55.1098 24.5702-55.0678 24.5664-55.0254 24.5627C-54.983 24.5587-54.9404 24.555-54.8975 24.5512Z" fill="#8a7f84" fill-rule="nonzero" opacity="1" stroke="none"/>
<path d="M411.401 24.5512C411.358 24.5454 411.315 24.5397 411.272 24.534C411.23 24.5282 411.188 24.5225 411.146 24.5169C411.104 24.5111 411.062 24.5055 411.021 24.4997C410.979 24.4941 410.938 24.4884 410.898 24.4827C410.857 24.477 410.817 24.4713 410.776 24.4657C410.736 24.46 410.696 24.4544 410.657 24.4487C410.617 24.4431 410.578 24.4374 410.539 24.4317C410.5 24.426 410.461 24.4204 410.423 24.4147C410.384 24.409 410.346 24.4033 410.308 24.3977C410.271 24.392 410.233 24.3863 410.196 24.3806C410.158 24.3749 410.121 24.3692 410.085 24.3634C410.048 24.3577 410.012 24.3519 409.975 24.3462C409.939 24.3404 409.903 24.3347 409.868 24.3289C409.832 24.3231 409.797 24.3173 409.761 24.3115C409.726 24.3057 409.692 24.2999 409.657 24.294C409.622 24.2881 409.588 24.2823 409.554 24.2764C409.52 24.2704 409.486 24.2645 409.453 24.2586C409.419 24.2527 409.386 24.2467 409.353 24.2407C409.32 24.2346 409.287 24.2286 409.255 24.2226C409.223 24.2165 409.19 24.2104 409.158 24.2043C409.126 24.1982 409.095 24.1921 409.063 24.1858C409.032 24.1796 409.001 24.1734 408.97 24.1672C408.939 24.1609 408.908 24.1546 408.878 24.1482C408.847 24.1419 408.817 24.1355 408.787 24.1291C408.757 24.1227 408.727 24.1163 408.698 24.1097C408.668 24.1033 408.639 24.0967 408.61 24.0901C408.581 24.0835 408.552 24.0768 408.524 24.0702C408.495 24.0635 408.467 24.0567 408.439 24.0499C408.411 24.0431 408.383 24.0363 408.356 24.0294C408.328 24.0225 408.301 24.0155 408.274 24.0085C408.247 24.0015 408.22 23.9945 408.193 23.9873C408.167 23.9802 408.14 23.973 408.114 23.9658C408.088 23.9586 408.062 23.9513 408.036 23.9439C408.01 23.9365 407.985 23.9291 407.959 23.9216C407.934 23.9141 407.909 23.9065 407.884 23.8989C407.859 23.8913 407.835 23.8836 407.81 23.8758C407.786 23.868 407.761 23.8602 407.737 23.8523C407.713 23.8444 407.69 23.8365 407.666 23.8284C407.643 23.8203 407.619 23.8122 407.596 23.804C407.573 23.7958 407.55 23.7875 407.527 23.7791C407.504 23.7708 407.482 23.7624 407.459 23.7538C407.437 23.7454 407.415 23.7367 407.393 23.728C407.371 23.7193 407.349 23.7105 407.328 23.7017C407.306 23.6928 407.285 23.6839 407.264 23.6749C407.242 23.6658 407.222 23.6567 407.201 23.6475C407.18 23.6383 407.159 23.629 407.139 23.6196C407.119 23.6102 407.098 23.6007 407.078 23.5911C407.058 23.5815 407.039 23.5718 407.019 23.562C406.999 23.5523 406.98 23.5424 406.961 23.5324C406.941 23.5224 406.922 23.5124 406.903 23.5022C406.884 23.492 406.866 23.4817 406.847 23.4713C406.829 23.4609 406.81 23.4505 406.792 23.4398C406.774 23.4293 406.756 23.4185 406.738 23.4077C406.72 23.3969 406.702 23.386 406.685 23.3749C406.667 23.3639 406.65 23.3527 406.633 23.3415C406.616 23.3302 406.599 23.3189 406.582 23.3073C406.565 23.2958 406.548 23.2842 406.532 23.2725C406.515 23.2607 406.499 23.2489 406.483 23.2369C406.467 23.2249 406.451 23.2129 406.435 23.2007C406.419 23.1884 406.403 23.1761 406.388 23.1636C406.372 23.1512 406.357 23.1385 406.341 23.1259C406.326 23.1131 406.311 23.1002 406.296 23.0873C406.281 23.0744 406.267 23.0612 406.252 23.048C406.237 23.0347 406.223 23.0213 406.208 23.0078C406.194 22.9943 406.18 22.9807 406.166 22.9669C406.152 22.9531 406.138 22.9392 406.124 22.9251C406.11 22.911 406.097 22.8969 406.083 22.8825C406.07 22.8682 406.056 22.8536 406.043 22.8391C406.03 22.8244 406.017 22.8096 406.004 22.7948C405.991 22.7798 405.978 22.7647 405.965 22.7495C405.953 22.7343 405.94 22.7189 405.928 22.7034C405.915 22.6879 405.903 22.6722 405.891 22.6564C405.879 22.6406 405.867 22.6246 405.855 22.6085C405.843 22.5923 405.831 22.576 405.819 22.5596C405.808 22.5432 405.796 22.5265 405.785 22.5098C405.773 22.493 405.762 22.4761 405.751 22.4589C405.739 22.4418 405.728 22.4246 405.717 22.4072C405.706 22.3898 405.696 22.3722 405.685 22.3544C405.674 22.3367 405.663 22.3187 405.653 22.3006C405.642 22.2825 405.632 22.2643 405.622 22.2458C405.611 22.2274 405.601 22.2088 405.591 22.19C405.581 22.1713 405.571 22.1522 405.561 22.1332C405.551 22.114 405.541 22.0947 405.531 22.0752C405.522 22.0557 405.512 22.036 405.503 22.0162C405.493 21.9963 405.484 21.9763 405.474 21.9561C405.465 21.9358 405.456 21.9154 405.447 21.8948C405.438 21.8742 405.429 21.8534 405.42 21.8325C405.411 21.8116 405.402 21.7904 405.393 21.769C405.384 21.7477 405.375 21.7262 405.367 21.7044C405.358 21.6827 405.35 21.6608 405.341 21.6386C405.333 21.6165 405.325 21.5942 405.316 21.5717C405.308 21.5492 405.3 21.5265 405.292 21.5036C405.283 21.4806 405.275 21.4575 405.267 21.4342C405.259 21.4109 405.252 21.3874 405.244 21.3637C405.236 21.3399 405.228 21.316 405.22 21.2919C405.213 21.2677 405.205 21.2434 405.198 21.2188C405.19 21.1942 405.182 21.1695 405.175 21.1445C405.168 21.1196 405.16 21.0944 405.153 21.069C405.146 21.0436 405.138 21.018 405.131 20.9921C405.124 20.9662 405.117 20.9402 405.11 20.9139C405.103 20.8877 405.096 20.8611 405.089 20.8345C405.082 20.8077 405.075 20.7808 405.068 20.7537C405.061 20.7265 405.054 20.6991 405.048 20.6715C405.041 20.6439 405.034 20.6161 405.027 20.588C405.021 20.5599 405.014 20.5316 405.008 20.5031C405.001 20.4746 404.995 20.4459 404.988 20.4168C404.982 20.3879 404.975 20.3586 404.969 20.3292C404.962 20.2998 404.956 20.27 404.95 20.2401C404.943 20.2102 404.937 20.18 404.931 20.1496C404.925 20.1192 404.918 20.0885 404.912 20.0576C404.906 20.0267 404.9 19.9956 404.894 19.9642C404.888 19.9329 404.881 19.9013 404.875 19.8694C404.869 19.8375 404.863 19.8054 404.857 19.773C404.851 19.7407 404.845 19.708 404.839 19.6752C404.833 19.6423 404.827 19.6092 404.821 19.5758C404.815 19.5424 404.809 19.5088 404.804 19.4749C404.798 19.441 404.792 19.4068 404.786 19.3725C404.78 19.3381 404.774 19.3034 404.768 19.2685C404.763 19.2335 404.757 19.1984 404.751 19.1629C404.745 19.1275 404.739 19.0918 404.733 19.0558C404.728 19.0198 404.722 18.9836 404.716 18.947C404.71 18.9105 404.705 18.8738 404.699 18.8367C404.693 18.7996 404.687 18.7624 404.681 18.7248C404.676 18.6872 404.67 18.6493 404.664 18.6112C404.658 18.573 404.652 18.5346 404.647 18.4959C404.641 18.4572 404.635 18.4183 404.629 18.3791C404.623 18.3397 404.618 18.3002 404.612 18.2604C404.606 18.2206 404.6 18.1805 404.594 18.1401C404.59 18.1803 404.586 18.2201 404.581 18.2597C404.577 18.2993 404.573 18.3386 404.568 18.3776C404.564 18.4167 404.56 18.4554 404.555 18.4938C404.551 18.5323 404.547 18.5705 404.542 18.6084C404.538 18.6462 404.533 18.6839 404.529 18.7213C404.525 18.7586 404.52 18.7957 404.516 18.8326C404.512 18.8694 404.507 18.9059 404.503 18.9422C404.498 18.9785 404.494 19.0145 404.489 19.0502C404.485 19.0859 404.481 19.1214 404.476 19.1566C404.472 19.1919 404.467 19.2267 404.462 19.2615C404.458 19.2962 404.453 19.3305 404.449 19.3647C404.444 19.3989 404.44 19.4328 404.435 19.4664C404.43 19.5001 404.426 19.5335 404.421 19.5666C404.416 19.5997 404.412 19.6326 404.407 19.6652C404.402 19.6978 404.397 19.7302 404.393 19.7623C404.388 19.7945 404.383 19.8263 404.378 19.8579C404.373 19.8896 404.368 19.9209 404.363 19.9521C404.358 19.9832 404.353 20.014 404.348 20.0447C404.343 20.0753 404.338 20.1057 404.333 20.1359C404.328 20.166 404.323 20.1959 404.318 20.2256C404.312 20.2553 404.307 20.2847 404.302 20.3139C404.297 20.3431 404.291 20.372 404.286 20.4007C404.28 20.4294 404.275 20.4579 404.269 20.4862C404.264 20.5144 404.258 20.5424 404.253 20.5703C404.247 20.598 404.242 20.6256 404.236 20.6529C404.23 20.6802 404.224 20.7073 404.218 20.7342C404.213 20.761 404.207 20.7877 404.201 20.8141C404.195 20.8405 404.189 20.8667 404.183 20.8927C404.177 20.9187 404.17 20.9444 404.164 20.9699C404.158 20.9955 404.152 21.0208 404.145 21.0459C404.139 21.071 404.133 21.0958 404.126 21.1205C404.12 21.1451 404.113 21.1696 404.106 21.1938C404.1 21.218 404.093 21.242 404.086 21.2659C404.079 21.2897 404.073 21.3133 404.066 21.3367C404.059 21.36 404.052 21.3832 404.044 21.4062C404.037 21.4292 404.03 21.4519 404.023 21.4745C404.016 21.497 404.008 21.5194 404.001 21.5416C403.993 21.5637 403.986 21.5856 403.978 21.6074C403.971 21.6292 403.963 21.6507 403.955 21.6721C403.947 21.6934 403.939 21.7146 403.931 21.7356C403.923 21.7565 403.915 21.7772 403.907 21.7979C403.899 21.8184 403.891 21.8388 403.882 21.859C403.874 21.8792 403.865 21.8992 403.857 21.919C403.848 21.9388 403.84 21.9584 403.831 21.9779C403.822 21.9973 403.813 22.0165 403.804 22.0356C403.795 22.0547 403.786 22.0736 403.777 22.0923C403.768 22.111 403.758 22.1295 403.749 22.1479C403.74 22.1662 403.73 22.1843 403.721 22.2023C403.711 22.2203 403.701 22.2381 403.691 22.2557C403.681 22.2734 403.671 22.2908 403.661 22.3081C403.651 22.3253 403.641 22.3425 403.631 22.3594C403.62 22.3763 403.61 22.3931 403.599 22.4097C403.589 22.4263 403.578 22.4427 403.567 22.4589C403.556 22.4753 403.545 22.4913 403.534 22.5073C403.523 22.5232 403.512 22.5389 403.501 22.5546C403.489 22.5702 403.478 22.5856 403.466 22.6009C403.455 22.6162 403.443 22.6313 403.431 22.6463C403.419 22.6612 403.407 22.676 403.395 22.6907C403.383 22.7053 403.371 22.7198 403.358 22.7342C403.346 22.7485 403.334 22.7627 403.321 22.7767C403.308 22.7908 403.295 22.8047 403.282 22.8184C403.269 22.8321 403.256 22.8457 403.243 22.8592C403.23 22.8726 403.216 22.8859 403.203 22.899C403.189 22.9122 403.176 22.9252 403.162 22.9381C403.148 22.9509 403.134 22.9637 403.12 22.9763C403.106 22.9888 403.091 23.0013 403.077 23.0136C403.062 23.0259 403.048 23.0381 403.033 23.0501C403.018 23.0621 403.003 23.074 402.988 23.0858C402.973 23.0976 402.958 23.1092 402.942 23.1207C402.927 23.1322 402.911 23.1436 402.896 23.1548C402.88 23.1661 402.864 23.1772 402.848 23.1882C402.832 23.1991 402.816 23.21 402.799 23.2207C402.783 23.2315 402.766 23.2421 402.749 23.2526C402.733 23.263 402.716 23.2734 402.699 23.2837C402.682 23.2939 402.664 23.304 402.647 23.314C402.629 23.3241 402.612 23.334 402.594 23.3437C402.576 23.3535 402.558 23.3632 402.54 23.3727C402.522 23.3823 402.503 23.3917 402.485 23.401C402.466 23.4104 402.448 23.4196 402.429 23.4286C402.41 23.4378 402.391 23.4467 402.371 23.4556C402.352 23.4646 402.333 23.4733 402.313 23.482C402.293 23.4906 402.273 23.4992 402.253 23.5077C402.233 23.5162 402.213 23.5245 402.193 23.5328C402.172 23.5411 402.152 23.5493 402.131 23.5573C402.11 23.5654 402.089 23.5734 402.068 23.5813C402.046 23.5891 402.025 23.5969 402.003 23.6046C401.982 23.6123 401.96 23.6199 401.938 23.6274C401.916 23.635 401.893 23.6424 401.871 23.6497C401.849 23.657 401.826 23.6642 401.803 23.6714C401.78 23.6785 401.757 23.6856 401.734 23.6925C401.71 23.6995 401.687 23.7064 401.663 23.7132C401.639 23.72 401.615 23.7267 401.591 23.7335C401.567 23.7401 401.543 23.7467 401.518 23.7532C401.494 23.7596 401.469 23.7661 401.444 23.7724C401.419 23.7787 401.393 23.785 401.368 23.7912C401.342 23.7974 401.317 23.8035 401.291 23.8096C401.265 23.8157 401.239 23.8216 401.212 23.8275C401.186 23.8334 401.159 23.8392 401.132 23.845C401.105 23.8508 401.078 23.8565 401.051 23.8622C401.024 23.8678 400.996 23.8733 400.968 23.8789C400.94 23.8844 400.912 23.8899 400.884 23.8952C400.856 23.9007 400.827 23.906 400.799 23.9113C400.77 23.9165 400.741 23.9217 400.712 23.9269C400.682 23.9321 400.653 23.9372 400.623 23.9422C400.593 23.9472 400.563 23.9523 400.533 23.9572C400.503 23.9622 400.472 23.9671 400.442 23.9719C400.411 23.9768 400.38 23.9816 400.349 23.9864C400.317 23.9911 400.286 23.9958 400.254 24.0005C400.222 24.0052 400.19 24.0098 400.158 24.0143C400.126 24.019 400.093 24.0234 400.061 24.028C400.028 24.0324 399.995 24.037 399.962 24.0414C399.928 24.0458 399.895 24.0501 399.861 24.0545C399.827 24.0588 399.793 24.0631 399.758 24.0674C399.724 24.0717 399.69 24.0759 399.655 24.0802C399.62 24.0844 399.585 24.0886 399.549 24.0927C399.514 24.0969 399.478 24.101 399.442 24.1051C399.406 24.1092 399.37 24.1133 399.333 24.1173C399.297 24.1214 399.26 24.1254 399.223 24.1294C399.185 24.1334 399.148 24.1374 399.11 24.1413C399.073 24.1453 399.035 24.1492 398.997 24.1532C398.958 24.1571 398.92 24.161 398.881 24.1649C398.842 24.1687 398.803 24.1727 398.764 24.1765C398.724 24.1803 398.685 24.1842 398.645 24.188C398.605 24.1919 398.564 24.1957 398.524 24.1995C398.483 24.2034 398.442 24.2072 398.401 24.2109C398.36 24.2148 398.319 24.2185 398.277 24.2223C398.235 24.2262 398.193 24.2299 398.151 24.2337C398.109 24.2375 398.066 24.2412 398.023 24.245C398.066 24.2508 398.109 24.2565 398.151 24.2623C398.194 24.268 398.236 24.2737 398.278 24.2794C398.32 24.2851 398.362 24.2908 398.403 24.2965C398.444 24.3022 398.485 24.3078 398.526 24.3135C398.567 24.3192 398.607 24.3249 398.647 24.3305C398.688 24.3362 398.727 24.3418 398.767 24.3475C398.807 24.3532 398.846 24.3588 398.885 24.3646C398.924 24.3702 398.962 24.3759 399.001 24.3816C399.039 24.3872 399.077 24.3929 399.115 24.3986C399.153 24.4043 399.191 24.41 399.228 24.4157C399.265 24.4214 399.302 24.4271 399.339 24.4328C399.376 24.4386 399.412 24.4443 399.448 24.4501C399.485 24.4558 399.52 24.4616 399.556 24.4674C399.592 24.4731 399.627 24.479 399.662 24.4848C399.697 24.4905 399.732 24.4964 399.767 24.5022C399.801 24.5081 399.836 24.514 399.87 24.52C399.904 24.5258 399.937 24.5317 399.971 24.5377C400.004 24.5436 400.038 24.5496 400.071 24.5556C400.104 24.5616 400.136 24.5676 400.169 24.5737C400.201 24.5797 400.233 24.5859 400.265 24.592C400.297 24.5981 400.329 24.6043 400.36 24.6104C400.392 24.6166 400.423 24.6228 400.454 24.6291C400.485 24.6354 400.516 24.6416 400.546 24.648C400.577 24.6544 400.607 24.6607 400.637 24.6671C400.667 24.6736 400.696 24.68 400.726 24.6865C400.755 24.693 400.785 24.6996 400.814 24.7062C400.842 24.7128 400.871 24.7194 400.9 24.7261C400.928 24.7328 400.957 24.7396 400.985 24.7464C401.013 24.7532 401.04 24.76 401.068 24.7669C401.096 24.7738 401.123 24.7807 401.15 24.7878C401.177 24.7948 401.204 24.8018 401.231 24.809C401.257 24.8161 401.284 24.8233 401.31 24.8305C401.336 24.8378 401.362 24.8451 401.388 24.8524C401.414 24.8598 401.439 24.8672 401.464 24.8747C401.49 24.8822 401.515 24.8898 401.54 24.8973C401.565 24.905 401.589 24.9127 401.614 24.9205C401.638 24.9282 401.662 24.9361 401.686 24.944C401.71 24.9519 401.734 24.9599 401.758 24.9679C401.781 24.9759 401.805 24.9841 401.828 24.9923C401.851 25.0005 401.874 25.0088 401.897 25.0171C401.919 25.0255 401.942 25.034 401.964 25.0425C401.987 25.051 402.009 25.0596 402.031 25.0683C402.053 25.0769 402.075 25.0857 402.096 25.0946C402.118 25.1035 402.139 25.1124 402.16 25.1215C402.181 25.1304 402.202 25.1396 402.223 25.1488C402.244 25.158 402.264 25.1673 402.285 25.1768C402.305 25.1861 402.325 25.1956 402.345 25.2052C402.365 25.2148 402.385 25.2245 402.405 25.2343C402.424 25.244 402.444 25.2539 402.463 25.2639C402.482 25.2739 402.502 25.2839 402.52 25.2941C402.539 25.3043 402.558 25.3146 402.577 25.325C402.595 25.3353 402.614 25.3459 402.632 25.3565C402.65 25.3671 402.668 25.3778 402.686 25.3886C402.704 25.3994 402.721 25.4104 402.739 25.4214C402.756 25.4324 402.774 25.4436 402.791 25.4549C402.808 25.4661 402.825 25.4775 402.842 25.489C402.859 25.5005 402.875 25.5121 402.892 25.5238C402.908 25.5356 402.925 25.5474 402.941 25.5594C402.957 25.5714 402.973 25.5834 402.989 25.5957C403.005 25.6079 403.021 25.6202 403.036 25.6327C403.052 25.6452 403.067 25.6577 403.082 25.6705C403.098 25.6832 403.113 25.696 403.128 25.709C403.142 25.722 403.157 25.7351 403.172 25.7484C403.187 25.7616 403.201 25.775 403.215 25.7885C403.23 25.802 403.244 25.8156 403.258 25.8294C403.272 25.8432 403.286 25.8571 403.3 25.8712C403.313 25.8852 403.327 25.8995 403.341 25.9138C403.354 25.9282 403.367 25.9426 403.381 25.9573C403.394 25.9719 403.407 25.9867 403.42 26.0016C403.433 26.0165 403.446 26.0316 403.458 26.0468C403.471 26.0621 403.484 26.0774 403.496 26.0929C403.508 26.1084 403.521 26.1241 403.533 26.1399C403.545 26.1558 403.557 26.1717 403.569 26.1879C403.581 26.204 403.593 26.2203 403.605 26.2367C403.616 26.2532 403.628 26.2698 403.639 26.2866C403.651 26.3034 403.662 26.3203 403.673 26.3374C403.684 26.3544 403.695 26.3717 403.706 26.3892C403.717 26.4065 403.728 26.4242 403.739 26.4419C403.75 26.4597 403.76 26.4776 403.771 26.4957C403.782 26.5138 403.792 26.5321 403.802 26.5505C403.813 26.5689 403.823 26.5875 403.833 26.6063C403.843 26.6251 403.853 26.6441 403.863 26.6632C403.873 26.6823 403.883 26.7016 403.892 26.7211C403.902 26.7406 403.912 26.7603 403.921 26.7802C403.931 26.8 403.94 26.82 403.949 26.8403C403.959 26.8605 403.968 26.8809 403.977 26.9015C403.986 26.9221 403.995 26.9429 404.004 26.9638C404.013 26.9848 404.022 27.0059 404.031 27.0273C404.04 27.0486 404.048 27.0702 404.057 27.0919C404.066 27.1136 404.074 27.1355 404.083 27.1577C404.091 27.1798 404.099 27.2021 404.108 27.2246C404.116 27.2472 404.124 27.2699 404.132 27.2928C404.14 27.3157 404.148 27.3388 404.156 27.3621C404.164 27.3854 404.172 27.4089 404.18 27.4327C404.188 27.4564 404.196 27.4804 404.203 27.5045C404.211 27.5286 404.219 27.553 404.226 27.5775C404.234 27.602 404.241 27.6268 404.249 27.6518C404.256 27.6768 404.264 27.702 404.271 27.7274C404.278 27.7528 404.285 27.7784 404.293 27.8043C404.3 27.8301 404.307 27.8561 404.314 27.8824C404.321 27.9087 404.328 27.9352 404.335 27.9619C404.342 27.9886 404.349 28.0156 404.356 28.0427C404.363 28.0698 404.369 28.0972 404.376 28.1248C404.383 28.1524 404.39 28.1802 404.396 28.2083C404.403 28.2364 404.41 28.2647 404.416 28.2932C404.423 28.3217 404.429 28.3505 404.436 28.3795C404.442 28.4085 404.449 28.4377 404.455 28.4671C404.461 28.4966 404.468 28.5263 404.474 28.5562C404.48 28.5862 404.487 28.6163 404.493 28.6467C404.499 28.6771 404.505 28.7078 404.512 28.7387C404.518 28.7696 404.524 28.8007 404.53 28.8321C404.536 28.8635 404.542 28.8951 404.548 28.927C404.554 28.9588 404.56 28.9909 404.567 29.0233C404.573 29.0557 404.579 29.0883 404.585 29.1211C404.591 29.1541 404.596 29.1871 404.602 29.2205C404.608 29.2539 404.614 29.2875 404.62 29.3214C404.626 29.3553 404.632 29.3894 404.638 29.4238C404.644 29.4582 404.649 29.4929 404.655 29.5278C404.661 29.5628 404.667 29.5979 404.673 29.6334C404.679 29.6688 404.684 29.7046 404.69 29.7405C404.696 29.7765 404.702 29.8128 404.708 29.8493C404.713 29.8858 404.719 29.9225 404.725 29.9596C404.731 29.9966 404.737 30.034 404.742 30.0715C404.748 30.1091 404.754 30.147 404.76 30.1851C404.765 30.2233 404.771 30.2617 404.777 30.3004C404.783 30.3391 404.789 30.378 404.794 30.4173C404.8 30.4565 404.806 30.4961 404.812 30.5359C404.818 30.5757 404.824 30.6158 404.829 30.6562C404.834 30.616 404.838 30.5762 404.842 30.5366C404.847 30.497 404.851 30.4577 404.855 30.4187C404.86 30.3796 404.864 30.3409 404.868 30.3025C404.873 30.264 404.877 30.2258 404.882 30.1879C404.886 30.15 404.89 30.1124 404.895 30.075C404.899 30.0376 404.903 30.0006 404.908 29.9638C404.912 29.9269 404.917 29.8904 404.921 29.8541C404.925 29.8178 404.93 29.7818 404.934 29.7461C404.939 29.7103 404.943 29.6749 404.948 29.6397C404.952 29.6044 404.957 29.5695 404.961 29.5348C404.966 29.5001 404.97 29.4657 404.975 29.4315C404.98 29.3974 404.984 29.3634 404.989 29.3298C404.993 29.2961 404.998 29.2628 405.003 29.2297C405.007 29.1966 405.012 29.1637 405.017 29.131C405.022 29.0984 405.026 29.066 405.031 29.0339C405.036 29.0018 405.041 28.9699 405.046 28.9383C405.051 28.9066 405.056 28.8753 405.06 28.8442C405.065 28.8131 405.07 28.7822 405.075 28.7516C405.08 28.7209 405.086 28.6906 405.091 28.6604C405.096 28.6303 405.101 28.6003 405.106 28.5707C405.111 28.541 405.117 28.5116 405.122 28.4824C405.127 28.4532 405.133 28.4242 405.138 28.3955C405.143 28.3668 405.149 28.3383 405.154 28.3101C405.16 28.2818 405.165 28.2538 405.171 28.226C405.177 28.1983 405.182 28.1707 405.188 28.1434C405.194 28.1161 405.199 28.0889 405.205 28.0621C405.211 28.0352 405.217 28.0086 405.223 27.9822C405.229 27.9557 405.235 27.9296 405.241 27.9036C405.247 27.8777 405.253 27.8519 405.26 27.8264C405.266 27.8008 405.272 27.7755 405.278 27.7504C405.285 27.7253 405.291 27.7004 405.298 27.6758C405.304 27.6511 405.311 27.6267 405.317 27.6024C405.324 27.5782 405.331 27.5542 405.338 27.5304C405.344 27.5066 405.351 27.483 405.358 27.4596C405.365 27.4362 405.372 27.4131 405.379 27.3901C405.386 27.3671 405.394 27.3443 405.401 27.3218C405.408 27.2992 405.416 27.2769 405.423 27.2547C405.43 27.2325 405.438 27.2106 405.446 27.1888C405.453 27.1671 405.461 27.1456 405.469 27.1242C405.476 27.1029 405.484 27.0817 405.492 27.0607C405.5 27.0398 405.508 27.019 405.517 26.9984C405.525 26.9778 405.533 26.9575 405.541 26.9373C405.55 26.9171 405.558 26.8971 405.567 26.8773C405.575 26.8575 405.584 26.8379 405.593 26.8184C405.602 26.799 405.61 26.7797 405.619 26.7606C405.628 26.7416 405.637 26.7227 405.647 26.704C405.656 26.6853 405.665 26.6668 405.675 26.6485C405.684 26.6301 405.694 26.612 405.703 26.594C405.713 26.576 405.723 26.5582 405.732 26.5406C405.742 26.523 405.752 26.5055 405.762 26.4882C405.772 26.4709 405.783 26.4538 405.793 26.4369C405.803 26.4199 405.814 26.4032 405.824 26.3866C405.835 26.37 405.846 26.3536 405.856 26.3373C405.867 26.3211 405.878 26.305 405.889 26.2891C405.9 26.2731 405.912 26.2574 405.923 26.2417C405.934 26.2262 405.946 26.2107 405.957 26.1954C405.969 26.1801 405.981 26.165 405.992 26.1501C406.004 26.1351 406.016 26.1203 406.028 26.1057C406.041 26.091 406.053 26.0765 406.065 26.0621C406.078 26.0478 406.09 26.0336 406.103 26.0196C406.115 26.0055 406.128 25.9917 406.141 25.978C406.154 25.9642 406.167 25.9506 406.181 25.9372C406.194 25.9237 406.207 25.9104 406.221 25.8973C406.234 25.8841 406.248 25.8711 406.262 25.8582C406.276 25.8454 406.29 25.8326 406.304 25.8201C406.318 25.8075 406.332 25.795 406.347 25.7827C406.361 25.7704 406.376 25.7582 406.391 25.7462C406.405 25.7342 406.42 25.7223 406.436 25.7105C406.451 25.6988 406.466 25.6871 406.481 25.6756C406.497 25.6642 406.512 25.6527 406.528 25.6415C406.544 25.6302 406.56 25.6192 406.576 25.6082C406.592 25.5972 406.608 25.5863 406.624 25.5756C406.641 25.5649 406.658 25.5542 406.674 25.5438C406.691 25.5333 406.708 25.5229 406.725 25.5126C406.742 25.5024 406.759 25.4923 406.777 25.4822C406.794 25.4722 406.812 25.4624 406.83 25.4526C406.848 25.4428 406.866 25.4331 406.884 25.4236C406.902 25.414 406.92 25.4046 406.939 25.3953C406.957 25.3859 406.976 25.3767 406.995 25.3676C407.014 25.3585 407.033 25.3495 407.052 25.3407C407.072 25.3318 407.091 25.3229 407.111 25.3143C407.13 25.3056 407.15 25.2971 407.17 25.2886C407.19 25.2801 407.211 25.2717 407.231 25.2635C407.252 25.2552 407.272 25.247 407.293 25.2389C407.314 25.2309 407.335 25.2229 407.356 25.215C407.377 25.2071 407.399 25.1994 407.42 25.1916C407.442 25.1839 407.464 25.1764 407.486 25.1689C407.508 25.1613 407.53 25.154 407.553 25.1466C407.575 25.1393 407.598 25.1321 407.621 25.1249C407.644 25.1177 407.667 25.1107 407.69 25.1037C407.713 25.0967 407.737 25.0898 407.761 25.083C407.784 25.0762 407.832 25.0628 407.832 25.0628C407.832 25.0628 407.881 25.0496 407.906 25.0431C407.93 25.0366 407.955 25.0302 407.98 25.0239C408.005 25.0175 408.03 25.0113 408.056 25.0051C408.081 24.9988 408.107 24.9927 408.133 24.9867C408.159 24.9806 408.185 24.9747 408.212 24.9687C408.238 24.9629 408.265 24.957 408.291 24.9512C408.318 24.9455 408.345 24.9397 408.373 24.9341C408.4 24.9285 408.428 24.9229 408.455 24.9173C408.483 24.9119 408.511 24.9064 408.54 24.901C408.568 24.8956 408.596 24.8902 408.625 24.885C408.654 24.8797 408.683 24.8745 408.712 24.8693C408.741 24.8642 408.771 24.8591 408.801 24.854C408.83 24.849 408.86 24.8439 408.891 24.839C408.921 24.834 408.951 24.8291 408.982 24.8243C409.013 24.8194 409.044 24.8146 409.075 24.8099C409.106 24.8051 409.138 24.8004 409.17 24.7957C409.201 24.7911 409.233 24.7865 409.266 24.7819C409.298 24.7773 409.33 24.7728 409.363 24.7683C409.396 24.7638 409.429 24.7593 409.462 24.7549C409.496 24.7505 409.529 24.7461 409.563 24.7418C409.597 24.7374 409.631 24.7331 409.665 24.7288C409.7 24.7246 409.734 24.7203 409.769 24.7161C409.804 24.7118 409.839 24.7077 409.875 24.7036C409.91 24.6994 409.946 24.6952 409.982 24.6911C410.018 24.6871 410.054 24.683 410.091 24.6789C410.127 24.6749 410.164 24.6709 410.201 24.6669C410.238 24.6629 410.276 24.6589 410.313 24.655C410.351 24.651 410.389 24.6471 410.427 24.6431C410.465 24.6392 410.504 24.6353 410.543 24.6314C410.582 24.6276 410.621 24.6236 410.66 24.6199C410.699 24.616 410.739 24.6121 410.779 24.6083C410.819 24.6045 410.859 24.6006 410.9 24.5969C410.94 24.593 410.981 24.5892 411.022 24.5854C411.064 24.5816 411.105 24.5778 411.147 24.574C411.188 24.5702 411.23 24.5664 411.273 24.5627C411.315 24.5587 411.358 24.555 411.401 24.5512Z" fill="#8a7f84" fill-rule="nonzero" opacity="1" stroke="none"/>
<path d="M21.557 24.5512C21.5139 24.5454 21.4711 24.5397 21.4286 24.534C21.3861 24.5282 21.3439 24.5225 21.3019 24.5169C21.26 24.5111 21.2184 24.5055 21.177 24.4997C21.1357 24.4941 21.0947 24.4884 21.0539 24.4827C21.0132 24.477 20.9728 24.4713 20.9326 24.4657C20.8925 24.46 20.8526 24.4544 20.8131 24.4487C20.7735 24.4431 20.7342 24.4374 20.6953 24.4317C20.6563 24.426 20.6175 24.4204 20.5791 24.4147C20.5407 24.409 20.5026 24.4033 20.4647 24.3977C20.4268 24.392 20.3893 24.3863 20.352 24.3806C20.3147 24.3749 20.2777 24.3692 20.2409 24.3634C20.2043 24.3577 20.1678 24.3519 20.1316 24.3462C20.0954 24.3404 20.0595 24.3347 20.0239 24.3289C19.9883 24.3231 19.9529 24.3173 19.9177 24.3115C19.8827 24.3057 19.8478 24.2999 19.8133 24.294C19.7787 24.2881 19.7444 24.2823 19.7104 24.2764C19.6764 24.2704 19.6426 24.2645 19.6091 24.2586C19.5756 24.2527 19.5424 24.2467 19.5094 24.2407C19.4764 24.2346 19.4437 24.2286 19.4113 24.2226C19.3788 24.2165 19.3466 24.2104 19.3147 24.2043C19.2827 24.1982 19.251 24.1921 19.2195 24.1858C19.1881 24.1796 19.1569 24.1734 19.126 24.1672C19.095 24.1609 19.0643 24.1546 19.0339 24.1482C19.0034 24.1419 18.9733 24.1355 18.9433 24.1291C18.9133 24.1227 18.8836 24.1163 18.8541 24.1097C18.8247 24.1033 18.7955 24.0967 18.7665 24.0901C18.7375 24.0835 18.7087 24.0768 18.6803 24.0702C18.6517 24.0635 18.6235 24.0567 18.5954 24.0499C18.5674 24.0431 18.5396 24.0363 18.512 24.0294C18.4845 24.0225 18.4572 24.0155 18.43 24.0085C18.4029 24.0015 18.376 23.9945 18.3494 23.9873C18.3228 23.9802 18.2963 23.973 18.2701 23.9658C18.2439 23.9586 18.2179 23.9513 18.1922 23.9439C18.1664 23.9365 18.1409 23.9291 18.1156 23.9216C18.0903 23.9141 18.0652 23.9065 18.0404 23.8989C18.0155 23.8913 17.9909 23.8836 17.9664 23.8758C17.9419 23.868 17.9177 23.8602 17.8937 23.8523C17.8697 23.8444 17.8459 23.8365 17.8223 23.8284C17.7988 23.8203 17.7753 23.8122 17.7522 23.804C17.729 23.7958 17.7061 23.7875 17.6833 23.7791C17.6605 23.7708 17.638 23.7624 17.6156 23.7538C17.5933 23.7454 17.5712 23.7367 17.5492 23.728C17.5272 23.7193 17.5055 23.7105 17.4839 23.7017C17.4624 23.6928 17.441 23.6839 17.4199 23.6749C17.3987 23.6658 17.3778 23.6567 17.357 23.6475C17.3362 23.6383 17.3156 23.629 17.2952 23.6196C17.2749 23.6102 17.2547 23.6007 17.2346 23.5911C17.2146 23.5815 17.1948 23.5718 17.1752 23.562C17.1555 23.5523 17.1361 23.5424 17.1168 23.5324C17.0976 23.5224 17.0785 23.5124 17.0596 23.5022C17.0407 23.492 17.0219 23.4817 17.0033 23.4713C16.9848 23.4609 16.9664 23.4505 16.9483 23.4398C16.9301 23.4293 16.912 23.4185 16.8942 23.4077C16.8763 23.3969 16.8587 23.386 16.8412 23.3749C16.8237 23.3639 16.8063 23.3527 16.7891 23.3415C16.772 23.3302 16.755 23.3189 16.7381 23.3073C16.7213 23.2958 16.7046 23.2842 16.6882 23.2725C16.6716 23.2607 16.6553 23.2489 16.6391 23.2369C16.6229 23.2249 16.6069 23.2129 16.591 23.2007C16.5752 23.1884 16.5595 23.1761 16.544 23.1636C16.5284 23.1512 16.513 23.1385 16.4977 23.1259C16.4825 23.1131 16.4674 23.1002 16.4525 23.0873C16.4376 23.0744 16.4228 23.0612 16.4081 23.048C16.3935 23.0347 16.3791 23.0213 16.3647 23.0078C16.3504 22.9943 16.3361 22.9807 16.3221 22.9669C16.308 22.9531 16.2941 22.9392 16.2803 22.9251C16.2666 22.911 16.2529 22.8969 16.2394 22.8825C16.2259 22.8682 16.2126 22.8536 16.1994 22.8391C16.1862 22.8244 16.1731 22.8096 16.1601 22.7948C16.1471 22.7798 16.1343 22.7647 16.1217 22.7495C16.109 22.7343 16.0964 22.7189 16.084 22.7034C16.0715 22.6879 16.0593 22.6722 16.0471 22.6564C16.0349 22.6406 16.0229 22.6246 16.0109 22.6085C15.999 22.5923 15.9872 22.576 15.9755 22.5596C15.9639 22.5432 15.9523 22.5265 15.9409 22.5098C15.9294 22.493 15.9181 22.4761 15.9069 22.4589C15.8957 22.4418 15.8846 22.4246 15.8736 22.4072C15.8626 22.3898 15.8518 22.3722 15.841 22.3544C15.8302 22.3367 15.8195 22.3187 15.809 22.3006C15.7985 22.2825 15.7881 22.2643 15.7778 22.2458C15.7675 22.2274 15.7573 22.2088 15.7471 22.19C15.7371 22.1713 15.727 22.1522 15.7172 22.1332C15.7072 22.114 15.6974 22.0947 15.6877 22.0752C15.678 22.0557 15.6684 22.036 15.6589 22.0162C15.6494 21.9963 15.64 21.9763 15.6306 21.9561C15.6213 21.9358 15.6121 21.9154 15.6029 21.8948C15.5939 21.8742 15.5848 21.8534 15.5758 21.8325C15.5669 21.8116 15.558 21.7904 15.5492 21.769C15.5404 21.7477 15.5317 21.7262 15.5232 21.7044C15.5145 21.6827 15.506 21.6608 15.4975 21.6386C15.4891 21.6165 15.4808 21.5942 15.4724 21.5717C15.4642 21.5492 15.456 21.5265 15.4478 21.5036C15.4397 21.4806 15.4316 21.4575 15.4237 21.4342C15.4157 21.4109 15.4078 21.3874 15.3999 21.3637C15.3921 21.3399 15.3843 21.316 15.3766 21.2919C15.3689 21.2677 15.3613 21.2434 15.3538 21.2188C15.3462 21.1942 15.3387 21.1695 15.3312 21.1445C15.3238 21.1196 15.3164 21.0944 15.3091 21.069C15.3019 21.0436 15.2946 21.018 15.2874 20.9921C15.2802 20.9662 15.2731 20.9402 15.266 20.9139C15.259 20.8877 15.252 20.8611 15.245 20.8345C15.238 20.8077 15.2311 20.7808 15.2243 20.7537C15.2174 20.7265 15.2106 20.6991 15.2038 20.6715C15.1971 20.6439 15.1904 20.6161 15.1837 20.588C15.1771 20.5599 15.1705 20.5316 15.1639 20.5031C15.1573 20.4746 15.1508 20.4459 15.1443 20.4168C15.1378 20.3879 15.1314 20.3586 15.125 20.3292C15.1186 20.2998 15.1123 20.27 15.1059 20.2401C15.0996 20.2102 15.0933 20.18 15.087 20.1496C15.0808 20.1192 15.0746 20.0885 15.0684 20.0576C15.0622 20.0267 15.056 19.9956 15.0499 19.9642C15.0438 19.9329 15.0377 19.9013 15.0316 19.8694C15.0255 19.8375 15.0195 19.8054 15.0134 19.773C15.0074 19.7407 15.0015 19.708 14.9955 19.6752C14.9895 19.6423 14.9835 19.6092 14.9776 19.5758C14.9717 19.5424 14.9657 19.5088 14.9599 19.4749C14.954 19.441 14.9481 19.4068 14.9422 19.3725C14.9363 19.3381 14.9305 19.3034 14.9247 19.2685C14.9188 19.2335 14.913 19.1984 14.9071 19.1629C14.9014 19.1275 14.8955 19.0918 14.8897 19.0558C14.8839 19.0198 14.8781 18.9836 14.8723 18.947C14.8665 18.9105 14.8608 18.8738 14.855 18.8367C14.8492 18.7996 14.8434 18.7624 14.8376 18.7248C14.8319 18.6872 14.8261 18.6493 14.8203 18.6112C14.8145 18.573 14.8087 18.5346 14.8029 18.4959C14.7972 18.4572 14.7913 18.4183 14.7855 18.3791C14.7797 18.3397 14.7739 18.3002 14.7681 18.2604C14.7622 18.2206 14.7564 18.1805 14.7506 18.1401C14.7462 18.1803 14.7419 18.2201 14.7376 18.2597C14.7332 18.2993 14.7289 18.3386 14.7246 18.3776C14.7202 18.4167 14.7159 18.4554 14.7115 18.4938C14.7072 18.5323 14.7028 18.5705 14.6985 18.6084C14.6941 18.6462 14.6897 18.6839 14.6854 18.7213C14.681 18.7586 14.6766 18.7957 14.6722 18.8326C14.6679 18.8694 14.6634 18.9059 14.659 18.9422C14.6546 18.9785 14.6502 19.0145 14.6457 19.0502C14.6413 19.0859 14.6368 19.1214 14.6323 19.1566C14.6278 19.1919 14.6233 19.2267 14.6187 19.2615C14.6142 19.2962 14.6097 19.3305 14.6051 19.3647C14.6005 19.3989 14.5959 19.4328 14.5913 19.4664C14.5866 19.5001 14.582 19.5335 14.5773 19.5666C14.5726 19.5997 14.5679 19.6326 14.5631 19.6652C14.5584 19.6978 14.5536 19.7302 14.5488 19.7623C14.544 19.7945 14.5392 19.8263 14.5343 19.8579C14.5294 19.8896 14.5244 19.9209 14.5196 19.9521C14.5146 19.9832 14.5096 20.014 14.5046 20.0447C14.4995 20.0753 14.4945 20.1057 14.4894 20.1359C14.4842 20.166 14.4791 20.1959 14.4739 20.2256C14.4686 20.2553 14.4634 20.2847 14.4581 20.3139C14.4528 20.3431 14.4474 20.372 14.442 20.4007C14.4366 20.4294 14.4312 20.4579 14.4257 20.4862C14.4202 20.5144 14.4147 20.5424 14.409 20.5703C14.4034 20.598 14.3978 20.6256 14.3921 20.6529C14.3863 20.6802 14.3805 20.7073 14.3747 20.7342C14.3688 20.761 14.3629 20.7877 14.357 20.8141C14.351 20.8405 14.345 20.8667 14.3389 20.8927C14.3329 20.9187 14.3267 20.9444 14.3205 20.9699C14.3142 20.9955 14.3079 21.0208 14.3016 21.0459C14.2952 21.071 14.2888 21.0958 14.2823 21.1205C14.2758 21.1451 14.2692 21.1696 14.2626 21.1938C14.256 21.218 14.2492 21.242 14.2425 21.2659C14.2356 21.2897 14.2288 21.3133 14.2218 21.3367C14.2149 21.36 14.2079 21.3832 14.2007 21.4062C14.1937 21.4292 14.1864 21.4519 14.1791 21.4745C14.1719 21.497 14.1645 21.5194 14.157 21.5416C14.1496 21.5637 14.1421 21.5856 14.1345 21.6074C14.1268 21.6292 14.1191 21.6507 14.1113 21.6721C14.1035 21.6934 14.0956 21.7146 14.0876 21.7356C14.0796 21.7565 14.0716 21.7772 14.0634 21.7979C14.0552 21.8184 14.0469 21.8388 14.0386 21.859C14.0302 21.8792 14.0217 21.8992 14.0132 21.919C14.0045 21.9388 13.9959 21.9584 13.9871 21.9779C13.9784 21.9973 13.9695 22.0165 13.9605 22.0356C13.9515 22.0547 13.9424 22.0736 13.9332 22.0923C13.924 22.111 13.9147 22.1295 13.9053 22.1479C13.8959 22.1662 13.8864 22.1843 13.8768 22.2023C13.8671 22.2203 13.8574 22.2381 13.8475 22.2557C13.8376 22.2734 13.8277 22.2908 13.8176 22.3081C13.8074 22.3253 13.7973 22.3425 13.7869 22.3594C13.7766 22.3763 13.7662 22.3931 13.7555 22.4097C13.745 22.4263 13.7343 22.4427 13.7235 22.4589C13.7126 22.4753 13.7017 22.4913 13.6906 22.5073C13.6796 22.5232 13.6684 22.5389 13.6571 22.5546C13.6457 22.5702 13.6343 22.5856 13.6227 22.6009C13.6111 22.6162 13.5994 22.6313 13.5875 22.6463C13.5756 22.6612 13.5636 22.676 13.5515 22.6907C13.5394 22.7053 13.5272 22.7198 13.5147 22.7342C13.5023 22.7485 13.4898 22.7627 13.4772 22.7767C13.4644 22.7908 13.4516 22.8047 13.4387 22.8184C13.4257 22.8321 13.4126 22.8457 13.3993 22.8592C13.3861 22.8726 13.3726 22.8859 13.3591 22.899C13.3455 22.9122 13.3319 22.9252 13.318 22.9381C13.3042 22.9509 13.2902 22.9637 13.276 22.9763C13.2619 22.9888 13.2476 23.0013 13.2331 23.0136C13.2186 23.0259 13.204 23.0381 13.1892 23.0501C13.1744 23.0621 13.1595 23.074 13.1445 23.0858C13.1293 23.0976 13.1141 23.1092 13.0987 23.1207C13.0833 23.1322 13.0677 23.1436 13.0519 23.1548C13.0361 23.1661 13.0203 23.1772 13.0042 23.1882C12.9881 23.1991 12.9719 23.21 12.9555 23.2207C12.9391 23.2315 12.9225 23.2421 12.9057 23.2526C12.8889 23.263 12.872 23.2734 12.8549 23.2837C12.8378 23.2939 12.8205 23.304 12.8031 23.314C12.7856 23.3241 12.768 23.334 12.7502 23.3437C12.7323 23.3535 12.7143 23.3632 12.6962 23.3727C12.6781 23.3823 12.6597 23.3917 12.6411 23.401C12.6226 23.4104 12.6038 23.4196 12.5849 23.4286C12.5661 23.4378 12.5469 23.4467 12.5277 23.4556C12.5084 23.4646 12.4889 23.4733 12.4692 23.482C12.4496 23.4906 12.4297 23.4992 12.4097 23.5077C12.3896 23.5162 12.3693 23.5245 12.3489 23.5328C12.3284 23.5411 12.3078 23.5493 12.287 23.5573C12.2661 23.5654 12.2451 23.5734 12.2239 23.5813C12.2026 23.5891 12.1812 23.5969 12.1596 23.6046C12.1379 23.6123 12.1161 23.6199 12.094 23.6274C12.072 23.635 12.0497 23.6424 12.0273 23.6497C12.0048 23.657 11.9821 23.6642 11.9592 23.6714C11.9363 23.6785 11.9133 23.6856 11.89 23.6925C11.8667 23.6995 11.8431 23.7064 11.8194 23.7132C11.7957 23.72 11.7717 23.7267 11.7475 23.7335C11.7234 23.7401 11.699 23.7467 11.6744 23.7532C11.6498 23.7596 11.625 23.7661 11.5999 23.7724C11.5748 23.7787 11.5495 23.785 11.5241 23.7912C11.4985 23.7974 11.4729 23.8035 11.447 23.8096C11.421 23.8157 11.3948 23.8216 11.3684 23.8275C11.342 23.8334 11.3153 23.8392 11.2885 23.845C11.2617 23.8508 11.2345 23.8565 11.2072 23.8622C11.1798 23.8678 11.1523 23.8733 11.1245 23.8789C11.0967 23.8844 11.0687 23.8899 11.0403 23.8952C11.012 23.9007 10.9836 23.906 10.9548 23.9113C10.9261 23.9165 10.897 23.9217 10.8678 23.9269C10.8385 23.9321 10.809 23.9372 10.7793 23.9422C10.7496 23.9472 10.7196 23.9523 10.6894 23.9572C10.6591 23.9622 10.6287 23.9671 10.5979 23.9719C10.5672 23.9768 10.5362 23.9816 10.505 23.9864C10.4737 23.9911 10.4422 23.9958 10.4105 24.0005C10.3787 24.0052 10.3467 24.0098 10.3144 24.0143C10.2822 24.019 10.2496 24.0234 10.2169 24.028C10.1841 24.0324 10.1511 24.037 10.1178 24.0414C10.0844 24.0458 10.0509 24.0501 10.0171 24.0545C9.98321 24.0588 9.94914 24.0631 9.91475 24.0674C9.8804 24.0717 9.84579 24.0759 9.81082 24.0802C9.77594 24.0844 9.74075 24.0886 9.7053 24.0927C9.66988 24.0969 9.63411 24.101 9.59812 24.1051C9.56213 24.1092 9.52587 24.1133 9.48934 24.1173C9.45277 24.1214 9.41597 24.1254 9.37882 24.1294C9.34167 24.1334 9.30434 24.1374 9.26665 24.1413C9.22901 24.1453 9.19105 24.1492 9.15279 24.1532C9.11457 24.1571 9.07603 24.161 9.03723 24.1649C8.99843 24.1687 8.95932 24.1727 8.91994 24.1765C8.88056 24.1803 8.84087 24.1842 8.80095 24.188C8.76095 24.1919 8.72067 24.1957 8.68014 24.1995C8.6396 24.2034 8.59874 24.2072 8.55763 24.2109C8.51646 24.2148 8.47503 24.2185 8.43324 24.2223C8.39155 24.2262 8.34949 24.2299 8.30717 24.2337C8.26485 24.2375 8.22217 24.2412 8.17922 24.245C8.22235 24.2508 8.26518 24.2565 8.30769 24.2623C8.3502 24.268 8.3924 24.2737 8.43437 24.2794C8.47626 24.2851 8.51792 24.2908 8.55923 24.2965C8.60053 24.3022 8.64157 24.3078 8.68235 24.3135C8.72303 24.3192 8.76344 24.3249 8.80364 24.3305C8.84378 24.3362 8.88362 24.3418 8.92319 24.3475C8.96276 24.3532 9.00201 24.3588 9.04104 24.3646C9.08003 24.3702 9.11871 24.3759 9.15712 24.3816C9.19553 24.3872 9.23367 24.3929 9.2715 24.3986C9.30937 24.4043 9.34689 24.41 9.38423 24.4157C9.42148 24.4214 9.4585 24.4271 9.49526 24.4328C9.53202 24.4386 9.56847 24.4443 9.60465 24.4501C9.64083 24.4558 9.67674 24.4616 9.71239 24.4674C9.74794 24.4731 9.78336 24.479 9.81847 24.4848C9.85358 24.4905 9.88838 24.4964 9.92295 24.5022C9.95753 24.5081 9.99179 24.514 10.0258 24.52C10.0599 24.5258 10.0936 24.5317 10.1271 24.5377C10.1606 24.5436 10.1938 24.5496 10.2268 24.5556C10.2598 24.5616 10.2925 24.5676 10.325 24.5737C10.3574 24.5797 10.3896 24.5859 10.4216 24.592C10.4536 24.5981 10.4852 24.6043 10.5167 24.6104C10.5482 24.6166 10.5793 24.6228 10.6103 24.6291C10.6413 24.6354 10.6719 24.6416 10.7024 24.648C10.7329 24.6544 10.7631 24.6607 10.793 24.6671C10.8229 24.6736 10.8527 24.68 10.8821 24.6865C10.9116 24.693 10.9408 24.6996 10.9698 24.7062C10.9987 24.7128 11.0275 24.7194 11.056 24.7261C11.0845 24.7328 11.1128 24.7396 11.1408 24.7464C11.1689 24.7532 11.1967 24.76 11.2242 24.7669C11.2518 24.7738 11.2791 24.7807 11.3063 24.7878C11.3333 24.7948 11.3602 24.8018 11.3869 24.809C11.4135 24.8161 11.4399 24.8233 11.4662 24.8305C11.4923 24.8378 11.5183 24.8451 11.5441 24.8524C11.5698 24.8598 11.5953 24.8672 11.6206 24.8747C11.6459 24.8822 11.6711 24.8898 11.6959 24.8973C11.7208 24.905 11.7454 24.9127 11.7699 24.9205C11.7943 24.9282 11.8185 24.9361 11.8425 24.944C11.8665 24.9519 11.8903 24.9599 11.914 24.9679C11.9375 24.9759 11.9609 24.9841 11.9841 24.9923C12.0073 25.0005 12.0302 25.0088 12.053 25.0171C12.0757 25.0255 12.0983 25.034 12.1206 25.0425C12.143 25.051 12.1651 25.0596 12.1871 25.0683C12.2091 25.0769 12.2308 25.0857 12.2524 25.0946C12.2739 25.1035 12.2952 25.1124 12.3164 25.1215C12.3376 25.1304 12.3585 25.1396 12.3793 25.1488C12.4001 25.158 12.4206 25.1673 12.4411 25.1768C12.4614 25.1861 12.4817 25.1956 12.5016 25.2052C12.5217 25.2148 12.5415 25.2245 12.5611 25.2343C12.5807 25.244 12.6002 25.2539 12.6195 25.2639C12.6387 25.2739 12.6578 25.2839 12.6767 25.2941C12.6956 25.3043 12.7144 25.3146 12.7329 25.325C12.7515 25.3353 12.7698 25.3459 12.788 25.3565C12.8062 25.3671 12.8243 25.3778 12.8421 25.3886C12.8599 25.3994 12.8776 25.4104 12.8952 25.4214C12.9126 25.4324 12.9299 25.4436 12.9472 25.4549C12.9643 25.4661 12.9813 25.4775 12.9981 25.489C13.015 25.5005 13.0316 25.5121 13.0481 25.5238C13.0646 25.5356 13.081 25.5474 13.0971 25.5594C13.1133 25.5714 13.1293 25.5834 13.1452 25.5957C13.1611 25.6079 13.1768 25.6202 13.1924 25.6327C13.2079 25.6452 13.2233 25.6577 13.2385 25.6705C13.2538 25.6832 13.2689 25.696 13.2838 25.709C13.2987 25.722 13.3135 25.7351 13.3281 25.7484C13.3428 25.7616 13.3573 25.775 13.3716 25.7885C13.386 25.802 13.4001 25.8156 13.4142 25.8294C13.4283 25.8432 13.4422 25.8571 13.456 25.8712C13.4697 25.8852 13.4834 25.8995 13.4969 25.9138C13.5104 25.9282 13.5237 25.9426 13.537 25.9573C13.5502 25.9719 13.5633 25.9867 13.5762 26.0016C13.5892 26.0165 13.602 26.0316 13.6146 26.0468C13.6273 26.0621 13.6399 26.0774 13.6523 26.0929C13.6647 26.1084 13.677 26.1241 13.6892 26.1399C13.7014 26.1558 13.7134 26.1717 13.7254 26.1879C13.7372 26.204 13.7491 26.2203 13.7608 26.2367C13.7724 26.2532 13.784 26.2698 13.7955 26.2866C13.8069 26.3034 13.8182 26.3203 13.8294 26.3374C13.8406 26.3544 13.8517 26.3717 13.8627 26.3892C13.8737 26.4065 13.8845 26.4242 13.8953 26.4419C13.9061 26.4597 13.9167 26.4776 13.9272 26.4957C13.9378 26.5138 13.9482 26.5321 13.9585 26.5505C13.9688 26.5689 13.979 26.5875 13.9891 26.6063C13.9993 26.6251 14.0092 26.6441 14.0191 26.6632C14.0291 26.6823 14.0388 26.7016 14.0486 26.7211C14.0583 26.7406 14.0679 26.7603 14.0774 26.7802C14.0869 26.8 14.0964 26.82 14.1056 26.8403C14.115 26.8605 14.1242 26.8809 14.1333 26.9015C14.1425 26.9221 14.1515 26.9429 14.1605 26.9638C14.1694 26.9848 14.1783 27.0059 14.1871 27.0273C14.1959 27.0486 14.2045 27.0702 14.2132 27.0919C14.2218 27.1136 14.2303 27.1355 14.2388 27.1577C14.2472 27.1798 14.2556 27.2021 14.2639 27.2246C14.2721 27.2472 14.2803 27.2699 14.2885 27.2928C14.2966 27.3157 14.3046 27.3388 14.3127 27.3621C14.3207 27.3854 14.3286 27.4089 14.3364 27.4327C14.3442 27.4564 14.352 27.4804 14.3597 27.5045C14.3674 27.5286 14.375 27.553 14.3826 27.5775C14.3901 27.602 14.3976 27.6268 14.4051 27.6518C14.4124 27.6768 14.4198 27.702 14.4272 27.7274C14.4345 27.7528 14.4417 27.7784 14.4489 27.8043C14.4561 27.8301 14.4632 27.8561 14.4703 27.8824C14.4774 27.9087 14.4843 27.9352 14.4913 27.9619C14.4983 27.9886 14.5052 28.0156 14.512 28.0427C14.5189 28.0698 14.5257 28.0972 14.5324 28.1248C14.5392 28.1524 14.5459 28.1802 14.5525 28.2083C14.5592 28.2364 14.5658 28.2647 14.5724 28.2932C14.5789 28.3217 14.5855 28.3505 14.5919 28.3795C14.5984 28.4085 14.6049 28.4377 14.6113 28.4671C14.6177 28.4966 14.6241 28.5263 14.6304 28.5562C14.6367 28.5862 14.643 28.6163 14.6493 28.6467C14.6555 28.6771 14.6617 28.7078 14.6679 28.7387C14.6741 28.7696 14.6803 28.8007 14.6863 28.8321C14.6925 28.8635 14.6986 28.8951 14.7046 28.927C14.7107 28.9588 14.7167 28.9909 14.7228 29.0233C14.7288 29.0557 14.7348 29.0883 14.7408 29.1211C14.7468 29.1541 14.7527 29.1871 14.7587 29.2205C14.7646 29.2539 14.7705 29.2875 14.7764 29.3214C14.7823 29.3553 14.7882 29.3894 14.7941 29.4238C14.7999 29.4582 14.8057 29.4929 14.8116 29.5278C14.8174 29.5628 14.8233 29.5979 14.8291 29.6334C14.8349 29.6688 14.8407 29.7046 14.8466 29.7405C14.8523 29.7765 14.8581 29.8128 14.8639 29.8493C14.8697 29.8858 14.8755 29.9225 14.8812 29.9596C14.887 29.9966 14.8928 30.034 14.8986 30.0715C14.9044 30.1091 14.9102 30.147 14.9159 30.1851C14.9217 30.2233 14.9275 30.2617 14.9333 30.3004C14.9391 30.3391 14.9449 30.378 14.9507 30.4173C14.9565 30.4565 14.9624 30.4961 14.9682 30.5359C14.974 30.5757 14.9799 30.6158 14.9857 30.6562C14.99 30.616 14.9943 30.5762 14.9987 30.5366C15.003 30.497 15.0074 30.4577 15.0117 30.4187C15.016 30.3796 15.0204 30.3409 15.0247 30.3025C15.0291 30.264 15.0334 30.2258 15.0378 30.1879C15.0422 30.15 15.0465 30.1124 15.0509 30.075C15.0553 30.0376 15.0596 30.0006 15.064 29.9638C15.0684 29.9269 15.0728 29.8904 15.0773 29.8541C15.0817 29.8178 15.0861 29.7818 15.0906 29.7461C15.095 29.7103 15.0995 29.6749 15.104 29.6397C15.1085 29.6044 15.113 29.5695 15.1175 29.5348C15.1221 29.5001 15.1266 29.4657 15.1312 29.4315C15.1358 29.3974 15.1404 29.3634 15.145 29.3298C15.1496 29.2961 15.1543 29.2628 15.159 29.2297C15.1637 29.1966 15.1684 29.1637 15.1731 29.131C15.1779 29.0984 15.1826 29.066 15.1875 29.0339C15.1923 29.0018 15.1971 28.9699 15.202 28.9383C15.2069 28.9066 15.2118 28.8753 15.2167 28.8442C15.2217 28.8131 15.2267 28.7822 15.2317 28.7516C15.2367 28.7209 15.2418 28.6906 15.2469 28.6604C15.2521 28.6303 15.2572 28.6003 15.2624 28.5707C15.2676 28.541 15.2729 28.5116 15.2782 28.4824C15.2835 28.4532 15.2888 28.4242 15.2942 28.3955C15.2996 28.3668 15.305 28.3383 15.3106 28.3101C15.316 28.2818 15.3216 28.2538 15.3273 28.226C15.3328 28.1983 15.3385 28.1707 15.3442 28.1434C15.35 28.1161 15.3557 28.0889 15.3615 28.0621C15.3674 28.0352 15.3733 28.0086 15.3792 27.9822C15.3852 27.9557 15.3913 27.9296 15.3973 27.9036C15.4034 27.8777 15.4096 27.8519 15.4158 27.8264C15.422 27.8008 15.4282 27.7755 15.4346 27.7504C15.441 27.7253 15.4474 27.7004 15.4539 27.6758C15.4604 27.6511 15.467 27.6267 15.4736 27.6024C15.4803 27.5782 15.487 27.5542 15.4938 27.5304C15.5006 27.5066 15.5075 27.483 15.5144 27.4596C15.5214 27.4362 15.5284 27.4131 15.5355 27.3901C15.5426 27.3671 15.5498 27.3443 15.5571 27.3218C15.5644 27.2992 15.5718 27.2769 15.5792 27.2547C15.5866 27.2325 15.5942 27.2106 15.6018 27.1888C15.6094 27.1671 15.6171 27.1456 15.6249 27.1242C15.6327 27.1029 15.6406 27.0817 15.6486 27.0607C15.6566 27.0398 15.6646 27.019 15.6728 26.9984C15.681 26.9778 15.6892 26.9575 15.6976 26.9373C15.706 26.9171 15.7145 26.8971 15.7231 26.8773C15.7316 26.8575 15.7403 26.8379 15.7491 26.8184C15.7578 26.799 15.7667 26.7797 15.7757 26.7606C15.7847 26.7416 15.7937 26.7227 15.803 26.704C15.8121 26.6853 15.8215 26.6668 15.8309 26.6485C15.8403 26.6301 15.8498 26.612 15.8595 26.594C15.8691 26.576 15.8788 26.5582 15.8887 26.5406C15.8986 26.523 15.9085 26.5055 15.9186 26.4882C15.9287 26.4709 15.9389 26.4538 15.9493 26.4369C15.9596 26.4199 15.97 26.4032 15.9806 26.3866C15.9912 26.37 16.0019 26.3536 16.0127 26.3373C16.0235 26.3211 16.0345 26.305 16.0455 26.2891C16.0566 26.2731 16.0678 26.2574 16.0792 26.2417C16.0905 26.2262 16.1019 26.2107 16.1135 26.1954C16.1251 26.1801 16.1368 26.165 16.1487 26.1501C16.1605 26.1351 16.1725 26.1203 16.1847 26.1057C16.1968 26.091 16.2091 26.0765 16.2214 26.0621C16.2338 26.0478 16.2464 26.0336 16.2591 26.0196C16.2717 26.0055 16.2846 25.9917 16.2975 25.978C16.3106 25.9642 16.3236 25.9506 16.3369 25.9372C16.3501 25.9237 16.3635 25.9104 16.3771 25.8973C16.3906 25.8841 16.4043 25.8711 16.4182 25.8582C16.432 25.8454 16.446 25.8326 16.4602 25.8201C16.4743 25.8075 16.4886 25.795 16.5031 25.7827C16.5176 25.7704 16.5322 25.7582 16.547 25.7462C16.5617 25.7342 16.5767 25.7223 16.5918 25.7105C16.6069 25.6988 16.6221 25.6871 16.6375 25.6756C16.6529 25.6642 16.6685 25.6527 16.6843 25.6415C16.7 25.6302 16.7159 25.6192 16.732 25.6082C16.7481 25.5972 16.7643 25.5863 16.7807 25.5756C16.7971 25.5649 16.8138 25.5542 16.8305 25.5438C16.8473 25.5333 16.8642 25.5229 16.8813 25.5126C16.8984 25.5024 16.9156 25.4923 16.9331 25.4822C16.9506 25.4722 16.9682 25.4624 16.986 25.4526C17.0039 25.4428 17.0219 25.4331 17.04 25.4236C17.0582 25.414 17.0765 25.4046 17.0951 25.3953C17.1136 25.3859 17.1323 25.3767 17.1513 25.3676C17.1702 25.3585 17.1893 25.3495 17.2086 25.3407C17.2278 25.3318 17.2473 25.3229 17.267 25.3143C17.2866 25.3056 17.3065 25.2971 17.3265 25.2886C17.3466 25.2801 17.3669 25.2717 17.3873 25.2635C17.4078 25.2552 17.4283 25.247 17.4492 25.2389C17.4701 25.2309 17.4911 25.2229 17.5124 25.215C17.5336 25.2071 17.555 25.1994 17.5766 25.1916C17.5983 25.1839 17.6202 25.1764 17.6422 25.1689C17.6643 25.1613 17.6865 25.154 17.709 25.1466C17.7314 25.1393 17.7541 25.1321 17.777 25.1249C17.7999 25.1177 17.8229 25.1107 17.8463 25.1037C17.8696 25.0967 17.8931 25.0898 17.9168 25.083C17.9406 25.0762 17.9887 25.0628 17.9887 25.0628C17.9887 25.0628 18.0373 25.0496 18.0618 25.0431C18.0865 25.0366 18.1113 25.0302 18.1363 25.0239C18.1614 25.0175 18.1867 25.0113 18.2121 25.0051C18.2376 24.9988 18.2634 24.9927 18.2893 24.9867C18.3152 24.9806 18.3414 24.9747 18.3678 24.9687C18.3942 24.9629 18.4209 24.957 18.4477 24.9512C18.4745 24.9455 18.5017 24.9397 18.529 24.9341C18.5564 24.9285 18.5839 24.9229 18.6117 24.9173C18.6395 24.9119 18.6676 24.9064 18.6958 24.901C18.7242 24.8956 18.7527 24.8902 18.7814 24.885C18.8102 24.8797 18.8392 24.8745 18.8684 24.8693C18.8977 24.8642 18.9272 24.8591 18.9569 24.854C18.9866 24.849 19.0166 24.8439 19.0469 24.839C19.0771 24.834 19.1076 24.8291 19.1383 24.8243C19.1691 24.8194 19.2 24.8146 19.2313 24.8099C19.2626 24.8051 19.294 24.8004 19.3258 24.7957C19.3575 24.7911 19.3896 24.7865 19.4218 24.7819C19.4541 24.7773 19.4866 24.7728 19.5194 24.7683C19.5521 24.7638 19.5852 24.7593 19.6185 24.7549C19.6518 24.7505 19.6853 24.7461 19.7192 24.7418C19.753 24.7374 19.7871 24.7331 19.8215 24.7288C19.8559 24.7246 19.8905 24.7203 19.9254 24.7161C19.9603 24.7118 19.9955 24.7077 20.031 24.7036C20.0664 24.6994 20.1021 24.6952 20.1381 24.6911C20.1741 24.6871 20.2104 24.683 20.247 24.6789C20.2834 24.6749 20.3203 24.6709 20.3574 24.6669C20.3945 24.6629 20.4319 24.6589 20.4696 24.655C20.5072 24.651 20.5452 24.6471 20.5835 24.6431C20.6217 24.6392 20.6602 24.6353 20.699 24.6314C20.7378 24.6276 20.7769 24.6236 20.8163 24.6199C20.8557 24.616 20.8953 24.6121 20.9353 24.6083C20.9753 24.6045 21.0155 24.6006 21.0561 24.5969C21.0967 24.593 21.1375 24.5892 21.1787 24.5854C21.2198 24.5816 21.2612 24.5778 21.303 24.574C21.3447 24.5702 21.3867 24.5664 21.4291 24.5627C21.4715 24.5587 21.5141 24.555 21.557 24.5512Z" fill="#8a7f84" fill-rule="nonzero" opacity="1" stroke="none"/>
</g>
</svg>
