<svg width="430" height="267" viewBox="0 0 430 267" fill="none" xmlns="http://www.w3.org/2000/svg">
<path d="M45.7124 59C45.7124 45.1929 56.9052 34 70.7124 34H404.712C418.519 34 429.712 45.1929 429.712 59V242C429.712 255.807 418.519 267 404.712 267H70.7124C56.9052 267 45.7124 255.807 45.7124 242V59Z" fill="#110420"/>
<path d="M52.7124 127.741C52.7124 126.969 51.8751 126.488 51.2084 126.877L4.61373 154.061C3.87197 154.494 3.98475 155.599 4.79865 155.873L51.3934 171.556C52.0414 171.774 52.7124 171.292 52.7124 170.608V127.741Z" fill="#110420"/>
<path d="M45.7124 104.798C45.7124 104.014 44.8512 103.535 44.185 103.948L0.472811 131.078C-0.238342 131.519 -0.124955 132.587 0.663043 132.869L44.3752 148.521C45.0266 148.754 45.7124 148.272 45.7124 147.58V104.798Z" fill="#D9D9D9"/>
<path d="M45.7124 25C45.7124 11.1929 56.9052 0 70.7124 0H404.712C418.519 0 429.712 11.1929 429.712 25V208C429.712 221.807 418.519 233 404.712 233H70.7124C56.9052 233 45.7124 221.807 45.7124 208V25Z" fill="#D9D9D9"/>
<path d="M100.639 64.72V82H97.8307V74.308H89.1547V82H86.3347V64.72H89.1547V72.28H97.8307V64.72H100.639Z" fill="#5A3878"/>
<path d="M111.93 74.5C111.93 74.068 111.866 73.668 111.738 73.3C111.618 72.924 111.438 72.6 111.198 72.328C110.958 72.048 110.658 71.832 110.298 71.68C109.946 71.52 109.538 71.44 109.074 71.44C108.138 71.44 107.402 71.708 106.866 72.244C106.33 72.78 105.99 73.532 105.846 74.5H111.93ZM105.774 76.084C105.806 76.78 105.914 77.384 106.098 77.896C106.282 78.4 106.526 78.82 106.83 79.156C107.142 79.492 107.51 79.744 107.934 79.912C108.366 80.072 108.846 80.152 109.374 80.152C109.878 80.152 110.314 80.096 110.682 79.984C111.05 79.864 111.37 79.736 111.642 79.6C111.914 79.456 112.146 79.328 112.338 79.216C112.53 79.096 112.706 79.036 112.866 79.036C113.074 79.036 113.234 79.116 113.346 79.276L114.078 80.224C113.774 80.584 113.43 80.888 113.046 81.136C112.662 81.384 112.254 81.588 111.822 81.748C111.39 81.9 110.946 82.008 110.49 82.072C110.034 82.144 109.59 82.18 109.158 82.18C108.31 82.18 107.522 82.04 106.794 81.76C106.074 81.472 105.446 81.052 104.91 80.5C104.382 79.948 103.966 79.264 103.662 78.448C103.366 77.632 103.218 76.692 103.218 75.628C103.218 74.78 103.35 73.988 103.614 73.252C103.886 72.516 104.27 71.876 104.766 71.332C105.27 70.788 105.878 70.36 106.59 70.048C107.31 69.728 108.122 69.568 109.026 69.568C109.778 69.568 110.474 69.692 111.114 69.94C111.754 70.18 112.306 70.536 112.77 71.008C113.234 71.48 113.594 72.06 113.85 72.748C114.114 73.428 114.246 74.204 114.246 75.076C114.246 75.476 114.202 75.744 114.114 75.88C114.026 76.016 113.866 76.084 113.634 76.084H105.774Z" fill="#5A3878"/>
<path d="M119.28 64.24V82H116.7V64.24H119.28Z" fill="#5A3878"/>
<path d="M125.044 78.928C125.404 79.392 125.796 79.72 126.22 79.912C126.652 80.096 127.128 80.188 127.648 80.188C128.656 80.188 129.44 79.82 130 79.084C130.568 78.348 130.852 77.252 130.852 75.796C130.852 75.044 130.788 74.404 130.66 73.876C130.532 73.34 130.348 72.904 130.108 72.568C129.868 72.232 129.576 71.988 129.232 71.836C128.888 71.684 128.5 71.608 128.068 71.608C127.412 71.608 126.844 71.752 126.364 72.04C125.892 72.32 125.452 72.724 125.044 73.252V78.928ZM124.912 71.536C125.424 70.936 126.004 70.452 126.652 70.084C127.308 69.716 128.068 69.532 128.932 69.532C129.62 69.532 130.244 69.672 130.804 69.952C131.364 70.224 131.844 70.624 132.244 71.152C132.644 71.68 132.952 72.336 133.168 73.12C133.392 73.896 133.504 74.788 133.504 75.796C133.504 76.7 133.38 77.544 133.132 78.328C132.892 79.104 132.544 79.78 132.088 80.356C131.632 80.924 131.08 81.372 130.432 81.7C129.784 82.02 129.052 82.18 128.236 82.18C127.516 82.18 126.904 82.064 126.4 81.832C125.904 81.6 125.452 81.28 125.044 80.872V86.068H122.464V69.76H124.024C124.376 69.76 124.6 69.924 124.696 70.252L124.912 71.536Z" fill="#5A3878"/>
<path d="M138.699 69.76V82H136.119V69.76H138.699ZM139.131 66.064C139.131 66.296 139.083 66.516 138.987 66.724C138.899 66.932 138.775 67.116 138.615 67.276C138.455 67.428 138.267 67.552 138.051 67.648C137.843 67.736 137.619 67.78 137.379 67.78C137.147 67.78 136.927 67.736 136.719 67.648C136.519 67.552 136.343 67.428 136.191 67.276C136.039 67.116 135.915 66.932 135.819 66.724C135.731 66.516 135.687 66.296 135.687 66.064C135.687 65.824 135.731 65.6 135.819 65.392C135.915 65.184 136.039 65.004 136.191 64.852C136.343 64.692 136.519 64.568 136.719 64.48C136.927 64.384 137.147 64.336 137.379 64.336C137.619 64.336 137.843 64.384 138.051 64.48C138.267 64.568 138.455 64.692 138.615 64.852C138.775 65.004 138.899 65.184 138.987 65.392C139.083 65.6 139.131 65.824 139.131 66.064Z" fill="#5A3878"/>
<path d="M144.353 71.38C144.617 71.108 144.889 70.864 145.169 70.648C145.457 70.424 145.761 70.232 146.081 70.072C146.401 69.912 146.741 69.788 147.101 69.7C147.461 69.612 147.853 69.568 148.277 69.568C148.949 69.568 149.537 69.68 150.041 69.904C150.553 70.128 150.981 70.444 151.325 70.852C151.677 71.26 151.941 71.752 152.117 72.328C152.293 72.896 152.381 73.524 152.381 74.212V82H149.813V74.212C149.813 73.388 149.621 72.748 149.237 72.292C148.861 71.836 148.285 71.608 147.509 71.608C146.933 71.608 146.397 71.74 145.901 72.004C145.413 72.268 144.953 72.628 144.521 73.084V82H141.941V69.76H143.501C143.853 69.76 144.077 69.924 144.173 70.252L144.353 71.38Z" fill="#5A3878"/>
<path d="M159.762 75.772C160.562 75.772 161.162 75.568 161.562 75.16C161.962 74.752 162.162 74.22 162.162 73.564C162.162 72.892 161.962 72.36 161.562 71.968C161.162 71.576 160.562 71.38 159.762 71.38C158.97 71.38 158.37 71.576 157.962 71.968C157.562 72.36 157.362 72.892 157.362 73.564C157.362 73.884 157.414 74.18 157.518 74.452C157.622 74.724 157.774 74.96 157.974 75.16C158.174 75.352 158.422 75.504 158.718 75.616C159.022 75.72 159.37 75.772 159.762 75.772ZM163.35 82.6C163.35 82.328 163.27 82.112 163.11 81.952C162.958 81.784 162.75 81.656 162.486 81.568C162.222 81.472 161.914 81.404 161.562 81.364C161.21 81.316 160.834 81.284 160.434 81.268C160.042 81.244 159.638 81.224 159.222 81.208C158.814 81.184 158.418 81.144 158.034 81.088C157.65 81.288 157.334 81.528 157.086 81.808C156.846 82.088 156.726 82.412 156.726 82.78C156.726 83.02 156.786 83.244 156.906 83.452C157.034 83.66 157.226 83.84 157.482 83.992C157.746 84.144 158.078 84.264 158.478 84.352C158.886 84.44 159.374 84.484 159.942 84.484C161.078 84.484 161.93 84.308 162.498 83.956C163.066 83.604 163.35 83.152 163.35 82.6ZM165.942 70.204V71.164C165.942 71.484 165.75 71.68 165.366 71.752L164.142 71.956C164.35 72.42 164.454 72.936 164.454 73.504C164.454 74.104 164.334 74.648 164.094 75.136C163.862 75.624 163.538 76.04 163.122 76.384C162.706 76.728 162.21 76.992 161.634 77.176C161.058 77.36 160.434 77.452 159.762 77.452C159.506 77.452 159.254 77.44 159.006 77.416C158.766 77.384 158.53 77.344 158.298 77.296C158.066 77.432 157.894 77.576 157.782 77.728C157.67 77.88 157.614 78.036 157.614 78.196C157.614 78.46 157.73 78.656 157.962 78.784C158.194 78.912 158.498 79.004 158.874 79.06C159.258 79.116 159.694 79.152 160.182 79.168C160.67 79.184 161.166 79.212 161.67 79.252C162.174 79.292 162.67 79.36 163.158 79.456C163.646 79.544 164.078 79.696 164.454 79.912C164.838 80.12 165.146 80.404 165.378 80.764C165.61 81.124 165.726 81.592 165.726 82.168C165.726 82.696 165.594 83.212 165.33 83.716C165.066 84.22 164.682 84.668 164.178 85.06C163.682 85.452 163.074 85.764 162.354 85.996C161.634 86.236 160.814 86.356 159.894 86.356C158.982 86.356 158.186 86.268 157.506 86.092C156.834 85.916 156.27 85.676 155.814 85.372C155.366 85.076 155.03 84.732 154.806 84.34C154.59 83.948 154.482 83.54 154.482 83.116C154.482 82.54 154.662 82.048 155.022 81.64C155.39 81.232 155.886 80.912 156.51 80.68C156.174 80.52 155.902 80.3 155.694 80.02C155.494 79.74 155.394 79.372 155.394 78.916C155.394 78.556 155.526 78.18 155.79 77.788C156.054 77.396 156.45 77.064 156.978 76.792C156.37 76.456 155.89 76.012 155.538 75.46C155.186 74.9 155.01 74.248 155.01 73.504C155.01 72.896 155.126 72.348 155.358 71.86C155.598 71.372 155.93 70.956 156.354 70.612C156.778 70.268 157.278 70.004 157.854 69.82C158.438 69.636 159.074 69.544 159.762 69.544C160.818 69.544 161.738 69.764 162.522 70.204H165.942Z" fill="#5A3878"/>
<path d="M179.248 69.568C180.152 69.568 180.968 69.716 181.696 70.012C182.432 70.308 183.056 70.728 183.568 71.272C184.088 71.816 184.488 72.476 184.768 73.252C185.048 74.028 185.188 74.9 185.188 75.868C185.188 76.836 185.048 77.708 184.768 78.484C184.488 79.26 184.088 79.924 183.568 80.476C183.056 81.02 182.432 81.44 181.696 81.736C180.968 82.032 180.152 82.18 179.248 82.18C178.336 82.18 177.512 82.032 176.776 81.736C176.048 81.44 175.424 81.02 174.904 80.476C174.384 79.924 173.984 79.26 173.704 78.484C173.424 77.708 173.284 76.836 173.284 75.868C173.284 74.9 173.424 74.028 173.704 73.252C173.984 72.476 174.384 71.816 174.904 71.272C175.424 70.728 176.048 70.308 176.776 70.012C177.512 69.716 178.336 69.568 179.248 69.568ZM179.248 80.164C180.352 80.164 181.172 79.796 181.708 79.06C182.252 78.316 182.524 77.256 182.524 75.88C182.524 74.504 182.252 73.444 181.708 72.7C181.172 71.948 180.352 71.572 179.248 71.572C178.128 71.572 177.296 71.948 176.752 72.7C176.208 73.444 175.936 74.504 175.936 75.88C175.936 77.256 176.208 78.316 176.752 79.06C177.296 79.796 178.128 80.164 179.248 80.164Z" fill="#5A3878"/>
<path d="M190.079 71.38C190.343 71.108 190.615 70.864 190.895 70.648C191.183 70.424 191.487 70.232 191.807 70.072C192.127 69.912 192.467 69.788 192.827 69.7C193.187 69.612 193.579 69.568 194.003 69.568C194.675 69.568 195.263 69.68 195.767 69.904C196.279 70.128 196.707 70.444 197.051 70.852C197.403 71.26 197.667 71.752 197.843 72.328C198.019 72.896 198.107 73.524 198.107 74.212V82H195.539V74.212C195.539 73.388 195.347 72.748 194.963 72.292C194.587 71.836 194.011 71.608 193.235 71.608C192.659 71.608 192.123 71.74 191.627 72.004C191.139 72.268 190.679 72.628 190.247 73.084V82H187.667V69.76H189.227C189.579 69.76 189.803 69.924 189.899 70.252L190.079 71.38Z" fill="#5A3878"/>
<path d="M209.148 74.5C209.148 74.068 209.084 73.668 208.956 73.3C208.836 72.924 208.656 72.6 208.416 72.328C208.176 72.048 207.876 71.832 207.516 71.68C207.164 71.52 206.756 71.44 206.292 71.44C205.356 71.44 204.62 71.708 204.084 72.244C203.548 72.78 203.208 73.532 203.064 74.5H209.148ZM202.992 76.084C203.024 76.78 203.132 77.384 203.316 77.896C203.5 78.4 203.744 78.82 204.048 79.156C204.36 79.492 204.728 79.744 205.152 79.912C205.584 80.072 206.064 80.152 206.592 80.152C207.096 80.152 207.532 80.096 207.9 79.984C208.268 79.864 208.588 79.736 208.86 79.6C209.132 79.456 209.364 79.328 209.556 79.216C209.748 79.096 209.924 79.036 210.084 79.036C210.292 79.036 210.452 79.116 210.564 79.276L211.296 80.224C210.992 80.584 210.648 80.888 210.264 81.136C209.88 81.384 209.472 81.588 209.04 81.748C208.608 81.9 208.164 82.008 207.708 82.072C207.252 82.144 206.808 82.18 206.376 82.18C205.528 82.18 204.74 82.04 204.012 81.76C203.292 81.472 202.664 81.052 202.128 80.5C201.6 79.948 201.184 79.264 200.88 78.448C200.584 77.632 200.436 76.692 200.436 75.628C200.436 74.78 200.568 73.988 200.832 73.252C201.104 72.516 201.488 71.876 201.984 71.332C202.488 70.788 203.096 70.36 203.808 70.048C204.528 69.728 205.34 69.568 206.244 69.568C206.996 69.568 207.692 69.692 208.332 69.94C208.972 70.18 209.524 70.536 209.988 71.008C210.452 71.48 210.812 72.06 211.068 72.748C211.332 73.428 211.464 74.204 211.464 75.076C211.464 75.476 211.42 75.744 211.332 75.88C211.244 76.016 211.084 76.084 210.852 76.084H202.992Z" fill="#5A3878"/>
<path d="M222.427 78.928C222.787 79.392 223.179 79.72 223.603 79.912C224.035 80.096 224.511 80.188 225.031 80.188C226.039 80.188 226.823 79.82 227.383 79.084C227.951 78.348 228.235 77.252 228.235 75.796C228.235 75.044 228.171 74.404 228.043 73.876C227.915 73.34 227.731 72.904 227.491 72.568C227.251 72.232 226.959 71.988 226.615 71.836C226.271 71.684 225.883 71.608 225.451 71.608C224.795 71.608 224.227 71.752 223.747 72.04C223.275 72.32 222.835 72.724 222.427 73.252V78.928ZM222.295 71.536C222.807 70.936 223.387 70.452 224.035 70.084C224.691 69.716 225.451 69.532 226.315 69.532C227.003 69.532 227.627 69.672 228.187 69.952C228.747 70.224 229.227 70.624 229.627 71.152C230.027 71.68 230.335 72.336 230.551 73.12C230.775 73.896 230.887 74.788 230.887 75.796C230.887 76.7 230.763 77.544 230.515 78.328C230.275 79.104 229.927 79.78 229.471 80.356C229.015 80.924 228.463 81.372 227.815 81.7C227.167 82.02 226.435 82.18 225.619 82.18C224.899 82.18 224.287 82.064 223.783 81.832C223.287 81.6 222.835 81.28 222.427 80.872V86.068H219.847V69.76H221.407C221.759 69.76 221.983 69.924 222.079 70.252L222.295 71.536Z" fill="#5A3878"/>
<path d="M241.422 74.5C241.422 74.068 241.358 73.668 241.23 73.3C241.11 72.924 240.93 72.6 240.69 72.328C240.45 72.048 240.15 71.832 239.79 71.68C239.438 71.52 239.03 71.44 238.566 71.44C237.63 71.44 236.894 71.708 236.358 72.244C235.822 72.78 235.482 73.532 235.338 74.5H241.422ZM235.266 76.084C235.298 76.78 235.406 77.384 235.59 77.896C235.774 78.4 236.018 78.82 236.322 79.156C236.634 79.492 237.002 79.744 237.426 79.912C237.858 80.072 238.338 80.152 238.866 80.152C239.37 80.152 239.806 80.096 240.174 79.984C240.542 79.864 240.862 79.736 241.134 79.6C241.406 79.456 241.638 79.328 241.83 79.216C242.022 79.096 242.198 79.036 242.358 79.036C242.566 79.036 242.726 79.116 242.838 79.276L243.57 80.224C243.266 80.584 242.922 80.888 242.538 81.136C242.154 81.384 241.746 81.588 241.314 81.748C240.882 81.9 240.438 82.008 239.982 82.072C239.526 82.144 239.082 82.18 238.65 82.18C237.802 82.18 237.014 82.04 236.286 81.76C235.566 81.472 234.938 81.052 234.402 80.5C233.874 79.948 233.458 79.264 233.154 78.448C232.858 77.632 232.71 76.692 232.71 75.628C232.71 74.78 232.842 73.988 233.106 73.252C233.378 72.516 233.762 71.876 234.258 71.332C234.762 70.788 235.37 70.36 236.082 70.048C236.802 69.728 237.614 69.568 238.518 69.568C239.27 69.568 239.966 69.692 240.606 69.94C241.246 70.18 241.798 70.536 242.262 71.008C242.726 71.48 243.086 72.06 243.342 72.748C243.606 73.428 243.738 74.204 243.738 75.076C243.738 75.476 243.694 75.744 243.606 75.88C243.518 76.016 243.358 76.084 243.126 76.084H235.266Z" fill="#5A3878"/>
<path d="M248.58 72.028C248.964 71.252 249.428 70.644 249.972 70.204C250.516 69.756 251.168 69.532 251.928 69.532C252.192 69.532 252.44 69.564 252.672 69.628C252.904 69.684 253.112 69.772 253.296 69.892L253.116 71.836C253.084 71.972 253.032 72.068 252.96 72.124C252.896 72.172 252.808 72.196 252.696 72.196C252.576 72.196 252.404 72.176 252.18 72.136C251.956 72.088 251.72 72.064 251.472 72.064C251.112 72.064 250.792 72.116 250.512 72.22C250.24 72.324 249.992 72.476 249.768 72.676C249.552 72.876 249.36 73.12 249.192 73.408C249.024 73.696 248.868 74.024 248.724 74.392V82H246.144V69.76H247.644C247.916 69.76 248.104 69.812 248.208 69.916C248.312 70.012 248.384 70.184 248.424 70.432L248.58 72.028Z" fill="#5A3878"/>
<path d="M262.241 71.98C262.177 72.092 262.105 72.172 262.025 72.22C261.945 72.268 261.845 72.292 261.725 72.292C261.589 72.292 261.441 72.252 261.281 72.172C261.121 72.084 260.933 71.988 260.717 71.884C260.501 71.78 260.245 71.688 259.949 71.608C259.661 71.52 259.321 71.476 258.929 71.476C258.609 71.476 258.317 71.516 258.053 71.596C257.797 71.668 257.577 71.776 257.393 71.92C257.217 72.056 257.081 72.22 256.985 72.412C256.889 72.596 256.841 72.796 256.841 73.012C256.841 73.3 256.929 73.54 257.105 73.732C257.281 73.924 257.513 74.092 257.801 74.236C258.089 74.372 258.417 74.496 258.785 74.608C259.153 74.72 259.529 74.84 259.913 74.968C260.297 75.096 260.673 75.244 261.041 75.412C261.409 75.58 261.737 75.788 262.025 76.036C262.313 76.276 262.545 76.572 262.721 76.924C262.897 77.268 262.985 77.688 262.985 78.184C262.985 78.76 262.881 79.292 262.673 79.78C262.465 80.268 262.161 80.692 261.761 81.052C261.361 81.412 260.861 81.692 260.261 81.892C259.669 82.092 258.989 82.192 258.221 82.192C257.797 82.192 257.385 82.152 256.985 82.072C256.593 82 256.217 81.9 255.857 81.772C255.505 81.636 255.173 81.476 254.861 81.292C254.557 81.108 254.285 80.908 254.045 80.692L254.645 79.708C254.717 79.588 254.805 79.496 254.909 79.432C255.021 79.36 255.157 79.324 255.317 79.324C255.485 79.324 255.649 79.38 255.809 79.492C255.977 79.596 256.169 79.712 256.385 79.84C256.609 79.968 256.877 80.088 257.189 80.2C257.501 80.304 257.889 80.356 258.353 80.356C258.737 80.356 259.069 80.312 259.349 80.224C259.629 80.128 259.861 80 260.045 79.84C260.229 79.68 260.365 79.5 260.453 79.3C260.541 79.092 260.585 78.872 260.585 78.64C260.585 78.328 260.497 78.072 260.321 77.872C260.145 77.672 259.909 77.5 259.613 77.356C259.325 77.212 258.993 77.084 258.617 76.972C258.249 76.86 257.873 76.74 257.489 76.612C257.105 76.484 256.725 76.336 256.349 76.168C255.981 76 255.649 75.788 255.353 75.532C255.065 75.268 254.833 74.952 254.657 74.584C254.481 74.208 254.393 73.752 254.393 73.216C254.393 72.728 254.489 72.264 254.681 71.824C254.881 71.384 255.169 70.996 255.545 70.66C255.929 70.324 256.397 70.06 256.949 69.868C257.509 69.668 258.153 69.568 258.881 69.568C259.705 69.568 260.453 69.7 261.125 69.964C261.797 70.228 262.361 70.588 262.817 71.044L262.241 71.98Z" fill="#5A3878"/>
<path d="M270.701 69.568C271.605 69.568 272.421 69.716 273.149 70.012C273.885 70.308 274.509 70.728 275.021 71.272C275.541 71.816 275.941 72.476 276.221 73.252C276.501 74.028 276.641 74.9 276.641 75.868C276.641 76.836 276.501 77.708 276.221 78.484C275.941 79.26 275.541 79.924 275.021 80.476C274.509 81.02 273.885 81.44 273.149 81.736C272.421 82.032 271.605 82.18 270.701 82.18C269.789 82.18 268.965 82.032 268.229 81.736C267.501 81.44 266.877 81.02 266.357 80.476C265.837 79.924 265.437 79.26 265.157 78.484C264.877 77.708 264.737 76.836 264.737 75.868C264.737 74.9 264.877 74.028 265.157 73.252C265.437 72.476 265.837 71.816 266.357 71.272C266.877 70.728 267.501 70.308 268.229 70.012C268.965 69.716 269.789 69.568 270.701 69.568ZM270.701 80.164C271.805 80.164 272.625 79.796 273.161 79.06C273.705 78.316 273.977 77.256 273.977 75.88C273.977 74.504 273.705 73.444 273.161 72.7C272.625 71.948 271.805 71.572 270.701 71.572C269.581 71.572 268.749 71.948 268.205 72.7C267.661 73.444 267.389 74.504 267.389 75.88C267.389 77.256 267.661 78.316 268.205 79.06C268.749 79.796 269.581 80.164 270.701 80.164Z" fill="#5A3878"/>
<path d="M281.532 71.38C281.796 71.108 282.068 70.864 282.348 70.648C282.636 70.424 282.94 70.232 283.26 70.072C283.58 69.912 283.92 69.788 284.28 69.7C284.64 69.612 285.032 69.568 285.456 69.568C286.128 69.568 286.716 69.68 287.22 69.904C287.732 70.128 288.16 70.444 288.504 70.852C288.856 71.26 289.12 71.752 289.296 72.328C289.472 72.896 289.56 73.524 289.56 74.212V82H286.992V74.212C286.992 73.388 286.8 72.748 286.416 72.292C286.04 71.836 285.464 71.608 284.688 71.608C284.112 71.608 283.576 71.74 283.08 72.004C282.592 72.268 282.132 72.628 281.7 73.084V82H279.12V69.76H280.68C281.032 69.76 281.256 69.924 281.352 70.252L281.532 71.38Z" fill="#5A3878"/>
<path d="M298.55 82V69.76H300.11C300.462 69.76 300.686 69.924 300.782 70.252L300.95 71.32C301.174 71.064 301.406 70.832 301.646 70.624C301.886 70.408 302.142 70.224 302.414 70.072C302.694 69.912 302.99 69.788 303.302 69.7C303.622 69.612 303.966 69.568 304.334 69.568C304.726 69.568 305.086 69.624 305.414 69.736C305.742 69.848 306.03 70.008 306.278 70.216C306.534 70.424 306.754 70.676 306.938 70.972C307.122 71.268 307.274 71.6 307.394 71.968C307.578 71.544 307.81 71.18 308.09 70.876C308.37 70.572 308.682 70.324 309.026 70.132C309.37 69.94 309.734 69.8 310.118 69.712C310.51 69.616 310.906 69.568 311.306 69.568C311.962 69.568 312.546 69.672 313.058 69.88C313.578 70.088 314.014 70.392 314.366 70.792C314.726 71.184 314.998 71.668 315.182 72.244C315.366 72.82 315.458 73.476 315.458 74.212V82H312.878V74.212C312.878 73.348 312.69 72.7 312.314 72.268C311.946 71.828 311.398 71.608 310.67 71.608C310.342 71.608 310.034 71.664 309.746 71.776C309.458 71.888 309.206 72.052 308.99 72.268C308.774 72.484 308.602 72.756 308.474 73.084C308.354 73.404 308.294 73.78 308.294 74.212V82H305.714V74.212C305.714 73.316 305.534 72.66 305.174 72.244C304.814 71.82 304.286 71.608 303.59 71.608C303.11 71.608 302.666 71.732 302.258 71.98C301.85 72.22 301.474 72.552 301.13 72.976V82H298.55Z" fill="#5A3878"/>
<path d="M321.16 69.76V82H318.58V69.76H321.16ZM321.592 66.064C321.592 66.296 321.544 66.516 321.448 66.724C321.36 66.932 321.236 67.116 321.076 67.276C320.916 67.428 320.728 67.552 320.512 67.648C320.304 67.736 320.08 67.78 319.84 67.78C319.608 67.78 319.388 67.736 319.18 67.648C318.98 67.552 318.804 67.428 318.652 67.276C318.5 67.116 318.376 66.932 318.28 66.724C318.192 66.516 318.148 66.296 318.148 66.064C318.148 65.824 318.192 65.6 318.28 65.392C318.376 65.184 318.5 65.004 318.652 64.852C318.804 64.692 318.98 64.568 319.18 64.48C319.388 64.384 319.608 64.336 319.84 64.336C320.08 64.336 320.304 64.384 320.512 64.48C320.728 64.568 320.916 64.692 321.076 64.852C321.236 65.004 321.36 65.184 321.448 65.392C321.544 65.6 321.592 65.824 321.592 66.064Z" fill="#5A3878"/>
<path d="M328.77 75.772C329.57 75.772 330.17 75.568 330.57 75.16C330.97 74.752 331.17 74.22 331.17 73.564C331.17 72.892 330.97 72.36 330.57 71.968C330.17 71.576 329.57 71.38 328.77 71.38C327.978 71.38 327.378 71.576 326.97 71.968C326.57 72.36 326.37 72.892 326.37 73.564C326.37 73.884 326.422 74.18 326.526 74.452C326.63 74.724 326.782 74.96 326.982 75.16C327.182 75.352 327.43 75.504 327.726 75.616C328.03 75.72 328.378 75.772 328.77 75.772ZM332.358 82.6C332.358 82.328 332.278 82.112 332.118 81.952C331.966 81.784 331.758 81.656 331.494 81.568C331.23 81.472 330.922 81.404 330.57 81.364C330.218 81.316 329.842 81.284 329.442 81.268C329.05 81.244 328.646 81.224 328.23 81.208C327.822 81.184 327.426 81.144 327.042 81.088C326.658 81.288 326.342 81.528 326.094 81.808C325.854 82.088 325.734 82.412 325.734 82.78C325.734 83.02 325.794 83.244 325.914 83.452C326.042 83.66 326.234 83.84 326.49 83.992C326.754 84.144 327.086 84.264 327.486 84.352C327.894 84.44 328.382 84.484 328.95 84.484C330.086 84.484 330.938 84.308 331.506 83.956C332.074 83.604 332.358 83.152 332.358 82.6ZM334.95 70.204V71.164C334.95 71.484 334.758 71.68 334.374 71.752L333.15 71.956C333.358 72.42 333.462 72.936 333.462 73.504C333.462 74.104 333.342 74.648 333.102 75.136C332.87 75.624 332.546 76.04 332.13 76.384C331.714 76.728 331.218 76.992 330.642 77.176C330.066 77.36 329.442 77.452 328.77 77.452C328.514 77.452 328.262 77.44 328.014 77.416C327.774 77.384 327.538 77.344 327.306 77.296C327.074 77.432 326.902 77.576 326.79 77.728C326.678 77.88 326.622 78.036 326.622 78.196C326.622 78.46 326.738 78.656 326.97 78.784C327.202 78.912 327.506 79.004 327.882 79.06C328.266 79.116 328.702 79.152 329.19 79.168C329.678 79.184 330.174 79.212 330.678 79.252C331.182 79.292 331.678 79.36 332.166 79.456C332.654 79.544 333.086 79.696 333.462 79.912C333.846 80.12 334.154 80.404 334.386 80.764C334.618 81.124 334.734 81.592 334.734 82.168C334.734 82.696 334.602 83.212 334.338 83.716C334.074 84.22 333.69 84.668 333.186 85.06C332.69 85.452 332.082 85.764 331.362 85.996C330.642 86.236 329.822 86.356 328.902 86.356C327.99 86.356 327.194 86.268 326.514 86.092C325.842 85.916 325.278 85.676 324.822 85.372C324.374 85.076 324.038 84.732 323.814 84.34C323.598 83.948 323.49 83.54 323.49 83.116C323.49 82.54 323.67 82.048 324.03 81.64C324.398 81.232 324.894 80.912 325.518 80.68C325.182 80.52 324.91 80.3 324.702 80.02C324.502 79.74 324.402 79.372 324.402 78.916C324.402 78.556 324.534 78.18 324.798 77.788C325.062 77.396 325.458 77.064 325.986 76.792C325.378 76.456 324.898 76.012 324.546 75.46C324.194 74.9 324.018 74.248 324.018 73.504C324.018 72.896 324.134 72.348 324.366 71.86C324.606 71.372 324.938 70.956 325.362 70.612C325.786 70.268 326.286 70.004 326.862 69.82C327.446 69.636 328.082 69.544 328.77 69.544C329.826 69.544 330.746 69.764 331.53 70.204H334.95Z" fill="#5A3878"/>
<path d="M339.567 71.212C340.071 70.716 340.623 70.32 341.223 70.024C341.823 69.72 342.523 69.568 343.323 69.568C343.995 69.568 344.583 69.68 345.087 69.904C345.599 70.128 346.027 70.444 346.371 70.852C346.723 71.26 346.987 71.752 347.163 72.328C347.339 72.896 347.427 73.524 347.427 74.212V82H344.859V74.212C344.859 73.388 344.667 72.748 344.283 72.292C343.907 71.836 343.331 71.608 342.555 71.608C341.979 71.608 341.443 71.74 340.947 72.004C340.459 72.268 339.999 72.628 339.567 73.084V82H336.987V64.24H339.567V71.212Z" fill="#5A3878"/>
<path d="M354.201 82.192C353.185 82.192 352.401 81.908 351.849 81.34C351.305 80.764 351.033 79.956 351.033 78.916V71.788H349.689C349.545 71.788 349.421 71.744 349.317 71.656C349.213 71.56 349.161 71.42 349.161 71.236V70.192L351.141 69.904L351.705 66.364C351.745 66.228 351.813 66.12 351.909 66.04C352.005 65.952 352.133 65.908 352.293 65.908H353.613V69.928H357.009V71.788H353.613V78.736C353.613 79.176 353.721 79.512 353.937 79.744C354.153 79.976 354.441 80.092 354.801 80.092C355.001 80.092 355.173 80.068 355.317 80.02C355.461 79.964 355.585 79.908 355.689 79.852C355.793 79.788 355.881 79.732 355.953 79.684C356.033 79.628 356.109 79.6 356.181 79.6C356.325 79.6 356.441 79.68 356.529 79.84L357.297 81.1C356.897 81.452 356.425 81.724 355.881 81.916C355.337 82.1 354.777 82.192 354.201 82.192Z" fill="#5A3878"/>
<path d="M367.431 71.38C367.695 71.108 367.967 70.864 368.247 70.648C368.535 70.424 368.839 70.232 369.159 70.072C369.479 69.912 369.819 69.788 370.179 69.7C370.539 69.612 370.931 69.568 371.355 69.568C372.027 69.568 372.615 69.68 373.119 69.904C373.631 70.128 374.059 70.444 374.403 70.852C374.755 71.26 375.019 71.752 375.195 72.328C375.371 72.896 375.459 73.524 375.459 74.212V82H372.891V74.212C372.891 73.388 372.699 72.748 372.315 72.292C371.939 71.836 371.363 71.608 370.587 71.608C370.011 71.608 369.475 71.74 368.979 72.004C368.491 72.268 368.031 72.628 367.599 73.084V82H365.019V69.76H366.579C366.931 69.76 367.155 69.924 367.251 70.252L367.431 71.38Z" fill="#5A3878"/>
<path d="M383.764 69.568C384.668 69.568 385.484 69.716 386.212 70.012C386.948 70.308 387.572 70.728 388.084 71.272C388.604 71.816 389.004 72.476 389.284 73.252C389.564 74.028 389.704 74.9 389.704 75.868C389.704 76.836 389.564 77.708 389.284 78.484C389.004 79.26 388.604 79.924 388.084 80.476C387.572 81.02 386.948 81.44 386.212 81.736C385.484 82.032 384.668 82.18 383.764 82.18C382.852 82.18 382.028 82.032 381.292 81.736C380.564 81.44 379.94 81.02 379.42 80.476C378.9 79.924 378.5 79.26 378.22 78.484C377.94 77.708 377.8 76.836 377.8 75.868C377.8 74.9 377.94 74.028 378.22 73.252C378.5 72.476 378.9 71.816 379.42 71.272C379.94 70.728 380.564 70.308 381.292 70.012C382.028 69.716 382.852 69.568 383.764 69.568ZM383.764 80.164C384.868 80.164 385.688 79.796 386.224 79.06C386.768 78.316 387.04 77.256 387.04 75.88C387.04 74.504 386.768 73.444 386.224 72.7C385.688 71.948 384.868 71.572 383.764 71.572C382.644 71.572 381.812 71.948 381.268 72.7C380.724 73.444 380.452 74.504 380.452 75.88C380.452 77.256 380.724 78.316 381.268 79.06C381.812 79.796 382.644 80.164 383.764 80.164Z" fill="#5A3878"/>
<path d="M395.872 82.192C394.856 82.192 394.072 81.908 393.52 81.34C392.976 80.764 392.704 79.956 392.704 78.916V71.788H391.36C391.216 71.788 391.092 71.744 390.988 71.656C390.884 71.56 390.832 71.42 390.832 71.236V70.192L392.812 69.904L393.376 66.364C393.416 66.228 393.484 66.12 393.58 66.04C393.676 65.952 393.804 65.908 393.964 65.908H395.284V69.928H398.68V71.788H395.284V78.736C395.284 79.176 395.392 79.512 395.608 79.744C395.824 79.976 396.112 80.092 396.472 80.092C396.672 80.092 396.844 80.068 396.988 80.02C397.132 79.964 397.256 79.908 397.36 79.852C397.464 79.788 397.552 79.732 397.624 79.684C397.704 79.628 397.78 79.6 397.852 79.6C397.996 79.6 398.112 79.68 398.2 79.84L398.968 81.1C398.568 81.452 398.096 81.724 397.552 81.916C397.008 82.1 396.448 82.192 395.872 82.192Z" fill="#5A3878"/>
<path d="M91.3778 101.16C91.2978 101.264 91.2218 101.344 91.1498 101.4C91.0778 101.456 90.9738 101.484 90.8378 101.484C90.7018 101.484 90.5578 101.436 90.4058 101.34C90.2618 101.244 90.0858 101.14 89.8778 101.028C89.6778 100.908 89.4338 100.8 89.1458 100.704C88.8578 100.608 88.4978 100.56 88.0658 100.56C87.5058 100.56 87.0138 100.66 86.5898 100.86C86.1738 101.06 85.8218 101.348 85.5338 101.724C85.2538 102.092 85.0418 102.544 84.8978 103.08C84.7618 103.608 84.6938 104.204 84.6938 104.868C84.6938 105.556 84.7698 106.168 84.9218 106.704C85.0738 107.24 85.2898 107.692 85.5698 108.06C85.8578 108.428 86.2018 108.708 86.6018 108.9C87.0098 109.092 87.4658 109.188 87.9698 109.188C88.4658 109.188 88.8698 109.128 89.1818 109.008C89.4938 108.888 89.7538 108.756 89.9618 108.612C90.1698 108.468 90.3458 108.336 90.4898 108.216C90.6418 108.096 90.8018 108.036 90.9698 108.036C91.1778 108.036 91.3378 108.116 91.4498 108.276L92.1818 109.224C91.8858 109.584 91.5578 109.888 91.1978 110.136C90.8378 110.384 90.4578 110.588 90.0578 110.748C89.6578 110.9 89.2418 111.008 88.8098 111.072C88.3778 111.144 87.9418 111.18 87.5018 111.18C86.7418 111.18 86.0298 111.04 85.3658 110.76C84.7098 110.472 84.1338 110.06 83.6378 109.524C83.1498 108.98 82.7618 108.32 82.4738 107.544C82.1938 106.76 82.0538 105.868 82.0538 104.868C82.0538 103.964 82.1818 103.128 82.4378 102.36C82.6938 101.584 83.0658 100.916 83.5538 100.356C84.0498 99.796 84.6618 99.36 85.3898 99.048C86.1178 98.728 86.9578 98.568 87.9098 98.568C88.7978 98.568 89.5778 98.712 90.2498 99C90.9298 99.288 91.5338 99.696 92.0618 100.224L91.3778 101.16Z" fill="#5A3878"/>
<path d="M96.837 100.212C97.341 99.716 97.893 99.32 98.493 99.024C99.093 98.72 99.793 98.568 100.593 98.568C101.265 98.568 101.853 98.68 102.357 98.904C102.869 99.128 103.297 99.444 103.641 99.852C103.993 100.26 104.257 100.752 104.433 101.328C104.609 101.896 104.697 102.524 104.697 103.212V111H102.129V103.212C102.129 102.388 101.937 101.748 101.553 101.292C101.177 100.836 100.601 100.608 99.825 100.608C99.249 100.608 98.713 100.74 98.217 101.004C97.729 101.268 97.269 101.628 96.837 102.084V111H94.257V93.24H96.837V100.212Z" fill="#5A3878"/>
<path d="M114.25 105.648C113.33 105.68 112.554 105.756 111.922 105.876C111.29 105.988 110.778 106.136 110.386 106.32C109.994 106.496 109.71 106.708 109.534 106.956C109.366 107.204 109.282 107.476 109.282 107.772C109.282 108.06 109.326 108.308 109.414 108.516C109.51 108.716 109.638 108.884 109.798 109.02C109.966 109.148 110.158 109.244 110.374 109.308C110.598 109.364 110.842 109.392 111.106 109.392C111.778 109.392 112.354 109.268 112.834 109.02C113.322 108.764 113.794 108.396 114.25 107.916V105.648ZM107.41 100.464C108.794 99.176 110.442 98.532 112.354 98.532C113.058 98.532 113.682 98.648 114.226 98.88C114.778 99.104 115.238 99.424 115.606 99.84C115.982 100.256 116.266 100.752 116.458 101.328C116.658 101.896 116.758 102.528 116.758 103.224V111H115.606C115.358 111 115.17 110.964 115.042 110.892C114.914 110.812 114.806 110.656 114.718 110.424L114.466 109.428C114.154 109.708 113.846 109.96 113.542 110.184C113.238 110.4 112.922 110.584 112.594 110.736C112.274 110.888 111.926 111 111.55 111.072C111.182 111.152 110.774 111.192 110.326 111.192C109.83 111.192 109.366 111.124 108.934 110.988C108.51 110.852 108.142 110.648 107.83 110.376C107.518 110.096 107.27 109.752 107.086 109.344C106.91 108.936 106.822 108.456 106.822 107.904C106.822 107.432 106.946 106.972 107.194 106.524C107.45 106.076 107.866 105.676 108.442 105.324C109.026 104.964 109.79 104.668 110.734 104.436C111.686 104.204 112.858 104.072 114.25 104.04V103.224C114.25 102.344 114.062 101.688 113.686 101.256C113.31 100.824 112.758 100.608 112.03 100.608C111.534 100.608 111.118 100.672 110.782 100.8C110.446 100.92 110.154 101.052 109.906 101.196C109.658 101.34 109.438 101.476 109.246 101.604C109.054 101.724 108.85 101.784 108.634 101.784C108.458 101.784 108.306 101.74 108.178 101.652C108.058 101.556 107.958 101.44 107.878 101.304L107.41 100.464Z" fill="#5A3878"/>
<path d="M122.192 100.38C122.456 100.108 122.728 99.864 123.008 99.648C123.296 99.424 123.6 99.232 123.92 99.072C124.24 98.912 124.58 98.788 124.94 98.7C125.3 98.612 125.692 98.568 126.116 98.568C126.788 98.568 127.376 98.68 127.88 98.904C128.392 99.128 128.82 99.444 129.164 99.852C129.516 100.26 129.78 100.752 129.956 101.328C130.132 101.896 130.22 102.524 130.22 103.212V111H127.652V103.212C127.652 102.388 127.46 101.748 127.076 101.292C126.7 100.836 126.124 100.608 125.348 100.608C124.772 100.608 124.236 100.74 123.74 101.004C123.252 101.268 122.792 101.628 122.36 102.084V111H119.78V98.76H121.34C121.692 98.76 121.916 98.924 122.012 99.252L122.192 100.38Z" fill="#5A3878"/>
<path d="M137.602 104.772C138.402 104.772 139.002 104.568 139.402 104.16C139.802 103.752 140.002 103.22 140.002 102.564C140.002 101.892 139.802 101.36 139.402 100.968C139.002 100.576 138.402 100.38 137.602 100.38C136.81 100.38 136.21 100.576 135.802 100.968C135.402 101.36 135.202 101.892 135.202 102.564C135.202 102.884 135.254 103.18 135.358 103.452C135.462 103.724 135.614 103.96 135.814 104.16C136.014 104.352 136.262 104.504 136.558 104.616C136.862 104.72 137.21 104.772 137.602 104.772ZM141.19 111.6C141.19 111.328 141.11 111.112 140.95 110.952C140.798 110.784 140.59 110.656 140.326 110.568C140.062 110.472 139.754 110.404 139.402 110.364C139.05 110.316 138.674 110.284 138.274 110.268C137.882 110.244 137.478 110.224 137.062 110.208C136.654 110.184 136.258 110.144 135.874 110.088C135.49 110.288 135.174 110.528 134.926 110.808C134.686 111.088 134.566 111.412 134.566 111.78C134.566 112.02 134.626 112.244 134.746 112.452C134.874 112.66 135.066 112.84 135.322 112.992C135.586 113.144 135.918 113.264 136.318 113.352C136.726 113.44 137.214 113.484 137.782 113.484C138.918 113.484 139.77 113.308 140.338 112.956C140.906 112.604 141.19 112.152 141.19 111.6ZM143.782 99.204V100.164C143.782 100.484 143.59 100.68 143.206 100.752L141.982 100.956C142.19 101.42 142.294 101.936 142.294 102.504C142.294 103.104 142.174 103.648 141.934 104.136C141.702 104.624 141.378 105.04 140.962 105.384C140.546 105.728 140.05 105.992 139.474 106.176C138.898 106.36 138.274 106.452 137.602 106.452C137.346 106.452 137.094 106.44 136.846 106.416C136.606 106.384 136.37 106.344 136.138 106.296C135.906 106.432 135.734 106.576 135.622 106.728C135.51 106.88 135.454 107.036 135.454 107.196C135.454 107.46 135.57 107.656 135.802 107.784C136.034 107.912 136.338 108.004 136.714 108.06C137.098 108.116 137.534 108.152 138.022 108.168C138.51 108.184 139.006 108.212 139.51 108.252C140.014 108.292 140.51 108.36 140.998 108.456C141.486 108.544 141.918 108.696 142.294 108.912C142.678 109.12 142.986 109.404 143.218 109.764C143.45 110.124 143.566 110.592 143.566 111.168C143.566 111.696 143.434 112.212 143.17 112.716C142.906 113.22 142.522 113.668 142.018 114.06C141.522 114.452 140.914 114.764 140.194 114.996C139.474 115.236 138.654 115.356 137.734 115.356C136.822 115.356 136.026 115.268 135.346 115.092C134.674 114.916 134.11 114.676 133.654 114.372C133.206 114.076 132.87 113.732 132.646 113.34C132.43 112.948 132.322 112.54 132.322 112.116C132.322 111.54 132.502 111.048 132.862 110.64C133.23 110.232 133.726 109.912 134.35 109.68C134.014 109.52 133.742 109.3 133.534 109.02C133.334 108.74 133.234 108.372 133.234 107.916C133.234 107.556 133.366 107.18 133.63 106.788C133.894 106.396 134.29 106.064 134.818 105.792C134.21 105.456 133.73 105.012 133.378 104.46C133.026 103.9 132.85 103.248 132.85 102.504C132.85 101.896 132.966 101.348 133.198 100.86C133.438 100.372 133.77 99.956 134.194 99.612C134.618 99.268 135.118 99.004 135.694 98.82C136.278 98.636 136.914 98.544 137.602 98.544C138.658 98.544 139.578 98.764 140.362 99.204H143.782Z" fill="#5A3878"/>
<path d="M153.637 103.5C153.637 103.068 153.573 102.668 153.445 102.3C153.325 101.924 153.145 101.6 152.905 101.328C152.665 101.048 152.365 100.832 152.005 100.68C151.653 100.52 151.245 100.44 150.781 100.44C149.845 100.44 149.109 100.708 148.573 101.244C148.037 101.78 147.697 102.532 147.553 103.5H153.637ZM147.481 105.084C147.513 105.78 147.621 106.384 147.805 106.896C147.989 107.4 148.233 107.82 148.537 108.156C148.849 108.492 149.217 108.744 149.641 108.912C150.073 109.072 150.553 109.152 151.081 109.152C151.585 109.152 152.021 109.096 152.389 108.984C152.757 108.864 153.077 108.736 153.349 108.6C153.621 108.456 153.853 108.328 154.045 108.216C154.237 108.096 154.413 108.036 154.573 108.036C154.781 108.036 154.941 108.116 155.053 108.276L155.785 109.224C155.481 109.584 155.137 109.888 154.753 110.136C154.369 110.384 153.961 110.588 153.529 110.748C153.097 110.9 152.653 111.008 152.197 111.072C151.741 111.144 151.297 111.18 150.865 111.18C150.017 111.18 149.229 111.04 148.501 110.76C147.781 110.472 147.153 110.052 146.617 109.5C146.089 108.948 145.673 108.264 145.369 107.448C145.073 106.632 144.925 105.692 144.925 104.628C144.925 103.78 145.057 102.988 145.321 102.252C145.593 101.516 145.977 100.876 146.473 100.332C146.977 99.788 147.585 99.36 148.297 99.048C149.017 98.728 149.829 98.568 150.733 98.568C151.485 98.568 152.181 98.692 152.821 98.94C153.461 99.18 154.013 99.536 154.477 100.008C154.941 100.48 155.301 101.06 155.557 101.748C155.821 102.428 155.953 103.204 155.953 104.076C155.953 104.476 155.909 104.744 155.821 104.88C155.733 105.016 155.573 105.084 155.341 105.084H147.481Z" fill="#5A3878"/>
<path d="M168.259 111.192C167.243 111.192 166.459 110.908 165.907 110.34C165.363 109.764 165.091 108.956 165.091 107.916V100.788H163.747C163.603 100.788 163.479 100.744 163.375 100.656C163.271 100.56 163.219 100.42 163.219 100.236V99.192L165.199 98.904L165.763 95.364C165.803 95.228 165.871 95.12 165.967 95.04C166.063 94.952 166.191 94.908 166.351 94.908H167.671V98.928H171.067V100.788H167.671V107.736C167.671 108.176 167.779 108.512 167.995 108.744C168.211 108.976 168.499 109.092 168.859 109.092C169.059 109.092 169.231 109.068 169.375 109.02C169.519 108.964 169.643 108.908 169.747 108.852C169.851 108.788 169.939 108.732 170.011 108.684C170.091 108.628 170.167 108.6 170.239 108.6C170.383 108.6 170.499 108.68 170.587 108.84L171.355 110.1C170.955 110.452 170.483 110.724 169.939 110.916C169.395 111.1 168.835 111.192 168.259 111.192Z" fill="#5A3878"/>
<path d="M175.681 100.212C176.185 99.716 176.737 99.32 177.337 99.024C177.937 98.72 178.637 98.568 179.437 98.568C180.109 98.568 180.697 98.68 181.201 98.904C181.713 99.128 182.141 99.444 182.485 99.852C182.837 100.26 183.101 100.752 183.277 101.328C183.453 101.896 183.541 102.524 183.541 103.212V111H180.973V103.212C180.973 102.388 180.781 101.748 180.397 101.292C180.021 100.836 179.445 100.608 178.669 100.608C178.093 100.608 177.557 100.74 177.061 101.004C176.573 101.268 176.113 101.628 175.681 102.084V111H173.101V93.24H175.681V100.212Z" fill="#5A3878"/>
<path d="M194.582 103.5C194.582 103.068 194.518 102.668 194.39 102.3C194.27 101.924 194.09 101.6 193.85 101.328C193.61 101.048 193.31 100.832 192.95 100.68C192.598 100.52 192.19 100.44 191.726 100.44C190.79 100.44 190.054 100.708 189.518 101.244C188.982 101.78 188.642 102.532 188.498 103.5H194.582ZM188.426 105.084C188.458 105.78 188.566 106.384 188.75 106.896C188.934 107.4 189.178 107.82 189.482 108.156C189.794 108.492 190.162 108.744 190.586 108.912C191.018 109.072 191.498 109.152 192.026 109.152C192.53 109.152 192.966 109.096 193.334 108.984C193.702 108.864 194.022 108.736 194.294 108.6C194.566 108.456 194.798 108.328 194.99 108.216C195.182 108.096 195.358 108.036 195.518 108.036C195.726 108.036 195.886 108.116 195.998 108.276L196.73 109.224C196.426 109.584 196.082 109.888 195.698 110.136C195.314 110.384 194.906 110.588 194.474 110.748C194.042 110.9 193.598 111.008 193.142 111.072C192.686 111.144 192.242 111.18 191.81 111.18C190.962 111.18 190.174 111.04 189.446 110.76C188.726 110.472 188.098 110.052 187.562 109.5C187.034 108.948 186.618 108.264 186.314 107.448C186.018 106.632 185.87 105.692 185.87 104.628C185.87 103.78 186.002 102.988 186.266 102.252C186.538 101.516 186.922 100.876 187.418 100.332C187.922 99.788 188.53 99.36 189.242 99.048C189.962 98.728 190.774 98.568 191.678 98.568C192.43 98.568 193.126 98.692 193.766 98.94C194.406 99.18 194.958 99.536 195.422 100.008C195.886 100.48 196.246 101.06 196.502 101.748C196.766 102.428 196.898 103.204 196.898 104.076C196.898 104.476 196.854 104.744 196.766 104.88C196.678 105.016 196.518 105.084 196.286 105.084H188.426Z" fill="#5A3878"/>
<path d="M221.984 98.76L218.06 111H216.008C215.768 111 215.6 110.844 215.504 110.532L213.068 102.912C213.004 102.696 212.944 102.48 212.888 102.264C212.84 102.048 212.796 101.836 212.756 101.628C212.668 102.06 212.56 102.492 212.432 102.924L209.96 110.532C209.872 110.844 209.684 111 209.396 111H207.44L203.516 98.76H205.556C205.756 98.76 205.92 98.812 206.048 98.916C206.184 99.012 206.272 99.128 206.312 99.264L208.352 106.392C208.432 106.72 208.5 107.04 208.556 107.352C208.62 107.656 208.676 107.96 208.724 108.264C208.804 107.96 208.888 107.656 208.976 107.352C209.064 107.04 209.156 106.72 209.252 106.392L211.544 99.228C211.584 99.084 211.664 98.968 211.784 98.88C211.912 98.784 212.064 98.736 212.24 98.736H213.368C213.552 98.736 213.708 98.784 213.836 98.88C213.964 98.968 214.048 99.084 214.088 99.228L216.32 106.392C216.416 106.72 216.504 107.04 216.584 107.352C216.672 107.664 216.752 107.976 216.824 108.288C216.88 107.984 216.94 107.676 217.004 107.364C217.068 107.052 217.144 106.728 217.232 106.392L219.308 99.264C219.356 99.12 219.444 99 219.572 98.904C219.7 98.808 219.856 98.76 220.04 98.76H221.984Z" fill="#5A3878"/>
<path d="M226.446 100.212C226.95 99.716 227.502 99.32 228.102 99.024C228.702 98.72 229.402 98.568 230.202 98.568C230.874 98.568 231.462 98.68 231.966 98.904C232.478 99.128 232.906 99.444 233.25 99.852C233.602 100.26 233.866 100.752 234.042 101.328C234.218 101.896 234.306 102.524 234.306 103.212V111H231.738V103.212C231.738 102.388 231.546 101.748 231.162 101.292C230.786 100.836 230.21 100.608 229.434 100.608C228.858 100.608 228.322 100.74 227.826 101.004C227.338 101.268 226.878 101.628 226.446 102.084V111H223.866V93.24H226.446V100.212Z" fill="#5A3878"/>
<path d="M242.612 98.568C243.516 98.568 244.332 98.716 245.06 99.012C245.796 99.308 246.42 99.728 246.932 100.272C247.452 100.816 247.852 101.476 248.132 102.252C248.412 103.028 248.552 103.9 248.552 104.868C248.552 105.836 248.412 106.708 248.132 107.484C247.852 108.26 247.452 108.924 246.932 109.476C246.42 110.02 245.796 110.44 245.06 110.736C244.332 111.032 243.516 111.18 242.612 111.18C241.7 111.18 240.876 111.032 240.14 110.736C239.412 110.44 238.788 110.02 238.268 109.476C237.748 108.924 237.348 108.26 237.068 107.484C236.788 106.708 236.648 105.836 236.648 104.868C236.648 103.9 236.788 103.028 237.068 102.252C237.348 101.476 237.748 100.816 238.268 100.272C238.788 99.728 239.412 99.308 240.14 99.012C240.876 98.716 241.7 98.568 242.612 98.568ZM242.612 109.164C243.716 109.164 244.536 108.796 245.072 108.06C245.616 107.316 245.888 106.256 245.888 104.88C245.888 103.504 245.616 102.444 245.072 101.7C244.536 100.948 243.716 100.572 242.612 100.572C241.492 100.572 240.66 100.948 240.116 101.7C239.572 102.444 239.3 103.504 239.3 104.88C239.3 106.256 239.572 107.316 240.116 108.06C240.66 108.796 241.492 109.164 242.612 109.164Z" fill="#5A3878"/>
<path d="M253.658 93.24V111H251.078V93.24H253.658Z" fill="#5A3878"/>
<path d="M264.871 103.5C264.871 103.068 264.807 102.668 264.679 102.3C264.559 101.924 264.379 101.6 264.139 101.328C263.899 101.048 263.599 100.832 263.239 100.68C262.887 100.52 262.479 100.44 262.015 100.44C261.079 100.44 260.343 100.708 259.807 101.244C259.271 101.78 258.931 102.532 258.787 103.5H264.871ZM258.715 105.084C258.747 105.78 258.855 106.384 259.039 106.896C259.223 107.4 259.467 107.82 259.771 108.156C260.083 108.492 260.451 108.744 260.875 108.912C261.307 109.072 261.787 109.152 262.315 109.152C262.819 109.152 263.255 109.096 263.623 108.984C263.991 108.864 264.311 108.736 264.583 108.6C264.855 108.456 265.087 108.328 265.279 108.216C265.471 108.096 265.647 108.036 265.807 108.036C266.015 108.036 266.175 108.116 266.287 108.276L267.019 109.224C266.715 109.584 266.371 109.888 265.987 110.136C265.603 110.384 265.195 110.588 264.763 110.748C264.331 110.9 263.887 111.008 263.431 111.072C262.975 111.144 262.531 111.18 262.099 111.18C261.251 111.18 260.463 111.04 259.735 110.76C259.015 110.472 258.387 110.052 257.851 109.5C257.323 108.948 256.907 108.264 256.603 107.448C256.307 106.632 256.159 105.692 256.159 104.628C256.159 103.78 256.291 102.988 256.555 102.252C256.827 101.516 257.211 100.876 257.707 100.332C258.211 99.788 258.819 99.36 259.531 99.048C260.251 98.728 261.063 98.568 261.967 98.568C262.719 98.568 263.415 98.692 264.055 98.94C264.695 99.18 265.247 99.536 265.711 100.008C266.175 100.48 266.535 101.06 266.791 101.748C267.055 102.428 267.187 103.204 267.187 104.076C267.187 104.476 267.143 104.744 267.055 104.88C266.967 105.016 266.807 105.084 266.575 105.084H258.715Z" fill="#5A3878"/>
<path d="M292.273 98.76L288.349 111H286.297C286.057 111 285.889 110.844 285.793 110.532L283.357 102.912C283.293 102.696 283.233 102.48 283.177 102.264C283.129 102.048 283.085 101.836 283.045 101.628C282.957 102.06 282.849 102.492 282.721 102.924L280.249 110.532C280.161 110.844 279.973 111 279.685 111H277.729L273.805 98.76H275.845C276.045 98.76 276.209 98.812 276.337 98.916C276.473 99.012 276.561 99.128 276.601 99.264L278.641 106.392C278.721 106.72 278.789 107.04 278.845 107.352C278.909 107.656 278.965 107.96 279.013 108.264C279.093 107.96 279.177 107.656 279.265 107.352C279.353 107.04 279.445 106.72 279.541 106.392L281.833 99.228C281.873 99.084 281.953 98.968 282.073 98.88C282.201 98.784 282.353 98.736 282.529 98.736H283.657C283.841 98.736 283.997 98.784 284.125 98.88C284.253 98.968 284.337 99.084 284.377 99.228L286.609 106.392C286.705 106.72 286.793 107.04 286.873 107.352C286.961 107.664 287.041 107.976 287.113 108.288C287.169 107.984 287.229 107.676 287.293 107.364C287.357 107.052 287.433 106.728 287.521 106.392L289.597 99.264C289.645 99.12 289.733 99 289.861 98.904C289.989 98.808 290.145 98.76 290.329 98.76H292.273Z" fill="#5A3878"/>
<path d="M299.26 98.568C300.164 98.568 300.98 98.716 301.708 99.012C302.444 99.308 303.068 99.728 303.58 100.272C304.1 100.816 304.5 101.476 304.78 102.252C305.06 103.028 305.2 103.9 305.2 104.868C305.2 105.836 305.06 106.708 304.78 107.484C304.5 108.26 304.1 108.924 303.58 109.476C303.068 110.02 302.444 110.44 301.708 110.736C300.98 111.032 300.164 111.18 299.26 111.18C298.348 111.18 297.524 111.032 296.788 110.736C296.06 110.44 295.436 110.02 294.916 109.476C294.396 108.924 293.996 108.26 293.716 107.484C293.436 106.708 293.296 105.836 293.296 104.868C293.296 103.9 293.436 103.028 293.716 102.252C293.996 101.476 294.396 100.816 294.916 100.272C295.436 99.728 296.06 99.308 296.788 99.012C297.524 98.716 298.348 98.568 299.26 98.568ZM299.26 109.164C300.364 109.164 301.184 108.796 301.72 108.06C302.264 107.316 302.536 106.256 302.536 104.88C302.536 103.504 302.264 102.444 301.72 101.7C301.184 100.948 300.364 100.572 299.26 100.572C298.14 100.572 297.308 100.948 296.764 101.7C296.22 102.444 295.948 103.504 295.948 104.88C295.948 106.256 296.22 107.316 296.764 108.06C297.308 108.796 298.14 109.164 299.26 109.164Z" fill="#5A3878"/>
<path d="M310.115 101.028C310.499 100.252 310.963 99.644 311.507 99.204C312.051 98.756 312.703 98.532 313.463 98.532C313.727 98.532 313.975 98.564 314.207 98.628C314.439 98.684 314.647 98.772 314.831 98.892L314.651 100.836C314.619 100.972 314.567 101.068 314.495 101.124C314.431 101.172 314.343 101.196 314.231 101.196C314.111 101.196 313.939 101.176 313.715 101.136C313.491 101.088 313.255 101.064 313.007 101.064C312.647 101.064 312.327 101.116 312.047 101.22C311.775 101.324 311.527 101.476 311.303 101.676C311.087 101.876 310.895 102.12 310.727 102.408C310.559 102.696 310.403 103.024 310.259 103.392V111H307.679V98.76H309.179C309.451 98.76 309.639 98.812 309.743 98.916C309.847 99.012 309.919 99.184 309.959 99.432L310.115 101.028Z" fill="#5A3878"/>
<path d="M319.166 93.24V111H316.586V93.24H319.166Z" fill="#5A3878"/>
<path d="M330.163 101.772C329.803 101.308 329.407 100.984 328.975 100.8C328.543 100.616 328.075 100.524 327.571 100.524C326.563 100.524 325.775 100.896 325.207 101.64C324.639 102.376 324.355 103.468 324.355 104.916C324.355 105.668 324.419 106.312 324.547 106.848C324.675 107.376 324.859 107.808 325.099 108.144C325.339 108.48 325.631 108.724 325.975 108.876C326.319 109.028 326.707 109.104 327.139 109.104C327.795 109.104 328.359 108.964 328.831 108.684C329.311 108.396 329.755 107.992 330.163 107.472V101.772ZM332.743 93.24V111H331.183C330.839 111 330.619 110.836 330.523 110.508L330.295 109.176C329.783 109.776 329.199 110.26 328.543 110.628C327.895 110.996 327.139 111.18 326.275 111.18C325.587 111.18 324.963 111.044 324.403 110.772C323.843 110.492 323.363 110.088 322.963 109.56C322.563 109.032 322.251 108.38 322.027 107.604C321.811 106.82 321.703 105.924 321.703 104.916C321.703 104.004 321.823 103.16 322.063 102.384C322.311 101.608 322.663 100.936 323.119 100.368C323.575 99.792 324.127 99.344 324.775 99.024C325.431 98.696 326.163 98.532 326.971 98.532C327.691 98.532 328.303 98.648 328.807 98.88C329.311 99.104 329.763 99.42 330.163 99.828V93.24H332.743Z" fill="#5A3878"/>
<path d="M337.05 110.988C336.818 110.988 336.606 110.948 336.414 110.868C336.222 110.78 336.054 110.664 335.91 110.52C335.774 110.368 335.666 110.192 335.586 109.992C335.514 109.792 335.478 109.572 335.478 109.332C335.478 109.124 335.514 108.928 335.586 108.744C335.666 108.56 335.774 108.4 335.91 108.264C336.054 108.128 336.222 108.024 336.414 107.952C336.614 107.872 336.83 107.832 337.062 107.832C337.334 107.832 337.574 107.884 337.782 107.988C337.99 108.084 338.162 108.22 338.298 108.396C338.442 108.564 338.546 108.764 338.61 108.996C338.682 109.22 338.718 109.46 338.718 109.716C338.718 110.084 338.662 110.472 338.55 110.88C338.446 111.288 338.286 111.692 338.07 112.092C337.862 112.5 337.602 112.896 337.29 113.28C336.986 113.664 336.638 114.016 336.246 114.336L335.802 113.928C335.738 113.864 335.69 113.804 335.658 113.748C335.634 113.692 335.622 113.62 335.622 113.532C335.622 113.396 335.69 113.268 335.826 113.148C335.906 113.06 336.01 112.944 336.138 112.8C336.266 112.656 336.394 112.492 336.522 112.308C336.65 112.124 336.766 111.92 336.87 111.696C336.982 111.472 337.062 111.236 337.11 110.988H337.05Z" fill="#5A3878"/>
<path d="M349.985 107.928C350.345 108.392 350.737 108.72 351.161 108.912C351.593 109.096 352.061 109.188 352.565 109.188C353.581 109.188 354.373 108.82 354.941 108.084C355.509 107.348 355.793 106.208 355.793 104.664C355.793 103.256 355.545 102.228 355.049 101.58C354.561 100.932 353.861 100.608 352.949 100.608C352.317 100.608 351.765 100.752 351.293 101.04C350.829 101.32 350.393 101.724 349.985 102.252V107.928ZM349.985 100.38C350.489 99.828 351.053 99.388 351.677 99.06C352.301 98.732 353.013 98.568 353.813 98.568C354.525 98.568 355.165 98.708 355.733 98.988C356.309 99.26 356.797 99.656 357.197 100.176C357.597 100.696 357.905 101.328 358.121 102.072C358.337 102.808 358.445 103.64 358.445 104.568C358.445 105.56 358.321 106.464 358.073 107.28C357.833 108.088 357.485 108.784 357.029 109.368C356.573 109.944 356.021 110.392 355.373 110.712C354.725 111.024 354.001 111.18 353.201 111.18C352.809 111.18 352.453 111.14 352.133 111.06C351.813 110.988 351.517 110.88 351.245 110.736C350.973 110.592 350.721 110.42 350.489 110.22C350.265 110.02 350.049 109.792 349.841 109.536L349.733 110.484C349.693 110.668 349.621 110.8 349.517 110.88C349.413 110.96 349.269 111 349.085 111H347.405V93.24H349.985V100.38Z" fill="#5A3878"/>
<path d="M371.272 98.76V111H369.712C369.368 111 369.148 110.836 369.052 110.508L368.86 109.368C368.604 109.64 368.332 109.888 368.044 110.112C367.764 110.336 367.464 110.528 367.144 110.688C366.824 110.848 366.48 110.972 366.112 111.06C365.752 111.148 365.364 111.192 364.948 111.192C364.276 111.192 363.684 111.08 363.172 110.856C362.66 110.632 362.228 110.316 361.876 109.908C361.532 109.5 361.272 109.012 361.096 108.444C360.92 107.868 360.832 107.236 360.832 106.548V98.76H363.412V106.548C363.412 107.372 363.6 108.012 363.976 108.468C364.36 108.924 364.94 109.152 365.716 109.152C366.284 109.152 366.812 109.024 367.3 108.768C367.796 108.504 368.26 108.144 368.692 107.688V98.76H371.272Z" fill="#5A3878"/>
<path d="M378.329 111.192C377.313 111.192 376.529 110.908 375.977 110.34C375.433 109.764 375.161 108.956 375.161 107.916V100.788H373.817C373.673 100.788 373.549 100.744 373.445 100.656C373.341 100.56 373.289 100.42 373.289 100.236V99.192L375.269 98.904L375.833 95.364C375.873 95.228 375.941 95.12 376.037 95.04C376.133 94.952 376.261 94.908 376.421 94.908H377.741V98.928H381.137V100.788H377.741V107.736C377.741 108.176 377.849 108.512 378.065 108.744C378.281 108.976 378.569 109.092 378.929 109.092C379.129 109.092 379.301 109.068 379.445 109.02C379.589 108.964 379.713 108.908 379.817 108.852C379.921 108.788 380.009 108.732 380.081 108.684C380.161 108.628 380.237 108.6 380.309 108.6C380.453 108.6 380.569 108.68 380.657 108.84L381.425 110.1C381.025 110.452 380.553 110.724 380.009 110.916C379.465 111.1 378.905 111.192 378.329 111.192Z" fill="#5A3878"/>
<path d="M391.836 98.76V111H389.256V98.76H391.836ZM392.268 95.064C392.268 95.296 392.22 95.516 392.124 95.724C392.036 95.932 391.912 96.116 391.752 96.276C391.592 96.428 391.404 96.552 391.188 96.648C390.98 96.736 390.756 96.78 390.516 96.78C390.284 96.78 390.064 96.736 389.856 96.648C389.656 96.552 389.48 96.428 389.328 96.276C389.176 96.116 389.052 95.932 388.956 95.724C388.868 95.516 388.824 95.296 388.824 95.064C388.824 94.824 388.868 94.6 388.956 94.392C389.052 94.184 389.176 94.004 389.328 93.852C389.48 93.692 389.656 93.568 389.856 93.48C390.064 93.384 390.284 93.336 390.516 93.336C390.756 93.336 390.98 93.384 391.188 93.48C391.404 93.568 391.592 93.692 391.752 93.852C391.912 94.004 392.036 94.184 392.124 94.392C392.22 94.6 392.268 94.824 392.268 95.064Z" fill="#5A3878"/>
<path d="M399.001 111.192C397.985 111.192 397.201 110.908 396.649 110.34C396.105 109.764 395.833 108.956 395.833 107.916V100.788H394.489C394.345 100.788 394.221 100.744 394.117 100.656C394.013 100.56 393.961 100.42 393.961 100.236V99.192L395.941 98.904L396.505 95.364C396.545 95.228 396.613 95.12 396.709 95.04C396.805 94.952 396.933 94.908 397.093 94.908H398.413V98.928H401.809V100.788H398.413V107.736C398.413 108.176 398.521 108.512 398.737 108.744C398.953 108.976 399.241 109.092 399.601 109.092C399.801 109.092 399.973 109.068 400.117 109.02C400.261 108.964 400.385 108.908 400.489 108.852C400.593 108.788 400.681 108.732 400.753 108.684C400.833 108.628 400.909 108.6 400.981 108.6C401.125 108.6 401.241 108.68 401.329 108.84L402.097 110.1C401.697 110.452 401.225 110.724 400.681 110.916C400.137 111.1 399.577 111.192 399.001 111.192Z" fill="#5A3878"/>
<path d="M86.0574 130.16C85.9774 130.264 85.9015 130.344 85.8295 130.4C85.7575 130.456 85.6534 130.484 85.5174 130.484C85.3814 130.484 85.2374 130.436 85.0854 130.34C84.9414 130.244 84.7654 130.14 84.5574 130.028C84.3574 129.908 84.1134 129.8 83.8254 129.704C83.5374 129.608 83.1774 129.56 82.7454 129.56C82.1854 129.56 81.6934 129.66 81.2694 129.86C80.8534 130.06 80.5014 130.348 80.2134 130.724C79.9334 131.092 79.7214 131.544 79.5774 132.08C79.4414 132.608 79.3735 133.204 79.3735 133.868C79.3735 134.556 79.4494 135.168 79.6014 135.704C79.7534 136.24 79.9695 136.692 80.2495 137.06C80.5375 137.428 80.8814 137.708 81.2814 137.9C81.6894 138.092 82.1455 138.188 82.6495 138.188C83.1455 138.188 83.5495 138.128 83.8615 138.008C84.1734 137.888 84.4334 137.756 84.6414 137.612C84.8494 137.468 85.0254 137.336 85.1694 137.216C85.3214 137.096 85.4815 137.036 85.6495 137.036C85.8575 137.036 86.0174 137.116 86.1294 137.276L86.8615 138.224C86.5655 138.584 86.2374 138.888 85.8774 139.136C85.5174 139.384 85.1374 139.588 84.7374 139.748C84.3374 139.9 83.9214 140.008 83.4894 140.072C83.0574 140.144 82.6214 140.18 82.1814 140.18C81.4214 140.18 80.7094 140.04 80.0454 139.76C79.3894 139.472 78.8135 139.06 78.3175 138.524C77.8295 137.98 77.4415 137.32 77.1535 136.544C76.8734 135.76 76.7335 134.868 76.7335 133.868C76.7335 132.964 76.8614 132.128 77.1174 131.36C77.3734 130.584 77.7455 129.916 78.2335 129.356C78.7295 128.796 79.3415 128.36 80.0695 128.048C80.7975 127.728 81.6374 127.568 82.5894 127.568C83.4774 127.568 84.2575 127.712 84.9295 128C85.6095 128.288 86.2134 128.696 86.7414 129.224L86.0574 130.16Z" fill="#5A3878"/>
<path d="M94.0178 127.568C94.9218 127.568 95.7378 127.716 96.4658 128.012C97.2018 128.308 97.8258 128.728 98.3378 129.272C98.8578 129.816 99.2578 130.476 99.5378 131.252C99.8178 132.028 99.9578 132.9 99.9578 133.868C99.9578 134.836 99.8178 135.708 99.5378 136.484C99.2578 137.26 98.8578 137.924 98.3378 138.476C97.8258 139.02 97.2018 139.44 96.4658 139.736C95.7378 140.032 94.9218 140.18 94.0178 140.18C93.1058 140.18 92.2818 140.032 91.5458 139.736C90.8178 139.44 90.1938 139.02 89.6738 138.476C89.1538 137.924 88.7538 137.26 88.4738 136.484C88.1938 135.708 88.0538 134.836 88.0538 133.868C88.0538 132.9 88.1938 132.028 88.4738 131.252C88.7538 130.476 89.1538 129.816 89.6738 129.272C90.1938 128.728 90.8178 128.308 91.5458 128.012C92.2818 127.716 93.1058 127.568 94.0178 127.568ZM94.0178 138.164C95.1218 138.164 95.9418 137.796 96.4778 137.06C97.0218 136.316 97.2938 135.256 97.2938 133.88C97.2938 132.504 97.0218 131.444 96.4778 130.7C95.9418 129.948 95.1218 129.572 94.0178 129.572C92.8978 129.572 92.0658 129.948 91.5218 130.7C90.9778 131.444 90.7058 132.504 90.7058 133.88C90.7058 135.256 90.9778 136.316 91.5218 137.06C92.0658 137.796 92.8978 138.164 94.0178 138.164Z" fill="#5A3878"/>
<path d="M112.757 127.76V140H111.197C110.853 140 110.633 139.836 110.537 139.508L110.345 138.368C110.089 138.64 109.817 138.888 109.529 139.112C109.249 139.336 108.949 139.528 108.629 139.688C108.309 139.848 107.965 139.972 107.597 140.06C107.237 140.148 106.849 140.192 106.433 140.192C105.761 140.192 105.169 140.08 104.657 139.856C104.145 139.632 103.713 139.316 103.361 138.908C103.017 138.5 102.757 138.012 102.581 137.444C102.405 136.868 102.317 136.236 102.317 135.548V127.76H104.897V135.548C104.897 136.372 105.085 137.012 105.461 137.468C105.845 137.924 106.425 138.152 107.201 138.152C107.769 138.152 108.297 138.024 108.785 137.768C109.281 137.504 109.745 137.144 110.177 136.688V127.76H112.757Z" fill="#5A3878"/>
<path d="M118.518 122.24V140H115.938V122.24H118.518Z" fill="#5A3878"/>
<path d="M129.514 130.772C129.154 130.308 128.758 129.984 128.326 129.8C127.894 129.616 127.426 129.524 126.922 129.524C125.914 129.524 125.126 129.896 124.558 130.64C123.99 131.376 123.706 132.468 123.706 133.916C123.706 134.668 123.77 135.312 123.898 135.848C124.026 136.376 124.21 136.808 124.45 137.144C124.69 137.48 124.982 137.724 125.326 137.876C125.67 138.028 126.058 138.104 126.49 138.104C127.146 138.104 127.71 137.964 128.182 137.684C128.662 137.396 129.106 136.992 129.514 136.472V130.772ZM132.094 122.24V140H130.534C130.19 140 129.97 139.836 129.874 139.508L129.646 138.176C129.134 138.776 128.55 139.26 127.894 139.628C127.246 139.996 126.49 140.18 125.626 140.18C124.938 140.18 124.314 140.044 123.754 139.772C123.194 139.492 122.714 139.088 122.314 138.56C121.914 138.032 121.602 137.38 121.378 136.604C121.162 135.82 121.054 134.924 121.054 133.916C121.054 133.004 121.174 132.16 121.414 131.384C121.662 130.608 122.014 129.936 122.47 129.368C122.926 128.792 123.478 128.344 124.126 128.024C124.782 127.696 125.514 127.532 126.322 127.532C127.042 127.532 127.654 127.648 128.158 127.88C128.662 128.104 129.114 128.42 129.514 128.828V122.24H132.094Z" fill="#5A3878"/>
<path d="M149.878 130.16C149.798 130.264 149.722 130.344 149.65 130.4C149.578 130.456 149.474 130.484 149.338 130.484C149.202 130.484 149.058 130.436 148.906 130.34C148.762 130.244 148.586 130.14 148.378 130.028C148.178 129.908 147.934 129.8 147.646 129.704C147.358 129.608 146.998 129.56 146.566 129.56C146.006 129.56 145.514 129.66 145.09 129.86C144.674 130.06 144.322 130.348 144.034 130.724C143.754 131.092 143.542 131.544 143.398 132.08C143.262 132.608 143.194 133.204 143.194 133.868C143.194 134.556 143.27 135.168 143.422 135.704C143.574 136.24 143.79 136.692 144.07 137.06C144.358 137.428 144.702 137.708 145.102 137.9C145.51 138.092 145.966 138.188 146.47 138.188C146.966 138.188 147.37 138.128 147.682 138.008C147.994 137.888 148.254 137.756 148.462 137.612C148.67 137.468 148.846 137.336 148.99 137.216C149.142 137.096 149.302 137.036 149.47 137.036C149.678 137.036 149.838 137.116 149.95 137.276L150.682 138.224C150.386 138.584 150.058 138.888 149.698 139.136C149.338 139.384 148.958 139.588 148.558 139.748C148.158 139.9 147.742 140.008 147.31 140.072C146.878 140.144 146.442 140.18 146.002 140.18C145.242 140.18 144.53 140.04 143.866 139.76C143.21 139.472 142.634 139.06 142.138 138.524C141.65 137.98 141.262 137.32 140.974 136.544C140.694 135.76 140.554 134.868 140.554 133.868C140.554 132.964 140.682 132.128 140.938 131.36C141.194 130.584 141.566 129.916 142.054 129.356C142.55 128.796 143.162 128.36 143.89 128.048C144.618 127.728 145.458 127.568 146.41 127.568C147.298 127.568 148.078 127.712 148.75 128C149.43 128.288 150.034 128.696 150.562 129.224L149.878 130.16Z" fill="#5A3878"/>
<path d="M155.337 129.212C155.841 128.716 156.393 128.32 156.993 128.024C157.593 127.72 158.293 127.568 159.093 127.568C159.765 127.568 160.353 127.68 160.857 127.904C161.369 128.128 161.797 128.444 162.141 128.852C162.493 129.26 162.757 129.752 162.933 130.328C163.109 130.896 163.197 131.524 163.197 132.212V140H160.629V132.212C160.629 131.388 160.437 130.748 160.053 130.292C159.677 129.836 159.101 129.608 158.325 129.608C157.749 129.608 157.213 129.74 156.717 130.004C156.229 130.268 155.769 130.628 155.337 131.084V140H152.757V122.24H155.337V129.212Z" fill="#5A3878"/>
<path d="M172.75 134.648C171.83 134.68 171.054 134.756 170.422 134.876C169.79 134.988 169.278 135.136 168.886 135.32C168.494 135.496 168.21 135.708 168.034 135.956C167.866 136.204 167.782 136.476 167.782 136.772C167.782 137.06 167.826 137.308 167.914 137.516C168.01 137.716 168.138 137.884 168.298 138.02C168.466 138.148 168.658 138.244 168.874 138.308C169.098 138.364 169.342 138.392 169.606 138.392C170.278 138.392 170.854 138.268 171.334 138.02C171.822 137.764 172.294 137.396 172.75 136.916V134.648ZM165.91 129.464C167.294 128.176 168.942 127.532 170.854 127.532C171.558 127.532 172.182 127.648 172.726 127.88C173.278 128.104 173.738 128.424 174.106 128.84C174.482 129.256 174.766 129.752 174.958 130.328C175.158 130.896 175.258 131.528 175.258 132.224V140H174.106C173.858 140 173.67 139.964 173.542 139.892C173.414 139.812 173.306 139.656 173.218 139.424L172.966 138.428C172.654 138.708 172.346 138.96 172.042 139.184C171.738 139.4 171.422 139.584 171.094 139.736C170.774 139.888 170.426 140 170.05 140.072C169.682 140.152 169.274 140.192 168.826 140.192C168.33 140.192 167.866 140.124 167.434 139.988C167.01 139.852 166.642 139.648 166.33 139.376C166.018 139.096 165.77 138.752 165.586 138.344C165.41 137.936 165.322 137.456 165.322 136.904C165.322 136.432 165.446 135.972 165.694 135.524C165.95 135.076 166.366 134.676 166.942 134.324C167.526 133.964 168.29 133.668 169.234 133.436C170.186 133.204 171.358 133.072 172.75 133.04V132.224C172.75 131.344 172.562 130.688 172.186 130.256C171.81 129.824 171.258 129.608 170.53 129.608C170.034 129.608 169.618 129.672 169.282 129.8C168.946 129.92 168.654 130.052 168.406 130.196C168.158 130.34 167.938 130.476 167.746 130.604C167.554 130.724 167.35 130.784 167.134 130.784C166.958 130.784 166.806 130.74 166.678 130.652C166.558 130.556 166.458 130.44 166.378 130.304L165.91 129.464Z" fill="#5A3878"/>
<path d="M180.692 129.38C180.956 129.108 181.228 128.864 181.508 128.648C181.796 128.424 182.1 128.232 182.42 128.072C182.74 127.912 183.08 127.788 183.44 127.7C183.8 127.612 184.192 127.568 184.616 127.568C185.288 127.568 185.876 127.68 186.38 127.904C186.892 128.128 187.32 128.444 187.664 128.852C188.016 129.26 188.28 129.752 188.456 130.328C188.632 130.896 188.72 131.524 188.72 132.212V140H186.152V132.212C186.152 131.388 185.96 130.748 185.576 130.292C185.2 129.836 184.624 129.608 183.848 129.608C183.272 129.608 182.736 129.74 182.24 130.004C181.752 130.268 181.292 130.628 180.86 131.084V140H178.28V127.76H179.84C180.192 127.76 180.416 127.924 180.512 128.252L180.692 129.38Z" fill="#5A3878"/>
<path d="M196.102 133.772C196.902 133.772 197.502 133.568 197.902 133.16C198.302 132.752 198.502 132.22 198.502 131.564C198.502 130.892 198.302 130.36 197.902 129.968C197.502 129.576 196.902 129.38 196.102 129.38C195.31 129.38 194.71 129.576 194.302 129.968C193.902 130.36 193.702 130.892 193.702 131.564C193.702 131.884 193.754 132.18 193.858 132.452C193.962 132.724 194.114 132.96 194.314 133.16C194.514 133.352 194.762 133.504 195.058 133.616C195.362 133.72 195.71 133.772 196.102 133.772ZM199.69 140.6C199.69 140.328 199.61 140.112 199.45 139.952C199.298 139.784 199.09 139.656 198.826 139.568C198.562 139.472 198.254 139.404 197.902 139.364C197.55 139.316 197.174 139.284 196.774 139.268C196.382 139.244 195.978 139.224 195.562 139.208C195.154 139.184 194.758 139.144 194.374 139.088C193.99 139.288 193.674 139.528 193.426 139.808C193.186 140.088 193.066 140.412 193.066 140.78C193.066 141.02 193.126 141.244 193.246 141.452C193.374 141.66 193.566 141.84 193.822 141.992C194.086 142.144 194.418 142.264 194.818 142.352C195.226 142.44 195.714 142.484 196.282 142.484C197.418 142.484 198.27 142.308 198.838 141.956C199.406 141.604 199.69 141.152 199.69 140.6ZM202.282 128.204V129.164C202.282 129.484 202.09 129.68 201.706 129.752L200.482 129.956C200.69 130.42 200.794 130.936 200.794 131.504C200.794 132.104 200.674 132.648 200.434 133.136C200.202 133.624 199.878 134.04 199.462 134.384C199.046 134.728 198.55 134.992 197.974 135.176C197.398 135.36 196.774 135.452 196.102 135.452C195.846 135.452 195.594 135.44 195.346 135.416C195.106 135.384 194.87 135.344 194.638 135.296C194.406 135.432 194.234 135.576 194.122 135.728C194.01 135.88 193.954 136.036 193.954 136.196C193.954 136.46 194.07 136.656 194.302 136.784C194.534 136.912 194.838 137.004 195.214 137.06C195.598 137.116 196.034 137.152 196.522 137.168C197.01 137.184 197.506 137.212 198.01 137.252C198.514 137.292 199.01 137.36 199.498 137.456C199.986 137.544 200.418 137.696 200.794 137.912C201.178 138.12 201.486 138.404 201.718 138.764C201.95 139.124 202.066 139.592 202.066 140.168C202.066 140.696 201.934 141.212 201.67 141.716C201.406 142.22 201.022 142.668 200.518 143.06C200.022 143.452 199.414 143.764 198.694 143.996C197.974 144.236 197.154 144.356 196.234 144.356C195.322 144.356 194.526 144.268 193.846 144.092C193.174 143.916 192.61 143.676 192.154 143.372C191.706 143.076 191.37 142.732 191.146 142.34C190.93 141.948 190.822 141.54 190.822 141.116C190.822 140.54 191.002 140.048 191.362 139.64C191.73 139.232 192.226 138.912 192.85 138.68C192.514 138.52 192.242 138.3 192.034 138.02C191.834 137.74 191.734 137.372 191.734 136.916C191.734 136.556 191.866 136.18 192.13 135.788C192.394 135.396 192.79 135.064 193.318 134.792C192.71 134.456 192.23 134.012 191.878 133.46C191.526 132.9 191.35 132.248 191.35 131.504C191.35 130.896 191.466 130.348 191.698 129.86C191.938 129.372 192.27 128.956 192.694 128.612C193.118 128.268 193.618 128.004 194.194 127.82C194.778 127.636 195.414 127.544 196.102 127.544C197.158 127.544 198.078 127.764 198.862 128.204H202.282Z" fill="#5A3878"/>
<path d="M212.137 132.5C212.137 132.068 212.073 131.668 211.945 131.3C211.825 130.924 211.645 130.6 211.405 130.328C211.165 130.048 210.865 129.832 210.505 129.68C210.153 129.52 209.745 129.44 209.281 129.44C208.345 129.44 207.609 129.708 207.073 130.244C206.537 130.78 206.197 131.532 206.053 132.5H212.137ZM205.981 134.084C206.013 134.78 206.121 135.384 206.305 135.896C206.489 136.4 206.733 136.82 207.037 137.156C207.349 137.492 207.717 137.744 208.141 137.912C208.573 138.072 209.053 138.152 209.581 138.152C210.085 138.152 210.521 138.096 210.889 137.984C211.257 137.864 211.577 137.736 211.849 137.6C212.121 137.456 212.353 137.328 212.545 137.216C212.737 137.096 212.913 137.036 213.073 137.036C213.281 137.036 213.441 137.116 213.553 137.276L214.285 138.224C213.981 138.584 213.637 138.888 213.253 139.136C212.869 139.384 212.461 139.588 212.029 139.748C211.597 139.9 211.153 140.008 210.697 140.072C210.241 140.144 209.797 140.18 209.365 140.18C208.517 140.18 207.729 140.04 207.001 139.76C206.281 139.472 205.653 139.052 205.117 138.5C204.589 137.948 204.173 137.264 203.869 136.448C203.573 135.632 203.425 134.692 203.425 133.628C203.425 132.78 203.557 131.988 203.821 131.252C204.093 130.516 204.477 129.876 204.973 129.332C205.477 128.788 206.085 128.36 206.797 128.048C207.517 127.728 208.329 127.568 209.233 127.568C209.985 127.568 210.681 127.692 211.321 127.94C211.961 128.18 212.513 128.536 212.977 129.008C213.441 129.48 213.801 130.06 214.057 130.748C214.321 131.428 214.453 132.204 214.453 133.076C214.453 133.476 214.409 133.744 214.321 133.88C214.233 134.016 214.073 134.084 213.841 134.084H205.981Z" fill="#5A3878"/>
<path d="M226.759 140.192C225.743 140.192 224.959 139.908 224.407 139.34C223.863 138.764 223.591 137.956 223.591 136.916V129.788H222.247C222.103 129.788 221.979 129.744 221.875 129.656C221.771 129.56 221.719 129.42 221.719 129.236V128.192L223.699 127.904L224.263 124.364C224.303 124.228 224.371 124.12 224.467 124.04C224.563 123.952 224.691 123.908 224.851 123.908H226.171V127.928H229.567V129.788H226.171V136.736C226.171 137.176 226.279 137.512 226.495 137.744C226.711 137.976 226.999 138.092 227.359 138.092C227.559 138.092 227.731 138.068 227.875 138.02C228.019 137.964 228.143 137.908 228.247 137.852C228.351 137.788 228.439 137.732 228.511 137.684C228.591 137.628 228.667 137.6 228.739 137.6C228.883 137.6 228.999 137.68 229.087 137.84L229.855 139.1C229.455 139.452 228.983 139.724 228.439 139.916C227.895 140.1 227.335 140.192 226.759 140.192Z" fill="#5A3878"/>
<path d="M234.181 129.212C234.685 128.716 235.237 128.32 235.837 128.024C236.437 127.72 237.137 127.568 237.937 127.568C238.609 127.568 239.197 127.68 239.701 127.904C240.213 128.128 240.641 128.444 240.985 128.852C241.337 129.26 241.601 129.752 241.777 130.328C241.953 130.896 242.041 131.524 242.041 132.212V140H239.473V132.212C239.473 131.388 239.281 130.748 238.897 130.292C238.521 129.836 237.945 129.608 237.169 129.608C236.593 129.608 236.057 129.74 235.561 130.004C235.073 130.268 234.613 130.628 234.181 131.084V140H231.601V122.24H234.181V129.212Z" fill="#5A3878"/>
<path d="M253.082 132.5C253.082 132.068 253.018 131.668 252.89 131.3C252.77 130.924 252.59 130.6 252.35 130.328C252.11 130.048 251.81 129.832 251.45 129.68C251.098 129.52 250.69 129.44 250.226 129.44C249.29 129.44 248.554 129.708 248.018 130.244C247.482 130.78 247.142 131.532 246.998 132.5H253.082ZM246.926 134.084C246.958 134.78 247.066 135.384 247.25 135.896C247.434 136.4 247.678 136.82 247.982 137.156C248.294 137.492 248.662 137.744 249.086 137.912C249.518 138.072 249.998 138.152 250.526 138.152C251.03 138.152 251.466 138.096 251.834 137.984C252.202 137.864 252.522 137.736 252.794 137.6C253.066 137.456 253.298 137.328 253.49 137.216C253.682 137.096 253.858 137.036 254.018 137.036C254.226 137.036 254.386 137.116 254.498 137.276L255.23 138.224C254.926 138.584 254.582 138.888 254.198 139.136C253.814 139.384 253.406 139.588 252.974 139.748C252.542 139.9 252.098 140.008 251.642 140.072C251.186 140.144 250.742 140.18 250.31 140.18C249.462 140.18 248.674 140.04 247.946 139.76C247.226 139.472 246.598 139.052 246.062 138.5C245.534 137.948 245.118 137.264 244.814 136.448C244.518 135.632 244.37 134.692 244.37 133.628C244.37 132.78 244.502 131.988 244.766 131.252C245.038 130.516 245.422 129.876 245.918 129.332C246.422 128.788 247.03 128.36 247.742 128.048C248.462 127.728 249.274 127.568 250.178 127.568C250.93 127.568 251.626 127.692 252.266 127.94C252.906 128.18 253.458 128.536 253.922 129.008C254.386 129.48 254.746 130.06 255.002 130.748C255.266 131.428 255.398 132.204 255.398 133.076C255.398 133.476 255.354 133.744 255.266 133.88C255.178 134.016 255.018 134.084 254.786 134.084H246.926Z" fill="#5A3878"/>
<path d="M280.484 127.76L276.56 140H274.508C274.268 140 274.1 139.844 274.004 139.532L271.568 131.912C271.504 131.696 271.444 131.48 271.388 131.264C271.34 131.048 271.296 130.836 271.256 130.628C271.168 131.06 271.06 131.492 270.932 131.924L268.46 139.532C268.372 139.844 268.184 140 267.896 140H265.94L262.016 127.76H264.056C264.256 127.76 264.42 127.812 264.548 127.916C264.684 128.012 264.772 128.128 264.812 128.264L266.852 135.392C266.932 135.72 267 136.04 267.056 136.352C267.12 136.656 267.176 136.96 267.224 137.264C267.304 136.96 267.388 136.656 267.476 136.352C267.564 136.04 267.656 135.72 267.752 135.392L270.044 128.228C270.084 128.084 270.164 127.968 270.284 127.88C270.412 127.784 270.564 127.736 270.74 127.736H271.868C272.052 127.736 272.208 127.784 272.336 127.88C272.464 127.968 272.548 128.084 272.588 128.228L274.82 135.392C274.916 135.72 275.004 136.04 275.084 136.352C275.172 136.664 275.252 136.976 275.324 137.288C275.38 136.984 275.44 136.676 275.504 136.364C275.568 136.052 275.644 135.728 275.732 135.392L277.808 128.264C277.856 128.12 277.944 128 278.072 127.904C278.2 127.808 278.356 127.76 278.54 127.76H280.484Z" fill="#5A3878"/>
<path d="M287.471 127.568C288.375 127.568 289.191 127.716 289.919 128.012C290.655 128.308 291.279 128.728 291.791 129.272C292.311 129.816 292.711 130.476 292.991 131.252C293.271 132.028 293.411 132.9 293.411 133.868C293.411 134.836 293.271 135.708 292.991 136.484C292.711 137.26 292.311 137.924 291.791 138.476C291.279 139.02 290.655 139.44 289.919 139.736C289.191 140.032 288.375 140.18 287.471 140.18C286.559 140.18 285.735 140.032 284.999 139.736C284.271 139.44 283.647 139.02 283.127 138.476C282.607 137.924 282.207 137.26 281.927 136.484C281.647 135.708 281.507 134.836 281.507 133.868C281.507 132.9 281.647 132.028 281.927 131.252C282.207 130.476 282.607 129.816 283.127 129.272C283.647 128.728 284.271 128.308 284.999 128.012C285.735 127.716 286.559 127.568 287.471 127.568ZM287.471 138.164C288.575 138.164 289.395 137.796 289.931 137.06C290.475 136.316 290.747 135.256 290.747 133.88C290.747 132.504 290.475 131.444 289.931 130.7C289.395 129.948 288.575 129.572 287.471 129.572C286.351 129.572 285.519 129.948 284.975 130.7C284.431 131.444 284.159 132.504 284.159 133.88C284.159 135.256 284.431 136.316 284.975 137.06C285.519 137.796 286.351 138.164 287.471 138.164Z" fill="#5A3878"/>
<path d="M298.326 130.028C298.71 129.252 299.174 128.644 299.718 128.204C300.262 127.756 300.914 127.532 301.674 127.532C301.938 127.532 302.186 127.564 302.418 127.628C302.65 127.684 302.858 127.772 303.042 127.892L302.862 129.836C302.83 129.972 302.778 130.068 302.706 130.124C302.642 130.172 302.554 130.196 302.442 130.196C302.322 130.196 302.15 130.176 301.926 130.136C301.702 130.088 301.466 130.064 301.218 130.064C300.858 130.064 300.538 130.116 300.258 130.22C299.986 130.324 299.738 130.476 299.514 130.676C299.298 130.876 299.106 131.12 298.938 131.408C298.77 131.696 298.614 132.024 298.47 132.392V140H295.89V127.76H297.39C297.662 127.76 297.85 127.812 297.954 127.916C298.058 128.012 298.13 128.184 298.17 128.432L298.326 130.028Z" fill="#5A3878"/>
<path d="M307.377 122.24V140H304.797V122.24H307.377Z" fill="#5A3878"/>
<path d="M318.374 130.772C318.014 130.308 317.618 129.984 317.186 129.8C316.754 129.616 316.286 129.524 315.782 129.524C314.774 129.524 313.986 129.896 313.418 130.64C312.85 131.376 312.566 132.468 312.566 133.916C312.566 134.668 312.63 135.312 312.758 135.848C312.886 136.376 313.07 136.808 313.31 137.144C313.55 137.48 313.842 137.724 314.186 137.876C314.53 138.028 314.918 138.104 315.35 138.104C316.006 138.104 316.57 137.964 317.042 137.684C317.522 137.396 317.966 136.992 318.374 136.472V130.772ZM320.954 122.24V140H319.394C319.05 140 318.83 139.836 318.734 139.508L318.506 138.176C317.994 138.776 317.41 139.26 316.754 139.628C316.106 139.996 315.35 140.18 314.486 140.18C313.798 140.18 313.174 140.044 312.614 139.772C312.054 139.492 311.574 139.088 311.174 138.56C310.774 138.032 310.462 137.38 310.238 136.604C310.022 135.82 309.914 134.924 309.914 133.916C309.914 133.004 310.034 132.16 310.274 131.384C310.522 130.608 310.874 129.936 311.33 129.368C311.786 128.792 312.338 128.344 312.986 128.024C313.642 127.696 314.374 127.532 315.182 127.532C315.902 127.532 316.514 127.648 317.018 127.88C317.522 128.104 317.974 128.42 318.374 128.828V122.24H320.954Z" fill="#5A3878"/>
<path d="M330.913 140V129.812L329.713 129.644C329.513 129.604 329.349 129.532 329.221 129.428C329.101 129.324 329.041 129.176 329.041 128.984V127.928H330.913V126.896C330.913 126.2 331.013 125.576 331.213 125.024C331.421 124.472 331.713 124.004 332.089 123.62C332.473 123.236 332.937 122.944 333.481 122.744C334.025 122.536 334.637 122.432 335.317 122.432C335.597 122.432 335.861 122.452 336.109 122.492C336.365 122.532 336.613 122.592 336.853 122.672L336.805 123.968C336.789 124.184 336.681 124.312 336.481 124.352C336.289 124.392 336.045 124.412 335.749 124.412C335.389 124.412 335.065 124.456 334.777 124.544C334.489 124.624 334.241 124.764 334.033 124.964C333.833 125.164 333.677 125.428 333.565 125.756C333.461 126.084 333.409 126.492 333.409 126.98V127.928H336.757V129.788H333.493V140H330.913Z" fill="#5A3878"/>
<path d="M343.533 127.568C344.437 127.568 345.253 127.716 345.981 128.012C346.717 128.308 347.341 128.728 347.853 129.272C348.373 129.816 348.773 130.476 349.053 131.252C349.333 132.028 349.473 132.9 349.473 133.868C349.473 134.836 349.333 135.708 349.053 136.484C348.773 137.26 348.373 137.924 347.853 138.476C347.341 139.02 346.717 139.44 345.981 139.736C345.253 140.032 344.437 140.18 343.533 140.18C342.621 140.18 341.797 140.032 341.061 139.736C340.333 139.44 339.709 139.02 339.189 138.476C338.669 137.924 338.269 137.26 337.989 136.484C337.709 135.708 337.569 134.836 337.569 133.868C337.569 132.9 337.709 132.028 337.989 131.252C338.269 130.476 338.669 129.816 339.189 129.272C339.709 128.728 340.333 128.308 341.061 128.012C341.797 127.716 342.621 127.568 343.533 127.568ZM343.533 138.164C344.637 138.164 345.457 137.796 345.993 137.06C346.537 136.316 346.809 135.256 346.809 133.88C346.809 132.504 346.537 131.444 345.993 130.7C345.457 129.948 344.637 129.572 343.533 129.572C342.413 129.572 341.581 129.948 341.037 130.7C340.493 131.444 340.221 132.504 340.221 133.88C340.221 135.256 340.493 136.316 341.037 137.06C341.581 137.796 342.413 138.164 343.533 138.164Z" fill="#5A3878"/>
<path d="M354.388 130.028C354.772 129.252 355.236 128.644 355.78 128.204C356.324 127.756 356.976 127.532 357.736 127.532C358 127.532 358.248 127.564 358.48 127.628C358.712 127.684 358.92 127.772 359.104 127.892L358.924 129.836C358.892 129.972 358.84 130.068 358.768 130.124C358.704 130.172 358.616 130.196 358.504 130.196C358.384 130.196 358.212 130.176 357.988 130.136C357.764 130.088 357.528 130.064 357.28 130.064C356.92 130.064 356.6 130.116 356.32 130.22C356.048 130.324 355.8 130.476 355.576 130.676C355.36 130.876 355.168 131.12 355 131.408C354.832 131.696 354.676 132.024 354.532 132.392V140H351.952V127.76H353.452C353.724 127.76 353.912 127.812 354.016 127.916C354.12 128.012 354.192 128.184 354.232 128.432L354.388 130.028Z" fill="#5A3878"/>
<path d="M370.197 140.192C369.181 140.192 368.397 139.908 367.845 139.34C367.301 138.764 367.029 137.956 367.029 136.916V129.788H365.685C365.541 129.788 365.417 129.744 365.313 129.656C365.209 129.56 365.157 129.42 365.157 129.236V128.192L367.137 127.904L367.701 124.364C367.741 124.228 367.809 124.12 367.905 124.04C368.001 123.952 368.129 123.908 368.289 123.908H369.609V127.928H373.005V129.788H369.609V136.736C369.609 137.176 369.717 137.512 369.933 137.744C370.149 137.976 370.437 138.092 370.797 138.092C370.997 138.092 371.169 138.068 371.313 138.02C371.457 137.964 371.581 137.908 371.685 137.852C371.789 137.788 371.877 137.732 371.949 137.684C372.029 137.628 372.105 137.6 372.177 137.6C372.321 137.6 372.437 137.68 372.525 137.84L373.293 139.1C372.893 139.452 372.421 139.724 371.877 139.916C371.333 140.1 370.773 140.192 370.197 140.192Z" fill="#5A3878"/>
<path d="M377.618 129.212C378.122 128.716 378.674 128.32 379.274 128.024C379.874 127.72 380.574 127.568 381.374 127.568C382.046 127.568 382.634 127.68 383.138 127.904C383.65 128.128 384.078 128.444 384.422 128.852C384.774 129.26 385.038 129.752 385.214 130.328C385.39 130.896 385.478 131.524 385.478 132.212V140H382.91V132.212C382.91 131.388 382.718 130.748 382.334 130.292C381.958 129.836 381.382 129.608 380.606 129.608C380.03 129.608 379.494 129.74 378.998 130.004C378.51 130.268 378.05 130.628 377.618 131.084V140H375.038V122.24H377.618V129.212Z" fill="#5A3878"/>
<path d="M395.031 134.648C394.111 134.68 393.335 134.756 392.703 134.876C392.071 134.988 391.559 135.136 391.167 135.32C390.775 135.496 390.491 135.708 390.315 135.956C390.147 136.204 390.063 136.476 390.063 136.772C390.063 137.06 390.107 137.308 390.195 137.516C390.291 137.716 390.419 137.884 390.579 138.02C390.747 138.148 390.939 138.244 391.155 138.308C391.379 138.364 391.623 138.392 391.887 138.392C392.559 138.392 393.135 138.268 393.615 138.02C394.103 137.764 394.575 137.396 395.031 136.916V134.648ZM388.191 129.464C389.575 128.176 391.223 127.532 393.135 127.532C393.839 127.532 394.463 127.648 395.007 127.88C395.559 128.104 396.019 128.424 396.387 128.84C396.763 129.256 397.047 129.752 397.239 130.328C397.439 130.896 397.539 131.528 397.539 132.224V140H396.387C396.139 140 395.951 139.964 395.823 139.892C395.695 139.812 395.587 139.656 395.499 139.424L395.247 138.428C394.935 138.708 394.627 138.96 394.323 139.184C394.019 139.4 393.703 139.584 393.375 139.736C393.055 139.888 392.707 140 392.331 140.072C391.963 140.152 391.555 140.192 391.107 140.192C390.611 140.192 390.147 140.124 389.715 139.988C389.291 139.852 388.923 139.648 388.611 139.376C388.299 139.096 388.051 138.752 387.867 138.344C387.691 137.936 387.603 137.456 387.603 136.904C387.603 136.432 387.727 135.972 387.975 135.524C388.231 135.076 388.647 134.676 389.223 134.324C389.807 133.964 390.571 133.668 391.515 133.436C392.467 133.204 393.639 133.072 395.031 133.04V132.224C395.031 131.344 394.843 130.688 394.467 130.256C394.091 129.824 393.539 129.608 392.811 129.608C392.315 129.608 391.899 129.672 391.563 129.8C391.227 129.92 390.935 130.052 390.687 130.196C390.439 130.34 390.219 130.476 390.027 130.604C389.835 130.724 389.631 130.784 389.415 130.784C389.239 130.784 389.087 130.74 388.959 130.652C388.839 130.556 388.739 130.44 388.659 130.304L388.191 129.464Z" fill="#5A3878"/>
<path d="M404.322 140.192C403.306 140.192 402.522 139.908 401.97 139.34C401.426 138.764 401.154 137.956 401.154 136.916V129.788H399.81C399.666 129.788 399.542 129.744 399.438 129.656C399.334 129.56 399.282 129.42 399.282 129.236V128.192L401.262 127.904L401.826 124.364C401.866 124.228 401.934 124.12 402.03 124.04C402.126 123.952 402.254 123.908 402.414 123.908H403.734V127.928H407.13V129.788H403.734V136.736C403.734 137.176 403.842 137.512 404.058 137.744C404.274 137.976 404.562 138.092 404.922 138.092C405.122 138.092 405.294 138.068 405.438 138.02C405.582 137.964 405.706 137.908 405.81 137.852C405.914 137.788 406.002 137.732 406.074 137.684C406.154 137.628 406.23 137.6 406.302 137.6C406.446 137.6 406.562 137.68 406.65 137.84L407.418 139.1C407.018 139.452 406.546 139.724 406.002 139.916C405.458 140.1 404.898 140.192 404.322 140.192Z" fill="#5A3878"/>
<path d="M185.963 156.568C186.867 156.568 187.683 156.716 188.411 157.012C189.147 157.308 189.771 157.728 190.283 158.272C190.803 158.816 191.203 159.476 191.483 160.252C191.763 161.028 191.903 161.9 191.903 162.868C191.903 163.836 191.763 164.708 191.483 165.484C191.203 166.26 190.803 166.924 190.283 167.476C189.771 168.02 189.147 168.44 188.411 168.736C187.683 169.032 186.867 169.18 185.963 169.18C185.051 169.18 184.227 169.032 183.491 168.736C182.763 168.44 182.139 168.02 181.619 167.476C181.099 166.924 180.699 166.26 180.419 165.484C180.139 164.708 179.999 163.836 179.999 162.868C179.999 161.9 180.139 161.028 180.419 160.252C180.699 159.476 181.099 158.816 181.619 158.272C182.139 157.728 182.763 157.308 183.491 157.012C184.227 156.716 185.051 156.568 185.963 156.568ZM185.963 167.164C187.067 167.164 187.887 166.796 188.423 166.06C188.967 165.316 189.239 164.256 189.239 162.88C189.239 161.504 188.967 160.444 188.423 159.7C187.887 158.948 187.067 158.572 185.963 158.572C184.843 158.572 184.011 158.948 183.467 159.7C182.923 160.444 182.651 161.504 182.651 162.88C182.651 164.256 182.923 165.316 183.467 166.06C184.011 166.796 184.843 167.164 185.963 167.164Z" fill="#5A3878"/>
<path d="M196.794 158.38C197.058 158.108 197.33 157.864 197.61 157.648C197.898 157.424 198.202 157.232 198.522 157.072C198.842 156.912 199.182 156.788 199.542 156.7C199.902 156.612 200.294 156.568 200.718 156.568C201.39 156.568 201.978 156.68 202.482 156.904C202.994 157.128 203.422 157.444 203.766 157.852C204.118 158.26 204.382 158.752 204.558 159.328C204.734 159.896 204.822 160.524 204.822 161.212V169H202.254V161.212C202.254 160.388 202.062 159.748 201.678 159.292C201.302 158.836 200.726 158.608 199.95 158.608C199.374 158.608 198.838 158.74 198.342 159.004C197.854 159.268 197.394 159.628 196.962 160.084V169H194.382V156.76H195.942C196.294 156.76 196.518 156.924 196.614 157.252L196.794 158.38Z" fill="#5A3878"/>
<path d="M215.863 161.5C215.863 161.068 215.799 160.668 215.671 160.3C215.551 159.924 215.371 159.6 215.131 159.328C214.891 159.048 214.591 158.832 214.231 158.68C213.879 158.52 213.471 158.44 213.007 158.44C212.071 158.44 211.335 158.708 210.799 159.244C210.263 159.78 209.923 160.532 209.779 161.5H215.863ZM209.707 163.084C209.739 163.78 209.847 164.384 210.031 164.896C210.215 165.4 210.459 165.82 210.763 166.156C211.075 166.492 211.443 166.744 211.867 166.912C212.299 167.072 212.779 167.152 213.307 167.152C213.811 167.152 214.247 167.096 214.615 166.984C214.983 166.864 215.303 166.736 215.575 166.6C215.847 166.456 216.079 166.328 216.271 166.216C216.463 166.096 216.639 166.036 216.799 166.036C217.007 166.036 217.167 166.116 217.279 166.276L218.011 167.224C217.707 167.584 217.363 167.888 216.979 168.136C216.595 168.384 216.187 168.588 215.755 168.748C215.323 168.9 214.879 169.008 214.423 169.072C213.967 169.144 213.523 169.18 213.091 169.18C212.243 169.18 211.455 169.04 210.727 168.76C210.007 168.472 209.379 168.052 208.843 167.5C208.315 166.948 207.899 166.264 207.595 165.448C207.299 164.632 207.151 163.692 207.151 162.628C207.151 161.78 207.283 160.988 207.547 160.252C207.819 159.516 208.203 158.876 208.699 158.332C209.203 157.788 209.811 157.36 210.523 157.048C211.243 156.728 212.055 156.568 212.959 156.568C213.711 156.568 214.407 156.692 215.047 156.94C215.687 157.18 216.239 157.536 216.703 158.008C217.167 158.48 217.527 159.06 217.783 159.748C218.047 160.428 218.179 161.204 218.179 162.076C218.179 162.476 218.135 162.744 218.047 162.88C217.959 163.016 217.799 163.084 217.567 163.084H209.707Z" fill="#5A3878"/>
<path d="M229.142 165.928C229.502 166.392 229.894 166.72 230.318 166.912C230.75 167.096 231.226 167.188 231.746 167.188C232.754 167.188 233.538 166.82 234.098 166.084C234.666 165.348 234.95 164.252 234.95 162.796C234.95 162.044 234.886 161.404 234.758 160.876C234.63 160.34 234.446 159.904 234.206 159.568C233.966 159.232 233.674 158.988 233.33 158.836C232.986 158.684 232.598 158.608 232.166 158.608C231.51 158.608 230.942 158.752 230.462 159.04C229.99 159.32 229.55 159.724 229.142 160.252V165.928ZM229.01 158.536C229.522 157.936 230.102 157.452 230.75 157.084C231.406 156.716 232.166 156.532 233.03 156.532C233.718 156.532 234.342 156.672 234.902 156.952C235.462 157.224 235.942 157.624 236.342 158.152C236.742 158.68 237.05 159.336 237.266 160.12C237.49 160.896 237.602 161.788 237.602 162.796C237.602 163.7 237.478 164.544 237.23 165.328C236.99 166.104 236.642 166.78 236.186 167.356C235.73 167.924 235.178 168.372 234.53 168.7C233.882 169.02 233.15 169.18 232.334 169.18C231.614 169.18 231.002 169.064 230.498 168.832C230.002 168.6 229.55 168.28 229.142 167.872V173.068H226.562V156.76H228.122C228.474 156.76 228.698 156.924 228.794 157.252L229.01 158.536Z" fill="#5A3878"/>
<path d="M248.137 161.5C248.137 161.068 248.073 160.668 247.945 160.3C247.825 159.924 247.645 159.6 247.405 159.328C247.165 159.048 246.865 158.832 246.505 158.68C246.153 158.52 245.745 158.44 245.281 158.44C244.345 158.44 243.609 158.708 243.073 159.244C242.537 159.78 242.197 160.532 242.053 161.5H248.137ZM241.981 163.084C242.013 163.78 242.121 164.384 242.305 164.896C242.489 165.4 242.733 165.82 243.037 166.156C243.349 166.492 243.717 166.744 244.141 166.912C244.573 167.072 245.053 167.152 245.581 167.152C246.085 167.152 246.521 167.096 246.889 166.984C247.257 166.864 247.577 166.736 247.849 166.6C248.121 166.456 248.353 166.328 248.545 166.216C248.737 166.096 248.913 166.036 249.073 166.036C249.281 166.036 249.441 166.116 249.553 166.276L250.285 167.224C249.981 167.584 249.637 167.888 249.253 168.136C248.869 168.384 248.461 168.588 248.029 168.748C247.597 168.9 247.153 169.008 246.697 169.072C246.241 169.144 245.797 169.18 245.365 169.18C244.517 169.18 243.729 169.04 243.001 168.76C242.281 168.472 241.653 168.052 241.117 167.5C240.589 166.948 240.173 166.264 239.869 165.448C239.573 164.632 239.425 163.692 239.425 162.628C239.425 161.78 239.557 160.988 239.821 160.252C240.093 159.516 240.477 158.876 240.973 158.332C241.477 157.788 242.085 157.36 242.797 157.048C243.517 156.728 244.329 156.568 245.233 156.568C245.985 156.568 246.681 156.692 247.321 156.94C247.961 157.18 248.513 157.536 248.977 158.008C249.441 158.48 249.801 159.06 250.057 159.748C250.321 160.428 250.453 161.204 250.453 162.076C250.453 162.476 250.409 162.744 250.321 162.88C250.233 163.016 250.073 163.084 249.841 163.084H241.981Z" fill="#5A3878"/>
<path d="M255.295 159.028C255.679 158.252 256.143 157.644 256.687 157.204C257.231 156.756 257.883 156.532 258.643 156.532C258.907 156.532 259.155 156.564 259.387 156.628C259.619 156.684 259.827 156.772 260.011 156.892L259.831 158.836C259.799 158.972 259.747 159.068 259.675 159.124C259.611 159.172 259.523 159.196 259.411 159.196C259.291 159.196 259.119 159.176 258.895 159.136C258.671 159.088 258.435 159.064 258.187 159.064C257.827 159.064 257.507 159.116 257.227 159.22C256.955 159.324 256.707 159.476 256.483 159.676C256.267 159.876 256.075 160.12 255.907 160.408C255.739 160.696 255.583 161.024 255.439 161.392V169H252.859V156.76H254.359C254.631 156.76 254.819 156.812 254.923 156.916C255.027 157.012 255.099 157.184 255.139 157.432L255.295 159.028Z" fill="#5A3878"/>
<path d="M268.956 158.98C268.892 159.092 268.82 159.172 268.74 159.22C268.66 159.268 268.56 159.292 268.44 159.292C268.304 159.292 268.156 159.252 267.996 159.172C267.836 159.084 267.648 158.988 267.432 158.884C267.216 158.78 266.96 158.688 266.664 158.608C266.376 158.52 266.036 158.476 265.644 158.476C265.324 158.476 265.032 158.516 264.768 158.596C264.512 158.668 264.292 158.776 264.108 158.92C263.932 159.056 263.796 159.22 263.7 159.412C263.604 159.596 263.556 159.796 263.556 160.012C263.556 160.3 263.644 160.54 263.82 160.732C263.996 160.924 264.228 161.092 264.516 161.236C264.804 161.372 265.132 161.496 265.5 161.608C265.868 161.72 266.244 161.84 266.628 161.968C267.012 162.096 267.388 162.244 267.756 162.412C268.124 162.58 268.452 162.788 268.74 163.036C269.028 163.276 269.26 163.572 269.436 163.924C269.612 164.268 269.7 164.688 269.7 165.184C269.7 165.76 269.596 166.292 269.388 166.78C269.18 167.268 268.876 167.692 268.476 168.052C268.076 168.412 267.576 168.692 266.976 168.892C266.384 169.092 265.704 169.192 264.936 169.192C264.512 169.192 264.1 169.152 263.7 169.072C263.308 169 262.932 168.9 262.572 168.772C262.22 168.636 261.888 168.476 261.576 168.292C261.272 168.108 261 167.908 260.76 167.692L261.36 166.708C261.432 166.588 261.52 166.496 261.624 166.432C261.736 166.36 261.872 166.324 262.032 166.324C262.2 166.324 262.364 166.38 262.524 166.492C262.692 166.596 262.884 166.712 263.1 166.84C263.324 166.968 263.592 167.088 263.904 167.2C264.216 167.304 264.604 167.356 265.068 167.356C265.452 167.356 265.784 167.312 266.064 167.224C266.344 167.128 266.576 167 266.76 166.84C266.944 166.68 267.08 166.5 267.168 166.3C267.256 166.092 267.3 165.872 267.3 165.64C267.3 165.328 267.212 165.072 267.036 164.872C266.86 164.672 266.624 164.5 266.328 164.356C266.04 164.212 265.708 164.084 265.332 163.972C264.964 163.86 264.588 163.74 264.204 163.612C263.82 163.484 263.44 163.336 263.064 163.168C262.696 163 262.364 162.788 262.068 162.532C261.78 162.268 261.548 161.952 261.372 161.584C261.196 161.208 261.108 160.752 261.108 160.216C261.108 159.728 261.204 159.264 261.396 158.824C261.596 158.384 261.884 157.996 262.26 157.66C262.644 157.324 263.112 157.06 263.664 156.868C264.224 156.668 264.868 156.568 265.596 156.568C266.42 156.568 267.168 156.7 267.84 156.964C268.512 157.228 269.076 157.588 269.532 158.044L268.956 158.98Z" fill="#5A3878"/>
<path d="M277.416 156.568C278.32 156.568 279.136 156.716 279.864 157.012C280.6 157.308 281.224 157.728 281.736 158.272C282.256 158.816 282.656 159.476 282.936 160.252C283.216 161.028 283.356 161.9 283.356 162.868C283.356 163.836 283.216 164.708 282.936 165.484C282.656 166.26 282.256 166.924 281.736 167.476C281.224 168.02 280.6 168.44 279.864 168.736C279.136 169.032 278.32 169.18 277.416 169.18C276.504 169.18 275.68 169.032 274.944 168.736C274.216 168.44 273.592 168.02 273.072 167.476C272.552 166.924 272.152 166.26 271.872 165.484C271.592 164.708 271.452 163.836 271.452 162.868C271.452 161.9 271.592 161.028 271.872 160.252C272.152 159.476 272.552 158.816 273.072 158.272C273.592 157.728 274.216 157.308 274.944 157.012C275.68 156.716 276.504 156.568 277.416 156.568ZM277.416 167.164C278.52 167.164 279.34 166.796 279.876 166.06C280.42 165.316 280.692 164.256 280.692 162.88C280.692 161.504 280.42 160.444 279.876 159.7C279.34 158.948 278.52 158.572 277.416 158.572C276.296 158.572 275.464 158.948 274.92 159.7C274.376 160.444 274.104 161.504 274.104 162.88C274.104 164.256 274.376 165.316 274.92 166.06C275.464 166.796 276.296 167.164 277.416 167.164Z" fill="#5A3878"/>
<path d="M288.247 158.38C288.511 158.108 288.783 157.864 289.063 157.648C289.351 157.424 289.655 157.232 289.975 157.072C290.295 156.912 290.635 156.788 290.995 156.7C291.355 156.612 291.747 156.568 292.171 156.568C292.843 156.568 293.431 156.68 293.935 156.904C294.447 157.128 294.875 157.444 295.219 157.852C295.571 158.26 295.835 158.752 296.011 159.328C296.187 159.896 296.275 160.524 296.275 161.212V169H293.707V161.212C293.707 160.388 293.515 159.748 293.131 159.292C292.755 158.836 292.179 158.608 291.403 158.608C290.827 158.608 290.291 158.74 289.795 159.004C289.307 159.268 288.847 159.628 288.415 160.084V169H285.835V156.76H287.395C287.747 156.76 287.971 156.924 288.067 157.252L288.247 158.38Z" fill="#5A3878"/>
<path d="M302.252 151.72V158.584C302.252 159.304 302.22 160.012 302.156 160.708C302.092 161.396 302.008 162.14 301.904 162.94H300.164C300.052 162.14 299.964 161.396 299.9 160.708C299.844 160.012 299.816 159.304 299.816 158.584V151.72H302.252ZM299.324 167.512C299.324 167.28 299.364 167.064 299.444 166.864C299.532 166.656 299.652 166.476 299.804 166.324C299.956 166.172 300.132 166.052 300.332 165.964C300.532 165.876 300.752 165.832 300.992 165.832C301.224 165.832 301.44 165.876 301.64 165.964C301.848 166.052 302.024 166.172 302.168 166.324C302.32 166.476 302.44 166.656 302.528 166.864C302.616 167.064 302.66 167.28 302.66 167.512C302.66 167.752 302.616 167.972 302.528 168.172C302.44 168.372 302.32 168.548 302.168 168.7C302.024 168.852 301.848 168.968 301.64 169.048C301.44 169.136 301.224 169.18 300.992 169.18C300.752 169.18 300.532 169.136 300.332 169.048C300.132 168.968 299.956 168.852 299.804 168.7C299.652 168.548 299.532 168.372 299.444 168.172C299.364 167.972 299.324 167.752 299.324 167.512Z" fill="#5A3878"/>
</svg>
