<svg width="29" height="28" viewBox="0 0 29 28" fill="none" xmlns="http://www.w3.org/2000/svg">
<path d="M28.9997 0C28.8954 0.0794177 28.7917 0.158161 28.6887 0.236424C28.5857 0.31459 28.4834 0.392178 28.3817 0.469093C28.2801 0.546008 28.1791 0.622344 28.0787 0.698007C27.9783 0.773671 27.8786 0.848759 27.7795 0.923268C27.6803 0.99768 27.5819 1.07152 27.484 1.14477C27.3862 1.21793 27.289 1.29061 27.1924 1.36252C27.0958 1.43452 26.9998 1.50586 26.9044 1.57661C26.809 1.64736 26.7143 1.71744 26.62 1.78695C26.5258 1.85645 26.4322 1.92528 26.3392 1.99353C26.2462 2.06178 26.1537 2.12936 26.0618 2.19636C25.9699 2.26336 25.8787 2.32978 25.7878 2.39553C25.6971 2.46128 25.6069 2.52644 25.5172 2.59094C25.4276 2.65544 25.3385 2.71936 25.2499 2.78261C25.1614 2.84585 25.0734 2.90852 24.9858 2.97061C24.8983 3.0326 24.8113 3.09412 24.7249 3.15486C24.6385 3.2156 24.5525 3.27586 24.4671 3.33535C24.3816 3.39484 24.2968 3.45385 24.2123 3.51219C24.1279 3.57052 24.044 3.62819 23.9606 3.68527C23.8771 3.74236 23.7942 3.79877 23.7117 3.8546C23.6293 3.91043 23.5472 3.96569 23.4657 4.02027C23.3841 4.07485 23.3031 4.12886 23.2224 4.18219C23.1418 4.23552 23.0616 4.28827 22.9819 4.34035C22.9023 4.39243 22.8229 4.44393 22.744 4.49485C22.6652 4.54568 22.5868 4.59593 22.5088 4.6456C22.4309 4.69527 22.3533 4.74427 22.2761 4.79269C22.199 4.84111 22.1222 4.88886 22.0459 4.93603C21.9696 4.9832 21.8936 5.0297 21.8181 5.07561C21.7425 5.12153 21.6674 5.16678 21.5926 5.21144C21.5178 5.25611 21.4434 5.3002 21.3694 5.34361C21.2953 5.38703 21.2217 5.42986 21.1483 5.47203C21.075 5.51419 21.0021 5.55577 20.9295 5.59669C20.8569 5.6376 20.7846 5.67793 20.7127 5.71769C20.6409 5.75735 20.5693 5.79644 20.498 5.83494C20.4267 5.87345 20.3558 5.91128 20.2852 5.94844C20.2146 5.98569 20.1443 6.02227 20.0743 6.05828C20.0044 6.09428 19.9347 6.12961 19.8653 6.16436C19.7959 6.19911 19.7268 6.23319 19.658 6.26669C19.5892 6.30018 19.5207 6.33311 19.4524 6.36536C19.3842 6.39761 19.3162 6.42927 19.2485 6.46027C19.1808 6.49127 19.1133 6.52169 19.0462 6.55143C18.979 6.58118 18.9121 6.61035 18.8454 6.63894C18.7787 6.66753 18.7123 6.69535 18.646 6.72269C18.5798 6.75003 18.5138 6.77669 18.448 6.80268C18.3822 6.82877 18.3167 6.85419 18.2514 6.87902C18.1861 6.90386 18.121 6.92802 18.056 6.9516C17.9911 6.97519 17.9264 6.9981 17.8618 7.02043C17.7973 7.04277 17.7329 7.06443 17.6688 7.0856C17.6046 7.10669 17.5406 7.12719 17.4768 7.14702C17.413 7.16685 17.3493 7.1861 17.2859 7.20468C17.2224 7.22326 17.1591 7.24126 17.0959 7.25868C17.0327 7.27601 16.9696 7.29276 16.9067 7.30894C16.8438 7.32511 16.7811 7.34061 16.7184 7.35543C16.6558 7.37035 16.5933 7.3846 16.5309 7.39827C16.4684 7.41194 16.4062 7.42493 16.344 7.43735C16.2818 7.44977 16.2198 7.46151 16.1578 7.47268C16.0958 7.48385 16.0339 7.49443 15.9721 7.50435C15.9103 7.51427 15.8486 7.52361 15.787 7.53227C15.7254 7.54093 15.6638 7.54902 15.6023 7.55643C15.5408 7.56384 15.4794 7.57068 15.418 7.57694C15.3566 7.58319 15.2953 7.58868 15.234 7.59368C15.1727 7.59869 15.1115 7.60302 15.0503 7.60668C14.9891 7.61043 14.9279 7.61352 14.8668 7.61602C14.8056 7.61852 14.7444 7.62035 14.6833 7.6216C14.6222 7.62285 14.5611 7.62343 14.4999 7.62343C14.4388 7.62343 14.3777 7.62285 14.3166 7.6216C14.2555 7.62035 14.1944 7.61852 14.1331 7.61602C14.072 7.61352 14.0108 7.61043 13.9496 7.60668C13.8884 7.60292 13.8272 7.59859 13.7659 7.59368C13.7045 7.58868 13.6432 7.5831 13.5819 7.57694C13.5205 7.57068 13.4591 7.56394 13.3975 7.55643C13.336 7.54902 13.2745 7.54093 13.2129 7.53227C13.1513 7.52361 13.0896 7.51427 13.0278 7.50435C12.9659 7.49443 12.9041 7.48385 12.8421 7.47268C12.7801 7.46151 12.7181 7.44977 12.6559 7.43735C12.5938 7.42493 12.5314 7.41194 12.469 7.39827C12.4066 7.3846 12.3441 7.37035 12.2815 7.35543C12.2189 7.34051 12.1561 7.32501 12.0932 7.30894C12.0302 7.29276 11.9672 7.27601 11.904 7.25868C11.8408 7.24136 11.7775 7.22336 11.714 7.20468C11.6505 7.1861 11.5869 7.16685 11.5231 7.14702C11.4593 7.12719 11.3953 7.10669 11.3311 7.0856C11.267 7.06452 11.2026 7.04277 11.1381 7.02043C11.0736 6.9981 11.0088 6.97519 10.9439 6.9516C10.879 6.92802 10.8139 6.90386 10.7485 6.87902C10.6832 6.85419 10.6176 6.82877 10.5519 6.80268C10.4861 6.77659 10.4201 6.74993 10.3539 6.72269C10.2877 6.69535 10.2212 6.66743 10.1545 6.63894C10.0878 6.61035 10.0209 6.58128 9.95367 6.55143C9.88647 6.52169 9.81908 6.49127 9.75138 6.46027C9.68368 6.42927 9.61568 6.39761 9.54749 6.36536C9.47929 6.33311 9.4107 6.30018 9.3419 6.26669C9.27311 6.23319 9.20402 6.19901 9.13463 6.16436C9.06523 6.12961 8.99554 6.09428 8.92555 6.05828C8.85556 6.02227 8.78527 5.98569 8.71468 5.94844C8.64409 5.91119 8.57311 5.87335 8.50193 5.83494C8.43064 5.79644 8.35905 5.75735 8.28717 5.71769C8.21528 5.67803 8.143 5.63769 8.07042 5.59669C7.99784 5.55577 7.92485 5.51419 7.85157 5.47203C7.77829 5.42986 7.70462 5.38703 7.63054 5.34361C7.55646 5.3002 7.48208 5.25611 7.40731 5.21144C7.33253 5.16678 7.25735 5.12143 7.18177 5.07561C7.1062 5.0297 7.03024 4.9832 6.95397 4.93603C6.87759 4.88886 6.80082 4.84111 6.72365 4.79269C6.64648 4.74427 6.56892 4.69527 6.49095 4.6457C6.41298 4.59603 6.33452 4.54578 6.25566 4.49495C6.17679 4.44403 6.09753 4.39262 6.01777 4.34044C5.93801 4.28836 5.85785 4.23561 5.77729 4.18228C5.69663 4.12895 5.61557 4.07495 5.53401 4.02036C5.45246 3.96578 5.3705 3.91053 5.28795 3.8547C5.2055 3.79887 5.12255 3.74236 5.0391 3.68537C4.95565 3.62828 4.8717 3.57062 4.78735 3.51229C4.7029 3.45395 4.61806 3.39503 4.53262 3.33545C4.44718 3.27586 4.36123 3.2157 4.27479 3.15495C4.18835 3.09411 4.10141 3.0327 4.01388 2.9707C3.92634 2.90871 3.8384 2.84604 3.74976 2.7827C3.66123 2.71945 3.57209 2.65553 3.48246 2.59094C3.39283 2.52644 3.3026 2.46128 3.21187 2.39553C3.12114 2.32978 3.02982 2.26336 2.9379 2.19636C2.84598 2.12936 2.75355 2.06178 2.66053 1.99353C2.56751 1.92528 2.47389 1.85645 2.37967 1.78695C2.28546 1.71744 2.19063 1.64736 2.09532 1.57661C1.99991 1.50586 1.90389 1.43452 1.80728 1.36252C1.71067 1.29051 1.61347 1.21793 1.51566 1.14477C1.41785 1.07161 1.31935 0.99768 1.22024 0.923268C1.12114 0.848856 1.02144 0.773771 0.921044 0.698107C0.820645 0.622444 0.719643 0.546108 0.617948 0.469193C0.516253 0.392278 0.413961 0.31469 0.31097 0.236523C0.207979 0.158357 0.104287 0.0795117 0 9.40077e-05C0.0822535 0.100786 0.163815 0.200902 0.244872 0.300343C0.325829 0.399784 0.406188 0.498548 0.485849 0.596738C0.56551 0.694927 0.644566 0.792446 0.722931 0.889384C0.801296 0.986322 0.879062 1.08258 0.956131 1.17827C1.0332 1.27396 1.10967 1.36907 1.18555 1.4635C1.26132 1.55794 1.33659 1.65179 1.41107 1.74507C1.48564 1.83835 1.55952 1.93105 1.6328 2.02308C1.70608 2.11521 1.77867 2.20675 1.85066 2.29763C1.92264 2.38859 1.99393 2.47899 2.06461 2.5688C2.1353 2.65862 2.20529 2.74785 2.27468 2.83661C2.34407 2.92536 2.41277 3.01345 2.48097 3.10114C2.54906 3.18875 2.61655 3.27586 2.68335 3.3624C2.75015 3.44895 2.81636 3.535 2.88187 3.62048C2.94737 3.70597 3.01228 3.79097 3.07658 3.87539C3.14089 3.95982 3.20439 4.04385 3.26741 4.12732C3.33042 4.21078 3.39273 4.29376 3.45435 4.37625C3.51606 4.45875 3.57708 4.54067 3.6375 4.62221C3.69792 4.70374 3.75764 4.7847 3.81676 4.86528C3.87588 4.94585 3.93431 5.02594 3.99224 5.10555C4.05006 5.18516 4.10729 5.26439 4.16382 5.34313C4.22035 5.42187 4.27628 5.50014 4.33151 5.57801C4.38675 5.65589 4.44139 5.73329 4.49533 5.8102C4.54927 5.88721 4.60261 5.96374 4.65535 6.03989C4.70809 6.11603 4.76014 6.1917 4.81149 6.26707C4.86293 6.34235 4.91368 6.41724 4.96373 6.49175C5.01388 6.56626 5.06333 6.64038 5.11218 6.71412C5.16104 6.78786 5.20919 6.86121 5.25674 6.93408C5.3043 7.00705 5.35116 7.07963 5.39742 7.15183C5.44369 7.22403 5.48935 7.29584 5.53432 7.36737C5.57928 7.43889 5.62365 7.51003 5.66732 7.58078C5.71099 7.65154 5.75405 7.722 5.79642 7.79208C5.8388 7.86216 5.88058 7.93196 5.92176 8.00136C5.96283 8.07077 6.00331 8.13989 6.04319 8.20871C6.08308 8.27754 6.12225 8.34598 6.16074 8.41414C6.19922 8.48229 6.23721 8.55016 6.2745 8.61774C6.31178 8.68531 6.34838 8.7526 6.38437 8.8196C6.42036 8.8866 6.45566 8.95332 6.49035 9.01974C6.52505 9.08616 6.55915 9.15229 6.59255 9.21823C6.62595 9.28407 6.65875 9.34973 6.69085 9.41509C6.72295 9.48046 6.75446 9.54563 6.78527 9.61051C6.81608 9.67539 6.84628 9.73999 6.87589 9.80439C6.9055 9.86879 6.93442 9.9329 6.96263 9.99692C6.99095 10.0608 7.01857 10.1246 7.04549 10.1881C7.07251 10.2516 7.09883 10.3149 7.12455 10.3779C7.15027 10.441 7.1753 10.5039 7.19973 10.5666C7.22415 10.6293 7.24788 10.6917 7.27101 10.7541C7.29414 10.8164 7.31667 10.8786 7.33851 10.9405C7.36034 11.0024 7.38158 11.0642 7.40212 11.1258C7.42266 11.1874 7.4426 11.2488 7.46184 11.3101C7.48109 11.3715 7.49972 11.4326 7.51777 11.4936C7.53571 11.5547 7.55307 11.6155 7.56982 11.6762C7.58657 11.737 7.60261 11.7975 7.61797 11.8581C7.63342 11.9185 7.64818 11.9789 7.66234 12.0392C7.6765 12.0994 7.68996 12.1595 7.70282 12.2196C7.71568 12.2796 7.72784 12.3395 7.73941 12.3994C7.75097 12.4592 7.76194 12.5189 7.77221 12.5786C7.78247 12.6383 7.79215 12.6979 7.80112 12.7574C7.8101 12.8169 7.81847 12.8764 7.82615 12.9357C7.83382 12.9951 7.8409 13.0544 7.84738 13.1137C7.85376 13.1729 7.85955 13.2321 7.86474 13.2913C7.86992 13.3505 7.8744 13.4096 7.87819 13.4687C7.88198 13.5278 7.88527 13.5869 7.88786 13.6459C7.89045 13.7049 7.89235 13.764 7.89364 13.823C7.89494 13.882 7.89554 13.941 7.89554 14C7.89554 14.0591 7.89494 14.1181 7.89364 14.1771C7.89235 14.2361 7.89045 14.2951 7.88786 14.3542C7.88527 14.4133 7.88207 14.4723 7.87819 14.5314C7.8743 14.5905 7.86982 14.6496 7.86474 14.7088C7.85955 14.768 7.85386 14.8272 7.84738 14.8864C7.8409 14.9457 7.83392 15.005 7.82615 15.0644C7.81847 15.1238 7.8101 15.1832 7.80112 15.2427C7.79215 15.3022 7.78247 15.3618 7.77221 15.4215C7.76194 15.4812 7.75097 15.5408 7.73941 15.6007C7.72784 15.6606 7.71568 15.7205 7.70282 15.7805C7.68996 15.8405 7.6765 15.9007 7.66234 15.9609C7.64818 16.0212 7.63342 16.0816 7.61797 16.142C7.60251 16.2025 7.58647 16.2631 7.56982 16.3238C7.55317 16.3845 7.53581 16.4453 7.51777 16.5064C7.49982 16.5674 7.48119 16.6285 7.46184 16.6899C7.4426 16.7512 7.42266 16.8126 7.40212 16.8742C7.38158 16.9358 7.36034 16.9976 7.33851 17.0595C7.31667 17.1214 7.29414 17.1836 7.27101 17.2459C7.24788 17.3082 7.22415 17.3707 7.19973 17.4334C7.1753 17.4961 7.15027 17.5589 7.12455 17.6221C7.09883 17.6852 7.07251 17.7485 7.04549 17.8119C7.01847 17.8754 6.99085 17.9392 6.96263 18.0031C6.93432 18.067 6.9055 18.1312 6.87589 18.1956C6.84638 18.26 6.81618 18.3246 6.78527 18.3895C6.75446 18.4544 6.72296 18.5194 6.69075 18.5848C6.65865 18.6502 6.62584 18.7158 6.59244 18.7817C6.55904 18.8476 6.52495 18.9137 6.49026 18.9802C6.45556 19.0466 6.42017 19.1133 6.38427 19.1803C6.34828 19.2473 6.31169 19.3146 6.2744 19.3822C6.23711 19.4497 6.19922 19.5176 6.16064 19.5858C6.12206 19.6539 6.08287 19.7225 6.04309 19.7912C6.0032 19.86 5.96274 19.9291 5.92166 19.9985C5.88058 20.0679 5.8388 20.1377 5.79633 20.2078C5.75395 20.2779 5.71089 20.3484 5.66722 20.4191C5.62355 20.4899 5.57919 20.561 5.53422 20.6325C5.48926 20.7041 5.44359 20.7759 5.39733 20.8481C5.35107 20.9203 5.3042 20.9929 5.25665 21.0658C5.20909 21.1388 5.16094 21.2121 5.11209 21.2858C5.06323 21.3595 5.01378 21.4336 4.96363 21.5081C4.91348 21.5826 4.86273 21.6575 4.81139 21.7327C4.75994 21.808 4.70789 21.8838 4.65525 21.9599C4.60261 22.0361 4.54927 22.1126 4.49523 22.1896C4.44129 22.2666 4.38665 22.344 4.33142 22.4218C4.27618 22.4997 4.22025 22.5779 4.16372 22.6567C4.10719 22.7354 4.04997 22.8145 3.99214 22.8943C3.93431 22.9739 3.87578 23.054 3.81676 23.1345C3.75764 23.2151 3.69792 23.2962 3.6375 23.3776C3.57708 23.4591 3.51606 23.5411 3.45435 23.6236C3.39263 23.706 3.33032 23.789 3.26741 23.8725C3.20439 23.956 3.14079 24.0399 3.07658 24.1244C3.01228 24.2089 2.94747 24.2938 2.88187 24.3794C2.81636 24.4649 2.75015 24.551 2.68335 24.6375C2.61655 24.724 2.54906 24.8112 2.48097 24.8988C2.41287 24.9864 2.34407 25.0745 2.27468 25.1633C2.20529 25.252 2.1353 25.3413 2.06461 25.4311C1.99393 25.5209 1.92264 25.6113 1.85066 25.7023C1.77867 25.7932 1.70608 25.8848 1.6328 25.9768C1.55952 26.0689 1.48565 26.1616 1.41118 26.2549C1.3366 26.3482 1.26142 26.4421 1.18564 26.5365C1.10987 26.6309 1.0334 26.726 0.956229 26.8217C0.87916 26.9174 0.801394 27.0137 0.723029 27.1106C0.644664 27.2076 0.565607 27.3051 0.485946 27.4033C0.406285 27.5015 0.325926 27.6002 0.244969 27.6997C0.164012 27.7991 0.0823485 27.8992 0.000194729 27.9999C0.104482 27.9205 0.208173 27.8417 0.311165 27.7636C0.414156 27.6854 0.516448 27.6078 0.618143 27.5309C0.719838 27.454 0.820839 27.3777 0.921238 27.302C1.02164 27.2263 1.12134 27.1512 1.22044 27.0767C1.31954 27.0023 1.41795 26.9285 1.51586 26.8552C1.61376 26.782 1.71088 26.7094 1.80749 26.6375C1.9041 26.5655 2.0001 26.4941 2.09552 26.4235C2.19093 26.3527 2.28565 26.2826 2.37987 26.2131C2.47409 26.1436 2.56771 26.0748 2.66073 26.0066C2.75375 25.9383 2.84617 25.8707 2.9381 25.8037C3.03002 25.7367 3.12125 25.6703 3.21208 25.6046C3.30291 25.5388 3.39304 25.4736 3.48267 25.4091C3.5723 25.3446 3.66142 25.2807 3.74996 25.2175C3.83849 25.1542 3.92653 25.0916 4.01407 25.0295C4.10151 24.9674 4.18855 24.9061 4.27499 24.8452C4.36144 24.7844 4.44737 24.7242 4.53282 24.6647C4.61826 24.6052 4.70311 24.5462 4.78756 24.4879C4.872 24.4296 4.95584 24.3719 5.03929 24.3148C5.12274 24.2577 5.2057 24.2013 5.28816 24.1455C5.37061 24.0897 5.45267 24.0344 5.53422 23.9798C5.61578 23.9252 5.69683 23.8712 5.77749 23.8179C5.85815 23.7646 5.9383 23.7118 6.01796 23.6596C6.09773 23.6076 6.17699 23.5561 6.25585 23.5051C6.33471 23.4542 6.41308 23.404 6.49114 23.3544C6.56911 23.3047 6.64668 23.2557 6.72385 23.2074C6.80101 23.159 6.87779 23.1112 6.95406 23.0641C7.03043 23.0169 7.10631 22.9704 7.18188 22.9245C7.25746 22.8786 7.33263 22.8333 7.4074 22.7887C7.48218 22.744 7.55656 22.6999 7.63064 22.6565C7.70472 22.6131 7.77829 22.5702 7.85167 22.5281C7.92495 22.4859 7.99793 22.4443 8.07052 22.4034C8.1431 22.3625 8.21538 22.3222 8.28726 22.2824C8.35915 22.2426 8.43074 22.2037 8.50202 22.1651C8.57331 22.1266 8.6442 22.0888 8.71479 22.0517C8.78538 22.0145 8.85567 21.9778 8.92566 21.9418C8.99565 21.9058 9.06533 21.8705 9.13472 21.8357C9.20412 21.801 9.27321 21.7669 9.342 21.7334C9.4108 21.6999 9.47929 21.667 9.54759 21.6347C9.61578 21.6025 9.68378 21.5708 9.75148 21.5398C9.81918 21.5088 9.88668 21.4784 9.95388 21.4487C10.0211 21.4189 10.088 21.3898 10.1547 21.3612C10.2214 21.3326 10.2878 21.3047 10.3541 21.2774C10.4203 21.2501 10.4863 21.2234 10.5521 21.1974C10.6179 21.1713 10.6834 21.1459 10.7487 21.1211C10.814 21.0962 10.8792 21.0721 10.9441 21.0485C11.009 21.0249 11.0737 21.002 11.1383 20.9797C11.2028 20.9573 11.2672 20.9356 11.3313 20.9145C11.3955 20.8934 11.4595 20.8729 11.5233 20.8531C11.5871 20.8332 11.6507 20.814 11.7142 20.7954C11.7777 20.7768 11.841 20.7588 11.9042 20.7414C11.9674 20.7241 12.0305 20.7073 12.0934 20.6912C12.1563 20.675 12.219 20.6595 12.2817 20.6447C12.3443 20.6297 12.4068 20.6155 12.4692 20.6018C12.5317 20.5882 12.5939 20.5752 12.6561 20.5627C12.7182 20.5503 12.7803 20.5386 12.8423 20.5274C12.9042 20.5163 12.9662 20.5058 13.028 20.4957C13.0898 20.4857 13.1515 20.4765 13.2131 20.4678C13.2747 20.4592 13.3363 20.4511 13.3978 20.4437C13.4593 20.4363 13.5207 20.4294 13.5821 20.4232C13.6435 20.4169 13.7048 20.4113 13.766 20.4064C13.8274 20.4014 13.8886 20.3971 13.9498 20.3934C14.011 20.3897 14.0722 20.3866 14.1333 20.3841C14.1945 20.3816 14.2557 20.3797 14.3168 20.3785C14.3779 20.3772 14.439 20.3767 14.5002 20.3767C14.5613 20.3767 14.6224 20.3773 14.6835 20.3785C14.7446 20.3797 14.8057 20.3816 14.8669 20.3841C14.9281 20.3866 14.9893 20.3897 15.0505 20.3934C15.1117 20.3972 15.1729 20.4015 15.2342 20.4064C15.2956 20.4114 15.3569 20.4169 15.4182 20.4232C15.4796 20.4293 15.541 20.4362 15.6025 20.4437C15.6641 20.4511 15.7256 20.4592 15.7872 20.4678C15.8488 20.4765 15.9105 20.4858 15.9723 20.4957C16.0342 20.5057 16.096 20.5163 16.158 20.5274C16.22 20.5386 16.282 20.5503 16.3442 20.5627C16.4064 20.5752 16.4687 20.5882 16.5311 20.6018C16.5935 20.6155 16.656 20.6297 16.7186 20.6447C16.7812 20.6596 16.844 20.6751 16.9069 20.6912C16.9699 20.7072 17.0329 20.7241 17.0961 20.7414C17.1593 20.7588 17.2226 20.7767 17.2861 20.7954C17.3496 20.814 17.4132 20.8332 17.477 20.8531C17.5408 20.8729 17.6048 20.8934 17.669 20.9145C17.7331 20.9356 17.7975 20.9573 17.862 20.9797C17.9265 21.002 17.9912 21.0249 18.0562 21.0485C18.1211 21.0721 18.1862 21.0962 18.2516 21.1211C18.317 21.1459 18.3825 21.1713 18.4482 21.1974C18.514 21.2235 18.58 21.2502 18.6462 21.2774C18.7124 21.3048 18.7789 21.3327 18.8456 21.3612C18.9123 21.3898 18.9792 21.4188 19.0464 21.4487C19.1136 21.4784 19.181 21.5088 19.2488 21.5398C19.3165 21.5708 19.3845 21.6025 19.4527 21.6347C19.5209 21.667 19.5895 21.6999 19.6583 21.7334C19.7271 21.7669 19.7962 21.8011 19.8656 21.8357C19.935 21.8705 20.0047 21.9058 20.0746 21.9418C20.1446 21.9778 20.2149 22.0144 20.2855 22.0517C20.3561 22.0889 20.4271 22.1267 20.4983 22.1651C20.5696 22.2037 20.6411 22.2427 20.713 22.2824C20.7849 22.3221 20.8572 22.3624 20.9298 22.4034C21.0024 22.4443 21.0753 22.4859 21.1486 22.5281C21.2219 22.5702 21.2956 22.6131 21.3697 22.6565C21.4437 22.6999 21.5181 22.744 21.5929 22.7887C21.6677 22.8333 21.7428 22.8786 21.8184 22.9245C21.894 22.9704 21.97 23.0169 22.0462 23.0641C22.1226 23.1112 22.1994 23.159 22.2764 23.2074C22.3536 23.2558 22.4312 23.3048 22.5091 23.3544C22.5871 23.4041 22.6656 23.4543 22.7444 23.5051C22.8233 23.556 22.9026 23.6075 22.9823 23.6596C23.0621 23.7117 23.1422 23.7645 23.2228 23.8178C23.3035 23.8711 23.3845 23.9251 23.4661 23.9797C23.5476 24.0343 23.6296 24.0896 23.7121 24.1454C23.7946 24.2012 23.8775 24.2577 23.961 24.3148C24.0444 24.3719 24.1284 24.4296 24.2127 24.4879C24.2972 24.5462 24.382 24.6052 24.4675 24.6647C24.5529 24.7243 24.6389 24.7845 24.7253 24.8452C24.8118 24.906 24.8987 24.9675 24.9862 25.0295C25.0738 25.0916 25.1617 25.1541 25.2503 25.2175C25.3389 25.2807 25.428 25.3446 25.5176 25.4091C25.6073 25.4736 25.6975 25.5388 25.7882 25.6046C25.879 25.6703 25.9703 25.7367 26.0622 25.8037C26.1541 25.8707 26.2466 25.9384 26.3396 26.0067C26.4326 26.0749 26.5262 26.1437 26.6204 26.2132C26.7146 26.2827 26.8094 26.3528 26.9048 26.4236C27.0002 26.4943 27.0962 26.5657 27.1927 26.6377C27.2893 26.7097 27.3865 26.7823 27.4843 26.8554C27.5821 26.9286 27.6807 27.0024 27.7798 27.0769C27.8789 27.1513 27.9786 27.2264 28.079 27.3021C28.1794 27.3778 28.2804 27.4541 28.3821 27.531C28.4837 27.6079 28.586 27.6855 28.689 27.7637C28.792 27.8418 28.8957 27.9206 29 28C28.9177 27.8993 28.8362 27.7992 28.7551 27.6998C28.6742 27.6003 28.5938 27.5015 28.5142 27.4034C28.4345 27.3052 28.3554 27.2076 28.2771 27.1107C28.1987 27.0138 28.1209 26.9175 28.0439 26.8218C27.9668 26.7261 27.8903 26.6311 27.8145 26.5366C27.7387 26.4422 27.6634 26.3483 27.5889 26.255C27.5143 26.1617 27.4405 26.069 27.3672 25.9769C27.2939 25.8848 27.2213 25.7933 27.1493 25.7024C27.0774 25.6114 27.0061 25.521 26.9354 25.4312C26.8647 25.3414 26.7947 25.2521 26.7252 25.1634C26.6558 25.0746 26.587 24.9866 26.5189 24.8989C26.4508 24.8113 26.3833 24.7241 26.3165 24.6376C26.2497 24.5511 26.1835 24.465 26.118 24.3795C26.0525 24.294 25.9876 24.209 25.9233 24.1246C25.859 24.0401 25.7954 23.9561 25.7325 23.8727C25.6696 23.7892 25.6072 23.7062 25.5455 23.6237C25.4838 23.5412 25.4228 23.4593 25.3624 23.3778C25.302 23.2963 25.2423 23.2153 25.1831 23.1347C25.124 23.0541 25.0656 22.9741 25.0078 22.8945C24.9499 22.8148 24.8927 22.7356 24.8362 22.6569C24.7796 22.5781 24.7237 22.4999 24.6685 22.422C24.6132 22.3441 24.5586 22.2667 24.5046 22.1898C24.4506 22.1128 24.3973 22.0363 24.3446 21.9601C24.2918 21.884 24.2398 21.8083 24.1884 21.7329C24.137 21.6576 24.0862 21.5828 24.0362 21.5082C23.9861 21.4337 23.9366 21.3596 23.8877 21.286C23.8389 21.2122 23.7907 21.139 23.7431 21.066C23.6956 20.993 23.6487 20.9205 23.6025 20.8483C23.5562 20.7761 23.5105 20.7043 23.4656 20.6327C23.4206 20.5612 23.3763 20.4902 23.3326 20.4193C23.2889 20.3486 23.2458 20.2781 23.2035 20.208C23.1611 20.1379 23.1193 20.0681 23.0781 19.9987C23.0371 19.9293 22.9966 19.8602 22.9567 19.7914C22.9168 19.7227 22.8776 19.6541 22.8392 19.586C22.8006 19.5178 22.7627 19.4499 22.7254 19.3824C22.6881 19.3148 22.6515 19.2475 22.6155 19.1805C22.5795 19.1135 22.5442 19.0468 22.5096 18.9804C22.4749 18.9139 22.4408 18.8478 22.4074 18.7819C22.374 18.716 22.3412 18.6504 22.3091 18.585C22.2769 18.5196 22.2454 18.4545 22.2146 18.3897C22.1838 18.3248 22.1536 18.2602 22.124 18.1958C22.0944 18.1314 22.0655 18.0673 22.0373 18.0033C22.0089 17.9394 21.9813 17.8756 21.9544 17.8121C21.9274 17.7486 21.9011 17.6853 21.8754 17.6223C21.8496 17.5592 21.8246 17.4964 21.8002 17.4336C21.7757 17.3709 21.752 17.3084 21.7289 17.2461C21.7058 17.1838 21.6832 17.1216 21.6614 17.0597C21.6395 16.9978 21.6183 16.936 21.5978 16.8744C21.5772 16.8128 21.5573 16.7514 21.5381 16.69C21.5188 16.6287 21.5002 16.5676 21.4821 16.5066C21.4641 16.4455 21.4468 16.3847 21.4301 16.324C21.4133 16.2632 21.3973 16.2027 21.3819 16.1422C21.3665 16.0817 21.3517 16.0214 21.3376 15.9611C21.3234 15.9009 21.3099 15.8408 21.2971 15.7807C21.2842 15.7208 21.2721 15.6608 21.2605 15.6009C21.2489 15.5411 21.238 15.4814 21.2277 15.4217C21.2174 15.362 21.2078 15.3024 21.1988 15.2429C21.1898 15.1834 21.1814 15.1239 21.1737 15.0646C21.1661 15.0052 21.159 14.9459 21.1525 14.8866C21.146 14.8273 21.1403 14.7681 21.1352 14.709C21.13 14.6498 21.1255 14.5907 21.1217 14.5316C21.1179 14.4725 21.1146 14.4134 21.112 14.3544C21.1094 14.2954 21.1075 14.2363 21.1062 14.1773C21.1049 14.1183 21.1044 14.0592 21.1044 14.0002C21.1044 13.9412 21.1049 13.8822 21.1062 13.8232C21.1075 13.7642 21.1094 13.7052 21.112 13.6461C21.1146 13.5871 21.1178 13.528 21.1217 13.4689C21.1256 13.4098 21.1301 13.3507 21.1352 13.2915C21.1403 13.2323 21.146 13.173 21.1525 13.1138C21.159 13.0546 21.166 12.9952 21.1737 12.9358C21.1814 12.8765 21.1898 12.8171 21.1988 12.7576C21.2078 12.6981 21.2174 12.6385 21.2277 12.5788C21.238 12.5191 21.2489 12.4594 21.2605 12.3996C21.2721 12.3397 21.2842 12.2798 21.2971 12.2197C21.3099 12.1597 21.3234 12.0996 21.3376 12.0393C21.3517 11.9791 21.3665 11.9187 21.3819 11.8583C21.3974 11.7978 21.4134 11.7372 21.4301 11.6764C21.4467 11.6157 21.4642 11.5548 21.4821 11.4938C21.5001 11.4328 21.5187 11.3717 21.5381 11.3103C21.5573 11.249 21.5772 11.1876 21.5978 11.126C21.6183 11.0644 21.6395 11.0026 21.6614 10.9407C21.6832 10.8788 21.7058 10.8166 21.7289 10.7543C21.752 10.692 21.7757 10.6296 21.8002 10.5668C21.8246 10.5041 21.8496 10.4413 21.8754 10.3781C21.9011 10.3151 21.9274 10.2517 21.9544 10.1883C21.9814 10.1247 22.009 10.061 22.0373 9.99711C22.0655 9.93319 22.0945 9.86898 22.124 9.80458C22.1535 9.74018 22.1837 9.67558 22.2146 9.6107C22.2455 9.54582 22.2769 9.48074 22.3091 9.41528C22.3412 9.34992 22.374 9.28427 22.4074 9.21843C22.4408 9.15249 22.4749 9.08635 22.5096 9.01993C22.5442 8.95351 22.5795 8.8868 22.6155 8.8198C22.6515 8.7528 22.6881 8.68551 22.7254 8.61793C22.7627 8.55035 22.8006 8.48249 22.8392 8.41433C22.8777 8.34618 22.9169 8.27764 22.9567 8.20891C22.9966 8.14008 23.0371 8.07096 23.0781 8.00156C23.1192 7.93215 23.161 7.86236 23.2035 7.79228C23.2458 7.7222 23.2889 7.65173 23.3326 7.58098C23.3763 7.51022 23.4206 7.43908 23.4656 7.36756C23.5105 7.29603 23.5562 7.22422 23.6025 7.15203C23.6487 7.07983 23.6956 7.00724 23.7431 6.93428C23.7907 6.86131 23.8389 6.78796 23.8877 6.71431C23.9366 6.64058 23.986 6.56645 24.0362 6.49195C24.0863 6.41744 24.1371 6.34254 24.1884 6.26726C24.2398 6.19198 24.2919 6.11622 24.3446 6.04008C24.3972 5.96393 24.4505 5.88741 24.5046 5.81039C24.5586 5.73338 24.6131 5.65599 24.6685 5.57821C24.7237 5.50033 24.7796 5.42207 24.8362 5.34332C24.8927 5.26458 24.9499 5.18545 25.0078 5.10574C25.0656 5.02613 25.1241 4.94604 25.1831 4.86547C25.2423 4.7849 25.302 4.70384 25.3624 4.6224C25.4228 4.54087 25.4838 4.45895 25.5455 4.37645C25.6073 4.29395 25.6696 4.21097 25.7325 4.12751C25.7955 4.04405 25.8591 3.96011 25.9233 3.87559C25.9875 3.79107 26.0524 3.70616 26.118 3.62068C26.1836 3.5352 26.2497 3.44914 26.3165 3.3626C26.3833 3.27606 26.4508 3.18893 26.5189 3.10133C26.587 3.01373 26.6558 2.92556 26.7252 2.8369C26.7946 2.74815 26.8647 2.6589 26.9354 2.56909C27.0061 2.47928 27.0774 2.38889 27.1493 2.29792C27.2213 2.20695 27.2939 2.1154 27.3672 2.02337C27.4405 1.93125 27.5143 1.83854 27.5889 1.74536C27.6635 1.65208 27.7387 1.55822 27.8145 1.46379C27.8902 1.36935 27.9667 1.27424 28.0439 1.17856C28.121 1.08287 28.1987 0.986609 28.2771 0.889672C28.3554 0.792734 28.4345 0.695221 28.5142 0.597031C28.5938 0.498842 28.6742 0.400072 28.7551 0.300631C28.8359 0.200805 28.9174 0.100692 28.9997 0Z" fill="#FAE7F5"/>
<path d="M28.9997 0C28.8954 0.0794177 28.7917 0.158161 28.6887 0.236424C28.5857 0.31459 28.4834 0.392178 28.3817 0.469093C28.2801 0.546008 28.1791 0.622344 28.0787 0.698007C27.9783 0.773671 27.8786 0.848759 27.7795 0.923268C27.6803 0.99768 27.5819 1.07152 27.484 1.14477C27.3862 1.21793 27.289 1.29061 27.1924 1.36252C27.0958 1.43452 26.9998 1.50586 26.9044 1.57661C26.809 1.64736 26.7143 1.71744 26.62 1.78695C26.5258 1.85645 26.4322 1.92528 26.3392 1.99353C26.2462 2.06178 26.1537 2.12936 26.0618 2.19636C25.9699 2.26336 25.8787 2.32978 25.7878 2.39553C25.6971 2.46128 25.6069 2.52644 25.5172 2.59094C25.4276 2.65544 25.3385 2.71936 25.2499 2.78261C25.1614 2.84585 25.0734 2.90852 24.9858 2.97061C24.8983 3.0326 24.8113 3.09412 24.7249 3.15486C24.6385 3.2156 24.5525 3.27586 24.4671 3.33535C24.3816 3.39484 24.2968 3.45385 24.2123 3.51219C24.1279 3.57052 24.044 3.62819 23.9606 3.68527C23.8771 3.74236 23.7942 3.79877 23.7117 3.8546C23.6293 3.91043 23.5472 3.96569 23.4657 4.02027C23.3841 4.07485 23.3031 4.12886 23.2224 4.18219C23.1418 4.23552 23.0616 4.28827 22.9819 4.34035C22.9023 4.39243 22.8229 4.44393 22.744 4.49485C22.6652 4.54568 22.5868 4.59593 22.5088 4.6456C22.4309 4.69527 22.3533 4.74427 22.2761 4.79269C22.199 4.84111 22.1222 4.88886 22.0459 4.93603C21.9696 4.9832 21.8936 5.0297 21.8181 5.07561C21.7425 5.12153 21.6674 5.16678 21.5926 5.21144C21.5178 5.25611 21.4434 5.3002 21.3694 5.34361C21.2953 5.38703 21.2217 5.42986 21.1483 5.47203C21.075 5.51419 21.0021 5.55577 20.9295 5.59669C20.8569 5.6376 20.7846 5.67793 20.7127 5.71769C20.6409 5.75735 20.5693 5.79644 20.498 5.83494C20.4267 5.87345 20.3558 5.91128 20.2852 5.94844C20.2146 5.98569 20.1443 6.02227 20.0743 6.05828C20.0044 6.09428 19.9347 6.12961 19.8653 6.16436C19.7959 6.19911 19.7268 6.23319 19.658 6.26669C19.5892 6.30018 19.5207 6.33311 19.4524 6.36536C19.3842 6.39761 19.3162 6.42927 19.2485 6.46027C19.1808 6.49127 19.1133 6.52169 19.0462 6.55143C18.979 6.58118 18.9121 6.61035 18.8454 6.63894C18.7787 6.66753 18.7123 6.69535 18.646 6.72269C18.5798 6.75003 18.5138 6.77669 18.448 6.80268C18.3822 6.82877 18.3167 6.85419 18.2514 6.87902C18.1861 6.90386 18.121 6.92802 18.056 6.9516C17.9911 6.97519 17.9264 6.9981 17.8618 7.02043C17.7973 7.04277 17.7329 7.06443 17.6688 7.0856C17.6046 7.10669 17.5406 7.12719 17.4768 7.14702C17.413 7.16685 17.3493 7.1861 17.2859 7.20468C17.2224 7.22326 17.1591 7.24126 17.0959 7.25868C17.0327 7.27601 16.9696 7.29276 16.9067 7.30894C16.8438 7.32511 16.7811 7.34061 16.7184 7.35543C16.6558 7.37035 16.5933 7.3846 16.5309 7.39827C16.4684 7.41194 16.4062 7.42493 16.344 7.43735C16.2818 7.44977 16.2198 7.46151 16.1578 7.47268C16.0958 7.48385 16.0339 7.49443 15.9721 7.50435C15.9103 7.51427 15.8486 7.52361 15.787 7.53227C15.7254 7.54093 15.6638 7.54902 15.6023 7.55643C15.5408 7.56384 15.4794 7.57068 15.418 7.57694C15.3566 7.58319 15.2953 7.58868 15.234 7.59368C15.1727 7.59869 15.1115 7.60302 15.0503 7.60668C14.9891 7.61043 14.9279 7.61352 14.8668 7.61602C14.8056 7.61852 14.7444 7.62035 14.6833 7.6216C14.6222 7.62285 14.5611 7.62343 14.4999 7.62343C14.4388 7.62343 14.3777 7.62285 14.3166 7.6216C14.2555 7.62035 14.1944 7.61852 14.1331 7.61602C14.072 7.61352 14.0108 7.61043 13.9496 7.60668C13.8884 7.60292 13.8272 7.59859 13.7659 7.59368C13.7045 7.58868 13.6432 7.5831 13.5819 7.57694C13.5205 7.57068 13.4591 7.56394 13.3975 7.55643C13.336 7.54902 13.2745 7.54093 13.2129 7.53227C13.1513 7.52361 13.0896 7.51427 13.0278 7.50435C12.9659 7.49443 12.9041 7.48385 12.8421 7.47268C12.7801 7.46151 12.7181 7.44977 12.6559 7.43735C12.5938 7.42493 12.5314 7.41194 12.469 7.39827C12.4066 7.3846 12.3441 7.37035 12.2815 7.35543C12.2189 7.34051 12.1561 7.32501 12.0932 7.30894C12.0302 7.29276 11.9672 7.27601 11.904 7.25868C11.8408 7.24136 11.7775 7.22336 11.714 7.20468C11.6505 7.1861 11.5869 7.16685 11.5231 7.14702C11.4593 7.12719 11.3953 7.10669 11.3311 7.0856C11.267 7.06452 11.2026 7.04277 11.1381 7.02043C11.0736 6.9981 11.0088 6.97519 10.9439 6.9516C10.879 6.92802 10.8139 6.90386 10.7485 6.87902C10.6832 6.85419 10.6176 6.82877 10.5519 6.80268C10.4861 6.77659 10.4201 6.74993 10.3539 6.72269C10.2877 6.69535 10.2212 6.66743 10.1545 6.63894C10.0878 6.61035 10.0209 6.58128 9.95367 6.55143C9.88647 6.52169 9.81908 6.49127 9.75138 6.46027C9.68368 6.42927 9.61568 6.39761 9.54749 6.36536C9.47929 6.33311 9.4107 6.30018 9.3419 6.26669C9.27311 6.23319 9.20402 6.19901 9.13463 6.16436C9.06523 6.12961 8.99554 6.09428 8.92555 6.05828C8.85556 6.02227 8.78527 5.98569 8.71468 5.94844C8.64409 5.91119 8.57311 5.87335 8.50193 5.83494C8.43064 5.79644 8.35905 5.75735 8.28717 5.71769C8.21528 5.67803 8.143 5.63769 8.07042 5.59669C7.99784 5.55577 7.92485 5.51419 7.85157 5.47203C7.77829 5.42986 7.70462 5.38703 7.63054 5.34361C7.55646 5.3002 7.48208 5.25611 7.40731 5.21144C7.33253 5.16678 7.25735 5.12143 7.18177 5.07561C7.1062 5.0297 7.03024 4.9832 6.95397 4.93603C6.87759 4.88886 6.80082 4.84111 6.72365 4.79269C6.64648 4.74427 6.56892 4.69527 6.49095 4.6457C6.41298 4.59603 6.33452 4.54578 6.25566 4.49495C6.17679 4.44403 6.09753 4.39262 6.01777 4.34044C5.93801 4.28836 5.85785 4.23561 5.77729 4.18228C5.69663 4.12895 5.61557 4.07495 5.53401 4.02036C5.45246 3.96578 5.3705 3.91053 5.28795 3.8547C5.2055 3.79887 5.12255 3.74236 5.0391 3.68537C4.95565 3.62828 4.8717 3.57062 4.78735 3.51229C4.7029 3.45395 4.61806 3.39503 4.53262 3.33545C4.44718 3.27586 4.36123 3.2157 4.27479 3.15495C4.18835 3.09411 4.10141 3.0327 4.01388 2.9707C3.92634 2.90871 3.8384 2.84604 3.74976 2.7827C3.66123 2.71945 3.57209 2.65553 3.48246 2.59094C3.39283 2.52644 3.3026 2.46128 3.21187 2.39553C3.12114 2.32978 3.02982 2.26336 2.9379 2.19636C2.84598 2.12936 2.75355 2.06178 2.66053 1.99353C2.56751 1.92528 2.47389 1.85645 2.37967 1.78695C2.28546 1.71744 2.19063 1.64736 2.09532 1.57661C1.99991 1.50586 1.90389 1.43452 1.80728 1.36252C1.71067 1.29051 1.61347 1.21793 1.51566 1.14477C1.41785 1.07161 1.31935 0.99768 1.22024 0.923268C1.12114 0.848856 1.02144 0.773771 0.921044 0.698107C0.820645 0.622444 0.719643 0.546108 0.617948 0.469193C0.516253 0.392278 0.413961 0.31469 0.31097 0.236523C0.207979 0.158357 0.104287 0.0795117 0 9.40077e-05C0.0822535 0.100786 0.163815 0.200902 0.244872 0.300343C0.325829 0.399784 0.406188 0.498548 0.485849 0.596738C0.56551 0.694927 0.644566 0.792446 0.722931 0.889384C0.801296 0.986322 0.879062 1.08258 0.956131 1.17827C1.0332 1.27396 1.10967 1.36907 1.18555 1.4635C1.26132 1.55794 1.33659 1.65179 1.41107 1.74507C1.48564 1.83835 1.55952 1.93105 1.6328 2.02308C1.70608 2.11521 1.77867 2.20675 1.85066 2.29763C1.92264 2.38859 1.99393 2.47899 2.06461 2.5688C2.1353 2.65862 2.20529 2.74785 2.27468 2.83661C2.34407 2.92536 2.41277 3.01345 2.48097 3.10114C2.54906 3.18875 2.61655 3.27586 2.68335 3.3624C2.75015 3.44895 2.81636 3.535 2.88187 3.62048C2.94737 3.70597 3.01228 3.79097 3.07658 3.87539C3.14089 3.95982 3.20439 4.04385 3.26741 4.12732C3.33042 4.21078 3.39273 4.29376 3.45435 4.37625C3.51606 4.45875 3.57708 4.54067 3.6375 4.62221C3.69792 4.70374 3.75764 4.7847 3.81676 4.86528C3.87588 4.94585 3.93431 5.02594 3.99224 5.10555C4.05006 5.18516 4.10729 5.26439 4.16382 5.34313C4.22035 5.42187 4.27628 5.50014 4.33151 5.57801C4.38675 5.65589 4.44139 5.73329 4.49533 5.8102C4.54927 5.88721 4.60261 5.96374 4.65535 6.03989C4.70809 6.11603 4.76014 6.1917 4.81149 6.26707C4.86293 6.34235 4.91368 6.41724 4.96373 6.49175C5.01388 6.56626 5.06333 6.64038 5.11218 6.71412C5.16104 6.78786 5.20919 6.86121 5.25674 6.93408C5.3043 7.00705 5.35116 7.07963 5.39742 7.15183C5.44369 7.22403 5.48935 7.29584 5.53432 7.36737C5.57928 7.43889 5.62365 7.51003 5.66732 7.58078C5.71099 7.65154 5.75405 7.722 5.79642 7.79208C5.8388 7.86216 5.88058 7.93196 5.92176 8.00136C5.96283 8.07077 6.00331 8.13989 6.04319 8.20871C6.08308 8.27754 6.12225 8.34598 6.16074 8.41414C6.19922 8.48229 6.23721 8.55016 6.2745 8.61774C6.31178 8.68531 6.34838 8.7526 6.38437 8.8196C6.42036 8.8866 6.45566 8.95332 6.49035 9.01974C6.52505 9.08616 6.55915 9.15229 6.59255 9.21823C6.62595 9.28407 6.65875 9.34973 6.69085 9.41509C6.72295 9.48046 6.75446 9.54563 6.78527 9.61051C6.81608 9.67539 6.84628 9.73999 6.87589 9.80439C6.9055 9.86879 6.93442 9.9329 6.96263 9.99692C6.99095 10.0608 7.01857 10.1246 7.04549 10.1881C7.07251 10.2516 7.09883 10.3149 7.12455 10.3779C7.15027 10.441 7.1753 10.5039 7.19973 10.5666C7.22415 10.6293 7.24788 10.6917 7.27101 10.7541C7.29414 10.8164 7.31667 10.8786 7.33851 10.9405C7.36034 11.0024 7.38158 11.0642 7.40212 11.1258C7.42266 11.1874 7.4426 11.2488 7.46184 11.3101C7.48109 11.3715 7.49972 11.4326 7.51777 11.4936C7.53571 11.5547 7.55307 11.6155 7.56982 11.6762C7.58657 11.737 7.60261 11.7975 7.61797 11.8581C7.63342 11.9185 7.64818 11.9789 7.66234 12.0392C7.6765 12.0994 7.68996 12.1595 7.70282 12.2196C7.71568 12.2796 7.72784 12.3395 7.73941 12.3994C7.75097 12.4592 7.76194 12.5189 7.77221 12.5786C7.78247 12.6383 7.79215 12.6979 7.80112 12.7574C7.8101 12.8169 7.81847 12.8764 7.82615 12.9357C7.83382 12.9951 7.8409 13.0544 7.84738 13.1137C7.85376 13.1729 7.85955 13.2321 7.86474 13.2913C7.86992 13.3505 7.8744 13.4096 7.87819 13.4687C7.88198 13.5278 7.88527 13.5869 7.88786 13.6459C7.89045 13.7049 7.89235 13.764 7.89364 13.823C7.89494 13.882 7.89554 13.941 7.89554 14C7.89554 14.0591 7.89494 14.1181 7.89364 14.1771C7.89235 14.2361 7.89045 14.2951 7.88786 14.3542C7.88527 14.4133 7.88207 14.4723 7.87819 14.5314C7.8743 14.5905 7.86982 14.6496 7.86474 14.7088C7.85955 14.768 7.85386 14.8272 7.84738 14.8864C7.8409 14.9457 7.83392 15.005 7.82615 15.0644C7.81847 15.1238 7.8101 15.1832 7.80112 15.2427C7.79215 15.3022 7.78247 15.3618 7.77221 15.4215C7.76194 15.4812 7.75097 15.5408 7.73941 15.6007C7.72784 15.6606 7.71568 15.7205 7.70282 15.7805C7.68996 15.8405 7.6765 15.9007 7.66234 15.9609C7.64818 16.0212 7.63342 16.0816 7.61797 16.142C7.60251 16.2025 7.58647 16.2631 7.56982 16.3238C7.55317 16.3845 7.53581 16.4453 7.51777 16.5064C7.49982 16.5674 7.48119 16.6285 7.46184 16.6899C7.4426 16.7512 7.42266 16.8126 7.40212 16.8742C7.38158 16.9358 7.36034 16.9976 7.33851 17.0595C7.31667 17.1214 7.29414 17.1836 7.27101 17.2459C7.24788 17.3082 7.22415 17.3707 7.19973 17.4334C7.1753 17.4961 7.15027 17.5589 7.12455 17.6221C7.09883 17.6852 7.07251 17.7485 7.04549 17.8119C7.01847 17.8754 6.99085 17.9392 6.96263 18.0031C6.93432 18.067 6.9055 18.1312 6.87589 18.1956C6.84638 18.26 6.81618 18.3246 6.78527 18.3895C6.75446 18.4544 6.72296 18.5194 6.69075 18.5848C6.65865 18.6502 6.62584 18.7158 6.59244 18.7817C6.55904 18.8476 6.52495 18.9137 6.49026 18.9802C6.45556 19.0466 6.42017 19.1133 6.38427 19.1803C6.34828 19.2473 6.31169 19.3146 6.2744 19.3822C6.23711 19.4497 6.19922 19.5176 6.16064 19.5858C6.12206 19.6539 6.08287 19.7225 6.04309 19.7912C6.0032 19.86 5.96274 19.9291 5.92166 19.9985C5.88058 20.0679 5.8388 20.1377 5.79633 20.2078C5.75395 20.2779 5.71089 20.3484 5.66722 20.4191C5.62355 20.4899 5.57919 20.561 5.53422 20.6325C5.48926 20.7041 5.44359 20.7759 5.39733 20.8481C5.35107 20.9203 5.3042 20.9929 5.25665 21.0658C5.20909 21.1388 5.16094 21.2121 5.11209 21.2858C5.06323 21.3595 5.01378 21.4336 4.96363 21.5081C4.91348 21.5826 4.86273 21.6575 4.81139 21.7327C4.75994 21.808 4.70789 21.8838 4.65525 21.9599C4.60261 22.0361 4.54927 22.1126 4.49523 22.1896C4.44129 22.2666 4.38665 22.344 4.33142 22.4218C4.27618 22.4997 4.22025 22.5779 4.16372 22.6567C4.10719 22.7354 4.04997 22.8145 3.99214 22.8943C3.93431 22.9739 3.87578 23.054 3.81676 23.1345C3.75764 23.2151 3.69792 23.2962 3.6375 23.3776C3.57708 23.4591 3.51606 23.5411 3.45435 23.6236C3.39263 23.706 3.33032 23.789 3.26741 23.8725C3.20439 23.956 3.14079 24.0399 3.07658 24.1244C3.01228 24.2089 2.94747 24.2938 2.88187 24.3794C2.81636 24.4649 2.75015 24.551 2.68335 24.6375C2.61655 24.724 2.54906 24.8112 2.48097 24.8988C2.41287 24.9864 2.34407 25.0745 2.27468 25.1633C2.20529 25.252 2.1353 25.3413 2.06461 25.4311C1.99393 25.5209 1.92264 25.6113 1.85066 25.7023C1.77867 25.7932 1.70608 25.8848 1.6328 25.9768C1.55952 26.0689 1.48565 26.1616 1.41118 26.2549C1.3366 26.3482 1.26142 26.4421 1.18564 26.5365C1.10987 26.6309 1.0334 26.726 0.956229 26.8217C0.87916 26.9174 0.801394 27.0137 0.723029 27.1106C0.644664 27.2076 0.565607 27.3051 0.485946 27.4033C0.406285 27.5015 0.325926 27.6002 0.244969 27.6997C0.164012 27.7991 0.0823485 27.8992 0.000194729 27.9999C0.104482 27.9205 0.208173 27.8417 0.311165 27.7636C0.414156 27.6854 0.516448 27.6078 0.618143 27.5309C0.719838 27.454 0.820839 27.3777 0.921238 27.302C1.02164 27.2263 1.12134 27.1512 1.22044 27.0767C1.31954 27.0023 1.41795 26.9285 1.51586 26.8552C1.61376 26.782 1.71088 26.7094 1.80749 26.6375C1.9041 26.5655 2.0001 26.4941 2.09552 26.4235C2.19093 26.3527 2.28565 26.2826 2.37987 26.2131C2.47409 26.1436 2.56771 26.0748 2.66073 26.0066C2.75375 25.9383 2.84617 25.8707 2.9381 25.8037C3.03002 25.7367 3.12125 25.6703 3.21208 25.6046C3.30291 25.5388 3.39304 25.4736 3.48267 25.4091C3.5723 25.3446 3.66142 25.2807 3.74996 25.2175C3.83849 25.1542 3.92653 25.0916 4.01407 25.0295C4.10151 24.9674 4.18855 24.9061 4.27499 24.8452C4.36144 24.7844 4.44737 24.7242 4.53282 24.6647C4.61826 24.6052 4.70311 24.5462 4.78756 24.4879C4.872 24.4296 4.95584 24.3719 5.03929 24.3148C5.12274 24.2577 5.2057 24.2013 5.28816 24.1455C5.37061 24.0897 5.45267 24.0344 5.53422 23.9798C5.61578 23.9252 5.69683 23.8712 5.77749 23.8179C5.85815 23.7646 5.9383 23.7118 6.01796 23.6596C6.09773 23.6076 6.17699 23.5561 6.25585 23.5051C6.33471 23.4542 6.41308 23.404 6.49114 23.3544C6.56911 23.3047 6.64668 23.2557 6.72385 23.2074C6.80101 23.159 6.87779 23.1112 6.95406 23.0641C7.03043 23.0169 7.10631 22.9704 7.18188 22.9245C7.25746 22.8786 7.33263 22.8333 7.4074 22.7887C7.48218 22.744 7.55656 22.6999 7.63064 22.6565C7.70472 22.6131 7.77829 22.5702 7.85167 22.5281C7.92495 22.4859 7.99793 22.4443 8.07052 22.4034C8.1431 22.3625 8.21538 22.3222 8.28726 22.2824C8.35915 22.2426 8.43074 22.2037 8.50202 22.1651C8.57331 22.1266 8.6442 22.0888 8.71479 22.0517C8.78538 22.0145 8.85567 21.9778 8.92566 21.9418C8.99565 21.9058 9.06533 21.8705 9.13472 21.8357C9.20412 21.801 9.27321 21.7669 9.342 21.7334C9.4108 21.6999 9.47929 21.667 9.54759 21.6347C9.61578 21.6025 9.68378 21.5708 9.75148 21.5398C9.81918 21.5088 9.88668 21.4784 9.95388 21.4487C10.0211 21.4189 10.088 21.3898 10.1547 21.3612C10.2214 21.3326 10.2878 21.3047 10.3541 21.2774C10.4203 21.2501 10.4863 21.2234 10.5521 21.1974C10.6179 21.1713 10.6834 21.1459 10.7487 21.1211C10.814 21.0962 10.8792 21.0721 10.9441 21.0485C11.009 21.0249 11.0737 21.002 11.1383 20.9797C11.2028 20.9573 11.2672 20.9356 11.3313 20.9145C11.3955 20.8934 11.4595 20.8729 11.5233 20.8531C11.5871 20.8332 11.6507 20.814 11.7142 20.7954C11.7777 20.7768 11.841 20.7588 11.9042 20.7414C11.9674 20.7241 12.0305 20.7073 12.0934 20.6912C12.1563 20.675 12.219 20.6595 12.2817 20.6447C12.3443 20.6297 12.4068 20.6155 12.4692 20.6018C12.5317 20.5882 12.5939 20.5752 12.6561 20.5627C12.7182 20.5503 12.7803 20.5386 12.8423 20.5274C12.9042 20.5163 12.9662 20.5058 13.028 20.4957C13.0898 20.4857 13.1515 20.4765 13.2131 20.4678C13.2747 20.4592 13.3363 20.4511 13.3978 20.4437C13.4593 20.4363 13.5207 20.4294 13.5821 20.4232C13.6435 20.4169 13.7048 20.4113 13.766 20.4064C13.8274 20.4014 13.8886 20.3971 13.9498 20.3934C14.011 20.3897 14.0722 20.3866 14.1333 20.3841C14.1945 20.3816 14.2557 20.3797 14.3168 20.3785C14.3779 20.3772 14.439 20.3767 14.5002 20.3767C14.5613 20.3767 14.6224 20.3773 14.6835 20.3785C14.7446 20.3797 14.8057 20.3816 14.8669 20.3841C14.9281 20.3866 14.9893 20.3897 15.0505 20.3934C15.1117 20.3972 15.1729 20.4015 15.2342 20.4064C15.2956 20.4114 15.3569 20.4169 15.4182 20.4232C15.4796 20.4293 15.541 20.4362 15.6025 20.4437C15.6641 20.4511 15.7256 20.4592 15.7872 20.4678C15.8488 20.4765 15.9105 20.4858 15.9723 20.4957C16.0342 20.5057 16.096 20.5163 16.158 20.5274C16.22 20.5386 16.282 20.5503 16.3442 20.5627C16.4064 20.5752 16.4687 20.5882 16.5311 20.6018C16.5935 20.6155 16.656 20.6297 16.7186 20.6447C16.7812 20.6596 16.844 20.6751 16.9069 20.6912C16.9699 20.7072 17.0329 20.7241 17.0961 20.7414C17.1593 20.7588 17.2226 20.7767 17.2861 20.7954C17.3496 20.814 17.4132 20.8332 17.477 20.8531C17.5408 20.8729 17.6048 20.8934 17.669 20.9145C17.7331 20.9356 17.7975 20.9573 17.862 20.9797C17.9265 21.002 17.9912 21.0249 18.0562 21.0485C18.1211 21.0721 18.1862 21.0962 18.2516 21.1211C18.317 21.1459 18.3825 21.1713 18.4482 21.1974C18.514 21.2235 18.58 21.2502 18.6462 21.2774C18.7124 21.3048 18.7789 21.3327 18.8456 21.3612C18.9123 21.3898 18.9792 21.4188 19.0464 21.4487C19.1136 21.4784 19.181 21.5088 19.2488 21.5398C19.3165 21.5708 19.3845 21.6025 19.4527 21.6347C19.5209 21.667 19.5895 21.6999 19.6583 21.7334C19.7271 21.7669 19.7962 21.8011 19.8656 21.8357C19.935 21.8705 20.0047 21.9058 20.0746 21.9418C20.1446 21.9778 20.2149 22.0144 20.2855 22.0517C20.3561 22.0889 20.4271 22.1267 20.4983 22.1651C20.5696 22.2037 20.6411 22.2427 20.713 22.2824C20.7849 22.3221 20.8572 22.3624 20.9298 22.4034C21.0024 22.4443 21.0753 22.4859 21.1486 22.5281C21.2219 22.5702 21.2956 22.6131 21.3697 22.6565C21.4437 22.6999 21.5181 22.744 21.5929 22.7887C21.6677 22.8333 21.7428 22.8786 21.8184 22.9245C21.894 22.9704 21.97 23.0169 22.0462 23.0641C22.1226 23.1112 22.1994 23.159 22.2764 23.2074C22.3536 23.2558 22.4312 23.3048 22.5091 23.3544C22.5871 23.4041 22.6656 23.4543 22.7444 23.5051C22.8233 23.556 22.9026 23.6075 22.9823 23.6596C23.0621 23.7117 23.1422 23.7645 23.2228 23.8178C23.3035 23.8711 23.3845 23.9251 23.4661 23.9797C23.5476 24.0343 23.6296 24.0896 23.7121 24.1454C23.7946 24.2012 23.8775 24.2577 23.961 24.3148C24.0444 24.3719 24.1284 24.4296 24.2127 24.4879C24.2972 24.5462 24.382 24.6052 24.4675 24.6647C24.5529 24.7243 24.6389 24.7845 24.7253 24.8452C24.8118 24.906 24.8987 24.9675 24.9862 25.0295C25.0738 25.0916 25.1617 25.1541 25.2503 25.2175C25.3389 25.2807 25.428 25.3446 25.5176 25.4091C25.6073 25.4736 25.6975 25.5388 25.7882 25.6046C25.879 25.6703 25.9703 25.7367 26.0622 25.8037C26.1541 25.8707 26.2466 25.9384 26.3396 26.0067C26.4326 26.0749 26.5262 26.1437 26.6204 26.2132C26.7146 26.2827 26.8094 26.3528 26.9048 26.4236C27.0002 26.4943 27.0962 26.5657 27.1927 26.6377C27.2893 26.7097 27.3865 26.7823 27.4843 26.8554C27.5821 26.9286 27.6807 27.0024 27.7798 27.0769C27.8789 27.1513 27.9786 27.2264 28.079 27.3021C28.1794 27.3778 28.2804 27.4541 28.3821 27.531C28.4837 27.6079 28.586 27.6855 28.689 27.7637C28.792 27.8418 28.8957 27.9206 29 28C28.9177 27.8993 28.8362 27.7992 28.7551 27.6998C28.6742 27.6003 28.5938 27.5015 28.5142 27.4034C28.4345 27.3052 28.3554 27.2076 28.2771 27.1107C28.1987 27.0138 28.1209 26.9175 28.0439 26.8218C27.9668 26.7261 27.8903 26.6311 27.8145 26.5366C27.7387 26.4422 27.6634 26.3483 27.5889 26.255C27.5143 26.1617 27.4405 26.069 27.3672 25.9769C27.2939 25.8848 27.2213 25.7933 27.1493 25.7024C27.0774 25.6114 27.0061 25.521 26.9354 25.4312C26.8647 25.3414 26.7947 25.2521 26.7252 25.1634C26.6558 25.0746 26.587 24.9866 26.5189 24.8989C26.4508 24.8113 26.3833 24.7241 26.3165 24.6376C26.2497 24.5511 26.1835 24.465 26.118 24.3795C26.0525 24.294 25.9876 24.209 25.9233 24.1246C25.859 24.0401 25.7954 23.9561 25.7325 23.8727C25.6696 23.7892 25.6072 23.7062 25.5455 23.6237C25.4838 23.5412 25.4228 23.4593 25.3624 23.3778C25.302 23.2963 25.2423 23.2153 25.1831 23.1347C25.124 23.0541 25.0656 22.9741 25.0078 22.8945C24.9499 22.8148 24.8927 22.7356 24.8362 22.6569C24.7796 22.5781 24.7237 22.4999 24.6685 22.422C24.6132 22.3441 24.5586 22.2667 24.5046 22.1898C24.4506 22.1128 24.3973 22.0363 24.3446 21.9601C24.2918 21.884 24.2398 21.8083 24.1884 21.7329C24.137 21.6576 24.0862 21.5828 24.0362 21.5082C23.9861 21.4337 23.9366 21.3596 23.8877 21.286C23.8389 21.2122 23.7907 21.139 23.7431 21.066C23.6956 20.993 23.6487 20.9205 23.6025 20.8483C23.5562 20.7761 23.5105 20.7043 23.4656 20.6327C23.4206 20.5612 23.3763 20.4902 23.3326 20.4193C23.2889 20.3486 23.2458 20.2781 23.2035 20.208C23.1611 20.1379 23.1193 20.0681 23.0781 19.9987C23.0371 19.9293 22.9966 19.8602 22.9567 19.7914C22.9168 19.7227 22.8776 19.6541 22.8392 19.586C22.8006 19.5178 22.7627 19.4499 22.7254 19.3824C22.6881 19.3148 22.6515 19.2475 22.6155 19.1805C22.5795 19.1135 22.5442 19.0468 22.5096 18.9804C22.4749 18.9139 22.4408 18.8478 22.4074 18.7819C22.374 18.716 22.3412 18.6504 22.3091 18.585C22.2769 18.5196 22.2454 18.4545 22.2146 18.3897C22.1838 18.3248 22.1536 18.2602 22.124 18.1958C22.0944 18.1314 22.0655 18.0673 22.0373 18.0033C22.0089 17.9394 21.9813 17.8756 21.9544 17.8121C21.9274 17.7486 21.9011 17.6853 21.8754 17.6223C21.8496 17.5592 21.8246 17.4964 21.8002 17.4336C21.7757 17.3709 21.752 17.3084 21.7289 17.2461C21.7058 17.1838 21.6832 17.1216 21.6614 17.0597C21.6395 16.9978 21.6183 16.936 21.5978 16.8744C21.5772 16.8128 21.5573 16.7514 21.5381 16.69C21.5188 16.6287 21.5002 16.5676 21.4821 16.5066C21.4641 16.4455 21.4468 16.3847 21.4301 16.324C21.4133 16.2632 21.3973 16.2027 21.3819 16.1422C21.3665 16.0817 21.3517 16.0214 21.3376 15.9611C21.3234 15.9009 21.3099 15.8408 21.2971 15.7807C21.2842 15.7208 21.2721 15.6608 21.2605 15.6009C21.2489 15.5411 21.238 15.4814 21.2277 15.4217C21.2174 15.362 21.2078 15.3024 21.1988 15.2429C21.1898 15.1834 21.1814 15.1239 21.1737 15.0646C21.1661 15.0052 21.159 14.9459 21.1525 14.8866C21.146 14.8273 21.1403 14.7681 21.1352 14.709C21.13 14.6498 21.1255 14.5907 21.1217 14.5316C21.1179 14.4725 21.1146 14.4134 21.112 14.3544C21.1094 14.2954 21.1075 14.2363 21.1062 14.1773C21.1049 14.1183 21.1044 14.0592 21.1044 14.0002C21.1044 13.9412 21.1049 13.8822 21.1062 13.8232C21.1075 13.7642 21.1094 13.7052 21.112 13.6461C21.1146 13.5871 21.1178 13.528 21.1217 13.4689C21.1256 13.4098 21.1301 13.3507 21.1352 13.2915C21.1403 13.2323 21.146 13.173 21.1525 13.1138C21.159 13.0546 21.166 12.9952 21.1737 12.9358C21.1814 12.8765 21.1898 12.8171 21.1988 12.7576C21.2078 12.6981 21.2174 12.6385 21.2277 12.5788C21.238 12.5191 21.2489 12.4594 21.2605 12.3996C21.2721 12.3397 21.2842 12.2798 21.2971 12.2197C21.3099 12.1597 21.3234 12.0996 21.3376 12.0393C21.3517 11.9791 21.3665 11.9187 21.3819 11.8583C21.3974 11.7978 21.4134 11.7372 21.4301 11.6764C21.4467 11.6157 21.4642 11.5548 21.4821 11.4938C21.5001 11.4328 21.5187 11.3717 21.5381 11.3103C21.5573 11.249 21.5772 11.1876 21.5978 11.126C21.6183 11.0644 21.6395 11.0026 21.6614 10.9407C21.6832 10.8788 21.7058 10.8166 21.7289 10.7543C21.752 10.692 21.7757 10.6296 21.8002 10.5668C21.8246 10.5041 21.8496 10.4413 21.8754 10.3781C21.9011 10.3151 21.9274 10.2517 21.9544 10.1883C21.9814 10.1247 22.009 10.061 22.0373 9.99711C22.0655 9.93319 22.0945 9.86898 22.124 9.80458C22.1535 9.74018 22.1837 9.67558 22.2146 9.6107C22.2455 9.54582 22.2769 9.48074 22.3091 9.41528C22.3412 9.34992 22.374 9.28427 22.4074 9.21843C22.4408 9.15249 22.4749 9.08635 22.5096 9.01993C22.5442 8.95351 22.5795 8.8868 22.6155 8.8198C22.6515 8.7528 22.6881 8.68551 22.7254 8.61793C22.7627 8.55035 22.8006 8.48249 22.8392 8.41433C22.8777 8.34618 22.9169 8.27764 22.9567 8.20891C22.9966 8.14008 23.0371 8.07096 23.0781 8.00156C23.1192 7.93215 23.161 7.86236 23.2035 7.79228C23.2458 7.7222 23.2889 7.65173 23.3326 7.58098C23.3763 7.51022 23.4206 7.43908 23.4656 7.36756C23.5105 7.29603 23.5562 7.22422 23.6025 7.15203C23.6487 7.07983 23.6956 7.00724 23.7431 6.93428C23.7907 6.86131 23.8389 6.78796 23.8877 6.71431C23.9366 6.64058 23.986 6.56645 24.0362 6.49195C24.0863 6.41744 24.1371 6.34254 24.1884 6.26726C24.2398 6.19198 24.2919 6.11622 24.3446 6.04008C24.3972 5.96393 24.4505 5.88741 24.5046 5.81039C24.5586 5.73338 24.6131 5.65599 24.6685 5.57821C24.7237 5.50033 24.7796 5.42207 24.8362 5.34332C24.8927 5.26458 24.9499 5.18545 25.0078 5.10574C25.0656 5.02613 25.1241 4.94604 25.1831 4.86547C25.2423 4.7849 25.302 4.70384 25.3624 4.6224C25.4228 4.54087 25.4838 4.45895 25.5455 4.37645C25.6073 4.29395 25.6696 4.21097 25.7325 4.12751C25.7955 4.04405 25.8591 3.96011 25.9233 3.87559C25.9875 3.79107 26.0524 3.70616 26.118 3.62068C26.1836 3.5352 26.2497 3.44914 26.3165 3.3626C26.3833 3.27606 26.4508 3.18893 26.5189 3.10133C26.587 3.01373 26.6558 2.92556 26.7252 2.8369C26.7946 2.74815 26.8647 2.6589 26.9354 2.56909C27.0061 2.47928 27.0774 2.38889 27.1493 2.29792C27.2213 2.20695 27.2939 2.1154 27.3672 2.02337C27.4405 1.93125 27.5143 1.83854 27.5889 1.74536C27.6635 1.65208 27.7387 1.55822 27.8145 1.46379C27.8902 1.36935 27.9667 1.27424 28.0439 1.17856C28.121 1.08287 28.1987 0.986609 28.2771 0.889672C28.3554 0.792734 28.4345 0.695221 28.5142 0.597031C28.5938 0.498842 28.6742 0.400072 28.7551 0.300631C28.8359 0.200805 28.9174 0.100692 28.9997 0Z" fill="url(#paint0_linear_61_217)" fill-opacity="0.2"/>
<defs>
<linearGradient id="paint0_linear_61_217" x1="14.5" y1="0" x2="14.5" y2="28" gradientUnits="userSpaceOnUse">
<stop stop-color="#E2C8DC" stop-opacity="0"/>
<stop offset="0.495" stop-color="#FE5F0B" stop-opacity="0.495"/>
<stop offset="1" stop-color="#FE5F0B"/>
</linearGradient>
</defs>
</svg>
