<svg width="49" height="44" viewBox="0 0 49 44" fill="none" xmlns="http://www.w3.org/2000/svg">
<path d="M31.9532 0.827051C33.3943 -0.182002 35.3805 0.168223 36.3896 1.6093L48.0827 18.3088C49.0917 19.7499 48.7415 21.7361 47.3004 22.7452L21.2074 41.0157C19.7664 42.0247 17.7801 41.6745 16.7711 40.2334L5.07796 23.5339C4.06891 22.0928 4.41913 20.1066 5.86021 19.0976L31.9532 0.827051Z" fill="#E2C8DC"/>
<path d="M26.7346 4.48115L42.0818 26.3993L40.5163 27.4955L25.169 5.57738L26.7346 4.48115Z" fill="#5A3878"/>
<path d="M5.33835 19.463L20.6856 41.3811L18.0763 43.2081L2.72905 21.29L5.33835 19.463Z" fill="#5A3878"/>
<path d="M30.2323 10.587C30.4341 10.8752 30.364 11.2725 30.0758 11.4743L6.59211 27.9178C6.3039 28.1196 5.90665 28.0495 5.70484 27.7613C5.50303 27.4731 5.57308 27.0758 5.86129 26.874L29.345 10.4306C29.6332 10.2288 30.0304 10.2988 30.2323 10.587Z" fill="#5A3878"/>
<path d="M37.5405 21.0242C37.7423 21.3124 37.6722 21.7097 37.384 21.9115L13.9003 38.3549C13.6121 38.5568 13.2149 38.4867 13.013 38.1985C12.8112 37.9103 12.8813 37.513 13.1695 37.3112L36.6532 20.8678C36.9414 20.666 37.3386 20.736 37.5405 21.0242Z" fill="#5A3878"/>
<path d="M0.746482 38.8737C0.703231 39.2013 0.917719 39.5076 1.2404 39.579L17.7086 43.224C18.2758 43.3495 18.7013 42.7124 18.3681 42.2365L4.10727 21.87C3.77405 21.3941 3.02985 21.576 2.95382 22.152L0.746482 38.8737Z" fill="#E2C8DC"/>
<path d="M1.84286 28.91L10.9781 41.9565L9.9344 42.6874L0.799143 29.6409L1.84286 28.91Z" fill="#5A3878"/>
</svg>
