<?xml version="1.0" encoding="UTF-8" standalone="no"?>
<!DOCTYPE svg PUBLIC "-//W3C//DTD SVG 1.1//EN" "http://www.w3.org/Graphics/SVG/1.1/DTD/svg11.dtd">
<!-- Created with Vectornator (http://vectornator.io/) -->
<svg height="100%" stroke-miterlimit="10" style="fill-rule:nonzero;clip-rule:evenodd;stroke-linecap:round;stroke-linejoin:round;" version="1.1" viewBox="39.4356 166.695 160.774 52.3423" width="100%" xml:space="preserve" xmlns="http://www.w3.org/2000/svg" xmlns:xlink="http://www.w3.org/1999/xlink">
<defs/>
<g id="Layer-3">
<g opacity="1">
<path d="M58.2097 180.836C51.0457 180.836 45.241 188.137 45.241 197.117C45.241 206.098 51.0457 213.367 58.2097 213.367C65.3737 213.367 71.1785 206.098 71.1785 197.117C71.1784 188.137 65.3737 180.836 58.2097 180.836ZM58.0847 184.305C62.6984 184.305 66.4597 190.017 66.4597 197.055C66.4597 204.093 62.6984 209.805 58.0847 209.805C53.4711 209.805 49.741 204.093 49.741 197.055C49.741 190.017 53.4711 184.305 58.0847 184.305Z" fill="#ee8843" fill-rule="nonzero" opacity="1" stroke="#ee8843" stroke-linecap="butt" stroke-linejoin="round" stroke-width="0.513281"/>
<path d="M77.0787 211.603L77.0787 195.574L77.0807 195.514C78.015 193.9 81.6779 190.988 82.5751 194.216L82.5751 194.136L82.5751 213.364L82.5751 213.364L86.8039 211.926L86.8039 211.926L86.8039 194.136L86.8039 194.136C86.8018 191.766 84.5743 188.661 81.7639 188.648C80.2253 188.641 78.8041 189.379 78.1373 190.032C77.8829 190.281 77.4278 190.655 77.0807 191.282L77.0807 191.282L77.0807 176.511L77.0807 176.511L70.103 179.377L70.103 179.351C71.4228 179.198 72.4833 180.857 72.4711 181.984L72.4713 181.984L72.4713 213.364L72.6303 213.364L77.0807 211.926" fill="#ee8843" fill-rule="nonzero" opacity="1" stroke="#ee8843" stroke-linecap="round" stroke-linejoin="round" stroke-width="0.513281"/>
<path d="M54.1333 177.631C54.1443 177.656 54.1527 177.684 54.164 177.708C54.1752 177.733 54.1891 177.755 54.2009 177.779C54.2125 177.804 54.219 177.827 54.2312 177.85C54.2433 177.874 54.2556 177.898 54.2681 177.921C54.2807 177.944 54.2985 177.963 54.3113 177.986C54.3243 178.008 54.3349 178.035 54.3483 178.057C54.3617 178.079 54.3777 178.1 54.3915 178.121C54.4054 178.143 54.4201 178.158 54.4343 178.179C54.4486 178.199 54.4628 178.223 54.4775 178.243C54.4922 178.264 54.5053 178.281 54.5203 178.301C54.5355 178.321 54.5475 178.339 54.5632 178.359C54.5788 178.378 54.5966 178.398 54.6126 178.417C54.6286 178.435 54.6456 178.456 54.6621 178.474C54.6786 178.493 54.6941 178.508 54.7112 178.525C54.7281 178.543 54.7494 178.56 54.7669 178.577C54.7843 178.594 54.798 178.611 54.816 178.628C54.834 178.644 54.8532 178.663 54.8717 178.679C54.8902 178.695 54.9082 178.708 54.927 178.724C54.946 178.739 54.9629 178.753 54.9823 178.768C55.0018 178.783 55.0243 178.798 55.0443 178.813C55.0643 178.828 55.0859 178.844 55.1063 178.858C55.1268 178.872 55.1473 178.889 55.1683 178.903C55.1892 178.917 55.2084 178.927 55.2299 178.941C55.2515 178.954 55.276 178.966 55.2981 178.979C55.3201 178.992 55.3437 179.005 55.3663 179.017C55.3889 179.03 55.4114 179.044 55.4346 179.056C55.4577 179.067 55.4788 179.075 55.5024 179.087C55.5261 179.098 55.553 179.114 55.5773 179.126C55.6015 179.137 55.6204 179.146 55.6452 179.157C55.6699 179.168 55.701 179.179 55.7263 179.189C55.7517 179.199 55.7749 179.211 55.8008 179.221C55.8267 179.23 55.8551 179.236 55.8815 179.246C55.908 179.255 55.9352 179.262 55.9623 179.271C55.9894 179.28 56.0157 179.294 56.0434 179.303C56.0711 179.312 56.0959 179.32 56.1242 179.328C56.1525 179.337 56.1826 179.346 56.2115 179.354C56.2405 179.362 56.2691 179.365 56.2986 179.372C56.3281 179.38 56.3558 179.391 56.3859 179.398C56.416 179.405 56.4488 179.41 56.4796 179.417C56.5103 179.424 56.5419 179.429 56.5732 179.436C56.6046 179.442 56.6348 179.449 56.6669 179.455C56.6988 179.461 56.7346 179.468 56.7672 179.474C56.7998 179.48 56.8275 179.488 56.8608 179.493C56.8941 179.499 56.9334 179.501 56.9673 179.506C57.0013 179.511 57.0331 179.52 57.0676 179.525C57.1022 179.53 57.1389 179.533 57.1742 179.538C57.2094 179.543 57.2448 179.547 57.2807 179.551C57.3165 179.555 57.3507 179.56 57.3872 179.564C57.4237 179.568 57.4631 179.573 57.5004 179.577C57.5377 179.58 57.5753 179.58 57.6132 179.583C57.6512 179.586 57.6877 179.593 57.7264 179.596C57.765 179.599 57.7998 179.6 57.8392 179.602C57.8785 179.605 57.9185 179.606 57.9586 179.609C57.9986 179.612 58.044 179.614 58.0847 179.616C58.1254 179.618 58.1627 179.62 58.2041 179.623C58.2456 179.625 58.288 179.628 58.3302 179.629C58.3723 179.631 58.4134 179.635 58.4562 179.636C58.4992 179.638 58.5454 179.642 58.5889 179.644C58.6326 179.645 58.6768 179.643 58.7213 179.644C58.7656 179.645 58.8085 179.644 58.8536 179.645C58.8987 179.645 58.9471 179.652 58.9929 179.652C59.0389 179.653 59.0852 179.653 59.1319 179.653C59.1785 179.653 59.2234 179.654 59.2708 179.654C59.3182 179.654 59.3682 179.655 59.4164 179.655C59.4645 179.655 59.5127 179.649 59.5617 179.649C59.6105 179.649 59.6576 179.651 59.7072 179.65C59.7569 179.65 59.809 179.652 59.8595 179.652C59.91 179.651 59.96 179.647 60.0113 179.646C60.0627 179.646 60.1115 179.649 60.1636 179.648C60.2156 179.647 60.2691 179.644 60.322 179.643C60.3749 179.642 60.4269 179.639 60.4805 179.638C60.5342 179.636 60.5912 179.634 60.6457 179.633C60.7001 179.632 60.7556 179.63 60.8108 179.628C60.8661 179.627 60.9198 179.625 60.9759 179.624C61.032 179.622 61.0907 179.621 61.1477 179.619C61.2047 179.617 61.2616 179.617 61.3194 179.615C61.3772 179.613 61.4326 179.613 61.4912 179.611C61.5498 179.609 61.6097 179.602 61.6692 179.6C61.6077 179.617 61.5475 179.635 61.4868 179.652C61.4261 179.669 61.3643 179.687 61.3044 179.704C61.2446 179.721 61.1876 179.74 61.1287 179.756C61.0697 179.773 61.0108 179.785 60.9525 179.802C60.8944 179.818 60.8342 179.838 60.7768 179.854C60.7194 179.871 60.6638 179.884 60.6073 179.9C60.5507 179.916 60.4939 179.937 60.4381 179.953C60.3824 179.969 60.3302 179.983 60.2753 179.999C60.2204 180.015 60.1669 180.036 60.1128 180.052C60.0586 180.068 60.0033 180.082 59.9499 180.098C59.8966 180.115 59.8463 180.129 59.7937 180.145C59.7411 180.161 59.6826 180.175 59.6308 180.191C59.579 180.207 59.5323 180.222 59.4812 180.238C59.4303 180.254 59.3753 180.269 59.325 180.285C59.2747 180.301 59.225 180.316 59.1754 180.332C59.1258 180.348 59.0817 180.37 59.0328 180.386C58.984 180.402 58.931 180.41 58.8829 180.426C58.8348 180.442 58.7873 180.458 58.7399 180.473C58.6925 180.489 58.6503 180.506 58.6036 180.521C58.557 180.537 58.5066 180.553 58.4606 180.569C58.4147 180.584 58.3696 180.601 58.3243 180.616C58.279 180.632 58.2325 180.648 58.188 180.664C58.1433 180.68 58.1022 180.696 58.0583 180.712C58.0144 180.728 57.9718 180.744 57.9286 180.76C57.8854 180.776 57.8414 180.792 57.7989 180.808C57.7563 180.824 57.7111 180.84 57.6692 180.856C57.6274 180.872 57.5874 180.889 57.5462 180.905C57.505 180.921 57.4633 180.93 57.4227 180.946C57.3822 180.962 57.3462 180.979 57.3063 180.995C57.2664 181.011 57.2226 181.027 57.1833 181.043C57.144 181.059 57.1056 181.076 57.0669 181.092C57.0282 181.108 56.9886 181.125 56.9504 181.141C56.9124 181.157 56.8781 181.174 56.8406 181.19C56.8031 181.207 56.7677 181.223 56.7309 181.239C56.694 181.256 56.6573 181.272 56.6211 181.288C56.5848 181.305 56.5474 181.328 56.5117 181.345C56.476 181.361 56.4371 181.377 56.4019 181.394C56.3668 181.411 56.3334 181.426 56.2987 181.443C56.2642 181.46 56.2297 181.475 56.1956 181.493C56.1616 181.51 56.1263 181.532 56.0928 181.549C56.0594 181.567 56.0292 181.582 55.9963 181.599C55.9634 181.617 55.9326 181.638 55.9002 181.656C55.8677 181.674 55.8355 181.688 55.8037 181.706C55.7718 181.724 55.7389 181.744 55.7075 181.763C55.6761 181.781 55.6419 181.794 55.611 181.813C55.5802 181.831 55.5519 181.851 55.5215 181.87C55.4912 181.888 55.4618 181.908 55.432 181.927C55.4021 181.946 55.3719 181.965 55.3425 181.984C55.3132 182.003 55.2819 182.022 55.253 182.041C55.2242 182.061 55.1986 182.079 55.1701 182.099C55.1417 182.118 55.1086 182.136 55.0806 182.156C55.0527 182.176 55.0256 182.2 54.9981 182.221C54.9706 182.241 54.949 182.258 54.9219 182.278C54.8949 182.299 54.8661 182.322 54.8394 182.343C54.8128 182.364 54.7828 182.379 54.7566 182.4C54.7304 182.421 54.7064 182.444 54.6807 182.465C54.6549 182.487 54.6302 182.509 54.6048 182.53C54.5795 182.552 54.5539 182.573 54.529 182.595C54.5041 182.617 54.4778 182.638 54.4531 182.66C54.4286 182.682 54.4085 182.709 54.3843 182.732C54.3601 182.754 54.3321 182.774 54.3084 182.797C54.2846 182.82 54.2626 182.839 54.2392 182.862C54.2158 182.885 54.1934 182.911 54.1704 182.934C54.1473 182.958 54.1242 182.982 54.1015 183.006C54.0789 183.03 54.055 183.054 54.0327 183.078C54.0104 183.103 53.9925 183.126 53.9705 183.151C53.9486 183.175 53.9236 183.205 53.902 183.23C53.8804 183.255 53.8611 183.277 53.8398 183.302C53.8185 183.328 53.7923 183.356 53.7713 183.381C53.7504 183.407 53.7301 183.435 53.7095 183.461C53.6889 183.487 53.668 183.514 53.6477 183.54C53.6273 183.567 53.6125 183.593 53.5925 183.62C53.5724 183.647 53.5504 183.672 53.5307 183.7C53.511 183.727 53.4887 183.758 53.4692 183.786C53.4498 183.814 53.4333 183.837 53.414 183.866C53.3948 183.894 53.3781 183.923 53.3592 183.952C53.3403 183.981 53.3165 184.009 53.2977 184.039C53.279 184.068 53.2617 184.102 53.2433 184.132C53.2248 184.162 53.2067 184.189 53.1885 184.219C53.1703 184.249 53.152 184.282 53.134 184.313C53.1161 184.344 53.0973 184.375 53.0796 184.406C53.0618 184.438 53.0493 184.468 53.0318 184.5C53.0143 184.532 52.995 184.568 52.9777 184.601C52.9604 184.633 52.9403 184.662 52.9233 184.695C52.9061 184.728 52.8926 184.762 52.8758 184.795C52.8589 184.829 52.8385 184.862 52.8218 184.896C52.8051 184.93 52.7908 184.962 52.7743 184.997C52.7578 185.032 52.7436 185.07 52.7273 185.105C52.7109 185.14 52.6898 185.177 52.6736 185.212C52.6574 185.248 52.6426 185.284 52.6265 185.32C52.6106 185.356 52.5953 185.391 52.5795 185.428C52.5637 185.465 52.5486 185.505 52.5328 185.543C52.5171 185.58 52.5014 185.613 52.4857 185.651C52.4702 185.689 52.4548 185.734 52.4394 185.772C52.424 185.811 52.4081 185.848 52.3928 185.887C52.3774 185.926 52.3613 185.962 52.3461 186.002C52.3309 186.042 52.3149 186.083 52.2998 186.124C52.2847 186.164 52.2751 186.204 52.2601 186.246C52.2451 186.287 52.2292 186.332 52.2142 186.374C52.1992 186.416 52.1831 186.46 52.1683 186.503C52.1534 186.545 52.1371 186.588 52.1223 186.631C52.1075 186.675 52.0911 186.716 52.0764 186.76C52.0617 186.804 52.0517 186.844 52.0371 186.889C52.0225 186.934 52.0062 186.979 51.9916 187.025C51.977 187.07 51.9609 187.121 51.9464 187.167C51.9318 187.213 51.9154 187.256 51.9009 187.303C51.8863 187.349 51.8769 187.398 51.8623 187.445C51.8478 187.493 51.8316 187.54 51.8172 187.588C51.8026 187.636 51.7866 187.681 51.772 187.73C51.7576 187.779 51.7417 187.83 51.7272 187.88C51.7127 187.929 51.7034 187.979 51.689 188.029C51.6745 188.08 51.6591 188.135 51.6446 188.186C51.6301 188.237 51.6144 188.283 51.5998 188.335C51.5853 188.387 51.57 188.439 51.5554 188.492C51.5408 188.544 51.526 188.601 51.5114 188.655C51.4968 188.708 51.4819 188.764 51.4673 188.818C51.4527 188.872 51.4379 188.926 51.4233 188.981C51.4085 189.036 51.394 189.089 51.3792 189.144C51.3645 189.2 51.3503 189.258 51.3356 189.315C51.3208 189.371 51.3068 189.427 51.2919 189.485C51.2771 189.542 51.2636 189.603 51.2486 189.662C51.2336 189.72 51.2137 189.779 51.1987 189.839C51.1837 189.898 51.1706 189.956 51.1554 190.016C51.1403 190.076 51.1278 190.139 51.1125 190.2C51.0972 190.261 51.0783 190.322 51.0629 190.383C51.0476 190.445 51.0355 190.505 51.02 190.567C51.0045 190.63 50.9865 190.694 50.9709 190.758C50.9552 190.821 50.9374 190.884 50.9217 190.948C50.9232 190.886 50.9234 190.824 50.9248 190.762C50.9262 190.701 50.9336 190.644 50.9349 190.583C50.9362 190.523 50.9372 190.464 50.9384 190.404C50.9395 190.344 50.9342 190.283 50.9352 190.224C50.9363 190.166 50.9382 190.11 50.9391 190.052C50.94 189.994 50.9421 189.937 50.9429 189.88C50.9437 189.823 50.9461 189.763 50.9468 189.707C50.9474 189.651 50.9439 189.597 50.9444 189.542C50.9448 189.486 50.9483 189.43 50.9486 189.376C50.9489 189.322 50.9464 189.271 50.9466 189.217C50.9467 189.164 50.9513 189.111 50.9512 189.059C50.9512 189.006 50.9493 188.952 50.9492 188.9C50.949 188.848 50.9475 188.792 50.9471 188.741C50.9468 188.69 50.946 188.639 50.9455 188.589C50.945 188.539 50.945 188.493 50.9442 188.444C50.9435 188.394 50.9435 188.341 50.9426 188.292C50.9417 188.243 50.9424 188.195 50.9413 188.147C50.9402 188.099 50.935 188.056 50.9338 188.009C50.9325 187.961 50.9343 187.917 50.9329 187.87C50.9313 187.824 50.9271 187.777 50.9253 187.732C50.9236 187.686 50.9263 187.639 50.9244 187.594C50.9225 187.549 50.9195 187.506 50.9173 187.462C50.9151 187.418 50.9126 187.374 50.9101 187.331C50.9078 187.287 50.9057 187.242 50.903 187.199C50.9004 187.157 50.8991 187.116 50.8962 187.075C50.8932 187.033 50.8859 186.991 50.8828 186.95C50.8796 186.909 50.8797 186.872 50.8764 186.832C50.8729 186.792 50.8666 186.747 50.863 186.707C50.8593 186.667 50.8538 186.628 50.8499 186.589C50.846 186.55 50.8415 186.516 50.8373 186.478C50.833 186.44 50.8287 186.397 50.8242 186.36C50.8198 186.322 50.8163 186.285 50.8116 186.248C50.8068 186.212 50.8044 186.18 50.7993 186.144C50.7943 186.108 50.7853 186.068 50.78 186.033C50.7746 185.997 50.7733 185.963 50.7677 185.929C50.762 185.894 50.7547 185.858 50.7488 185.824C50.7428 185.79 50.7364 185.76 50.7302 185.726C50.7239 185.693 50.7183 185.661 50.7117 185.629C50.7052 185.596 50.7 185.563 50.6931 185.531C50.6862 185.499 50.6752 185.464 50.668 185.433C50.6607 185.402 50.6574 185.373 50.6498 185.342C50.6423 185.311 50.633 185.281 50.625 185.251C50.617 185.221 50.6085 185.189 50.6002 185.16C50.5919 185.131 50.5844 185.105 50.5758 185.076C50.5671 185.047 50.56 185.013 50.551 184.985C50.542 184.956 50.5297 184.935 50.5203 184.907C50.5109 184.88 50.4989 184.849 50.4892 184.823C50.4795 184.796 50.4754 184.772 50.4652 184.745C50.4551 184.719 50.4446 184.687 50.4341 184.661C50.4236 184.635 50.4081 184.615 50.3972 184.59C50.3863 184.564 50.3778 184.537 50.3665 184.512C50.3552 184.487 50.3413 184.465 50.3296 184.441C50.3178 184.417 50.3047 184.393 50.2926 184.37C50.2805 184.346 50.2682 184.322 50.2557 184.299C50.2431 184.276 50.2317 184.25 50.2187 184.228C50.2058 184.205 50.1955 184.185 50.1822 184.164C50.1688 184.142 50.1528 184.12 50.139 184.099C50.1252 184.078 50.11 184.055 50.0958 184.035C50.0815 184.014 50.0676 183.997 50.0529 183.977C50.0383 183.957 50.0252 183.939 50.0101 183.919C49.9951 183.9 49.9829 183.881 49.9673 183.862C49.9516 183.843 49.9339 183.822 49.9178 183.804C49.9018 183.785 49.8848 183.764 49.8684 183.746C49.8518 183.728 49.8363 183.712 49.8193 183.695C49.8023 183.677 49.7811 183.661 49.7636 183.644C49.7461 183.627 49.7325 183.609 49.7145 183.593C49.6966 183.576 49.6773 183.557 49.6588 183.541C49.6404 183.525 49.6224 183.512 49.6034 183.497C49.5845 183.481 49.5605 183.46 49.5411 183.445C49.5216 183.43 49.5061 183.422 49.4861 183.407C49.4703 183.396 49.454 183.381 49.4378 183.37C50.832 181.877 52.1973 180.291 53.4687 178.547C53.8578 178.013 53.968 177.862 54.1333 177.631Z" fill="#5a3878" fill-rule="nonzero" opacity="1" stroke="none"/>
<path d="M195.677 211.268C195.683 211.283 195.688 211.299 195.695 211.313C195.701 211.327 195.709 211.34 195.716 211.354C195.723 211.367 195.726 211.381 195.733 211.394C195.74 211.408 195.747 211.422 195.755 211.435C195.762 211.448 195.772 211.459 195.78 211.472C195.787 211.485 195.793 211.501 195.801 211.513C195.808 211.526 195.818 211.538 195.826 211.55C195.834 211.563 195.842 211.572 195.85 211.583C195.858 211.595 195.867 211.609 195.875 211.621C195.884 211.632 195.891 211.642 195.9 211.654C195.909 211.665 195.915 211.676 195.924 211.687C195.933 211.698 195.944 211.71 195.953 211.72C195.962 211.731 195.972 211.743 195.981 211.754C195.991 211.764 196 211.773 196.01 211.783C196.019 211.793 196.032 211.803 196.042 211.813C196.052 211.822 196.06 211.832 196.07 211.842C196.08 211.851 196.091 211.862 196.102 211.871C196.113 211.881 196.123 211.888 196.134 211.897C196.145 211.906 196.154 211.914 196.166 211.923C196.177 211.931 196.19 211.94 196.201 211.948C196.213 211.957 196.225 211.966 196.237 211.974C196.249 211.982 196.261 211.992 196.273 212C196.285 212.008 196.296 212.014 196.308 212.022C196.321 212.029 196.335 212.036 196.347 212.044C196.36 212.051 196.374 212.059 196.387 212.066C196.4 212.073 196.413 212.081 196.426 212.088C196.439 212.095 196.451 212.099 196.465 212.106C196.479 212.113 196.494 212.122 196.508 212.128C196.522 212.135 196.533 212.14 196.547 212.146C196.561 212.152 196.579 212.159 196.594 212.165C196.608 212.171 196.622 212.177 196.637 212.183C196.652 212.189 196.668 212.192 196.683 212.197C196.698 212.203 196.714 212.207 196.73 212.212C196.745 212.217 196.76 212.225 196.776 212.23C196.792 212.235 196.806 212.24 196.823 212.245C196.839 212.25 196.856 212.255 196.873 212.26C196.89 212.264 196.906 212.266 196.923 212.27C196.94 212.275 196.956 212.281 196.973 212.285C196.991 212.289 197.01 212.292 197.027 212.296C197.045 212.3 197.063 212.303 197.081 212.307C197.099 212.311 197.117 212.314 197.135 212.318C197.153 212.321 197.174 212.325 197.193 212.329C197.212 212.332 197.227 212.337 197.247 212.34C197.266 212.343 197.288 212.344 197.308 212.347C197.327 212.35 197.346 212.355 197.366 212.358C197.386 212.361 197.407 212.363 197.427 212.366C197.447 212.368 197.468 212.371 197.488 212.373C197.509 212.375 197.528 212.378 197.55 212.38C197.571 212.383 197.593 212.386 197.615 212.388C197.636 212.39 197.658 212.389 197.68 212.391C197.701 212.393 197.722 212.397 197.745 212.399C197.767 212.401 197.787 212.401 197.81 212.403C197.832 212.404 197.855 212.405 197.878 212.406C197.901 212.408 197.927 212.409 197.951 212.41C197.974 212.412 197.996 212.413 198.02 212.414C198.043 212.415 198.068 212.417 198.092 212.418C198.116 212.419 198.14 212.421 198.165 212.422C198.189 212.423 198.216 212.426 198.241 212.426C198.266 212.427 198.292 212.426 198.317 212.427C198.343 212.427 198.367 212.426 198.393 212.427C198.419 212.427 198.447 212.431 198.474 212.431C198.5 212.432 198.527 212.432 198.553 212.432C198.58 212.432 198.606 212.432 198.633 212.432C198.661 212.432 198.689 212.433 198.717 212.433C198.745 212.433 198.773 212.43 198.801 212.43C198.829 212.429 198.856 212.43 198.885 212.43C198.913 212.43 198.943 212.431 198.972 212.431C199.001 212.431 199.03 212.428 199.06 212.428C199.089 212.427 199.117 212.429 199.147 212.429C199.177 212.428 199.208 212.426 199.238 212.426C199.269 212.425 199.299 212.424 199.33 212.423C199.36 212.422 199.393 212.421 199.425 212.42C199.456 212.419 199.488 212.418 199.52 212.418C199.551 212.417 199.582 212.416 199.615 212.415C199.647 212.414 199.681 212.413 199.713 212.412C199.746 212.411 199.779 212.411 199.812 212.41C199.846 212.409 199.877 212.409 199.911 212.407C199.945 212.406 199.979 212.402 200.014 212.401C199.978 212.411 199.944 212.421 199.909 212.431C199.874 212.441 199.838 212.451 199.804 212.461C199.769 212.471 199.736 212.482 199.703 212.491C199.669 212.501 199.635 212.508 199.601 212.517C199.568 212.527 199.533 212.538 199.5 212.548C199.467 212.557 199.435 212.564 199.402 212.574C199.37 212.583 199.337 212.595 199.305 212.604C199.273 212.614 199.243 212.622 199.211 212.631C199.18 212.64 199.149 212.652 199.118 212.662C199.087 212.671 199.055 212.679 199.024 212.688C198.994 212.697 198.965 212.706 198.934 212.715C198.904 212.724 198.87 212.732 198.841 212.742C198.811 212.751 198.784 212.759 198.755 212.769C198.725 212.778 198.694 212.786 198.665 212.795C198.636 212.804 198.607 212.813 198.579 212.822C198.55 212.831 198.525 212.845 198.496 212.854C198.468 212.863 198.438 212.868 198.41 212.877C198.383 212.886 198.355 212.895 198.328 212.904C198.301 212.913 198.276 212.922 198.249 212.931C198.223 212.94 198.194 212.95 198.167 212.959C198.141 212.968 198.115 212.977 198.089 212.986C198.063 212.995 198.036 213.004 198.01 213.013C197.985 213.023 197.961 213.032 197.936 213.041C197.91 213.05 197.886 213.06 197.861 213.069C197.836 213.078 197.811 213.087 197.786 213.096C197.762 213.106 197.736 213.115 197.712 213.124C197.688 213.133 197.665 213.143 197.641 213.152C197.617 213.161 197.593 213.167 197.57 213.176C197.547 213.185 197.526 213.195 197.503 213.204C197.48 213.213 197.455 213.223 197.432 213.232C197.41 213.241 197.387 213.251 197.365 213.26C197.343 213.269 197.32 213.279 197.298 213.288C197.276 213.297 197.257 213.307 197.235 213.316C197.213 213.326 197.193 213.335 197.172 213.345C197.151 213.354 197.13 213.363 197.109 213.373C197.088 213.382 197.066 213.395 197.046 213.405C197.025 213.415 197.003 213.424 196.983 213.433C196.962 213.443 196.943 213.452 196.923 213.462C196.903 213.472 196.883 213.48 196.864 213.49C196.844 213.5 196.824 213.513 196.805 213.523C196.785 213.533 196.768 213.542 196.749 213.552C196.73 213.562 196.712 213.574 196.694 213.584C196.675 213.595 196.657 213.603 196.638 213.613C196.62 213.623 196.601 213.635 196.583 213.646C196.565 213.656 196.545 213.664 196.527 213.674C196.51 213.685 196.493 213.697 196.476 213.707C196.458 213.718 196.442 213.729 196.424 213.74C196.407 213.751 196.39 213.762 196.373 213.773C196.356 213.784 196.338 213.795 196.321 213.806C196.305 213.817 196.29 213.828 196.274 213.839C196.257 213.85 196.238 213.861 196.222 213.872C196.206 213.883 196.191 213.898 196.175 213.909C196.159 213.921 196.146 213.931 196.131 213.943C196.115 213.954 196.099 213.968 196.083 213.98C196.068 213.991 196.051 214.001 196.036 214.013C196.021 214.025 196.007 214.038 195.992 214.05C195.977 214.062 195.963 214.075 195.948 214.087C195.934 214.1 195.919 214.112 195.905 214.125C195.89 214.137 195.875 214.149 195.861 214.162C195.847 214.175 195.835 214.191 195.822 214.204C195.808 214.216 195.792 214.228 195.778 214.241C195.764 214.254 195.751 214.265 195.738 214.278C195.725 214.292 195.712 214.306 195.698 214.32C195.685 214.333 195.672 214.348 195.659 214.361C195.646 214.375 195.632 214.389 195.619 214.403C195.606 214.417 195.596 214.43 195.583 214.445C195.571 214.459 195.556 214.476 195.544 214.49C195.532 214.505 195.52 214.517 195.508 214.532C195.496 214.546 195.481 214.562 195.469 214.577C195.457 214.592 195.445 214.608 195.433 214.623C195.421 214.638 195.409 214.653 195.398 214.669C195.386 214.684 195.377 214.699 195.366 214.715C195.354 214.73 195.342 214.744 195.33 214.76C195.319 214.776 195.306 214.794 195.295 214.81C195.284 214.826 195.274 214.84 195.263 214.856C195.252 214.872 195.243 214.889 195.232 214.906C195.221 214.922 195.207 214.939 195.196 214.956C195.186 214.972 195.176 214.992 195.165 215.009C195.154 215.027 195.144 215.042 195.133 215.059C195.123 215.077 195.112 215.095 195.102 215.113C195.092 215.131 195.081 215.149 195.071 215.167C195.061 215.185 195.053 215.203 195.043 215.221C195.033 215.239 195.022 215.26 195.012 215.279C195.002 215.298 194.991 215.314 194.981 215.333C194.971 215.352 194.963 215.372 194.953 215.391C194.944 215.41 194.932 215.429 194.922 215.449C194.913 215.468 194.905 215.487 194.895 215.507C194.886 215.527 194.877 215.549 194.868 215.569C194.859 215.589 194.846 215.61 194.837 215.631C194.828 215.651 194.819 215.672 194.81 215.693C194.801 215.714 194.792 215.734 194.783 215.755C194.774 215.776 194.765 215.799 194.756 215.821C194.747 215.843 194.738 215.861 194.729 215.883C194.72 215.905 194.711 215.931 194.702 215.953C194.693 215.975 194.684 215.997 194.675 216.019C194.667 216.042 194.657 216.062 194.649 216.085C194.64 216.108 194.631 216.132 194.622 216.155C194.613 216.179 194.608 216.202 194.599 216.225C194.591 216.249 194.581 216.275 194.573 216.299C194.564 216.324 194.555 216.349 194.546 216.373C194.538 216.398 194.528 216.423 194.52 216.447C194.511 216.472 194.502 216.496 194.493 216.521C194.485 216.547 194.479 216.57 194.471 216.596C194.462 216.621 194.453 216.648 194.445 216.674C194.436 216.7 194.427 216.729 194.419 216.756C194.41 216.782 194.401 216.807 194.392 216.834C194.384 216.861 194.379 216.889 194.37 216.916C194.362 216.943 194.353 216.97 194.344 216.998C194.336 217.026 194.327 217.052 194.318 217.08C194.31 217.108 194.301 217.137 194.292 217.166C194.284 217.194 194.279 217.223 194.271 217.252C194.262 217.281 194.253 217.312 194.245 217.342C194.237 217.371 194.228 217.398 194.219 217.428C194.211 217.458 194.202 217.488 194.194 217.518C194.185 217.548 194.177 217.581 194.168 217.612C194.16 217.643 194.151 217.674 194.143 217.706C194.135 217.737 194.126 217.768 194.118 217.8C194.109 217.831 194.101 217.861 194.092 217.894C194.084 217.926 194.076 217.959 194.067 217.991C194.059 218.024 194.051 218.056 194.042 218.089C194.033 218.122 194.026 218.158 194.017 218.191C194.008 218.225 193.997 218.259 193.988 218.293C193.98 218.327 193.972 218.36 193.963 218.395C193.955 218.429 193.948 218.466 193.939 218.501C193.93 218.536 193.919 218.571 193.91 218.606C193.901 218.642 193.894 218.676 193.886 218.712C193.877 218.748 193.866 218.785 193.857 218.822C193.848 218.859 193.838 218.895 193.829 218.932C193.83 218.896 193.83 218.86 193.831 218.825C193.832 218.789 193.836 218.756 193.837 218.722C193.837 218.687 193.838 218.653 193.839 218.618C193.839 218.584 193.836 218.549 193.837 218.515C193.837 218.481 193.838 218.449 193.839 218.416C193.839 218.383 193.841 218.349 193.841 218.317C193.842 218.284 193.843 218.25 193.843 218.217C193.844 218.185 193.842 218.154 193.842 218.122C193.842 218.09 193.844 218.058 193.844 218.027C193.845 217.996 193.843 217.966 193.843 217.935C193.843 217.905 193.846 217.875 193.846 217.844C193.846 217.814 193.845 217.783 193.845 217.753C193.845 217.723 193.844 217.691 193.844 217.661C193.843 217.632 193.843 217.603 193.843 217.574C193.842 217.545 193.842 217.519 193.842 217.49C193.842 217.462 193.841 217.431 193.841 217.403C193.84 217.375 193.841 217.347 193.84 217.32C193.84 217.292 193.837 217.267 193.836 217.24C193.835 217.213 193.836 217.187 193.835 217.16C193.835 217.134 193.832 217.107 193.831 217.081C193.83 217.055 193.832 217.027 193.831 217.001C193.829 216.975 193.828 216.951 193.826 216.926C193.825 216.9 193.824 216.875 193.822 216.85C193.821 216.825 193.82 216.799 193.818 216.774C193.817 216.75 193.816 216.727 193.814 216.702C193.813 216.678 193.808 216.654 193.807 216.631C193.805 216.607 193.805 216.586 193.803 216.563C193.801 216.54 193.797 216.514 193.795 216.491C193.793 216.468 193.79 216.445 193.788 216.423C193.785 216.401 193.783 216.381 193.78 216.359C193.778 216.337 193.775 216.313 193.773 216.291C193.77 216.27 193.768 216.248 193.766 216.227C193.763 216.206 193.761 216.188 193.759 216.167C193.756 216.146 193.75 216.123 193.747 216.103C193.744 216.083 193.744 216.063 193.74 216.043C193.737 216.023 193.733 216.002 193.729 215.983C193.726 215.963 193.722 215.946 193.719 215.927C193.715 215.907 193.712 215.889 193.708 215.87C193.704 215.852 193.701 215.833 193.697 215.814C193.693 215.796 193.687 215.776 193.683 215.758C193.679 215.74 193.677 215.723 193.673 215.706C193.668 215.688 193.663 215.67 193.658 215.653C193.654 215.636 193.649 215.618 193.644 215.601C193.639 215.584 193.635 215.569 193.63 215.552C193.625 215.536 193.621 215.516 193.616 215.5C193.61 215.484 193.603 215.471 193.598 215.455C193.593 215.439 193.586 215.422 193.58 215.407C193.575 215.391 193.572 215.377 193.566 215.362C193.56 215.347 193.554 215.328 193.548 215.313C193.542 215.299 193.533 215.287 193.527 215.273C193.521 215.258 193.516 215.242 193.509 215.228C193.503 215.214 193.495 215.201 193.488 215.187C193.481 215.173 193.474 215.16 193.467 215.146C193.46 215.133 193.453 215.118 193.446 215.105C193.439 215.092 193.432 215.077 193.424 215.064C193.417 215.051 193.411 215.04 193.403 215.027C193.396 215.015 193.387 215.002 193.379 214.99C193.371 214.978 193.362 214.965 193.354 214.953C193.345 214.941 193.337 214.932 193.329 214.92C193.321 214.908 193.313 214.898 193.304 214.887C193.296 214.876 193.289 214.865 193.28 214.854C193.271 214.843 193.261 214.831 193.251 214.82C193.242 214.81 193.232 214.797 193.223 214.787C193.213 214.777 193.204 214.768 193.195 214.758C193.185 214.748 193.173 214.738 193.163 214.728C193.152 214.718 193.145 214.708 193.134 214.699C193.124 214.689 193.113 214.678 193.102 214.669C193.092 214.66 193.081 214.653 193.07 214.644C193.06 214.635 193.046 214.622 193.035 214.614C193.023 214.605 193.014 214.601 193.003 214.592C192.994 214.585 192.984 214.577 192.975 214.571C193.777 213.712 194.563 212.799 195.295 211.795C195.519 211.488 195.582 211.401 195.677 211.268Z" fill="#5a3878" fill-rule="nonzero" opacity="1" stroke="none"/>
<path d="M62.0092 179.63C61.9364 179.619 61.8641 179.608 61.7924 179.597C61.7207 179.587 61.6495 179.576 61.5787 179.565C61.508 179.554 61.4377 179.544 61.368 179.533C61.2983 179.522 61.229 179.511 61.1603 179.501C61.0916 179.49 61.0234 179.479 60.9556 179.469C60.8878 179.458 60.8206 179.447 60.7538 179.437C60.6871 179.426 60.6208 179.415 60.555 179.405C60.4892 179.394 60.4239 179.383 60.3591 179.373C60.2943 179.362 60.2299 179.351 60.166 179.341C60.1021 179.33 60.0388 179.319 59.9759 179.308C59.9129 179.298 59.8505 179.287 59.7884 179.276C59.7266 179.265 59.665 179.254 59.6039 179.244C59.5429 179.233 59.4823 179.222 59.4222 179.211C59.3621 179.2 59.3024 179.189 59.2431 179.178C59.1839 179.167 59.1251 179.156 59.0668 179.145C59.0085 179.134 58.9506 179.123 58.8932 179.112C58.8358 179.101 58.7788 179.09 58.7223 179.078C58.6657 179.067 58.6097 179.056 58.554 179.045C58.4984 179.033 58.4432 179.022 58.3885 179.011C58.3337 178.999 58.2793 178.988 58.2254 178.976C58.1715 178.965 58.118 178.953 58.0649 178.941C58.0118 178.93 57.9592 178.918 57.907 178.906C57.8548 178.894 57.803 178.883 57.7516 178.871C57.7003 178.859 57.6494 178.847 57.5988 178.835C57.5482 178.823 57.4981 178.81 57.4483 178.798C57.3986 178.786 57.3493 178.773 57.3004 178.761C57.2515 178.749 57.203 178.736 57.155 178.724C57.1068 178.711 57.0591 178.698 57.0118 178.685C56.9645 178.673 56.9176 178.66 56.8711 178.647C56.8245 178.634 56.7785 178.621 56.7326 178.607C56.6869 178.594 56.6416 178.581 56.5966 178.567C56.5517 178.554 56.5071 178.54 56.4629 178.527C56.4186 178.513 56.3748 178.499 56.3314 178.486C56.2879 178.472 56.2448 178.458 56.2022 178.444C56.1595 178.429 56.1172 178.415 56.0752 178.401C56.0332 178.386 55.9917 178.372 55.9503 178.357C55.9091 178.343 55.8682 178.328 55.8277 178.313C55.7873 178.298 55.7471 178.283 55.7073 178.268C55.6675 178.253 55.6279 178.237 55.5889 178.222C55.5498 178.207 55.5111 178.191 55.4727 178.175C55.4343 178.159 55.3962 178.144 55.3585 178.127C55.3207 178.111 55.2835 178.095 55.2464 178.079C55.2093 178.062 55.1726 178.046 55.1363 178.029C55.0999 178.012 55.0638 177.996 55.0282 177.979C54.9925 177.962 54.9571 177.944 54.922 177.927C54.887 177.91 54.8523 177.892 54.8179 177.875C54.7835 177.857 54.7494 177.839 54.7156 177.821C54.6819 177.803 54.6484 177.785 54.6153 177.766C54.5822 177.748 54.5493 177.729 54.5168 177.71C54.4843 177.691 54.4522 177.673 54.4202 177.653C54.3883 177.634 54.3567 177.615 54.3253 177.595C54.2941 177.576 54.2631 177.556 54.2324 177.536C54.2017 177.516 54.1713 177.496 54.1412 177.475C54.111 177.455 54.0812 177.434 54.0517 177.414C54.0221 177.393 53.9929 177.372 53.9639 177.351C53.9349 177.329 53.9063 177.308 53.8778 177.286C53.8494 177.265 53.8212 177.243 53.7935 177.221C53.7656 177.198 53.738 177.176 53.7107 177.154C53.6834 177.131 53.6564 177.108 53.6296 177.085C53.6028 177.062 53.5764 177.039 53.5502 177.015C53.5239 176.992 53.4979 176.968 53.4722 176.944C53.4465 176.92 53.421 176.896 53.3958 176.872C53.3706 176.847 53.3457 176.822 53.3209 176.798C53.2963 176.773 53.2719 176.747 53.2477 176.722C53.2235 176.696 53.1995 176.671 53.1757 176.645C53.152 176.619 53.1285 176.593 53.1053 176.566C53.0821 176.54 53.0591 176.513 53.0362 176.486C53.0135 176.459 52.991 176.431 52.9687 176.404C52.9464 176.376 52.9243 176.349 52.9024 176.32C52.8806 176.292 52.859 176.264 52.8376 176.235C52.8162 176.207 52.795 176.178 52.774 176.148C52.753 176.119 52.7323 176.09 52.7117 176.06C52.6912 176.03 52.6709 176 52.6508 175.97C52.6306 175.939 52.6107 175.908 52.591 175.877C52.5713 175.846 52.5517 175.815 52.5325 175.783C52.5132 175.752 52.4941 175.72 52.4752 175.688C52.4563 175.656 52.4375 175.623 52.419 175.59C52.4005 175.557 52.3822 175.524 52.364 175.491C52.3458 175.457 52.3278 175.424 52.3101 175.39C52.2923 175.355 52.2747 175.321 52.2573 175.286C52.2399 175.252 52.2227 175.216 52.2056 175.181C52.1886 175.146 52.1717 175.11 52.155 175.074C52.1383 175.038 52.1216 175.001 52.1053 174.965C52.089 174.928 52.0728 174.891 52.0567 174.854C52.0406 174.816 52.0248 174.778 52.009 174.74C51.9933 174.702 51.9777 174.664 51.9623 174.625C51.947 174.586 51.9316 174.547 51.9165 174.508C51.9014 174.468 51.8864 174.428 51.8717 174.388C51.8568 174.348 51.8421 174.307 51.8277 174.266C51.8131 174.225 51.7988 174.184 51.7844 174.142C51.7702 174.101 51.7561 174.059 51.7421 174.016C51.7281 173.974 51.7143 173.931 51.7005 173.888C51.6869 173.845 51.6732 173.801 51.6598 173.757C51.6463 173.713 51.633 173.669 51.6198 173.624C51.6065 173.579 51.5934 173.534 51.5804 173.489C51.5674 173.443 51.5545 173.398 51.5418 173.351C51.529 173.305 51.5164 173.258 51.5038 173.211C51.4914 173.164 51.4789 173.117 51.4665 173.069C51.4543 173.021 51.442 172.973 51.4299 172.924C51.4178 172.875 51.4057 172.826 51.3938 172.777C51.3819 172.727 51.3701 172.677 51.3583 172.627C51.3465 172.577 51.3349 172.526 51.3233 172.475C51.3118 172.424 51.3003 172.372 51.2888 172.32C51.2775 172.268 51.2662 172.216 51.2549 172.163C51.2437 172.11 51.2326 172.057 51.2214 172.003C51.2103 171.949 51.1994 171.895 51.1884 171.84C51.1775 171.786 51.1666 171.731 51.1559 171.675C51.145 171.62 51.1343 171.564 51.1236 171.507C51.1129 171.451 51.1023 171.394 51.0918 171.337C51.0812 171.279 51.0708 171.222 51.0603 171.163C51.0498 171.105 51.0395 171.047 51.0291 170.987C51.0188 170.928 51.0085 170.869 50.9982 170.809C50.988 170.749 50.9778 170.688 50.9676 170.627C50.9575 170.566 50.9474 170.505 50.9373 170.443C50.9272 170.381 50.9171 170.319 50.9071 170.256C50.8971 170.193 50.8871 170.129 50.8772 170.066C50.8672 170.002 50.8573 169.937 50.8474 169.873C50.8375 169.808 50.8276 169.742 50.8178 169.677C50.8079 169.611 50.798 169.545 50.7882 169.478C50.7785 169.411 50.7686 169.344 50.7588 169.276C50.749 169.208 50.7393 169.14 50.7295 169.071C50.7197 169.002 50.7099 168.933 50.7002 168.863C50.6905 168.793 50.6807 168.723 50.6709 168.652C50.6612 168.581 50.6515 168.51 50.6417 168.438C50.6319 168.366 50.6221 168.294 50.6124 168.221C50.6026 168.148 50.5928 168.075 50.5829 168.001C50.5731 167.927 50.5633 167.852 50.5535 167.777C50.5437 167.702 50.5339 167.627 50.524 167.551C50.5167 167.626 50.5094 167.701 50.5021 167.776C50.4947 167.851 50.4874 167.925 50.4801 167.998C50.4728 168.072 50.4655 168.145 50.4581 168.217C50.4508 168.29 50.4435 168.361 50.4361 168.433C50.4287 168.504 50.4213 168.575 50.414 168.646C50.4067 168.716 50.3992 168.786 50.3918 168.855C50.3845 168.925 50.3769 168.994 50.3695 169.062C50.362 169.13 50.3546 169.198 50.3471 169.265C50.3395 169.333 50.332 169.399 50.3244 169.466C50.3168 169.532 50.3092 169.598 50.3015 169.663C50.2939 169.729 50.2863 169.794 50.2785 169.858C50.2708 169.922 50.263 169.986 50.2552 170.05C50.2474 170.113 50.2395 170.176 50.2316 170.238C50.2237 170.301 50.2158 170.363 50.2078 170.424C50.1998 170.486 50.1917 170.547 50.1835 170.607C50.1754 170.668 50.1673 170.728 50.159 170.787C50.1508 170.847 50.1425 170.906 50.1342 170.965C50.1258 171.023 50.1173 171.081 50.109 171.139C50.1004 171.197 50.0919 171.254 50.0833 171.311C50.0746 171.368 50.0659 171.424 50.0571 171.48C50.0483 171.536 50.0395 171.591 50.0305 171.646C50.0216 171.701 50.0125 171.756 50.0034 171.81C49.9942 171.864 49.9851 171.918 49.9758 171.971C49.9666 172.024 49.9572 172.077 49.9477 172.129C49.9382 172.182 49.9288 172.233 49.9191 172.285C49.9094 172.336 49.8996 172.387 49.8897 172.438C49.8799 172.489 49.8699 172.539 49.8599 172.589C49.8498 172.638 49.8396 172.688 49.8294 172.737C49.8192 172.786 49.8088 172.834 49.7982 172.882C49.7878 172.93 49.7771 172.978 49.7664 173.025C49.7557 173.073 49.7448 173.12 49.7339 173.166C49.7229 173.212 49.7118 173.258 49.7006 173.304C49.6894 173.35 49.6781 173.395 49.6666 173.44C49.6551 173.485 49.6435 173.529 49.6318 173.573C49.6201 173.617 49.6083 173.661 49.5962 173.704C49.5843 173.748 49.5721 173.79 49.5598 173.833C49.5475 173.875 49.5351 173.918 49.5225 173.959C49.51 174.001 49.4973 174.042 49.4844 174.083C49.4715 174.124 49.4586 174.165 49.4453 174.205C49.4322 174.245 49.4188 174.285 49.4054 174.325C49.3918 174.364 49.3783 174.403 49.3645 174.442C49.3507 174.481 49.3367 174.519 49.3226 174.557C49.3085 174.596 49.2941 174.633 49.2797 174.67C49.2652 174.708 49.2506 174.745 49.2358 174.781C49.221 174.818 49.206 174.854 49.1908 174.89C49.1757 174.926 49.1604 174.962 49.1448 174.997C49.1293 175.032 49.1136 175.067 49.0978 175.102C49.0819 175.136 49.0658 175.17 49.0496 175.204C49.0333 175.238 49.0169 175.272 49.0002 175.305C48.9835 175.338 48.9667 175.371 48.9498 175.403C48.9326 175.436 48.9154 175.468 48.898 175.5C48.8806 175.532 48.8629 175.564 48.845 175.595C48.8272 175.626 48.8092 175.657 48.7909 175.688C48.7726 175.718 48.7542 175.749 48.7355 175.779C48.7168 175.809 48.6979 175.838 48.6788 175.868C48.6597 175.897 48.6404 175.926 48.6208 175.955C48.6012 175.984 48.5815 176.012 48.5615 176.041C48.5414 176.069 48.5212 176.097 48.5008 176.124C48.4803 176.152 48.4597 176.179 48.4387 176.206C48.4177 176.233 48.3966 176.26 48.3753 176.286C48.3538 176.313 48.3322 176.339 48.3103 176.365C48.2884 176.391 48.2663 176.416 48.2439 176.442C48.2217 176.467 48.1989 176.492 48.1761 176.517C48.1532 176.542 48.1301 176.566 48.1067 176.59C48.0834 176.615 48.0597 176.639 48.0358 176.662C48.012 176.686 47.9879 176.71 47.9634 176.733C47.939 176.756 47.9143 176.779 47.8894 176.802C47.8644 176.824 47.8392 176.847 47.8139 176.869C47.7883 176.891 47.7626 176.913 47.7366 176.935C47.7106 176.956 47.6844 176.978 47.6577 176.999C47.6311 177.02 47.6043 177.041 47.5773 177.062C47.5501 177.082 47.5227 177.103 47.495 177.123C47.4673 177.143 47.4393 177.163 47.4111 177.183C47.3827 177.203 47.3541 177.222 47.3252 177.242C47.2964 177.261 47.2673 177.28 47.2378 177.299C47.2084 177.318 47.1786 177.336 47.1485 177.355C47.1185 177.373 47.0881 177.391 47.0575 177.409C47.0269 177.427 46.9959 177.445 46.9646 177.463C46.9333 177.48 46.9016 177.498 46.8697 177.515C46.8379 177.532 46.8056 177.549 46.7731 177.566C46.7405 177.582 46.7077 177.599 46.6745 177.615C46.6413 177.632 46.6077 177.648 46.574 177.664C46.5402 177.68 46.5059 177.695 46.4714 177.711C46.4369 177.727 46.4021 177.742 46.3669 177.757C46.3318 177.772 46.2963 177.787 46.2605 177.802C46.2246 177.817 46.1885 177.832 46.152 177.846C46.1154 177.861 46.0786 177.875 46.0414 177.889C46.0042 177.904 45.9666 177.917 45.9287 177.931C45.8908 177.945 45.8526 177.959 45.8139 177.972C45.7753 177.986 45.7363 177.999 45.697 178.012C45.6577 178.025 45.618 178.038 45.5779 178.051C45.5379 178.064 45.4975 178.076 45.4567 178.089C45.4159 178.102 45.3748 178.114 45.3332 178.126C45.2917 178.138 45.2499 178.15 45.2076 178.162C45.1652 178.174 45.1226 178.186 45.0796 178.198C45.0366 178.21 44.9933 178.221 44.9495 178.232C44.9057 178.244 44.8615 178.255 44.8169 178.266C44.7724 178.277 44.7274 178.288 44.6821 178.299C44.6368 178.31 44.5911 178.321 44.5449 178.332C44.4988 178.342 44.4523 178.353 44.4054 178.363C44.3584 178.373 44.3112 178.384 44.2634 178.394C44.2156 178.404 44.1676 178.414 44.1191 178.424C44.0706 178.434 44.0216 178.444 43.9722 178.454C43.9229 178.463 43.873 178.473 43.8229 178.482C43.7728 178.492 43.7221 178.501 43.6712 178.511C43.6201 178.52 43.5687 178.529 43.5169 178.538C43.465 178.548 43.4127 178.557 43.3601 178.566C43.3073 178.575 43.2541 178.583 43.2006 178.592C43.147 178.601 43.093 178.61 43.0385 178.618C42.9841 178.627 42.9292 178.635 42.8739 178.644C42.8186 178.652 42.7628 178.661 42.7067 178.669C42.6504 178.677 42.5938 178.686 42.5367 178.694C42.4796 178.702 42.4221 178.71 42.3641 178.718C42.3061 178.726 42.2477 178.734 42.1887 178.742C42.1299 178.75 42.0705 178.758 42.0106 178.766C41.9509 178.774 41.8905 178.782 41.8298 178.789C41.7691 178.797 41.7079 178.805 41.6462 178.812C41.5845 178.82 41.5224 178.828 41.4597 178.835C41.3971 178.843 41.3341 178.85 41.2705 178.858C41.207 178.865 41.1429 178.872 41.0783 178.88C41.0139 178.887 40.9488 178.895 40.8834 178.902C40.8179 178.909 40.7519 178.917 40.6854 178.924C40.619 178.931 40.552 178.938 40.4847 178.946C40.4172 178.953 40.3492 178.96 40.2808 178.967C40.2124 178.974 40.1435 178.982 40.0741 178.989C40.0046 178.996 39.9347 179.003 39.8642 179.01C39.7938 179.017 39.7229 179.024 39.6515 179.032C39.58 179.039 39.508 179.046 39.4356 179.053C39.5083 179.064 39.5806 179.075 39.6523 179.085C39.7241 179.096 39.7953 179.107 39.8661 179.118C39.9368 179.128 40.0071 179.139 40.0768 179.15C40.1465 179.161 40.2157 179.171 40.2845 179.182C40.3532 179.193 40.4214 179.203 40.4892 179.214C40.5569 179.225 40.6242 179.235 40.6909 179.246C40.7577 179.257 40.8239 179.267 40.8898 179.278C40.9556 179.289 41.0208 179.299 41.0857 179.31C41.1505 179.321 41.2148 179.332 41.2787 179.342C41.3426 179.353 41.4059 179.364 41.4689 179.375C41.5317 179.385 41.5942 179.396 41.6562 179.407C41.7183 179.418 41.7798 179.428 41.8408 179.439C41.9019 179.45 41.9625 179.461 42.0226 179.472C42.0826 179.483 42.1424 179.494 42.2016 179.505C42.2609 179.515 42.3196 179.527 42.3779 179.538C42.4363 179.549 42.4941 179.56 42.5515 179.571C42.6089 179.582 42.6659 179.593 42.7224 179.604C42.7789 179.615 42.835 179.627 42.8906 179.638C42.9463 179.649 43.0015 179.661 43.0563 179.672C43.111 179.684 43.1654 179.695 43.2194 179.707C43.2733 179.718 43.3267 179.73 43.3798 179.741C43.4329 179.753 43.4855 179.765 43.5377 179.777C43.59 179.788 43.6417 179.8 43.6931 179.812C43.7445 179.824 43.7955 179.836 43.846 179.848C43.8965 179.86 43.9467 179.872 43.9963 179.885C44.0461 179.897 44.0955 179.909 44.1443 179.922C44.1932 179.934 44.2417 179.947 44.2898 179.959C44.3379 179.972 44.3857 179.985 44.433 179.998C44.4802 180.01 44.5272 180.023 44.5737 180.036C44.6202 180.049 44.6663 180.062 44.7121 180.076C44.7578 180.089 44.8031 180.102 44.8481 180.115C44.8931 180.129 44.9376 180.142 44.9819 180.156C45.0261 180.17 45.0699 180.183 45.1134 180.197C45.1569 180.211 45.1998 180.225 45.2425 180.239C45.2852 180.253 45.3277 180.268 45.3696 180.282C45.4115 180.296 45.4532 180.311 45.4944 180.326C45.5356 180.34 45.5765 180.355 45.617 180.37C45.6575 180.385 45.6977 180.4 45.7375 180.415C45.7773 180.43 45.8167 180.445 45.8559 180.461C45.8949 180.476 45.9337 180.492 45.9721 180.508C46.0105 180.523 46.0486 180.539 46.0863 180.555C46.124 180.571 46.1613 180.588 46.1984 180.604C46.2355 180.62 46.2722 180.637 46.3086 180.654C46.3449 180.67 46.3809 180.687 46.4166 180.704C46.4523 180.721 46.4877 180.738 46.5228 180.756C46.5578 180.773 46.5925 180.791 46.6269 180.808C46.6613 180.826 46.6955 180.844 46.7292 180.862C46.7629 180.88 46.7964 180.898 46.8295 180.917C46.8626 180.935 46.8955 180.954 46.928 180.973C46.9604 180.991 46.9927 181.01 47.0246 181.03C47.0565 181.049 47.0881 181.068 47.1194 181.088C47.1507 181.107 47.1818 181.127 47.2125 181.147C47.2432 181.167 47.2736 181.187 47.3037 181.208C47.3338 181.228 47.3636 181.249 47.3932 181.269C47.4227 181.29 47.4519 181.311 47.4809 181.332C47.5099 181.354 47.5386 181.375 47.5669 181.397C47.5954 181.418 47.6235 181.44 47.6513 181.462C47.6792 181.484 47.7067 181.507 47.734 181.529C47.7613 181.552 47.7883 181.575 47.8152 181.598C47.842 181.621 47.8685 181.644 47.8947 181.667C47.921 181.691 47.9469 181.715 47.9726 181.739C47.9984 181.763 48.0238 181.787 48.049 181.811C48.0742 181.836 48.0991 181.86 48.1238 181.885C48.1486 181.91 48.173 181.936 48.1972 181.961C48.2214 181.986 48.2453 182.012 48.269 182.038C48.2928 182.064 48.3162 182.09 48.3396 182.117C48.3627 182.143 48.3858 182.17 48.4085 182.197C48.4313 182.224 48.4538 182.251 48.4762 182.279C48.4985 182.307 48.5206 182.334 48.5424 182.362C48.5643 182.391 48.5859 182.419 48.6072 182.448C48.6287 182.476 48.6499 182.505 48.6708 182.534C48.6918 182.564 48.7125 182.593 48.7331 182.623C48.7536 182.653 48.7739 182.683 48.7941 182.713C48.8141 182.744 48.8341 182.774 48.8539 182.805C48.8735 182.837 48.893 182.868 48.9124 182.899C48.9317 182.931 48.9508 182.963 48.9697 182.995C48.9885 183.027 49.0072 183.06 49.0259 183.093C49.0444 183.125 49.0627 183.159 49.0808 183.192C49.099 183.226 49.1169 183.259 49.1347 183.293C49.1525 183.327 49.17 183.362 49.1874 183.397C49.2048 183.431 49.2221 183.466 49.2391 183.502C49.2563 183.537 49.2731 183.573 49.2898 183.609C49.3065 183.645 49.323 183.681 49.3395 183.718C49.3558 183.755 49.3721 183.792 49.3881 183.829C49.4042 183.867 49.4201 183.905 49.4358 183.943C49.4515 183.981 49.467 184.019 49.4825 184.058C49.4979 184.097 49.5131 184.136 49.5283 184.175C49.5434 184.215 49.5583 184.255 49.5732 184.295C49.588 184.335 49.6026 184.376 49.6172 184.417C49.6318 184.458 49.6461 184.499 49.6604 184.541C49.6746 184.582 49.6888 184.624 49.7028 184.667C49.7167 184.709 49.7305 184.752 49.7443 184.795C49.758 184.838 49.7716 184.882 49.7851 184.926C49.7986 184.97 49.8119 185.014 49.8251 185.059C49.8383 185.103 49.8514 185.149 49.8644 185.194C49.8774 185.24 49.8903 185.285 49.9031 185.332C49.9158 185.378 49.9284 185.425 49.941 185.472C49.9535 185.519 49.9659 185.566 49.9783 185.614C49.9906 185.662 50.0028 185.71 50.015 185.759C50.0271 185.807 50.0391 185.857 50.051 185.906C50.063 185.956 50.0748 186.006 50.0865 186.056C50.0983 186.106 50.1099 186.157 50.1215 186.208C50.1331 186.259 50.1446 186.311 50.1559 186.363C50.1673 186.415 50.1786 186.467 50.1898 186.52C50.201 186.573 50.2123 186.626 50.2233 186.68C50.2344 186.734 50.2454 186.788 50.2563 186.843C50.2673 186.897 50.2782 186.952 50.289 187.008C50.2998 187.063 50.3106 187.119 50.3212 187.176C50.3319 187.232 50.3424 187.289 50.3531 187.346C50.3636 187.403 50.374 187.461 50.3845 187.519C50.395 187.578 50.4054 187.636 50.4156 187.695C50.426 187.755 50.4363 187.814 50.4465 187.874C50.4567 187.934 50.4669 187.995 50.4772 188.056C50.4874 188.117 50.4974 188.178 50.5075 188.24C50.5176 188.302 50.5276 188.364 50.5377 188.427C50.5477 188.49 50.5577 188.553 50.5676 188.617C50.5776 188.681 50.5875 188.746 50.5974 188.81C50.6073 188.875 50.6171 188.94 50.6271 189.006C50.6368 189.072 50.6468 189.138 50.6565 189.205C50.6663 189.272 50.6761 189.339 50.686 189.407C50.6957 189.475 50.7055 189.543 50.7153 189.612C50.725 189.681 50.7348 189.75 50.7445 189.82C50.7542 189.89 50.764 189.96 50.7738 190.031C50.7835 190.101 50.7933 190.173 50.8031 190.245C50.8128 190.317 50.8226 190.389 50.8324 190.462C50.8421 190.535 50.852 190.608 50.8617 190.682C50.8716 190.756 50.8814 190.831 50.8912 190.906C50.9011 190.981 50.911 191.056 50.9208 191.132C50.928 191.057 50.9354 190.981 50.9427 190.907C50.95 190.832 50.9573 190.758 50.9646 190.685C50.9719 190.611 50.9793 190.538 50.9866 190.466C50.994 190.393 51.0013 190.321 51.0087 190.25C51.016 190.178 51.0233 190.108 51.0308 190.037C51.0382 189.967 51.0455 189.897 51.0529 189.828C51.0604 189.758 51.0678 189.689 51.0753 189.621C51.0828 189.553 51.0902 189.485 51.0978 189.417C51.1053 189.35 51.1128 189.283 51.1204 189.217C51.128 189.151 51.1356 189.085 51.1431 189.019C51.1509 188.954 51.1585 188.889 51.1663 188.825C51.174 188.76 51.1818 188.697 51.1896 188.633C51.1974 188.57 51.2052 188.507 51.2132 188.444C51.2211 188.382 51.229 188.32 51.237 188.259C51.245 188.197 51.253 188.136 51.2612 188.076C51.2693 188.015 51.2775 187.955 51.2857 187.896C51.294 187.836 51.3022 187.777 51.3106 187.718C51.319 187.66 51.3274 187.601 51.3359 187.544C51.3443 187.486 51.3529 187.429 51.3616 187.372C51.3702 187.315 51.3789 187.259 51.3877 187.203C51.3965 187.147 51.4054 187.092 51.4143 187.037C51.4233 186.982 51.4322 186.927 51.4414 186.873C51.4505 186.819 51.4596 186.765 51.469 186.712C51.4782 186.659 51.4875 186.606 51.4971 186.554C51.5065 186.501 51.516 186.449 51.5257 186.398C51.5354 186.346 51.5451 186.295 51.5549 186.245C51.5648 186.194 51.5747 186.144 51.5848 186.094C51.5949 186.044 51.6051 185.995 51.6153 185.946C51.6256 185.897 51.636 185.849 51.6464 185.801C51.657 185.752 51.6675 185.705 51.6783 185.657C51.689 185.61 51.6999 185.563 51.7109 185.517C51.7218 185.47 51.7329 185.424 51.7441 185.379C51.7553 185.333 51.7666 185.288 51.7781 185.243C51.7896 185.198 51.8012 185.154 51.8129 185.11C51.8247 185.065 51.8366 185.022 51.8485 184.979C51.8605 184.935 51.8726 184.892 51.8849 184.85C51.8972 184.807 51.9097 184.765 51.9222 184.723C51.9348 184.682 51.9475 184.64 51.9604 184.599C51.9732 184.558 51.9862 184.518 51.9993 184.478C52.0126 184.437 52.0259 184.397 52.0393 184.358C52.0528 184.319 52.0664 184.279 52.0802 184.241C52.094 184.202 52.1079 184.163 52.1221 184.125C52.1363 184.087 52.1505 184.05 52.165 184.012C52.1794 183.975 52.1941 183.938 52.2089 183.901C52.2237 183.865 52.2387 183.829 52.2538 183.793C52.269 183.757 52.2842 183.721 52.2999 183.686C52.3153 183.651 52.3311 183.616 52.3469 183.581C52.3627 183.547 52.3788 183.512 52.3952 183.479C52.4114 183.445 52.4278 183.411 52.4445 183.378C52.4611 183.345 52.4779 183.312 52.495 183.279C52.512 183.247 52.5293 183.215 52.5467 183.183C52.5641 183.151 52.5817 183.119 52.5996 183.088C52.6174 183.057 52.6355 183.026 52.6537 182.995C52.672 182.964 52.6904 182.934 52.7091 182.904C52.7278 182.874 52.7467 182.844 52.7659 182.815C52.785 182.786 52.8043 182.756 52.8238 182.728C52.8434 182.699 52.8632 182.67 52.8832 182.642C52.9032 182.614 52.9234 182.586 52.9439 182.559C52.9644 182.531 52.9851 182.504 53.0059 182.477C53.0269 182.449 53.0481 182.423 53.0695 182.396C53.0908 182.37 53.1125 182.344 53.1344 182.318C53.1563 182.292 53.1784 182.266 53.2007 182.241C53.2231 182.216 53.2457 182.191 53.2685 182.166C53.2914 182.141 53.3146 182.117 53.3379 182.092C53.3613 182.068 53.3849 182.044 53.4088 182.02C53.4326 181.997 53.4568 181.973 53.4812 181.95C53.5056 181.927 53.5303 181.904 53.5553 181.881C53.5802 181.859 53.6054 181.836 53.6309 181.814C53.6563 181.792 53.682 181.77 53.708 181.748C53.7341 181.727 53.7603 181.705 53.7869 181.684C53.8135 181.663 53.8403 181.642 53.8674 181.621C53.8946 181.6 53.9219 181.58 53.9496 181.56C53.9774 181.54 54.0054 181.52 54.0337 181.5C54.062 181.48 54.0905 181.461 54.1193 181.441C54.1482 181.422 54.1773 181.403 54.2069 181.384C54.2364 181.365 54.2661 181.347 54.2961 181.328C54.3262 181.31 54.3566 181.291 54.3872 181.273C54.4179 181.255 54.4488 181.238 54.4802 181.22C54.5114 181.202 54.543 181.185 54.5749 181.168C54.6069 181.151 54.6391 181.134 54.6716 181.117C54.7041 181.1 54.737 181.084 54.7702 181.068C54.8033 181.051 54.8369 181.035 54.8707 181.019C54.9045 181.003 54.9387 180.987 54.9732 180.972C55.0077 180.956 55.0425 180.941 55.0777 180.926C55.1129 180.91 55.1484 180.895 55.1842 180.881C55.22 180.866 55.2562 180.851 55.2927 180.836C55.3292 180.822 55.3662 180.808 55.4034 180.794C55.4406 180.779 55.478 180.765 55.516 180.752C55.5539 180.738 55.5922 180.724 55.6308 180.711C55.6694 180.697 55.7083 180.684 55.7477 180.671C55.787 180.658 55.8267 180.645 55.8667 180.632C55.9068 180.619 55.9472 180.606 55.9879 180.594C56.0288 180.581 56.0699 180.569 56.1114 180.557C56.153 180.544 56.1949 180.532 56.2371 180.52C56.2794 180.508 56.322 180.497 56.365 180.485C56.408 180.473 56.4515 180.462 56.4952 180.45C56.539 180.439 56.5832 180.428 56.6277 180.416C56.6722 180.405 56.7173 180.394 56.7625 180.383C56.8078 180.373 56.8536 180.362 56.8997 180.351C56.9459 180.341 56.9924 180.33 57.0393 180.32C57.0862 180.309 57.1335 180.299 57.1812 180.289C57.229 180.279 57.2771 180.269 57.3256 180.259C57.3742 180.249 57.4232 180.239 57.4725 180.229C57.5218 180.219 57.5715 180.21 57.6218 180.2C57.6719 180.191 57.7225 180.181 57.7736 180.172C57.8246 180.163 57.876 180.153 57.9279 180.144C57.9798 180.135 58.032 180.126 58.0848 180.117C58.1375 180.108 58.1906 180.099 58.2443 180.091C58.2978 180.082 58.3518 180.073 58.4062 180.064C58.4607 180.056 58.5156 180.047 58.5708 180.039C58.6262 180.03 58.6819 180.022 58.7382 180.014C58.7943 180.005 58.8509 179.997 58.908 179.989C58.9651 179.981 59.0226 179.972 59.0807 179.964C59.1387 179.956 59.1971 179.948 59.256 179.94C59.3149 179.932 59.3743 179.925 59.4341 179.917C59.4939 179.909 59.5541 179.901 59.6149 179.893C59.6756 179.886 59.7369 179.878 59.7986 179.87C59.8601 179.863 59.9224 179.855 59.9849 179.848C60.0476 179.84 60.1107 179.833 60.1743 179.825C60.2378 179.818 60.3018 179.81 60.3664 179.803C60.4309 179.796 60.4959 179.788 60.5614 179.781C60.6269 179.774 60.6929 179.766 60.7592 179.759C60.8258 179.752 60.8927 179.745 60.9602 179.737C61.0275 179.73 61.0955 179.723 61.1639 179.716C61.2324 179.709 61.3013 179.701 61.3707 179.694C61.4401 179.687 61.51 179.68 61.5805 179.673C61.6509 179.666 61.7218 179.658 61.7933 179.651C61.8649 179.644 61.9368 179.637 62.0092 179.63Z" fill="#ee8843" fill-rule="nonzero" opacity="1" stroke="none"/>
<path d="M200.209 212.418C200.167 212.412 200.126 212.406 200.084 212.4C200.043 212.393 200.002 212.387 199.962 212.381C199.921 212.375 199.88 212.369 199.84 212.363C199.8 212.356 199.76 212.35 199.721 212.344C199.681 212.338 199.642 212.332 199.603 212.326C199.564 212.32 199.525 212.313 199.487 212.307C199.448 212.301 199.41 212.295 199.372 212.289C199.335 212.283 199.297 212.277 199.26 212.27C199.222 212.264 199.185 212.258 199.149 212.252C199.112 212.246 199.075 212.24 199.039 212.233C199.003 212.227 198.967 212.221 198.931 212.215C198.896 212.209 198.86 212.202 198.825 212.196C198.79 212.19 198.755 212.184 198.721 212.177C198.686 212.171 198.652 212.165 198.617 212.159C198.583 212.152 198.55 212.146 198.516 212.14C198.482 212.133 198.449 212.127 198.416 212.12C198.383 212.114 198.35 212.108 198.318 212.101C198.285 212.095 198.253 212.088 198.221 212.082C198.189 212.075 198.157 212.069 198.126 212.062C198.094 212.056 198.063 212.049 198.032 212.042C198.001 212.036 197.97 212.029 197.939 212.022C197.909 212.016 197.879 212.009 197.849 212.002C197.819 211.995 197.789 211.988 197.759 211.981C197.73 211.975 197.7 211.968 197.671 211.961C197.642 211.954 197.613 211.947 197.585 211.94C197.556 211.933 197.528 211.926 197.5 211.918C197.471 211.911 197.444 211.904 197.416 211.897C197.388 211.89 197.361 211.882 197.333 211.875C197.306 211.868 197.279 211.86 197.253 211.853C197.226 211.845 197.199 211.838 197.173 211.83C197.147 211.822 197.12 211.815 197.095 211.807C197.069 211.799 197.043 211.792 197.018 211.784C196.992 211.776 196.967 211.768 196.942 211.76C196.917 211.752 196.892 211.744 196.868 211.736C196.843 211.728 196.819 211.719 196.795 211.711C196.77 211.703 196.746 211.695 196.723 211.686C196.699 211.678 196.675 211.669 196.652 211.661C196.629 211.652 196.606 211.643 196.583 211.635C196.56 211.626 196.537 211.617 196.515 211.608C196.492 211.599 196.47 211.59 196.448 211.581C196.426 211.572 196.404 211.563 196.382 211.554C196.36 211.545 196.339 211.535 196.318 211.526C196.296 211.516 196.275 211.507 196.254 211.497C196.233 211.488 196.213 211.478 196.192 211.468C196.171 211.458 196.151 211.449 196.131 211.439C196.111 211.429 196.091 211.419 196.071 211.408C196.051 211.398 196.032 211.388 196.012 211.377C195.993 211.367 195.973 211.357 195.954 211.346C195.935 211.335 195.916 211.325 195.898 211.314C195.879 211.303 195.861 211.292 195.842 211.281C195.824 211.27 195.806 211.259 195.788 211.248C195.77 211.236 195.752 211.225 195.734 211.213C195.716 211.202 195.699 211.19 195.682 211.179C195.664 211.167 195.647 211.155 195.63 211.143C195.613 211.131 195.596 211.119 195.58 211.107C195.563 211.095 195.546 211.082 195.53 211.07C195.514 211.057 195.497 211.045 195.482 211.032C195.465 211.019 195.45 211.006 195.434 210.993C195.418 210.98 195.403 210.967 195.387 210.954C195.372 210.941 195.357 210.927 195.342 210.914C195.326 210.9 195.311 210.887 195.297 210.873C195.282 210.859 195.267 210.845 195.253 210.831C195.238 210.817 195.224 210.803 195.21 210.789C195.195 210.774 195.181 210.76 195.167 210.745C195.154 210.73 195.14 210.716 195.126 210.701C195.112 210.686 195.099 210.671 195.086 210.655C195.072 210.64 195.059 210.625 195.046 210.609C195.033 210.594 195.02 210.578 195.007 210.562C194.994 210.546 194.981 210.53 194.969 210.514C194.956 210.498 194.944 210.482 194.931 210.465C194.919 210.449 194.907 210.432 194.895 210.415C194.883 210.398 194.871 210.381 194.859 210.364C194.847 210.347 194.836 210.33 194.824 210.312C194.812 210.295 194.801 210.277 194.79 210.259C194.778 210.241 194.767 210.223 194.756 210.205C194.745 210.187 194.734 210.169 194.723 210.15C194.712 210.131 194.701 210.113 194.691 210.094C194.68 210.075 194.669 210.056 194.659 210.037C194.648 210.017 194.638 209.998 194.628 209.978C194.618 209.959 194.608 209.939 194.598 209.919C194.588 209.899 194.578 209.879 194.568 209.858C194.558 209.838 194.548 209.817 194.539 209.797C194.529 209.776 194.519 209.755 194.51 209.734C194.501 209.713 194.491 209.691 194.482 209.67C194.473 209.648 194.464 209.627 194.455 209.605C194.446 209.583 194.437 209.561 194.428 209.538C194.419 209.516 194.41 209.493 194.401 209.471C194.393 209.448 194.384 209.425 194.376 209.402C194.367 209.379 194.359 209.355 194.35 209.332C194.342 209.308 194.334 209.285 194.325 209.261C194.317 209.237 194.309 209.212 194.301 209.188C194.293 209.164 194.285 209.139 194.277 209.114C194.269 209.089 194.261 209.064 194.254 209.039C194.246 209.014 194.238 208.988 194.231 208.962C194.223 208.937 194.216 208.911 194.208 208.885C194.201 208.858 194.193 208.832 194.186 208.805C194.178 208.779 194.171 208.752 194.164 208.725C194.157 208.698 194.15 208.67 194.143 208.643C194.135 208.615 194.128 208.588 194.121 208.56C194.114 208.532 194.108 208.503 194.101 208.475C194.094 208.446 194.087 208.418 194.08 208.389C194.073 208.36 194.067 208.331 194.06 208.301C194.053 208.272 194.047 208.242 194.04 208.212C194.034 208.182 194.027 208.152 194.021 208.122C194.014 208.091 194.008 208.06 194.001 208.029C193.995 207.999 193.989 207.967 193.982 207.936C193.976 207.905 193.97 207.873 193.964 207.841C193.957 207.809 193.951 207.777 193.945 207.744C193.939 207.712 193.933 207.679 193.927 207.646C193.921 207.613 193.915 207.58 193.909 207.546C193.903 207.513 193.897 207.479 193.891 207.445C193.885 207.411 193.879 207.377 193.873 207.342C193.867 207.308 193.861 207.273 193.855 207.238C193.85 207.203 193.844 207.167 193.838 207.132C193.832 207.096 193.826 207.06 193.821 207.024C193.815 206.988 193.809 206.951 193.803 206.915C193.798 206.878 193.792 206.841 193.786 206.804C193.781 206.766 193.775 206.729 193.769 206.691C193.763 206.653 193.758 206.615 193.752 206.576C193.747 206.538 193.741 206.499 193.735 206.46C193.73 206.421 193.724 206.382 193.718 206.342C193.713 206.303 193.707 206.263 193.702 206.223C193.696 206.183 193.69 206.142 193.685 206.101C193.679 206.061 193.673 206.02 193.668 205.978C193.662 205.937 193.657 205.895 193.651 205.853C193.645 205.811 193.64 205.769 193.634 205.727C193.628 205.684 193.623 205.641 193.617 205.598C193.611 205.555 193.606 205.511 193.6 205.467C193.596 205.511 193.592 205.554 193.587 205.597C193.583 205.64 193.579 205.683 193.575 205.725C193.571 205.767 193.566 205.809 193.562 205.851C193.558 205.893 193.554 205.934 193.55 205.975C193.545 206.016 193.541 206.057 193.537 206.098C193.533 206.138 193.528 206.178 193.524 206.218C193.52 206.258 193.515 206.298 193.511 206.337C193.507 206.376 193.503 206.415 193.498 206.454C193.494 206.493 193.49 206.531 193.485 206.57C193.481 206.608 193.477 206.646 193.472 206.683C193.468 206.721 193.463 206.758 193.459 206.795C193.454 206.832 193.45 206.869 193.445 206.905C193.441 206.942 193.436 206.978 193.432 207.014C193.427 207.05 193.423 207.086 193.418 207.121C193.414 207.156 193.409 207.191 193.404 207.226C193.4 207.261 193.395 207.296 193.39 207.33C193.385 207.364 193.381 207.398 193.376 207.432C193.371 207.466 193.366 207.499 193.361 207.532C193.356 207.566 193.351 207.599 193.346 207.631C193.341 207.664 193.337 207.696 193.331 207.729C193.326 207.761 193.321 207.793 193.316 207.824C193.311 207.856 193.306 207.887 193.301 207.918C193.295 207.95 193.29 207.98 193.285 208.011C193.279 208.042 193.274 208.072 193.268 208.102C193.263 208.132 193.258 208.162 193.252 208.192C193.246 208.221 193.241 208.251 193.235 208.28C193.229 208.309 193.224 208.338 193.218 208.367C193.212 208.395 193.206 208.424 193.2 208.452C193.195 208.48 193.189 208.508 193.182 208.536C193.176 208.563 193.17 208.591 193.164 208.618C193.158 208.645 193.152 208.672 193.145 208.699C193.139 208.726 193.133 208.752 193.126 208.778C193.12 208.805 193.113 208.831 193.107 208.856C193.1 208.882 193.093 208.908 193.087 208.933C193.08 208.958 193.073 208.984 193.066 209.009C193.059 209.033 193.052 209.058 193.045 209.083C193.038 209.107 193.031 209.131 193.024 209.155C193.017 209.179 193.009 209.203 193.002 209.227C192.994 209.25 192.987 209.274 192.979 209.297C192.972 209.32 192.964 209.343 192.956 209.366C192.949 209.388 192.941 209.411 192.933 209.433C192.925 209.456 192.917 209.478 192.909 209.5C192.901 209.521 192.892 209.543 192.884 209.565C192.876 209.586 192.867 209.607 192.859 209.628C192.85 209.649 192.842 209.67 192.833 209.691C192.824 209.712 192.815 209.732 192.806 209.752C192.798 209.773 192.789 209.793 192.779 209.813C192.77 209.833 192.761 209.852 192.752 209.872C192.742 209.891 192.733 209.911 192.723 209.93C192.714 209.949 192.704 209.968 192.694 209.986C192.684 210.005 192.674 210.024 192.664 210.042C192.654 210.06 192.644 210.079 192.634 210.097C192.624 210.115 192.613 210.132 192.603 210.15C192.592 210.168 192.582 210.185 192.571 210.202C192.56 210.22 192.549 210.237 192.538 210.254C192.527 210.271 192.516 210.287 192.505 210.304C192.494 210.32 192.482 210.337 192.471 210.353C192.459 210.369 192.448 210.385 192.436 210.401C192.424 210.417 192.412 210.433 192.4 210.448C192.388 210.464 192.376 210.479 192.364 210.495C192.351 210.51 192.339 210.525 192.326 210.54C192.314 210.555 192.301 210.569 192.288 210.584C192.275 210.598 192.262 210.613 192.249 210.627C192.236 210.641 192.223 210.655 192.209 210.669C192.196 210.683 192.182 210.697 192.168 210.711C192.155 210.724 192.141 210.738 192.127 210.751C192.113 210.765 192.098 210.778 192.084 210.791C192.07 210.804 192.055 210.817 192.041 210.83C192.026 210.842 192.011 210.855 191.996 210.867C191.981 210.88 191.966 210.892 191.951 210.904C191.935 210.917 191.92 210.929 191.904 210.941C191.889 210.952 191.873 210.964 191.857 210.976C191.841 210.988 191.825 210.999 191.809 211.01C191.792 211.022 191.776 211.033 191.759 211.044C191.743 211.055 191.726 211.066 191.709 211.077C191.692 211.088 191.675 211.099 191.658 211.109C191.64 211.12 191.623 211.13 191.605 211.141C191.588 211.151 191.57 211.161 191.552 211.171C191.534 211.182 191.516 211.191 191.497 211.201C191.479 211.211 191.46 211.221 191.442 211.231C191.423 211.24 191.404 211.25 191.385 211.259C191.366 211.269 191.347 211.278 191.327 211.287C191.308 211.296 191.288 211.305 191.268 211.314C191.248 211.323 191.228 211.332 191.208 211.341C191.188 211.35 191.167 211.358 191.147 211.367C191.126 211.375 191.105 211.384 191.084 211.392C191.063 211.4 191.042 211.409 191.021 211.417C190.999 211.425 190.978 211.433 190.956 211.441C190.934 211.449 190.912 211.457 190.89 211.464C190.867 211.472 190.845 211.48 190.822 211.487C190.8 211.495 190.777 211.502 190.754 211.51C190.731 211.517 190.708 211.525 190.684 211.532C190.661 211.539 190.637 211.546 190.613 211.553C190.589 211.56 190.565 211.567 190.541 211.574C190.516 211.581 190.492 211.588 190.467 211.594C190.442 211.601 190.417 211.608 190.392 211.614C190.367 211.621 190.342 211.627 190.316 211.634C190.29 211.64 190.264 211.646 190.238 211.653C190.212 211.659 190.186 211.665 190.159 211.671C190.133 211.677 190.106 211.683 190.079 211.689C190.052 211.695 190.025 211.701 189.997 211.707C189.97 211.713 189.942 211.719 189.914 211.725C189.887 211.73 189.858 211.736 189.83 211.742C189.802 211.747 189.773 211.753 189.744 211.758C189.715 211.764 189.686 211.769 189.657 211.774C189.627 211.78 189.598 211.785 189.568 211.79C189.538 211.796 189.508 211.801 189.478 211.806C189.447 211.811 189.417 211.816 189.386 211.821C189.355 211.826 189.324 211.831 189.293 211.836C189.261 211.841 189.23 211.846 189.198 211.851C189.166 211.856 189.134 211.861 189.102 211.866C189.069 211.87 189.037 211.875 189.004 211.88C188.971 211.885 188.938 211.889 188.905 211.894C188.871 211.899 188.838 211.903 188.804 211.908C188.77 211.912 188.736 211.917 188.701 211.921C188.667 211.926 188.632 211.93 188.597 211.935C188.562 211.939 188.527 211.944 188.491 211.948C188.456 211.952 188.42 211.957 188.384 211.961C188.348 211.965 188.312 211.97 188.275 211.974C188.239 211.978 188.202 211.983 188.165 211.987C188.128 211.991 188.09 211.995 188.052 212C188.015 212.004 187.977 212.008 187.939 212.012C187.9 212.016 187.862 212.021 187.823 212.025C187.784 212.029 187.745 212.033 187.706 212.037C187.666 212.041 187.627 212.045 187.587 212.049C187.547 212.054 187.507 212.058 187.466 212.062C187.425 212.066 187.385 212.07 187.344 212.074C187.302 212.078 187.261 212.082 187.219 212.086C187.261 212.093 187.303 212.099 187.344 212.105C187.385 212.111 187.426 212.118 187.467 212.124C187.508 212.13 187.548 212.136 187.588 212.142C187.628 212.148 187.668 212.155 187.708 212.161C187.747 212.167 187.787 212.173 187.826 212.179C187.865 212.185 187.903 212.191 187.942 212.198C187.98 212.204 188.018 212.21 188.056 212.216C188.094 212.222 188.132 212.228 188.169 212.234C188.206 212.241 188.243 212.247 188.28 212.253C188.317 212.259 188.353 212.265 188.389 212.271C188.426 212.278 188.462 212.284 188.497 212.29C188.533 212.296 188.568 212.302 188.603 212.309C188.639 212.315 188.673 212.321 188.708 212.327C188.743 212.334 188.777 212.34 188.811 212.346C188.845 212.353 188.879 212.359 188.912 212.365C188.946 212.372 188.979 212.378 189.012 212.385C189.045 212.391 189.078 212.397 189.111 212.404C189.143 212.41 189.176 212.417 189.208 212.423C189.24 212.43 189.271 212.436 189.303 212.443C189.334 212.449 189.366 212.456 189.397 212.463C189.428 212.469 189.458 212.476 189.489 212.483C189.52 212.489 189.55 212.496 189.58 212.503C189.61 212.51 189.64 212.516 189.669 212.523C189.699 212.53 189.728 212.537 189.757 212.544C189.786 212.551 189.815 212.558 189.844 212.565C189.872 212.572 189.901 212.579 189.929 212.586C189.957 212.594 189.985 212.601 190.013 212.608C190.04 212.615 190.068 212.623 190.095 212.63C190.122 212.637 190.149 212.645 190.176 212.652C190.203 212.66 190.229 212.667 190.256 212.675C190.282 212.682 190.308 212.69 190.334 212.698C190.36 212.706 190.385 212.713 190.411 212.721C190.436 212.729 190.462 212.737 190.487 212.745C190.512 212.753 190.536 212.761 190.561 212.769C190.585 212.777 190.61 212.785 190.634 212.794C190.658 212.802 190.682 212.81 190.706 212.819C190.73 212.827 190.753 212.836 190.776 212.844C190.8 212.853 190.823 212.861 190.846 212.87C190.869 212.879 190.891 212.888 190.914 212.897C190.936 212.906 190.959 212.914 190.981 212.924C191.003 212.933 191.025 212.942 191.046 212.951C191.068 212.96 191.09 212.97 191.111 212.979C191.132 212.988 191.153 212.998 191.174 213.008C191.195 213.017 191.216 213.027 191.237 213.037C191.257 213.046 191.277 213.056 191.298 213.066C191.318 213.076 191.338 213.086 191.358 213.097C191.377 213.107 191.397 213.117 191.416 213.127C191.436 213.138 191.455 213.148 191.474 213.159C191.493 213.17 191.512 213.18 191.531 213.191C191.549 213.202 191.568 213.213 191.586 213.224C191.605 213.235 191.623 213.246 191.641 213.257C191.659 213.269 191.677 213.28 191.695 213.291C191.712 213.303 191.73 213.315 191.747 213.326C191.764 213.338 191.781 213.35 191.799 213.362C191.815 213.374 191.832 213.386 191.849 213.398C191.866 213.41 191.882 213.423 191.898 213.435C191.915 213.448 191.931 213.46 191.947 213.473C191.963 213.486 191.979 213.498 191.995 213.511C192.01 213.524 192.026 213.538 192.041 213.551C192.057 213.564 192.072 213.577 192.087 213.591C192.102 213.604 192.117 213.618 192.132 213.632C192.147 213.646 192.161 213.66 192.176 213.674C192.19 213.688 192.205 213.702 192.219 213.716C192.233 213.731 192.247 213.745 192.261 213.76C192.275 213.775 192.289 213.789 192.303 213.804C192.316 213.819 192.33 213.834 192.343 213.85C192.356 213.865 192.37 213.88 192.383 213.896C192.396 213.911 192.409 213.927 192.422 213.943C192.435 213.959 192.447 213.975 192.46 213.991C192.472 214.007 192.485 214.023 192.497 214.04C192.509 214.056 192.522 214.073 192.534 214.09C192.546 214.107 192.558 214.124 192.57 214.141C192.581 214.158 192.593 214.175 192.605 214.193C192.616 214.21 192.628 214.228 192.639 214.246C192.65 214.264 192.662 214.282 192.673 214.3C192.684 214.318 192.695 214.336 192.706 214.355C192.717 214.373 192.727 214.392 192.738 214.411C192.749 214.43 192.759 214.449 192.77 214.468C192.78 214.488 192.79 214.507 192.801 214.527C192.811 214.546 192.821 214.566 192.831 214.586C192.841 214.606 192.851 214.626 192.861 214.647C192.871 214.667 192.88 214.687 192.89 214.708C192.9 214.729 192.909 214.75 192.918 214.771C192.928 214.792 192.937 214.813 192.946 214.835C192.956 214.857 192.965 214.878 192.974 214.9C192.983 214.922 192.992 214.944 193.001 214.967C193.01 214.989 193.018 215.011 193.027 215.034C193.036 215.057 193.044 215.08 193.053 215.103C193.062 215.126 193.07 215.149 193.078 215.173C193.087 215.197 193.095 215.22 193.103 215.244C193.111 215.268 193.119 215.293 193.128 215.317C193.136 215.341 193.144 215.366 193.151 215.391C193.159 215.416 193.167 215.441 193.175 215.466C193.183 215.491 193.19 215.517 193.198 215.543C193.206 215.568 193.213 215.594 193.221 215.62C193.228 215.647 193.235 215.673 193.243 215.7C193.25 215.726 193.257 215.753 193.265 215.78C193.272 215.807 193.279 215.834 193.286 215.862C193.293 215.89 193.3 215.917 193.307 215.945C193.314 215.973 193.321 216.002 193.328 216.03C193.335 216.059 193.342 216.087 193.348 216.116C193.355 216.145 193.362 216.174 193.369 216.204C193.375 216.233 193.382 216.263 193.388 216.293C193.395 216.323 193.401 216.353 193.408 216.383C193.414 216.414 193.421 216.445 193.427 216.475C193.433 216.506 193.44 216.538 193.446 216.569C193.452 216.6 193.459 216.632 193.465 216.664C193.471 216.696 193.477 216.728 193.483 216.761C193.49 216.793 193.496 216.826 193.502 216.859C193.508 216.892 193.514 216.925 193.52 216.958C193.526 216.992 193.532 217.026 193.538 217.06C193.544 217.094 193.55 217.128 193.556 217.163C193.561 217.197 193.567 217.232 193.573 217.267C193.579 217.302 193.585 217.338 193.591 217.373C193.596 217.409 193.602 217.445 193.608 217.481C193.614 217.517 193.62 217.553 193.625 217.59C193.631 217.627 193.637 217.664 193.642 217.701C193.648 217.739 193.654 217.776 193.659 217.814C193.665 217.852 193.671 217.89 193.676 217.929C193.682 217.967 193.688 218.006 193.693 218.045C193.699 218.084 193.705 218.123 193.71 218.163C193.716 218.202 193.721 218.242 193.727 218.282C193.733 218.322 193.738 218.363 193.744 218.404C193.749 218.444 193.755 218.485 193.761 218.527C193.766 218.568 193.772 218.61 193.778 218.652C193.783 218.694 193.789 218.736 193.794 218.778C193.8 218.821 193.806 218.864 193.811 218.907C193.817 218.95 193.823 218.994 193.828 219.037C193.833 218.994 193.837 218.951 193.841 218.908C193.845 218.865 193.849 218.822 193.854 218.78C193.858 218.738 193.862 218.696 193.866 218.654C193.871 218.612 193.875 218.571 193.879 218.53C193.883 218.489 193.887 218.448 193.892 218.407C193.896 218.367 193.9 218.327 193.904 218.287C193.909 218.247 193.913 218.207 193.917 218.168C193.922 218.128 193.926 218.089 193.93 218.051C193.935 218.012 193.939 217.973 193.943 217.935C193.948 217.897 193.952 217.859 193.956 217.822C193.961 217.784 193.965 217.747 193.97 217.71C193.974 217.673 193.979 217.636 193.983 217.599C193.988 217.563 193.992 217.527 193.997 217.491C194.001 217.455 194.006 217.419 194.01 217.384C194.015 217.348 194.02 217.313 194.024 217.279C194.029 217.244 194.034 217.209 194.038 217.175C194.043 217.141 194.048 217.107 194.053 217.073C194.058 217.039 194.062 217.006 194.067 216.972C194.072 216.939 194.077 216.906 194.082 216.874C194.087 216.841 194.092 216.808 194.097 216.776C194.102 216.744 194.107 216.712 194.112 216.681C194.118 216.649 194.123 216.618 194.128 216.586C194.133 216.555 194.139 216.524 194.144 216.494C194.149 216.463 194.155 216.433 194.16 216.403C194.165 216.373 194.171 216.343 194.177 216.313C194.182 216.283 194.188 216.254 194.193 216.225C194.199 216.196 194.205 216.167 194.211 216.138C194.216 216.11 194.222 216.081 194.228 216.053C194.234 216.025 194.24 215.997 194.246 215.969C194.252 215.942 194.258 215.914 194.264 215.887C194.271 215.86 194.277 215.833 194.283 215.806C194.289 215.779 194.296 215.753 194.302 215.727C194.309 215.7 194.315 215.674 194.322 215.648C194.328 215.623 194.335 215.597 194.342 215.572C194.349 215.546 194.355 215.521 194.362 215.496C194.369 215.471 194.376 215.447 194.383 215.422C194.39 215.398 194.398 215.374 194.405 215.35C194.412 215.326 194.419 215.302 194.427 215.278C194.434 215.255 194.442 215.231 194.449 215.208C194.457 215.185 194.464 215.162 194.472 215.139C194.48 215.117 194.488 215.094 194.496 215.072C194.504 215.049 194.512 215.027 194.52 215.005C194.528 214.983 194.536 214.962 194.544 214.94C194.553 214.919 194.561 214.898 194.57 214.876C194.578 214.855 194.587 214.835 194.596 214.814C194.604 214.793 194.613 214.773 194.622 214.752C194.631 214.732 194.64 214.712 194.649 214.692C194.658 214.672 194.667 214.653 194.677 214.633C194.686 214.614 194.696 214.594 194.705 214.575C194.715 214.556 194.725 214.537 194.734 214.519C194.744 214.5 194.754 214.481 194.764 214.463C194.774 214.444 194.784 214.426 194.795 214.408C194.805 214.39 194.815 214.373 194.826 214.355C194.836 214.337 194.847 214.32 194.858 214.303C194.868 214.285 194.879 214.268 194.89 214.251C194.901 214.234 194.912 214.218 194.924 214.201C194.935 214.184 194.946 214.168 194.958 214.152C194.969 214.136 194.981 214.12 194.993 214.104C195.004 214.088 195.016 214.072 195.028 214.057C195.04 214.041 195.053 214.026 195.065 214.01C195.077 213.995 195.09 213.98 195.102 213.965C195.115 213.95 195.128 213.936 195.14 213.921C195.153 213.906 195.166 213.892 195.179 213.878C195.193 213.864 195.206 213.849 195.219 213.835C195.233 213.822 195.246 213.808 195.26 213.794C195.274 213.78 195.288 213.767 195.302 213.754C195.316 213.74 195.33 213.727 195.344 213.714C195.359 213.701 195.373 213.688 195.388 213.675C195.403 213.663 195.417 213.65 195.432 213.637C195.447 213.625 195.462 213.613 195.478 213.601C195.493 213.588 195.508 213.576 195.524 213.564C195.54 213.552 195.555 213.541 195.571 213.529C195.587 213.517 195.603 213.506 195.62 213.495C195.636 213.483 195.652 213.472 195.669 213.461C195.686 213.45 195.702 213.439 195.719 213.428C195.736 213.417 195.753 213.406 195.771 213.396C195.788 213.385 195.806 213.375 195.823 213.364C195.841 213.354 195.859 213.344 195.877 213.334C195.895 213.323 195.913 213.313 195.931 213.304C195.95 213.294 195.968 213.284 195.987 213.274C196.006 213.265 196.024 213.255 196.044 213.246C196.063 213.236 196.082 213.227 196.101 213.218C196.121 213.209 196.141 213.2 196.16 213.191C196.18 213.182 196.2 213.173 196.221 213.164C196.241 213.155 196.261 213.147 196.282 213.138C196.302 213.13 196.323 213.121 196.344 213.113C196.365 213.104 196.387 213.096 196.408 213.088C196.429 213.08 196.451 213.072 196.473 213.064C196.495 213.056 196.517 213.048 196.539 213.04C196.561 213.033 196.583 213.025 196.606 213.017C196.629 213.01 196.652 213.002 196.675 212.995C196.698 212.988 196.721 212.98 196.744 212.973C196.768 212.966 196.792 212.959 196.815 212.952C196.839 212.945 196.863 212.938 196.888 212.931C196.912 212.924 196.937 212.917 196.961 212.91C196.986 212.904 197.011 212.897 197.036 212.891C197.061 212.884 197.087 212.878 197.112 212.871C197.138 212.865 197.164 212.858 197.19 212.852C197.216 212.846 197.242 212.84 197.269 212.834C197.296 212.827 197.322 212.821 197.349 212.815C197.376 212.809 197.404 212.803 197.431 212.798C197.459 212.792 197.486 212.786 197.514 212.78C197.542 212.775 197.57 212.769 197.599 212.763C197.627 212.758 197.656 212.752 197.684 212.747C197.713 212.741 197.742 212.736 197.772 212.73C197.801 212.725 197.831 212.72 197.861 212.714C197.891 212.709 197.921 212.704 197.951 212.699C197.981 212.694 198.012 212.689 198.043 212.684C198.074 212.678 198.105 212.673 198.136 212.668C198.167 212.664 198.199 212.659 198.231 212.654C198.262 212.649 198.295 212.644 198.327 212.639C198.359 212.634 198.392 212.63 198.425 212.625C198.458 212.62 198.491 212.616 198.524 212.611C198.557 212.606 198.591 212.602 198.625 212.597C198.659 212.593 198.693 212.588 198.727 212.584C198.762 212.579 198.796 212.575 198.831 212.57C198.866 212.566 198.902 212.561 198.937 212.557C198.973 212.553 199.008 212.548 199.044 212.544C199.08 212.539 199.117 212.535 199.153 212.531C199.19 212.527 199.227 212.522 199.264 212.518C199.301 212.514 199.338 212.51 199.376 212.505C199.414 212.501 199.452 212.497 199.49 212.493C199.528 212.489 199.567 212.484 199.606 212.48C199.644 212.476 199.683 212.472 199.723 212.468C199.762 212.464 199.802 212.46 199.842 212.455C199.882 212.451 199.922 212.447 199.963 212.443C200.003 212.439 200.044 212.435 200.085 212.431C200.126 212.427 200.168 212.422 200.209 212.418Z" fill="#ee8843" fill-rule="nonzero" opacity="1" stroke="none"/>
<path d="M102.807 177.135C101.718 177.109 100.571 177.288 99.3693 177.697C95.0803 179.155 90.2696 184.355 93.0568 191.072L93.1193 191.197C94.4587 193.915 96.83 195.643 99.6193 196.728C100.773 197.177 102.057 197.403 103.151 197.978C103.324 198.07 103.527 198.188 103.744 198.291C104.204 198.441 105.227 199.333 105.526 199.697C107.23 201.773 106.654 204.399 105.526 206.791C105.299 207.271 104.219 208.685 103.057 209.291C100.925 210.358 97.6294 209.675 96.1193 207.885C95.7145 207.405 95.2149 206.501 95.213 205.697C95.1892 204.588 95.6696 203.298 96.249 202.505C96.4225 202.25 96.4893 202 96.4943 201.639C96.498 201.363 96.1668 201.075 96.1668 201.075C96.1668 201.075 95.9328 200.77 95.1073 200.773C94.1617 200.776 93.19 201.674 92.5568 202.416C90.6688 204.626 91.327 208.318 93.1193 210.353L93.1818 210.385C95.8281 213.444 101.75 213.96 104.463 212.791C108.794 210.924 110.731 206.456 110.807 202.666C110.83 201.496 110.687 200.387 110.369 199.447C109.425 196.615 107.68 194.939 105.526 193.728C104.01 192.877 101.731 191.915 100.557 191.478C96.8159 190.035 95.3173 185.591 97.963 182.385C97.9491 182.388 98.5019 181.826 98.6193 181.728C99.1261 181.308 99.7621 181.002 100.401 180.853C102.217 180.429 105.037 181.011 105.526 183.103L105.432 183.103C105.679 183.508 105.071 184.334 105.244 184.853C105.527 185.703 106.423 185.832 107.151 185.728C108.7 185.507 110.515 184.619 110.026 182.822L110.026 182.791C108.708 179.169 106.074 177.21 102.807 177.135Z" fill="#ee8843" fill-rule="nonzero" opacity="1" stroke="#ee8843" stroke-linecap="round" stroke-linejoin="round" stroke-width="0.968217"/>
<path d="M133.206 197.446L127.127 201.719L127.129 201.718C127.258 200.477 127.393 198.123 128.315 196.535C128.948 195.444 129.811 194.842 130.639 194.662C131.317 194.514 131.965 194.58 132.496 195.478C132.777 195.954 133.02 196.604 133.206 197.458C133.206 197.458 137.366 198.16 137.366 198.16C137.366 196.211 136.723 194.296 135.87 193.244C132.423 188.989 127.222 191.087 124.399 195.95C122.142 199.839 122.88 205.047 123.665 207.825L123.645 207.751C123.877 208.659 124.59 210.013 125.661 211.125C126.285 211.772 127.06 212.376 127.872 212.761C129.746 213.648 132.135 213.499 134.065 212.396C135.083 211.814 136.662 210.761 137.393 209.465C137.865 208.626 138.022 208.175 138.271 207.387C138.507 206.64 138.326 205.293 137.933 204.584C137.757 204.266 137.399 204.145 137.225 204.358L136.833 204.99C136.509 205.496 136.598 205.365 136.279 205.882C135.682 206.852 133.879 208.896 131.977 209.289C130.243 209.647 128.241 209.022 127.504 207.512C127.335 207.165 126.989 206.203 127.127 205.454L127.127 205.447L137.366 198.16" fill="#ee8843" fill-rule="nonzero" opacity="1" stroke="#ee8843" stroke-linecap="round" stroke-linejoin="round" stroke-width="0.901868"/>
<path d="M119.389 176.511C116.006 177.765 116.011 177.754 112.628 179.008C113.94 179.562 114.835 179.589 114.882 181.34C114.958 184.212 114.951 187.072 114.954 189.945L109.212 189.945L109.212 193.098L114.991 193.098C114.969 198.563 114.882 208.048 114.882 213.364C117.137 212.731 117.133 212.717 119.389 212.083C119.389 203.756 119.389 198.442 119.389 193.098L124.404 193.098L124.404 189.945L119.389 189.945C119.389 186.047 119.389 182.404 119.389 176.511Z" fill="#ee8843" fill-rule="nonzero" opacity="1" stroke="#ee8843" stroke-linecap="butt" stroke-linejoin="round" stroke-width="0.513281"/>
<path d="M145.158 176.524C141.767 177.758 141.767 177.758 138.377 178.992C139.882 179.748 140.635 179.607 140.658 181.336C140.8 192.012 140.658 202.69 140.658 213.367C142.908 212.727 142.908 212.727 145.158 212.086C145.158 194.305 145.158 194.305 145.158 176.524Z" fill="#ee8843" fill-rule="nonzero" opacity="1" stroke="#ee8843" stroke-linecap="butt" stroke-linejoin="round" stroke-width="0.513281"/>
<path d="M152.814 176.493C149.424 177.728 149.424 177.728 146.033 178.962C147.539 179.718 148.291 179.576 148.314 181.306C148.338 183.05 148.353 184.795 148.363 186.539C148.388 190.862 148.377 195.186 148.359 199.509C148.341 204.118 148.314 208.728 148.314 213.337C150.564 212.696 150.564 212.696 152.814 212.056C152.814 194.275 152.814 194.275 152.814 176.493Z" fill="#ee8843" fill-rule="nonzero" opacity="1" stroke="#ee8843" stroke-linecap="butt" stroke-linejoin="round" stroke-width="0.513281"/>
<path d="M198.968 166.952L194.02 171.594L189.922 175.229C189.922 175.229 189.978 175.405 190.347 177.372C190.947 180.573 192.059 186.241 192.673 190.287C193.365 194.837 194.02 199.131 194.02 203.733C196.27 203.093 193.414 203.902 195.664 203.262C195.664 185.51 198.968 166.952 198.968 166.952Z" fill="#5a3878" fill-rule="nonzero" opacity="1" stroke="#5a3878" stroke-linecap="butt" stroke-linejoin="round" stroke-width="0.513281"/>
<path d="M198.968 166.952L192.975 171.843L188.876 175.484C188.876 175.484 188.933 175.66 189.302 177.631C189.902 180.836 191.013 186.514 191.628 190.566C192.32 195.124 192.975 199.424 192.975 204.034C195.225 203.393 192.369 204.203 194.619 203.562C194.619 185.781 198.968 166.952 198.968 166.952Z" fill="#ee8843" fill-rule="nonzero" opacity="1" stroke="#ee8843" stroke-linecap="butt" stroke-linejoin="round" stroke-width="0.513281"/>
<path d="M162.733 190.833C162.047 190.933 160.759 191.24 159.17 192.208C159.048 192.282 156.233 194.458 156.233 194.458C156.108 194.659 156.06 195.366 156.108 196.146C156.177 197.297 156.426 198.518 156.764 198.333C156.795 198.31 156.826 198.294 156.858 198.271C158.944 196.705 163.203 193.071 165.189 196.561C165.09 196.653 165.267 196.425 165.17 196.521C165.181 197.212 165.195 197.923 165.201 198.614C165.202 198.729 165.2 198.843 165.201 198.958C164.714 197.986 163.389 197.53 162.389 197.552C159.872 197.607 157.984 199.181 156.764 201.302C155.82 202.942 155.431 204.941 155.545 206.833C155.742 210.089 158.411 214.204 162.139 213.177C163.651 212.76 164.479 211.984 165.17 211.177C165.168 211.895 165.17 212.613 165.17 213.333C167.205 212.981 167.198 212.998 169.233 212.646C169.233 203.799 169.233 202.297 169.233 194.958C169.225 194.937 168.842 195.109 168.835 195.087L169.201 195.052C169.241 194.933 169.082 194.732 169.076 194.552C169.062 194.511 169.238 194.893 169.224 194.853C169.234 194.333 169.076 193.374 168.733 193.021C167.419 191.335 165.108 190.488 162.733 190.833ZM162.764 199.896C163.341 199.821 163.849 199.994 164.295 200.146C164.466 200.204 164.832 200.434 165.201 200.677C165.206 202.364 165.213 204.05 165.201 205.739C165.197 206.334 165.205 206.927 165.201 207.521C164.15 209.258 162.017 210.188 160.42 208.239C158.921 206.41 159.402 202.094 161.233 200.583C161.967 199.977 162.33 199.951 162.764 199.896Z" fill="#ee8843" fill-rule="nonzero" opacity="1" stroke="#ee8843" stroke-linecap="butt" stroke-linejoin="round" stroke-width="0.513281"/>
<path d="M178.011 190.412C174.621 191.18 174.621 191.176 171.23 191.944C172.735 192.414 173.488 192.337 173.511 193.412C173.534 194.497 173.564 195.577 173.574 196.662C173.598 199.351 173.591 202.036 173.574 204.725C173.555 207.592 173.511 210.483 173.511 213.35C175.761 212.951 175.761 212.936 178.011 212.537C178.011 206.352 178.011 203.299 178.011 200.162C178.099 198.141 179.725 196.086 181.292 195.537C182.162 195.233 183.157 195.205 183.792 195.506C185.265 196.205 184.022 197.47 185.136 198.412C186.999 199.987 189.474 197.784 189.292 195.912C188.989 192.786 185.442 190.62 182.105 190.975C180.806 191.113 179.268 191.782 178.011 192.85C178.011 191.87 178.011 191.631 178.011 190.412Z" fill="#ee8843" fill-rule="nonzero" opacity="1" stroke="#ee8843" stroke-linecap="round" stroke-linejoin="round" stroke-width="0.513281"/>
</g>
</g>
</svg>
