<?xml version="1.0" encoding="UTF-8" standalone="no"?>
<!DOCTYPE svg PUBLIC "-//W3C//DTD SVG 1.1//EN" "http://www.w3.org/Graphics/SVG/1.1/DTD/svg11.dtd">
<!-- Created with Vectornator (http://vectornator.io/) -->
<svg height="100%" stroke-miterlimit="10" style="fill-rule:nonzero;clip-rule:evenodd;stroke-linecap:round;stroke-linejoin:round;" version="1.1" viewBox="63.2669 103.665 293.046 90.3451" width="100%" xml:space="preserve" xmlns="http://www.w3.org/2000/svg" xmlns:xlink="http://www.w3.org/1999/xlink">
<defs/>
<g id="Layer-2">
<g opacity="1">
<g opacity="1">
<path d="M98.0287 127.868C85.0109 127.868 74.4631 140.459 74.4631 155.948C74.4631 171.437 85.0109 183.974 98.0287 183.974C111.046 183.974 121.594 171.437 121.594 155.948C121.594 140.459 111.046 127.868 98.0287 127.868ZM97.8015 133.85C106.185 133.85 113.02 143.702 113.02 155.84C113.02 167.979 106.185 177.83 97.8015 177.83C89.4181 177.83 82.6401 167.979 82.6401 155.84C82.6401 143.702 89.4181 133.85 97.8015 133.85Z" fill="#fadade" fill-rule="nonzero" opacity="1" stroke="#fadade" stroke-linecap="butt" stroke-linejoin="round" stroke-width="0.513281"/>
<path d="M132.316 180.932L132.316 153.286L132.319 153.182C134.017 150.398 140.673 145.376 142.303 150.945L142.303 150.807L142.303 183.969L142.303 183.969L149.987 181.489L149.987 181.489L149.987 150.807L149.987 150.807C149.984 146.718 145.936 141.363 140.829 141.341C138.033 141.329 135.451 142.601 134.239 143.728C133.777 144.157 132.95 144.802 132.319 145.884L132.319 145.884L132.319 120.409L132.319 120.409L119.64 125.351L119.64 125.307C122.038 125.043 123.965 127.904 123.943 129.847L123.943 129.847L123.943 183.969L124.232 183.969L132.319 181.489" fill="#fadade" fill-rule="nonzero" opacity="1" stroke="#fadade" stroke-linecap="round" stroke-linejoin="round" stroke-width="0.513281"/>
<path d="M90.2308 121.439C90.2508 121.483 90.2661 121.531 90.2866 121.573C90.3071 121.616 90.3323 121.654 90.3537 121.696C90.3749 121.737 90.3867 121.777 90.4088 121.818C90.4308 121.858 90.4531 121.901 90.4759 121.94C90.4986 121.98 90.531 122.013 90.5544 122.052C90.5779 122.09 90.5972 122.137 90.6215 122.174C90.6458 122.212 90.675 122.249 90.7 122.285C90.7252 122.322 90.752 122.349 90.7778 122.385C90.8037 122.42 90.8295 122.461 90.8563 122.496C90.883 122.531 90.9068 122.561 90.9341 122.595C90.9617 122.629 90.9836 122.662 91.0119 122.695C91.0403 122.727 91.0727 122.762 91.1018 122.795C91.1309 122.827 91.1618 122.863 91.1917 122.895C91.2217 122.926 91.25 122.952 91.2809 122.983C91.3117 123.013 91.3503 123.042 91.3821 123.071C91.4138 123.1 91.4386 123.131 91.4713 123.159C91.504 123.188 91.5391 123.22 91.5726 123.248C91.6062 123.275 91.6389 123.298 91.6731 123.324C91.7077 123.351 91.7384 123.375 91.7737 123.401C91.809 123.427 91.8499 123.453 91.8863 123.479C91.9226 123.504 91.9618 123.531 91.9989 123.556C92.0361 123.58 92.0734 123.609 92.1115 123.633C92.1496 123.657 92.1843 123.676 92.2235 123.699C92.2627 123.721 92.3073 123.742 92.3474 123.765C92.3874 123.787 92.4303 123.809 92.4714 123.831C92.5124 123.852 92.5533 123.876 92.5954 123.897C92.6375 123.917 92.6758 123.931 92.7187 123.951C92.7617 123.971 92.8106 123.998 92.8548 124.017C92.8988 124.037 92.933 124.053 92.9781 124.071C93.0231 124.09 93.0795 124.109 93.1255 124.127C93.1717 124.145 93.2138 124.164 93.2608 124.181C93.308 124.198 93.3595 124.209 93.4076 124.225C93.4557 124.241 93.505 124.253 93.5543 124.268C93.6036 124.284 93.6514 124.309 93.7017 124.324C93.7521 124.339 93.7971 124.353 93.8485 124.367C93.8999 124.381 93.9547 124.397 94.0072 124.411C94.0598 124.425 94.1117 124.43 94.1654 124.443C94.219 124.456 94.2694 124.475 94.3241 124.487C94.3788 124.5 94.4384 124.508 94.4943 124.52C94.5502 124.532 94.6075 124.541 94.6645 124.553C94.7214 124.564 94.7764 124.575 94.8346 124.585C94.8927 124.596 94.9576 124.608 95.0168 124.619C95.0762 124.629 95.1265 124.642 95.187 124.651C95.2474 124.661 95.3189 124.665 95.3806 124.673C95.4423 124.682 95.5 124.698 95.5628 124.707C95.6257 124.715 95.6924 124.721 95.7564 124.729C95.8205 124.737 95.8847 124.744 95.95 124.751C96.0151 124.758 96.0771 124.766 96.1436 124.773C96.2099 124.78 96.2815 124.789 96.3492 124.796C96.417 124.802 96.4853 124.8 96.5542 124.806C96.6232 124.812 96.6895 124.824 96.7598 124.829C96.83 124.834 96.8933 124.835 96.9648 124.84C97.0362 124.845 97.109 124.847 97.1818 124.851C97.2545 124.856 97.3369 124.859 97.4109 124.863C97.4849 124.867 97.5527 124.871 97.6279 124.875C97.7033 124.878 97.7804 124.883 97.857 124.887C97.9336 124.89 98.0083 124.896 98.0861 124.899C98.1641 124.901 98.248 124.909 98.3272 124.911C98.4065 124.913 98.4869 124.91 98.5677 124.912C98.6482 124.914 98.7263 124.911 98.8081 124.913C98.8901 124.914 98.978 124.925 99.0613 124.926C99.1448 124.927 99.229 124.926 99.3138 124.927C99.3985 124.928 99.4802 124.928 99.5663 124.928C99.6523 124.929 99.7432 124.93 99.8309 124.93C99.9183 124.93 100.006 124.921 100.095 124.92C100.184 124.92 100.269 124.923 100.359 124.922C100.45 124.922 100.544 124.926 100.636 124.925C100.728 124.924 100.819 124.917 100.912 124.916C101.005 124.914 101.094 124.92 101.188 124.918C101.283 124.917 101.38 124.911 101.476 124.909C101.572 124.908 101.667 124.903 101.764 124.901C101.862 124.899 101.965 124.895 102.064 124.893C102.164 124.89 102.264 124.887 102.365 124.884C102.465 124.882 102.563 124.879 102.665 124.876C102.767 124.874 102.873 124.872 102.977 124.869C103.08 124.866 103.184 124.865 103.289 124.861C103.394 124.858 103.494 124.858 103.601 124.854C103.707 124.851 103.816 124.839 103.924 124.835C103.813 124.865 103.703 124.896 103.593 124.925C103.483 124.954 103.37 124.986 103.262 125.015C103.153 125.044 103.049 125.076 102.942 125.105C102.835 125.134 102.728 125.155 102.622 125.184C102.517 125.212 102.407 125.246 102.303 125.274C102.199 125.303 102.097 125.325 101.995 125.353C101.892 125.381 101.789 125.416 101.687 125.444C101.586 125.472 101.491 125.496 101.391 125.524C101.292 125.552 101.195 125.588 101.096 125.616C100.998 125.644 100.897 125.668 100.8 125.695C100.703 125.723 100.612 125.748 100.516 125.776C100.421 125.803 100.315 125.828 100.22 125.856C100.126 125.883 100.041 125.909 99.9486 125.937C99.8561 125.964 99.7562 125.99 99.6647 126.017C99.5733 126.044 99.483 126.071 99.3929 126.098C99.3028 126.125 99.2226 126.164 99.1338 126.192C99.0451 126.219 98.9487 126.234 98.8613 126.261C98.7739 126.288 98.6876 126.315 98.6015 126.342C98.5154 126.369 98.4386 126.397 98.3538 126.424C98.2693 126.451 98.1776 126.479 98.0941 126.506C98.0106 126.533 97.9286 126.561 97.8463 126.588C97.7641 126.615 97.6795 126.644 97.5986 126.671C97.5175 126.698 97.4428 126.726 97.363 126.754C97.2832 126.781 97.2058 126.809 97.1273 126.836C97.0489 126.864 96.9688 126.892 96.8917 126.919C96.8143 126.947 96.732 126.975 96.656 127.002C96.58 127.03 96.5073 127.058 96.4324 127.086C96.3575 127.113 96.2818 127.13 96.2081 127.157C96.1344 127.185 96.0691 127.214 95.9966 127.242C95.924 127.269 95.8445 127.297 95.773 127.325C95.7016 127.353 95.6318 127.381 95.5614 127.409C95.4912 127.437 95.4192 127.465 95.3499 127.493C95.2807 127.522 95.2185 127.55 95.1504 127.578C95.0822 127.607 95.0179 127.634 94.9509 127.663C94.8839 127.692 94.8173 127.719 94.7514 127.748C94.6855 127.777 94.6176 127.815 94.5526 127.845C94.4878 127.873 94.4171 127.9 94.3531 127.929C94.2893 127.958 94.2287 127.985 94.1657 128.015C94.1029 128.044 94.0402 128.07 93.9783 128.1C93.9165 128.13 93.8523 128.167 93.7915 128.198C93.7307 128.228 93.676 128.253 93.6161 128.284C93.5563 128.314 93.5003 128.351 93.4415 128.382C93.3825 128.412 93.324 128.436 93.2661 128.468C93.2082 128.499 93.1483 128.534 93.0914 128.566C93.0343 128.597 92.9721 128.62 92.916 128.652C92.86 128.683 92.8086 128.718 92.7534 128.75C92.6984 128.782 92.6448 128.817 92.5907 128.849C92.5365 128.881 92.4814 128.915 92.4281 128.948C92.3748 128.98 92.318 129.013 92.2655 129.046C92.2131 129.079 92.1666 129.112 92.1149 129.145C92.0632 129.179 92.0031 129.21 91.9523 129.244C91.9015 129.278 91.8524 129.321 91.8024 129.355C91.7524 129.39 91.7131 129.42 91.6639 129.455C91.6148 129.49 91.5625 129.531 91.514 129.566C91.4657 129.602 91.4111 129.629 91.3634 129.666C91.3158 129.702 91.2723 129.741 91.2256 129.777C91.1786 129.814 91.0877 129.889 91.0877 129.889C91.0877 129.889 90.9952 129.963 90.9499 130.001C90.9046 130.039 90.8568 130.075 90.812 130.113C90.7674 130.151 90.7308 130.199 90.6869 130.237C90.6431 130.276 90.5922 130.31 90.5491 130.349C90.5058 130.389 90.4658 130.422 90.4233 130.462C90.3809 130.502 90.34 130.545 90.2982 130.586C90.2564 130.627 90.2143 130.669 90.1731 130.71C90.132 130.752 90.0886 130.793 90.048 130.835C90.0075 130.877 89.975 130.917 89.935 130.96C89.8953 131.002 89.8498 131.053 89.8106 131.096C89.7713 131.14 89.7363 131.177 89.6976 131.221C89.6589 131.265 89.6112 131.313 89.5731 131.358C89.535 131.402 89.4982 131.449 89.4608 131.495C89.4233 131.54 89.3854 131.586 89.3484 131.632C89.3115 131.678 89.2845 131.722 89.2481 131.769C89.2116 131.816 89.1717 131.858 89.1358 131.906C89.1 131.954 89.0596 132.007 89.0241 132.055C88.9889 132.103 88.9588 132.144 88.9238 132.193C88.8889 132.242 88.8586 132.292 88.8242 132.342C88.7899 132.392 88.7466 132.44 88.7125 132.491C88.6786 132.542 88.6471 132.601 88.6136 132.653C88.5801 132.704 88.5471 132.75 88.514 132.802C88.481 132.854 88.4477 132.91 88.4151 132.964C88.3825 133.017 88.3483 133.071 88.3161 133.125C88.2839 133.179 88.2611 133.232 88.2293 133.287C88.1975 133.342 88.1625 133.405 88.131 133.461C88.0997 133.517 88.063 133.565 88.0321 133.622C88.001 133.679 87.9765 133.739 87.9459 133.796C87.9152 133.854 87.878 133.911 87.8477 133.97C87.8173 134.028 87.7915 134.084 87.7615 134.144C87.7314 134.204 87.7057 134.269 87.676 134.33C87.6463 134.39 87.6079 134.454 87.5784 134.515C87.549 134.577 87.5221 134.639 87.4929 134.701C87.464 134.764 87.4362 134.823 87.4074 134.887C87.3787 134.951 87.3512 135.02 87.3226 135.085C87.2941 135.15 87.2655 135.205 87.2371 135.271C87.2088 135.337 87.1809 135.414 87.1529 135.481C87.1249 135.548 87.096 135.611 87.0681 135.679C87.0402 135.747 87.011 135.808 86.9833 135.877C86.9557 135.946 86.9267 136.017 86.8992 136.087C86.8718 136.157 86.8544 136.226 86.8271 136.297C86.7998 136.368 86.7709 136.447 86.7436 136.519C86.7165 136.591 86.6872 136.668 86.6602 136.741C86.6332 136.814 86.6036 136.888 86.5767 136.963C86.5498 137.037 86.52 137.109 86.4933 137.185C86.4666 137.26 86.4484 137.33 86.4219 137.407C86.3952 137.484 86.3657 137.563 86.3391 137.641C86.3127 137.719 86.2834 137.807 86.2571 137.887C86.2305 137.966 86.2006 138.04 86.1743 138.12C86.1479 138.201 86.1307 138.285 86.1043 138.367C86.0779 138.448 86.0485 138.529 86.0222 138.612C85.9958 138.695 85.9666 138.774 85.9401 138.858C85.9139 138.942 85.885 139.03 85.8587 139.116C85.8323 139.201 85.8156 139.287 85.7894 139.374C85.763 139.461 85.7349 139.555 85.7087 139.644C85.6823 139.732 85.6538 139.812 85.6273 139.901C85.6008 139.991 85.573 140.08 85.5465 140.171C85.52 140.262 85.4932 140.36 85.4665 140.452C85.4401 140.545 85.4131 140.64 85.3865 140.734C85.3599 140.827 85.3331 140.92 85.3065 141.015C85.2797 141.111 85.2534 141.201 85.2264 141.297C85.1997 141.393 85.1739 141.493 85.1471 141.59C85.1202 141.688 85.0949 141.785 85.0677 141.884C85.0408 141.983 85.0163 142.089 84.9891 142.189C84.9618 142.29 84.9257 142.392 84.8984 142.494C84.8711 142.596 84.8474 142.696 84.8197 142.8C84.7922 142.903 84.7695 143.012 84.7417 143.117C84.7139 143.222 84.6797 143.327 84.6517 143.434C84.6237 143.54 84.6019 143.643 84.5737 143.751C84.5455 143.859 84.5128 143.97 84.4844 144.08C84.4559 144.189 84.4237 144.297 84.395 144.408C84.3978 144.301 84.3982 144.193 84.4007 144.087C84.4031 143.981 84.4167 143.883 84.419 143.779C84.4213 143.674 84.4233 143.572 84.4254 143.469C84.4274 143.367 84.4178 143.261 84.4196 143.16C84.4215 143.058 84.4251 142.962 84.4266 142.862C84.4283 142.763 84.4322 142.663 84.4336 142.565C84.435 142.467 84.4395 142.364 84.4406 142.268C84.4417 142.171 84.4354 142.077 84.4363 141.982C84.4371 141.887 84.4434 141.79 84.444 141.696C84.4445 141.603 84.4399 141.515 84.4403 141.422C84.4404 141.33 84.4488 141.24 84.4486 141.149C84.4486 141.058 84.4453 140.965 84.445 140.875C84.4447 140.786 84.442 140.689 84.4413 140.601C84.4407 140.513 84.4391 140.426 84.4383 140.339C84.4373 140.252 84.4373 140.174 84.436 140.089C84.4347 140.003 84.4346 139.911 84.433 139.827C84.4313 139.743 84.4327 139.659 84.4306 139.577C84.4286 139.494 84.4193 139.419 84.417 139.338C84.4147 139.256 84.418 139.18 84.4153 139.1C84.4125 139.02 84.4049 138.939 84.4016 138.861C84.3986 138.782 84.4035 138.7 84.4 138.623C84.3964 138.545 84.391 138.472 84.387 138.396C84.383 138.32 84.3785 138.244 84.374 138.169C84.3698 138.094 84.366 138.015 84.361 137.942C84.3564 137.869 84.3539 137.799 84.3487 137.727C84.3433 137.655 84.3299 137.582 84.3243 137.512C84.3186 137.441 84.3188 137.378 84.3127 137.309C84.3065 137.239 84.2949 137.161 84.2883 137.093C84.2817 137.025 84.2717 136.956 84.2646 136.889C84.2574 136.822 84.2493 136.764 84.2416 136.698C84.2339 136.632 84.2261 136.559 84.2179 136.494C84.2099 136.429 84.2035 136.366 84.1949 136.302C84.1863 136.239 84.1818 136.185 84.1726 136.123C84.1635 136.06 84.1473 135.991 84.1375 135.93C84.1278 135.869 84.1254 135.81 84.1152 135.75C84.1049 135.691 84.0916 135.629 84.0808 135.57C84.0699 135.511 84.0584 135.459 84.0471 135.402C84.0356 135.344 84.0255 135.29 84.0134 135.233C84.0016 135.177 83.9923 135.12 83.9797 135.065C83.9671 135.01 83.9471 134.95 83.934 134.896C83.9207 134.842 83.9148 134.792 83.901 134.739C83.8873 134.686 83.8704 134.634 83.8559 134.582C83.8414 134.53 83.826 134.476 83.8108 134.425C83.7959 134.374 83.7822 134.33 83.7665 134.28C83.7508 134.23 83.7378 134.171 83.7214 134.123C83.705 134.074 83.6828 134.036 83.6656 133.989C83.6487 133.941 83.6269 133.889 83.6092 133.843C83.5916 133.796 83.5841 133.755 83.5655 133.71C83.5472 133.664 83.5282 133.608 83.5091 133.564C83.4899 133.52 83.4618 133.485 83.4419 133.441C83.4222 133.398 83.4067 133.35 83.3862 133.307C83.3657 133.265 83.3404 133.226 83.3191 133.185C83.2978 133.144 83.2739 133.103 83.2519 133.062C83.23 133.022 83.2076 132.979 83.1848 132.94C83.1621 132.9 83.1413 132.856 83.1177 132.817C83.0942 132.779 83.0755 132.744 83.0512 132.707C83.0269 132.669 82.9979 132.632 82.9727 132.595C82.9477 132.559 82.9202 132.52 82.8942 132.484C82.8683 132.448 82.843 132.42 82.8164 132.385C82.7897 132.35 82.7661 132.319 82.7386 132.285C82.7113 132.252 82.6892 132.219 82.6608 132.186C82.6323 132.153 82.6001 132.118 82.5709 132.086C82.5418 132.054 82.511 132.017 82.4811 131.986C82.451 131.955 82.4227 131.928 82.3919 131.898C82.3609 131.868 82.3224 131.839 82.2906 131.81C82.2589 131.78 82.2342 131.75 82.2014 131.722C82.1689 131.693 82.1338 131.661 82.1002 131.633C82.0667 131.605 82.0341 131.583 81.9996 131.556C81.9653 131.529 81.9216 131.493 81.8863 131.467C81.8508 131.441 81.8228 131.427 81.7865 131.402C81.7577 131.382 81.7281 131.358 81.6986 131.338C84.2321 128.764 86.7129 126.027 89.0231 123.019C89.7303 122.098 89.9305 121.839 90.2308 121.439Z" fill="#77437f" fill-rule="nonzero" opacity="1" stroke="#77437f" stroke-linecap="round" stroke-linejoin="round" stroke-width="0.513281"/>
<path d="M347.821 180.354C347.833 180.379 347.841 180.406 347.853 180.431C347.865 180.455 347.879 180.477 347.892 180.501C347.904 180.525 347.911 180.548 347.923 180.571C347.936 180.595 347.949 180.619 347.962 180.642C347.975 180.665 347.994 180.684 348.007 180.706C348.021 180.728 348.032 180.755 348.046 180.777C348.06 180.798 348.077 180.819 348.091 180.841C348.106 180.862 348.121 180.877 348.136 180.898C348.151 180.918 348.166 180.942 348.181 180.962C348.196 180.982 348.21 180.999 348.226 181.019C348.242 181.038 348.254 181.057 348.271 181.076C348.287 181.095 348.305 181.115 348.322 181.134C348.339 181.152 348.357 181.173 348.374 181.191C348.391 181.209 348.408 181.224 348.425 181.242C348.443 181.259 348.465 181.276 348.484 181.293C348.502 181.31 348.516 181.327 348.535 181.343C348.554 181.36 348.574 181.378 348.593 181.394C348.612 181.41 348.631 181.423 348.651 181.438C348.671 181.454 348.689 181.468 348.709 181.483C348.729 181.498 348.753 181.513 348.774 181.527C348.795 181.542 348.817 181.558 348.838 181.572C348.86 181.586 348.881 181.602 348.903 181.616C348.925 181.63 348.945 181.641 348.968 181.654C348.99 181.667 349.016 181.679 349.039 181.692C349.062 181.704 349.087 181.717 349.11 181.73C349.134 181.742 349.158 181.756 349.182 181.768C349.206 181.78 349.228 181.787 349.253 181.799C349.277 181.81 349.306 181.826 349.331 181.837C349.356 181.848 349.376 181.858 349.402 181.868C349.428 181.879 349.46 181.89 349.487 181.9C349.513 181.91 349.538 181.922 349.565 181.932C349.592 181.941 349.621 181.947 349.649 181.957C349.677 181.966 349.705 181.973 349.734 181.982C349.762 181.991 349.789 182.005 349.818 182.013C349.847 182.022 349.873 182.03 349.903 182.038C349.932 182.047 349.964 182.056 349.994 182.064C350.024 182.072 350.054 182.075 350.085 182.082C350.116 182.09 350.145 182.1 350.177 182.108C350.208 182.115 350.242 182.12 350.274 182.126C350.307 182.133 350.34 182.139 350.372 182.145C350.405 182.152 350.437 182.158 350.47 182.164C350.504 182.17 350.541 182.177 350.575 182.183C350.609 182.189 350.638 182.197 350.673 182.202C350.708 182.208 350.749 182.21 350.784 182.215C350.82 182.22 350.853 182.229 350.889 182.234C350.926 182.239 350.964 182.242 351.001 182.247C351.038 182.251 351.075 182.255 351.112 182.259C351.15 182.264 351.185 182.268 351.224 182.272C351.262 182.276 351.303 182.281 351.342 182.285C351.381 182.289 351.42 182.288 351.46 182.291C351.5 182.295 351.538 182.301 351.578 182.304C351.619 182.307 351.655 182.308 351.696 182.31C351.737 182.313 351.779 182.314 351.821 182.317C351.863 182.32 351.91 182.322 351.953 182.324C351.995 182.326 352.034 182.328 352.078 182.33C352.121 182.333 352.165 182.336 352.21 182.337C352.254 182.339 352.297 182.343 352.341 182.344C352.386 182.346 352.435 182.35 352.48 182.352C352.526 182.353 352.572 182.351 352.618 182.352C352.665 182.353 352.71 182.351 352.757 182.352C352.804 182.353 352.855 182.359 352.903 182.36C352.951 182.361 352.999 182.36 353.048 182.361C353.097 182.361 353.144 182.361 353.193 182.361C353.243 182.362 353.295 182.363 353.345 182.363C353.396 182.363 353.446 182.357 353.497 182.357C353.548 182.357 353.597 182.358 353.649 182.358C353.701 182.358 353.756 182.36 353.809 182.359C353.861 182.359 353.914 182.355 353.967 182.354C354.021 182.353 354.072 182.357 354.127 182.356C354.181 182.355 354.237 182.352 354.292 182.351C354.348 182.349 354.402 182.347 354.458 182.345C354.514 182.344 354.574 182.342 354.631 182.341C354.688 182.339 354.746 182.338 354.803 182.336C354.861 182.335 354.917 182.333 354.976 182.332C355.035 182.33 355.096 182.329 355.156 182.327C355.215 182.325 355.275 182.325 355.335 182.323C355.396 182.321 355.454 182.321 355.515 182.319C355.576 182.317 355.639 182.31 355.701 182.308C355.637 182.325 355.574 182.343 355.51 182.36C355.447 182.376 355.382 182.394 355.32 182.411C355.257 182.428 355.197 182.447 355.136 182.463C355.074 182.48 355.012 182.492 354.952 182.508C354.891 182.525 354.828 182.544 354.768 182.56C354.708 182.577 354.65 182.59 354.591 182.606C354.531 182.622 354.472 182.642 354.414 182.658C354.355 182.674 354.301 182.688 354.243 182.704C354.186 182.72 354.13 182.741 354.074 182.757C354.017 182.773 353.959 182.787 353.903 182.803C353.847 182.819 353.795 182.833 353.74 182.849C353.685 182.865 353.624 182.879 353.57 182.895C353.515 182.911 353.467 182.926 353.413 182.942C353.36 182.957 353.302 182.972 353.25 182.988C353.197 183.003 353.145 183.019 353.093 183.034C353.042 183.05 352.995 183.073 352.944 183.088C352.893 183.104 352.838 183.112 352.787 183.128C352.737 183.144 352.687 183.159 352.638 183.175C352.588 183.191 352.544 183.207 352.495 183.222C352.447 183.238 352.394 183.254 352.346 183.269C352.298 183.285 352.251 183.301 352.203 183.317C352.156 183.332 352.107 183.348 352.061 183.364C352.014 183.38 351.971 183.396 351.925 183.412C351.879 183.427 351.835 183.444 351.79 183.459C351.744 183.475 351.698 183.491 351.654 183.507C351.609 183.523 351.562 183.539 351.518 183.555C351.475 183.571 351.433 183.587 351.39 183.603C351.347 183.619 351.303 183.628 351.261 183.644C351.218 183.66 351.181 183.677 351.139 183.693C351.097 183.708 351.051 183.725 351.01 183.741C350.969 183.757 350.929 183.773 350.889 183.789C350.848 183.805 350.807 183.821 350.767 183.837C350.727 183.854 350.691 183.87 350.652 183.886C350.613 183.903 350.576 183.919 350.537 183.935C350.499 183.951 350.46 183.967 350.422 183.984C350.384 184 350.345 184.023 350.308 184.04C350.271 184.056 350.23 184.071 350.193 184.088C350.156 184.105 350.122 184.12 350.085 184.137C350.049 184.154 350.013 184.169 349.978 184.187C349.942 184.204 349.905 184.225 349.87 184.243C349.835 184.26 349.804 184.275 349.769 184.292C349.735 184.31 349.702 184.331 349.669 184.349C349.635 184.366 349.601 184.38 349.568 184.398C349.534 184.416 349.5 184.436 349.467 184.454C349.434 184.472 349.399 184.486 349.366 184.504C349.334 184.522 349.304 184.542 349.273 184.561C349.241 184.579 349.21 184.599 349.179 184.617C349.148 184.636 349.116 184.655 349.085 184.674C349.055 184.693 349.022 184.712 348.992 184.731C348.962 184.75 348.935 184.769 348.905 184.788C348.876 184.808 348.841 184.825 348.812 184.845C348.782 184.865 348.754 184.889 348.725 184.909C348.697 184.929 348.674 184.946 348.646 184.966C348.617 184.987 348.587 185.01 348.559 185.03C348.532 185.051 348.5 185.067 348.473 185.087C348.445 185.108 348.42 185.131 348.393 185.152C348.366 185.173 348.341 185.195 348.314 185.216C348.288 185.238 348.261 185.259 348.235 185.281C348.209 185.302 348.181 185.323 348.156 185.345C348.13 185.367 348.109 185.394 348.084 185.416C348.058 185.439 348.029 185.458 348.004 185.481C347.979 185.504 347.956 185.523 347.932 185.546C347.907 185.569 347.884 185.594 347.86 185.617C347.836 185.64 347.812 185.665 347.788 185.689C347.764 185.712 347.739 185.736 347.716 185.76C347.693 185.784 347.674 185.808 347.651 185.832C347.628 185.857 347.602 185.886 347.579 185.911C347.557 185.936 347.536 185.957 347.514 185.983C347.492 186.008 347.464 186.035 347.443 186.061C347.421 186.087 347.399 186.114 347.378 186.14C347.356 186.166 347.335 186.192 347.313 186.219C347.292 186.245 347.276 186.271 347.256 186.298C347.235 186.325 347.212 186.349 347.191 186.377C347.17 186.404 347.147 186.435 347.127 186.462C347.106 186.49 347.089 186.513 347.069 186.542C347.049 186.57 347.031 186.599 347.012 186.628C346.992 186.656 346.967 186.684 346.947 186.713C346.928 186.743 346.91 186.777 346.89 186.806C346.871 186.836 346.852 186.862 346.833 186.892C346.814 186.922 346.795 186.955 346.776 186.985C346.757 187.016 346.738 187.047 346.719 187.078C346.701 187.109 346.688 187.14 346.669 187.172C346.651 187.203 346.631 187.239 346.613 187.271C346.595 187.304 346.574 187.332 346.556 187.364C346.538 187.397 346.524 187.431 346.506 187.464C346.489 187.498 346.467 187.53 346.45 187.564C346.432 187.598 346.417 187.63 346.4 187.664C346.383 187.699 346.368 187.737 346.351 187.771C346.334 187.806 346.312 187.843 346.295 187.878C346.278 187.914 346.262 187.949 346.246 187.985C346.229 188.021 346.213 188.056 346.196 188.092C346.18 188.129 346.164 188.169 346.148 188.206C346.131 188.243 346.115 188.275 346.098 188.313C346.082 188.351 346.066 188.395 346.05 188.434C346.034 188.472 346.017 188.509 346.001 188.548C345.985 188.587 345.968 188.622 345.952 188.662C345.936 188.701 345.92 188.742 345.904 188.782C345.888 188.823 345.878 188.863 345.862 188.904C345.847 188.945 345.83 188.99 345.814 189.031C345.799 189.073 345.782 189.117 345.766 189.159C345.751 189.201 345.734 189.244 345.718 189.287C345.703 189.33 345.686 189.371 345.67 189.414C345.655 189.458 345.644 189.498 345.629 189.542C345.614 189.587 345.597 189.632 345.582 189.677C345.566 189.722 345.55 189.773 345.534 189.818C345.519 189.864 345.502 189.906 345.487 189.953C345.472 189.999 345.462 190.047 345.446 190.094C345.431 190.142 345.414 190.188 345.399 190.236C345.384 190.284 345.367 190.329 345.352 190.377C345.337 190.426 345.32 190.476 345.305 190.525C345.29 190.575 345.28 190.624 345.265 190.674C345.25 190.724 345.234 190.778 345.219 190.829C345.204 190.88 345.187 190.926 345.172 190.978C345.157 191.029 345.141 191.08 345.126 191.133C345.11 191.185 345.095 191.241 345.079 191.295C345.064 191.348 345.049 191.403 345.033 191.457C345.018 191.51 345.003 191.564 344.987 191.619C344.972 191.673 344.957 191.725 344.941 191.781C344.926 191.836 344.911 191.893 344.896 191.95C344.88 192.006 344.866 192.061 344.85 192.118C344.834 192.176 344.82 192.236 344.805 192.294C344.789 192.352 344.768 192.411 344.753 192.47C344.737 192.528 344.723 192.586 344.707 192.645C344.691 192.705 344.678 192.768 344.662 192.828C344.646 192.888 344.627 192.949 344.611 193.01C344.594 193.072 344.582 193.131 344.566 193.193C344.549 193.255 344.531 193.319 344.514 193.382C344.498 193.445 344.479 193.507 344.463 193.571C344.464 193.509 344.465 193.447 344.466 193.386C344.468 193.325 344.475 193.269 344.477 193.209C344.478 193.149 344.479 193.09 344.48 193.031C344.481 192.972 344.476 192.911 344.477 192.852C344.478 192.794 344.48 192.739 344.481 192.681C344.482 192.624 344.484 192.567 344.485 192.51C344.486 192.454 344.488 192.395 344.489 192.339C344.49 192.284 344.486 192.23 344.487 192.175C344.487 192.12 344.491 192.065 344.491 192.011C344.491 191.957 344.489 191.906 344.489 191.853C344.489 191.8 344.494 191.748 344.494 191.696C344.494 191.643 344.492 191.589 344.492 191.538C344.491 191.486 344.49 191.431 344.489 191.38C344.489 191.33 344.488 191.279 344.488 191.229C344.487 191.179 344.487 191.135 344.486 191.085C344.486 191.036 344.486 190.983 344.485 190.935C344.484 190.886 344.485 190.838 344.483 190.791C344.482 190.743 344.477 190.7 344.475 190.653C344.474 190.606 344.476 190.562 344.475 190.516C344.473 190.47 344.469 190.424 344.467 190.379C344.465 190.334 344.468 190.286 344.466 190.242C344.464 190.197 344.461 190.155 344.458 190.111C344.456 190.067 344.453 190.024 344.451 189.981C344.448 189.938 344.446 189.892 344.443 189.85C344.441 189.808 344.439 189.768 344.436 189.726C344.433 189.685 344.425 189.643 344.422 189.602C344.419 189.562 344.419 189.526 344.415 189.486C344.412 189.446 344.405 189.401 344.401 189.361C344.398 189.322 344.392 189.283 344.388 189.244C344.384 189.206 344.379 189.172 344.375 189.134C344.37 189.096 344.366 189.054 344.361 189.017C344.356 188.98 344.353 188.943 344.348 188.907C344.343 188.87 344.34 188.839 344.335 188.803C344.33 188.767 344.32 188.727 344.315 188.692C344.309 188.657 344.308 188.623 344.302 188.589C344.296 188.555 344.288 188.519 344.282 188.485C344.276 188.451 344.269 188.421 344.263 188.388C344.256 188.355 344.25 188.324 344.243 188.291C344.236 188.259 344.231 188.226 344.224 188.194C344.217 188.163 344.205 188.128 344.198 188.097C344.19 188.066 344.187 188.038 344.179 188.007C344.171 187.976 344.161 187.947 344.153 187.917C344.144 187.887 344.135 187.855 344.127 187.826C344.118 187.797 344.11 187.771 344.101 187.743C344.092 187.714 344.085 187.68 344.075 187.652C344.066 187.624 344.053 187.603 344.043 187.575C344.033 187.548 344.021 187.518 344.011 187.491C344.001 187.464 343.996 187.441 343.986 187.415C343.975 187.388 343.964 187.356 343.953 187.331C343.942 187.305 343.926 187.285 343.914 187.26C343.903 187.235 343.894 187.208 343.882 187.183C343.871 187.159 343.856 187.136 343.844 187.113C343.831 187.089 343.818 187.065 343.805 187.042C343.792 187.019 343.78 186.994 343.766 186.972C343.753 186.949 343.741 186.923 343.728 186.901C343.714 186.879 343.704 186.859 343.69 186.837C343.676 186.816 343.659 186.794 343.644 186.773C343.63 186.752 343.614 186.73 343.599 186.709C343.584 186.689 343.57 186.672 343.554 186.652C343.539 186.632 343.526 186.614 343.51 186.595C343.494 186.576 343.481 186.557 343.465 186.538C343.449 186.519 343.43 186.499 343.413 186.48C343.396 186.462 343.379 186.441 343.361 186.423C343.344 186.405 343.328 186.39 343.31 186.372C343.292 186.355 343.27 186.338 343.252 186.321C343.234 186.304 343.219 186.287 343.201 186.271C343.182 186.254 343.162 186.235 343.142 186.22C343.123 186.204 343.104 186.191 343.084 186.175C343.065 186.16 343.04 186.139 343.019 186.124C342.999 186.109 342.983 186.101 342.962 186.087C342.945 186.075 342.928 186.061 342.911 186.05C344.369 184.568 345.797 182.994 347.126 181.263C347.533 180.733 347.648 180.584 347.821 180.354Z" fill="#77437f" fill-rule="nonzero" opacity="1" stroke="#77437f" stroke-linecap="round" stroke-linejoin="round" stroke-width="0.513281"/>
<path d="M104.542 124.887C104.41 124.868 104.279 124.85 104.148 124.831C104.018 124.812 103.889 124.794 103.76 124.776C103.631 124.757 103.504 124.738 103.377 124.72C103.25 124.701 103.125 124.683 103 124.665C102.875 124.646 102.751 124.628 102.628 124.609C102.505 124.591 102.382 124.573 102.261 124.554C102.14 124.536 102.019 124.517 101.9 124.499C101.78 124.48 101.662 124.462 101.544 124.444C101.426 124.425 101.309 124.407 101.193 124.388C101.077 124.37 100.962 124.351 100.847 124.333C100.733 124.314 100.62 124.296 100.507 124.277C100.394 124.258 100.282 124.24 100.172 124.221C100.061 124.202 99.9505 124.183 99.8414 124.165C99.7321 124.146 99.6236 124.127 99.5158 124.108C99.4083 124.089 99.3015 124.07 99.1956 124.051C99.0896 124.032 98.9844 124.013 98.8802 123.994C98.7758 123.975 98.6722 123.956 98.5695 123.936C98.4668 123.917 98.365 123.897 98.2638 123.878C98.1627 123.858 98.0624 123.839 97.963 123.819C97.8634 123.8 97.7645 123.78 97.6667 123.76C97.5686 123.74 97.4715 123.72 97.3749 123.7C97.2785 123.68 97.183 123.659 97.0881 123.639C96.9933 123.619 96.8992 123.598 96.8057 123.578C96.7124 123.557 96.62 123.536 96.528 123.516C96.4361 123.495 96.345 123.474 96.2546 123.453C96.1643 123.432 96.0747 123.41 95.9858 123.389C95.897 123.367 95.8088 123.346 95.7215 123.324C95.634 123.302 95.5474 123.28 95.4613 123.258C95.3754 123.236 95.2902 123.214 95.2057 123.191C95.1211 123.169 95.0374 123.146 94.9541 123.124C94.8711 123.101 94.7887 123.078 94.7069 123.055C94.6254 123.032 94.5443 123.008 94.464 122.985C94.3836 122.961 94.304 122.938 94.225 122.914C94.146 122.89 94.0677 122.865 93.9903 122.841C93.9127 122.817 93.8357 122.792 93.7595 122.768C93.6832 122.743 93.6077 122.718 93.5326 122.692C93.4576 122.667 93.3834 122.642 93.3098 122.616C93.2363 122.59 93.1633 122.565 93.0909 122.538C93.0187 122.512 92.9468 122.486 92.8759 122.459C92.8048 122.432 92.7345 122.405 92.6647 122.378C92.5948 122.351 92.5258 122.324 92.4571 122.296C92.3886 122.268 92.3209 122.24 92.2534 122.212C92.1861 122.184 92.1194 122.155 92.0533 122.127C91.9873 122.098 91.9218 122.069 91.8569 122.039C91.7921 122.01 91.7278 121.98 91.6641 121.951C91.6004 121.921 91.5373 121.89 91.4748 121.86C91.4123 121.829 91.3503 121.798 91.2889 121.767C91.2277 121.736 91.1668 121.705 91.1066 121.673C91.0465 121.641 90.9867 121.609 90.9276 121.577C90.8687 121.544 90.8103 121.511 90.7522 121.478C90.6942 121.445 90.6368 121.412 90.5797 121.378C90.523 121.344 90.4667 121.31 90.411 121.276C90.3551 121.241 90.2998 121.206 90.2451 121.171C90.1903 121.136 90.1362 121.101 90.0826 121.065C90.0288 121.029 89.9757 120.993 89.923 120.956C89.8704 120.919 89.8183 120.883 89.7666 120.845C89.7151 120.808 89.6638 120.77 89.6134 120.732C89.5626 120.694 89.5126 120.655 89.463 120.616C89.4134 120.577 89.3643 120.538 89.3156 120.499C89.267 120.459 89.2189 120.419 89.1713 120.378C89.1234 120.338 89.0763 120.297 89.0295 120.255C88.9829 120.214 88.9366 120.172 88.8907 120.13C88.845 120.088 88.7997 120.045 88.7547 120.002C88.7099 119.959 88.6656 119.916 88.6216 119.872C88.5776 119.828 88.534 119.784 88.4908 119.739C88.4478 119.694 88.405 119.649 88.3628 119.603C88.3207 119.557 88.2789 119.511 88.2374 119.465C88.1962 119.418 88.1552 119.371 88.1147 119.323C88.0742 119.276 88.034 119.228 87.9943 119.18C87.9545 119.131 87.9153 119.082 87.8764 119.032C87.8375 118.983 87.799 118.933 87.7609 118.883C87.7228 118.832 87.6851 118.781 87.6477 118.73C87.6104 118.679 87.5735 118.627 87.5369 118.574C87.5003 118.522 87.4642 118.469 87.4284 118.415C87.3926 118.362 87.357 118.308 87.3221 118.253C87.287 118.199 87.2522 118.144 87.2179 118.088C87.1835 118.033 87.1494 117.977 87.1157 117.92C87.0821 117.864 87.0489 117.806 87.0158 117.749C86.9828 117.691 86.9501 117.633 86.9179 117.574C86.8856 117.515 86.8536 117.456 86.822 117.396C86.7904 117.336 86.7591 117.275 86.728 117.214C86.6972 117.153 86.6664 117.092 86.6361 117.03C86.6057 116.967 86.5755 116.905 86.5458 116.841C86.5162 116.778 86.4867 116.714 86.4574 116.649C86.4283 116.585 86.3995 116.52 86.3708 116.454C86.3423 116.388 86.3139 116.322 86.2859 116.255C86.2581 116.188 86.2302 116.121 86.2027 116.053C86.1753 115.985 86.148 115.916 86.1212 115.846C86.0943 115.777 86.0676 115.707 86.0413 115.637C86.0147 115.566 85.9887 115.495 85.9628 115.423C85.9369 115.351 85.9113 115.278 85.8857 115.205C85.8604 115.132 85.8353 115.058 85.8102 114.984C85.7855 114.909 85.7606 114.834 85.7362 114.758C85.7118 114.683 85.6876 114.606 85.6635 114.529C85.6394 114.452 85.6156 114.374 85.592 114.296C85.5683 114.217 85.545 114.138 85.5219 114.058C85.4986 113.979 85.4757 113.898 85.4529 113.817C85.4302 113.736 85.4075 113.654 85.3851 113.572C85.3628 113.489 85.3406 113.406 85.3184 113.322C85.2964 113.238 85.2746 113.153 85.2529 113.068C85.2313 112.982 85.2099 112.896 85.1884 112.81C85.167 112.723 85.1458 112.635 85.1248 112.547C85.1039 112.459 85.0829 112.37 85.0622 112.28C85.0416 112.19 85.021 112.1 85.0005 112.009C84.9802 111.917 84.96 111.825 84.9397 111.733C84.9195 111.64 84.8996 111.547 84.8797 111.452C84.8598 111.358 84.84 111.263 84.8206 111.168C84.8008 111.072 84.7814 110.975 84.762 110.878C84.7425 110.781 84.7233 110.683 84.7041 110.584C84.6849 110.485 84.6659 110.386 84.6469 110.285C84.6278 110.185 84.609 110.084 84.5902 109.982C84.5715 109.88 84.5528 109.777 84.534 109.674C84.5155 109.57 84.497 109.465 84.4784 109.36C84.46 109.255 84.4417 109.149 84.4233 109.042C84.405 108.936 84.3867 108.828 84.3685 108.72C84.3503 108.611 84.3321 108.502 84.3142 108.392C84.2961 108.281 84.278 108.17 84.26 108.059C84.242 107.947 84.2241 107.834 84.2062 107.721C84.1883 107.607 84.1704 107.493 84.1524 107.378C84.1348 107.263 84.1169 107.147 84.0991 107.03C84.0813 106.913 84.0636 106.795 84.0458 106.676C84.028 106.558 84.0103 106.438 83.9926 106.318C83.9749 106.197 83.9571 106.076 83.9394 105.954C83.9217 105.832 83.904 105.709 83.8862 105.585C83.8685 105.461 83.8507 105.336 83.833 105.21C83.8153 105.085 83.7974 104.958 83.7795 104.831C83.7616 104.703 83.7439 104.575 83.726 104.445C83.7082 104.316 83.6903 104.185 83.6724 104.054C83.6591 104.185 83.6458 104.314 83.6325 104.443C83.6192 104.571 83.6059 104.699 83.5927 104.826C83.5794 104.953 83.5661 105.079 83.5527 105.204C83.5394 105.329 83.5261 105.453 83.5127 105.576C83.4993 105.699 83.4858 105.821 83.4724 105.943C83.4592 106.064 83.4456 106.185 83.4322 106.304C83.4188 106.424 83.4051 106.543 83.3916 106.661C83.3781 106.778 83.3646 106.895 83.3509 107.012C83.3372 107.128 83.3236 107.243 83.3096 107.357C83.296 107.472 83.282 107.585 83.2681 107.698C83.2543 107.811 83.2404 107.923 83.2264 108.034C83.2123 108.145 83.1981 108.255 83.1839 108.364C83.1697 108.473 83.1554 108.582 83.1411 108.69C83.1268 108.797 83.1123 108.904 83.0977 109.01C83.0833 109.116 83.0686 109.221 83.0537 109.326C83.039 109.43 83.0243 109.534 83.0092 109.636C82.9942 109.739 82.9791 109.841 82.9641 109.942C82.9488 110.043 82.9335 110.144 82.9182 110.243C82.9027 110.343 82.8872 110.441 82.8715 110.539C82.8557 110.637 82.84 110.735 82.824 110.831C82.808 110.928 82.7919 111.023 82.7756 111.118C82.7594 111.213 82.743 111.307 82.7264 111.4C82.7098 111.493 82.6932 111.586 82.6763 111.678C82.6595 111.77 82.6425 111.861 82.6252 111.951C82.608 112.041 82.5908 112.131 82.5732 112.219C82.5556 112.308 82.5378 112.396 82.5199 112.484C82.5019 112.571 82.4839 112.658 82.4657 112.743C82.4473 112.829 82.4288 112.914 82.4102 112.999C82.3916 113.083 82.3727 113.167 82.3536 113.25C82.3346 113.333 82.3152 113.415 82.2957 113.497C82.2763 113.578 82.2565 113.659 82.2367 113.739C82.2167 113.819 82.1966 113.899 82.1762 113.977C82.1559 114.056 82.1352 114.134 82.1144 114.211C82.0935 114.289 82.0725 114.365 82.0512 114.441C82.0299 114.517 82.0084 114.593 81.9866 114.667C81.9648 114.742 81.9427 114.816 81.9203 114.889C81.898 114.963 81.8755 115.035 81.8526 115.107C81.8298 115.179 81.8067 115.25 81.7833 115.321C81.7599 115.392 81.7364 115.462 81.7123 115.531C81.6885 115.601 81.6642 115.67 81.6397 115.738C81.6152 115.806 81.5905 115.873 81.5655 115.94C81.5404 116.007 81.515 116.073 81.4893 116.139C81.4637 116.205 81.4376 116.269 81.4114 116.334C81.3849 116.398 81.3585 116.462 81.3316 116.525C81.3047 116.588 81.2774 116.651 81.2499 116.713C81.2223 116.775 81.1945 116.836 81.1663 116.897C81.138 116.958 81.1095 117.018 81.0808 117.077C81.052 117.137 81.0227 117.196 80.9932 117.254C80.9636 117.313 80.9339 117.371 80.9035 117.428C80.8732 117.485 80.8427 117.542 80.8118 117.598C80.7806 117.654 80.7494 117.71 80.7178 117.765C80.6861 117.82 80.6541 117.874 80.6215 117.928C80.5892 117.982 80.5565 118.036 80.5232 118.088C80.4899 118.141 80.4564 118.193 80.4225 118.245C80.3885 118.297 80.3542 118.348 80.3195 118.399C80.2848 118.45 80.2496 118.5 80.214 118.55C80.1785 118.599 80.1426 118.648 80.1064 118.697C80.0698 118.746 80.033 118.794 79.996 118.841C79.9587 118.889 79.9213 118.936 79.8831 118.983C79.8451 119.029 79.8066 119.075 79.7679 119.121C79.7289 119.167 79.6897 119.212 79.6499 119.256C79.6101 119.301 79.5699 119.345 79.5293 119.389C79.4888 119.432 79.4474 119.476 79.4059 119.518C79.3644 119.561 79.3224 119.603 79.2799 119.645C79.2375 119.687 79.1946 119.728 79.1511 119.769C79.1077 119.81 79.064 119.851 79.0196 119.891C78.9751 119.931 78.9303 119.97 78.8851 120.009C78.8397 120.048 78.7939 120.087 78.7478 120.125C78.7013 120.163 78.6546 120.201 78.6075 120.239C78.5602 120.276 78.5125 120.313 78.4641 120.35C78.4157 120.386 78.367 120.422 78.3178 120.458C78.2685 120.493 78.2186 120.529 78.1683 120.564C78.1181 120.599 78.0672 120.633 78.0158 120.667C77.9643 120.701 77.9124 120.735 77.8599 120.768C77.8076 120.801 77.7546 120.834 77.701 120.867C77.6476 120.9 77.5935 120.932 77.5388 120.963C77.4842 120.995 77.429 121.027 77.3734 121.058C77.3178 121.089 77.2615 121.119 77.2045 121.15C77.1477 121.18 77.0902 121.21 77.0322 121.239C76.9743 121.269 76.9157 121.298 76.8567 121.327C76.7974 121.356 76.7377 121.385 76.6775 121.413C76.6172 121.441 76.5561 121.469 76.4948 121.496C76.4333 121.524 76.3712 121.551 76.3085 121.578C76.2458 121.605 76.1825 121.631 76.1186 121.658C76.0547 121.684 75.9902 121.71 75.9252 121.735C75.86 121.761 75.7943 121.786 75.7279 121.811C75.6616 121.836 75.5946 121.861 75.527 121.885C75.4594 121.91 75.3911 121.934 75.3223 121.958C75.2534 121.981 75.1839 122.005 75.1137 122.028C75.0435 122.051 74.9727 122.074 74.9013 122.097C74.8299 122.12 74.7577 122.142 74.6848 122.164C74.6121 122.186 74.5387 122.208 74.4646 122.23C74.3905 122.251 74.3158 122.273 74.2402 122.294C74.1648 122.315 74.0888 122.336 74.0119 122.356C73.935 122.377 73.8575 122.397 73.7794 122.417C73.7011 122.438 73.6225 122.457 73.543 122.477C73.4634 122.497 73.3831 122.516 73.3021 122.535C73.2212 122.555 73.1394 122.574 73.057 122.592C72.9748 122.611 72.8916 122.63 72.8078 122.648C72.7239 122.666 72.6395 122.684 72.5543 122.702C72.4689 122.72 72.383 122.738 72.2962 122.756C72.2094 122.773 72.1222 122.79 72.0339 122.808C71.9458 122.825 71.8568 122.842 71.7671 122.858C71.6775 122.875 71.5869 122.892 71.4958 122.908C71.4047 122.924 71.3127 122.941 71.2201 122.957C71.1273 122.973 71.0339 122.989 70.9397 123.005C70.8454 123.021 70.7504 123.036 70.6548 123.052C70.5589 123.067 70.4622 123.082 70.365 123.098C70.2676 123.113 70.1695 123.128 70.0705 123.143C69.9716 123.158 69.8718 123.172 69.7714 123.187C69.6709 123.201 69.5695 123.216 69.4675 123.23C69.3652 123.245 69.2625 123.259 69.1587 123.273C69.0549 123.287 68.9504 123.301 68.845 123.315C68.7397 123.329 68.6335 123.343 68.5263 123.356C68.4194 123.37 68.3115 123.384 68.2027 123.397C68.0942 123.411 67.9845 123.424 67.8741 123.438C67.7638 123.451 67.6526 123.464 67.5406 123.477C67.4284 123.49 67.3156 123.503 67.2017 123.516C67.0878 123.529 66.9733 123.542 66.8578 123.555C66.7424 123.568 66.626 123.581 66.5087 123.594C66.3915 123.606 66.2733 123.619 66.1544 123.632C66.0354 123.644 65.9155 123.657 65.7947 123.669C65.674 123.682 65.5523 123.695 65.4299 123.707C65.3072 123.719 65.1837 123.732 65.0594 123.744C64.9351 123.757 64.8099 123.769 64.6838 123.781C64.5576 123.794 64.4305 123.806 64.3024 123.818C64.1746 123.831 64.0456 123.843 63.9159 123.855C63.7861 123.868 63.6552 123.88 63.5235 123.892C63.6558 123.911 63.7871 123.93 63.9174 123.948C64.0478 123.967 64.1772 123.985 64.3059 124.004C64.4343 124.022 64.5621 124.041 64.6887 124.059C64.8154 124.078 64.9412 124.096 65.0662 124.115C65.1909 124.133 65.3149 124.152 65.4381 124.17C65.5612 124.188 65.6833 124.207 65.8047 124.225C65.926 124.244 66.0464 124.262 66.166 124.281C66.2856 124.299 66.4042 124.317 66.5219 124.336C66.6397 124.354 66.7567 124.373 66.8726 124.391C66.9888 124.41 67.1038 124.428 67.2183 124.447C67.3325 124.465 67.446 124.484 67.5588 124.502C67.6715 124.521 67.7832 124.54 67.8941 124.558C68.0051 124.577 68.1152 124.596 68.2245 124.615C68.3335 124.633 68.4421 124.652 68.5498 124.671C68.6574 124.69 68.7641 124.709 68.8701 124.728C68.9761 124.747 69.0812 124.766 69.1855 124.786C69.2899 124.805 69.3933 124.824 69.4961 124.843C69.5988 124.862 69.7007 124.882 69.8018 124.901C69.903 124.921 70.0033 124.94 70.1029 124.96C70.2022 124.98 70.3011 125 70.3991 125.02C70.4971 125.04 70.5942 125.059 70.6906 125.08C70.7871 125.1 70.8827 125.12 70.9775 125.14C71.0726 125.161 71.1665 125.181 71.26 125.202C71.3534 125.222 71.446 125.243 71.5378 125.264C71.6296 125.285 71.7208 125.306 71.811 125.327C71.9014 125.348 71.9911 125.369 72.0799 125.391C72.1687 125.412 72.2568 125.434 72.3442 125.455C72.4316 125.477 72.5185 125.499 72.6044 125.521C72.6903 125.543 72.7756 125.566 72.86 125.588C72.9446 125.61 73.0284 125.633 73.1116 125.656C73.1946 125.679 73.277 125.702 73.3588 125.725C73.4404 125.748 73.5214 125.771 73.6018 125.795C73.6821 125.818 73.7618 125.842 73.8407 125.866C73.9197 125.89 73.9979 125.914 74.0754 125.938C74.153 125.963 74.2301 125.987 74.3063 126.012C74.3825 126.037 74.4581 126.062 74.5331 126.087C74.6079 126.112 74.6822 126.138 74.7559 126.163C74.8295 126.189 74.9024 126.215 74.9749 126.241C75.0471 126.267 75.1188 126.294 75.1899 126.32C75.2609 126.347 75.3314 126.374 75.4011 126.401C75.4709 126.428 75.5401 126.456 75.6086 126.483C75.6771 126.511 75.745 126.539 75.8123 126.567C75.8797 126.595 75.9465 126.624 76.0125 126.653C76.0786 126.682 76.144 126.711 76.2088 126.74C76.2737 126.769 76.338 126.799 76.4018 126.829C76.4654 126.859 76.5284 126.889 76.591 126.92C76.6534 126.95 76.7156 126.981 76.7768 127.012C76.8382 127.043 76.8989 127.075 76.9591 127.107C77.0192 127.138 77.079 127.17 77.1381 127.203C77.197 127.235 77.2557 127.268 77.3137 127.301C77.3716 127.334 77.4291 127.368 77.486 127.401C77.5428 127.435 77.5992 127.469 77.655 127.504C77.7108 127.538 77.766 127.573 77.8208 127.608C77.8754 127.643 77.9295 127.679 77.9834 127.715C78.037 127.751 78.0901 127.787 78.1428 127.824C78.1955 127.86 78.2476 127.897 78.2991 127.934C78.3509 127.972 78.4019 128.01 78.4525 128.048C78.5031 128.086 78.5531 128.124 78.6027 128.163C78.6523 128.202 78.7014 128.241 78.7502 128.281C78.7989 128.321 78.847 128.361 78.8947 128.401C78.9424 128.442 78.9896 128.483 79.0362 128.524C79.083 128.565 79.1292 128.607 79.175 128.649C79.2208 128.692 79.2662 128.734 79.311 128.777C79.356 128.82 79.4004 128.864 79.4444 128.908C79.4884 128.952 79.5317 128.996 79.5749 129.041C79.618 129.085 79.6607 129.131 79.703 129.176C79.7451 129.222 79.787 129.268 79.8283 129.315C79.8697 129.362 79.9107 129.408 79.9512 129.456C79.9918 129.504 80.032 129.552 80.0716 129.6C80.1113 129.649 80.1507 129.698 80.1895 129.747C80.2284 129.797 80.2669 129.846 80.305 129.897C80.3431 129.947 80.3808 129.998 80.4181 130.05C80.4555 130.101 80.4923 130.153 80.5289 130.205C80.5654 130.258 80.6017 130.311 80.6376 130.364C80.6732 130.418 80.7087 130.472 80.7439 130.526C80.779 130.581 80.8137 130.636 80.8481 130.691C80.8823 130.747 80.9163 130.803 80.9501 130.86C80.9838 130.916 81.017 130.973 81.05 131.031C81.083 131.089 81.1156 131.147 81.148 131.206C81.1803 131.264 81.2121 131.324 81.2437 131.384C81.2754 131.444 81.3067 131.504 81.3377 131.565C81.3688 131.626 81.3993 131.688 81.4297 131.75C81.4601 131.812 81.4901 131.875 81.52 131.938C81.5497 132.002 81.5793 132.065 81.6083 132.13C81.6376 132.195 81.6665 132.26 81.6949 132.325C81.7236 132.391 81.7518 132.457 81.7798 132.524C81.8079 132.591 81.8355 132.659 81.8631 132.727C81.8906 132.795 81.9177 132.864 81.9446 132.933C81.9716 133.002 81.9981 133.072 82.0247 133.143C82.0511 133.214 82.0772 133.285 82.1032 133.357C82.129 133.429 82.1547 133.501 82.1801 133.574C82.2054 133.648 82.2306 133.721 82.2556 133.796C82.2805 133.87 82.3051 133.945 82.3297 134.021C82.3542 134.097 82.3784 134.173 82.4024 134.251C82.4264 134.328 82.4502 134.405 82.4739 134.484C82.4975 134.562 82.5209 134.641 82.5441 134.721C82.5672 134.801 82.5902 134.881 82.613 134.963C82.6357 135.044 82.6584 135.126 82.6808 135.208C82.7032 135.291 82.7253 135.374 82.7474 135.458C82.7695 135.542 82.7913 135.627 82.813 135.712C82.8347 135.797 82.8561 135.883 82.8774 135.97C82.8988 136.057 82.92 136.144 82.941 136.233C82.962 136.321 82.9829 136.41 83.0035 136.5C83.0243 136.589 83.0447 136.68 83.0652 136.771C83.0855 136.862 83.106 136.954 83.126 137.047C83.1462 137.139 83.1662 137.233 83.186 137.327C83.2059 137.421 83.2257 137.516 83.2454 137.612C83.2651 137.708 83.2845 137.804 83.3039 137.901C83.3234 137.999 83.3424 138.097 83.3618 138.196C83.3808 138.294 83.3999 138.394 83.4188 138.494C83.4379 138.595 83.4568 138.696 83.4755 138.798C83.4943 138.9 83.513 139.003 83.5315 139.106C83.5502 139.21 83.5687 139.314 83.5873 139.419C83.6058 139.524 83.624 139.63 83.6424 139.737C83.6607 139.844 83.679 139.951 83.6973 140.06C83.7154 140.168 83.7336 140.278 83.7517 140.388C83.7697 140.498 83.7878 140.609 83.8057 140.721C83.8238 140.833 83.8416 140.945 83.8597 141.059C83.8774 141.172 83.8955 141.287 83.9131 141.402C83.9309 141.517 83.9488 141.633 83.9667 141.75C83.9844 141.867 84.0022 141.985 84.0199 142.103C84.0377 142.222 84.0555 142.341 84.0731 142.462C84.0907 142.582 84.1085 142.703 84.1264 142.825C84.144 142.947 84.1617 143.071 84.1795 143.194C84.1972 143.319 84.215 143.443 84.2327 143.569C84.2505 143.695 84.2683 143.821 84.2861 143.949C84.3039 144.076 84.3218 144.205 84.3397 144.334C84.3576 144.464 84.3756 144.594 84.3934 144.725C84.4066 144.595 84.4199 144.465 84.4332 144.337C84.4465 144.208 84.4598 144.08 84.4731 143.953C84.4863 143.827 84.4998 143.701 84.5131 143.576C84.5265 143.451 84.5398 143.327 84.5532 143.204C84.5665 143.08 84.5797 142.958 84.5933 142.837C84.6067 142.715 84.6201 142.595 84.6335 142.475C84.647 142.355 84.6606 142.237 84.6741 142.119C84.6878 142.001 84.7013 141.884 84.715 141.768C84.7286 141.652 84.7423 141.536 84.7561 141.422C84.7699 141.308 84.7837 141.194 84.7974 141.081C84.8115 140.969 84.8253 140.857 84.8395 140.746C84.8535 140.635 84.8676 140.524 84.8818 140.415C84.896 140.306 84.9103 140.197 84.9247 140.09C84.9391 139.982 84.9535 139.875 84.968 139.769C84.9825 139.663 84.9971 139.558 85.012 139.454C85.0267 139.349 85.0415 139.246 85.0565 139.143C85.0715 139.04 85.0865 138.938 85.1017 138.837C85.117 138.736 85.1322 138.636 85.1476 138.536C85.163 138.437 85.1787 138.338 85.1943 138.24C85.2101 138.142 85.2258 138.045 85.2418 137.948C85.2577 137.852 85.2739 137.756 85.2901 137.662C85.3064 137.567 85.3227 137.473 85.3393 137.379C85.3559 137.286 85.3725 137.193 85.3895 137.102C85.4062 137.01 85.4232 136.919 85.4406 136.828C85.4576 136.738 85.475 136.649 85.4926 136.56C85.5102 136.471 85.5279 136.383 85.5457 136.296C85.5636 136.208 85.5817 136.122 85.5999 136.036C85.6182 135.95 85.6369 135.865 85.6555 135.781C85.6741 135.696 85.693 135.613 85.712 135.53C85.7311 135.447 85.7503 135.365 85.7698 135.283C85.7894 135.201 85.8091 135.121 85.8291 135.04C85.8489 134.96 85.8691 134.881 85.8895 134.802C85.9099 134.723 85.9304 134.645 85.9513 134.568C85.972 134.491 85.9932 134.414 86.0145 134.338C86.0358 134.262 86.0574 134.187 86.0792 134.112C86.101 134.037 86.123 133.963 86.1453 133.89C86.1677 133.817 86.1903 133.744 86.213 133.672C86.236 133.6 86.259 133.529 86.2825 133.458C86.3057 133.387 86.3293 133.317 86.3532 133.248C86.3773 133.179 86.4014 133.11 86.4259 133.042C86.4504 132.974 86.4751 132.906 86.5002 132.839C86.5252 132.772 86.5505 132.706 86.5762 132.641C86.602 132.575 86.628 132.51 86.6543 132.446C86.6805 132.381 86.7071 132.318 86.734 132.254C86.7608 132.191 86.7881 132.129 86.8157 132.067C86.8432 132.005 86.8709 131.943 86.8993 131.883C86.9274 131.822 86.956 131.762 86.9848 131.702C87.0136 131.643 87.0428 131.584 87.0725 131.525C87.102 131.467 87.1318 131.409 87.1621 131.352C87.1924 131.294 87.2229 131.238 87.2539 131.181C87.2848 131.125 87.3162 131.07 87.3478 131.015C87.3794 130.96 87.4115 130.905 87.4439 130.851C87.4764 130.797 87.5092 130.744 87.5424 130.691C87.5755 130.638 87.609 130.586 87.643 130.534C87.6769 130.482 87.7113 130.431 87.7462 130.381C87.7808 130.33 87.816 130.28 87.8514 130.23C87.887 130.18 87.923 130.131 87.9594 130.083C87.9956 130.034 88.0324 129.986 88.0696 129.938C88.1068 129.891 88.1444 129.844 88.1823 129.797C88.2204 129.75 88.2589 129.704 88.2978 129.659C88.3365 129.613 88.3759 129.568 88.4157 129.523C88.4556 129.479 88.4957 129.434 88.5363 129.391C88.5769 129.347 88.6181 129.304 88.6595 129.261C88.7011 129.218 88.7432 129.176 88.7856 129.134C88.8281 129.092 88.8709 129.051 88.9144 129.01C88.9577 128.969 89.0016 128.929 89.046 128.889C89.0903 128.849 89.1351 128.809 89.1805 128.77C89.2258 128.731 89.2716 128.693 89.3179 128.654C89.3641 128.616 89.4108 128.578 89.458 128.541C89.5054 128.504 89.5531 128.466 89.6015 128.43C89.6497 128.393 89.6984 128.357 89.7477 128.322C89.7971 128.286 89.8468 128.251 89.8971 128.216C89.9475 128.181 89.9985 128.146 90.0499 128.112C90.1012 128.078 90.153 128.045 90.2055 128.011C90.258 127.978 90.3109 127.945 90.3646 127.912C90.4181 127.88 90.4721 127.848 90.5266 127.816C90.5814 127.784 90.6366 127.753 90.6922 127.722C90.7479 127.691 90.8042 127.66 90.8612 127.63C90.9179 127.599 90.9753 127.57 91.0333 127.54C91.0914 127.51 91.1499 127.481 91.209 127.452C91.268 127.424 91.3279 127.395 91.3881 127.367C91.4484 127.339 91.5093 127.311 91.5708 127.283C91.6322 127.256 91.6944 127.228 91.7571 127.202C91.8198 127.175 91.8829 127.148 91.947 127.122C92.0109 127.096 92.0754 127.07 92.1405 127.044C92.2055 127.019 92.2713 126.993 92.3376 126.968C92.4039 126.943 92.4711 126.919 92.5387 126.894C92.6063 126.87 92.6743 126.846 92.7433 126.822C92.8123 126.798 92.8818 126.775 92.9519 126.751C93.0221 126.728 93.0928 126.705 93.1644 126.682C93.2358 126.66 93.308 126.637 93.3806 126.615C93.4536 126.593 93.5269 126.571 93.6009 126.55C93.6751 126.528 93.7499 126.507 93.8253 126.486C93.9009 126.464 93.9769 126.443 94.0537 126.423C94.1306 126.402 94.208 126.382 94.2862 126.362C94.3643 126.342 94.4432 126.322 94.5227 126.302C94.6022 126.282 94.6825 126.263 94.7635 126.244C94.8444 126.225 94.9262 126.206 95.0084 126.187C95.0908 126.168 95.1739 126.15 95.2578 126.131C95.3416 126.113 95.4262 126.095 95.5114 126.077C95.5966 126.059 95.6825 126.041 95.7693 126.024C95.8561 126.006 95.9435 125.989 96.0316 125.972C96.1199 125.955 96.2089 125.938 96.2985 125.921C96.3881 125.904 96.4785 125.887 96.5697 125.871C96.6608 125.855 96.7529 125.838 96.8456 125.822C96.9384 125.806 97.0317 125.79 97.126 125.774C97.2203 125.759 97.3152 125.743 97.4111 125.728C97.5069 125.712 97.6034 125.697 97.7009 125.682C97.7981 125.666 97.8963 125.652 97.9952 125.637C98.0942 125.622 98.1939 125.607 98.2943 125.593C98.3948 125.578 98.4962 125.563 98.5984 125.549C98.7004 125.535 98.8032 125.52 98.907 125.506C99.0108 125.492 99.1153 125.478 99.2208 125.464C99.3262 125.45 99.4323 125.437 99.5394 125.423C99.6463 125.409 99.7542 125.395 99.863 125.382C99.9715 125.369 100.081 125.355 100.191 125.342C100.302 125.329 100.413 125.315 100.525 125.302C100.637 125.289 100.75 125.276 100.864 125.263C100.978 125.25 101.092 125.237 101.208 125.224C101.323 125.211 101.44 125.199 101.557 125.186C101.674 125.173 101.792 125.16 101.911 125.148C102.03 125.135 102.15 125.122 102.271 125.11C102.392 125.098 102.513 125.085 102.636 125.073C102.758 125.06 102.882 125.048 103.006 125.035C103.131 125.023 103.256 125.011 103.382 124.998C103.508 124.986 103.635 124.973 103.763 124.961C103.891 124.949 104.02 124.937 104.15 124.924C104.28 124.912 104.411 124.899 104.542 124.887Z" fill="#fadade" fill-rule="nonzero" opacity="1" stroke="#fadade" stroke-linecap="round" stroke-linejoin="round" stroke-width="0.513281"/>
<path d="M356.056 182.338C355.98 182.327 355.905 182.316 355.83 182.305C355.755 182.295 355.68 182.284 355.606 182.273C355.532 182.263 355.459 182.252 355.386 182.241C355.313 182.231 355.241 182.22 355.169 182.21C355.097 182.199 355.026 182.188 354.955 182.178C354.884 182.167 354.814 182.157 354.744 182.146C354.674 182.135 354.605 182.125 354.536 182.114C354.467 182.104 354.399 182.093 354.331 182.082C354.263 182.072 354.196 182.061 354.129 182.051C354.062 182.04 353.996 182.029 353.93 182.019C353.865 182.008 353.799 181.997 353.734 181.987C353.67 181.976 353.605 181.965 353.541 181.954C353.478 181.944 353.414 181.933 353.351 181.922C353.289 181.911 353.226 181.9 353.164 181.889C353.102 181.879 353.041 181.868 352.98 181.857C352.919 181.846 352.858 181.835 352.798 181.824C352.738 181.813 352.679 181.802 352.62 181.791C352.56 181.779 352.502 181.768 352.444 181.757C352.385 181.746 352.328 181.734 352.27 181.723C352.213 181.712 352.156 181.7 352.1 181.689C352.044 181.678 351.988 181.666 351.932 181.654C351.877 181.643 351.822 181.631 351.767 181.62C351.712 181.608 351.658 181.596 351.605 181.584C351.551 181.572 351.498 181.56 351.445 181.548C351.392 181.536 351.339 181.524 351.287 181.512C351.235 181.5 351.184 181.488 351.133 181.475C351.082 181.463 351.031 181.451 350.981 181.438C350.93 181.426 350.88 181.413 350.831 181.4C350.781 181.388 350.732 181.375 350.684 181.362C350.635 181.349 350.587 181.336 350.539 181.323C350.491 181.31 350.444 181.297 350.397 181.283C350.35 181.27 350.303 181.257 350.257 181.243C350.211 181.229 350.165 181.216 350.119 181.202C350.074 181.188 350.029 181.174 349.984 181.16C349.94 181.146 349.895 181.132 349.852 181.118C349.808 181.104 349.764 181.089 349.721 181.075C349.678 181.06 349.635 181.046 349.593 181.031C349.551 181.016 349.509 181.001 349.467 180.986C349.425 180.971 349.384 180.956 349.343 180.94C349.302 180.925 349.262 180.91 349.222 180.894C349.181 180.878 349.142 180.863 349.102 180.847C349.063 180.831 349.024 180.815 348.985 180.798C348.946 180.782 348.908 180.766 348.87 180.749C348.832 180.733 348.794 180.716 348.757 180.699C348.719 180.682 348.682 180.665 348.646 180.648C348.609 180.631 348.573 180.613 348.537 180.596C348.501 180.578 348.465 180.56 348.43 180.542C348.395 180.524 348.36 180.506 348.325 180.488C348.29 180.47 348.256 180.451 348.222 180.433C348.188 180.414 348.155 180.395 348.121 180.376C348.088 180.357 348.055 180.338 348.022 180.318C347.989 180.299 347.957 180.279 347.925 180.26C347.893 180.24 347.861 180.22 347.829 180.199C347.798 180.179 347.767 180.159 347.736 180.138C347.705 180.117 347.674 180.097 347.644 180.076C347.614 180.054 347.584 180.033 347.554 180.012C347.524 179.99 347.495 179.968 347.466 179.947C347.437 179.925 347.408 179.902 347.379 179.88C347.351 179.858 347.322 179.835 347.294 179.812C347.266 179.789 347.239 179.766 347.211 179.743C347.184 179.72 347.157 179.696 347.13 179.672C347.103 179.649 347.076 179.624 347.05 179.6C347.024 179.576 346.998 179.551 346.972 179.527C346.946 179.502 346.92 179.477 346.895 179.452C346.87 179.426 346.845 179.401 346.82 179.375C346.795 179.349 346.77 179.323 346.746 179.297C346.722 179.271 346.698 179.244 346.674 179.217C346.65 179.191 346.627 179.163 346.603 179.136C346.58 179.109 346.557 179.081 346.534 179.053C346.511 179.025 346.489 178.997 346.466 178.969C346.444 178.94 346.422 178.912 346.4 178.882C346.378 178.853 346.356 178.824 346.335 178.795C346.313 178.765 346.292 178.735 346.271 178.705C346.25 178.675 346.229 178.644 346.208 178.614C346.188 178.583 346.167 178.552 346.147 178.52C346.127 178.489 346.107 178.457 346.087 178.425C346.068 178.393 346.048 178.361 346.028 178.329C346.009 178.296 345.99 178.263 345.971 178.23C345.952 178.197 345.933 178.163 345.915 178.129C345.896 178.095 345.878 178.061 345.859 178.027C345.841 177.992 345.823 177.958 345.805 177.922C345.788 177.887 345.77 177.852 345.753 177.816C345.735 177.78 345.718 177.744 345.7 177.708C345.683 177.671 345.667 177.635 345.65 177.597C345.633 177.56 345.616 177.523 345.6 177.485C345.583 177.447 345.567 177.409 345.551 177.37C345.535 177.332 345.519 177.293 345.503 177.254C345.487 177.215 345.472 177.175 345.456 177.135C345.441 177.095 345.425 177.055 345.41 177.014C345.395 176.974 345.38 176.933 345.365 176.891C345.35 176.85 345.335 176.808 345.321 176.766C345.306 176.724 345.292 176.682 345.277 176.639C345.263 176.596 345.249 176.553 345.235 176.509C345.221 176.466 345.207 176.422 345.193 176.377C345.179 176.333 345.165 176.288 345.152 176.243C345.138 176.198 345.125 176.152 345.111 176.106C345.098 176.06 345.085 176.014 345.072 175.967C345.059 175.921 345.045 175.874 345.033 175.826C345.02 175.779 345.007 175.731 344.994 175.682C344.982 175.634 344.969 175.585 344.957 175.536C344.944 175.487 344.932 175.438 344.919 175.388C344.907 175.338 344.895 175.287 344.883 175.237C344.871 175.186 344.859 175.135 344.847 175.083C344.835 175.031 344.823 174.979 344.811 174.927C344.8 174.874 344.788 174.821 344.776 174.768C344.765 174.715 344.753 174.661 344.742 174.607C344.73 174.553 344.719 174.498 344.708 174.443C344.696 174.388 344.685 174.332 344.674 174.276C344.663 174.22 344.652 174.164 344.641 174.107C344.63 174.05 344.619 173.993 344.608 173.935C344.597 173.877 344.586 173.819 344.575 173.76C344.564 173.702 344.554 173.643 344.543 173.583C344.532 173.523 344.522 173.463 344.511 173.403C344.5 173.342 344.49 173.281 344.479 173.22C344.469 173.159 344.458 173.097 344.448 173.034C344.437 172.972 344.427 172.909 344.416 172.845C344.406 172.782 344.396 172.718 344.385 172.654C344.375 172.59 344.365 172.525 344.354 172.459C344.344 172.394 344.334 172.328 344.323 172.262C344.313 172.196 344.303 172.129 344.293 172.062C344.282 171.994 344.272 171.927 344.262 171.858C344.252 171.79 344.241 171.721 344.231 171.652C344.221 171.583 344.211 171.513 344.201 171.443C344.191 171.373 344.18 171.302 344.17 171.23C344.16 171.159 344.15 171.087 344.139 171.015C344.129 170.942 344.119 170.87 344.109 170.796C344.098 170.723 344.088 170.649 344.078 170.574C344.068 170.5 344.057 170.425 344.047 170.349C344.039 170.425 344.032 170.499 344.024 170.573C344.016 170.647 344.009 170.721 344.001 170.794C343.993 170.867 343.986 170.939 343.978 171.011C343.97 171.083 343.963 171.154 343.955 171.225C343.947 171.296 343.94 171.366 343.932 171.436C343.924 171.506 343.917 171.575 343.909 171.644C343.901 171.713 343.893 171.781 343.885 171.849C343.878 171.917 343.87 171.984 343.862 172.051C343.854 172.118 343.846 172.184 343.838 172.25C343.83 172.316 343.822 172.381 343.814 172.446C343.806 172.511 343.798 172.575 343.79 172.639C343.782 172.703 343.774 172.767 343.766 172.83C343.758 172.893 343.75 172.955 343.741 173.017C343.733 173.079 343.725 173.14 343.716 173.201C343.708 173.262 343.7 173.323 343.691 173.383C343.683 173.443 343.674 173.503 343.665 173.562C343.657 173.621 343.648 173.679 343.639 173.738C343.631 173.796 343.622 173.854 343.613 173.911C343.604 173.968 343.595 174.025 343.586 174.081C343.577 174.138 343.568 174.194 343.559 174.249C343.55 174.305 343.54 174.36 343.531 174.414C343.522 174.469 343.512 174.523 343.503 174.577C343.493 174.63 343.484 174.684 343.474 174.736C343.464 174.789 343.454 174.842 343.444 174.894C343.435 174.946 343.425 174.997 343.414 175.048C343.404 175.099 343.394 175.15 343.384 175.2C343.374 175.25 343.363 175.3 343.353 175.35C343.342 175.399 343.331 175.448 343.321 175.496C343.31 175.545 343.299 175.593 343.288 175.641C343.277 175.689 343.266 175.736 343.255 175.783C343.244 175.83 343.232 175.876 343.221 175.922C343.209 175.969 343.198 176.014 343.186 176.06C343.174 176.105 343.162 176.15 343.151 176.194C343.138 176.239 343.126 176.283 343.114 176.327C343.102 176.37 343.089 176.414 343.077 176.457C343.064 176.5 343.052 176.542 343.039 176.584C343.026 176.627 343.013 176.668 343 176.71C342.987 176.751 342.973 176.792 342.96 176.833C342.946 176.874 342.933 176.914 342.919 176.954C342.905 176.994 342.891 177.033 342.877 177.073C342.863 177.112 342.849 177.151 342.835 177.189C342.82 177.228 342.806 177.266 342.791 177.303C342.776 177.341 342.761 177.379 342.746 177.416C342.731 177.453 342.715 177.489 342.7 177.526C342.685 177.562 342.669 177.598 342.653 177.634C342.637 177.669 342.621 177.705 342.605 177.74C342.589 177.775 342.572 177.809 342.556 177.844C342.539 177.878 342.522 177.912 342.505 177.945C342.488 177.979 342.471 178.012 342.454 178.045C342.436 178.078 342.419 178.111 342.401 178.143C342.383 178.176 342.365 178.207 342.347 178.239C342.329 178.271 342.31 178.302 342.291 178.333C342.273 178.364 342.254 178.395 342.235 178.425C342.216 178.456 342.196 178.486 342.177 178.516C342.157 178.545 342.138 178.575 342.118 178.604C342.098 178.633 342.077 178.662 342.057 178.691C342.036 178.719 342.016 178.748 341.995 178.776C341.974 178.804 341.953 178.831 341.931 178.859C341.91 178.886 341.888 178.913 341.866 178.94C341.845 178.967 341.822 178.993 341.8 179.02C341.778 179.046 341.755 179.072 341.732 179.097C341.709 179.123 341.686 179.149 341.663 179.174C341.64 179.199 341.616 179.224 341.592 179.248C341.568 179.273 341.544 179.297 341.519 179.321C341.495 179.345 341.47 179.369 341.445 179.393C341.42 179.416 341.395 179.44 341.37 179.463C341.344 179.485 341.318 179.508 341.292 179.531C341.266 179.553 341.24 179.575 341.213 179.598C341.186 179.619 341.16 179.641 341.132 179.663C341.105 179.684 341.078 179.706 341.05 179.727C341.022 179.748 340.994 179.768 340.966 179.789C340.937 179.809 340.909 179.83 340.88 179.85C340.851 179.87 340.822 179.89 340.792 179.909C340.762 179.929 340.732 179.948 340.702 179.967C340.672 179.987 340.642 180.006 340.611 180.024C340.58 180.043 340.549 180.062 340.517 180.08C340.486 180.098 340.454 180.116 340.422 180.134C340.39 180.152 340.358 180.169 340.325 180.187C340.292 180.204 340.259 180.222 340.226 180.239C340.193 180.256 340.159 180.272 340.125 180.289C340.091 180.306 340.056 180.322 340.022 180.338C339.987 180.354 339.952 180.371 339.917 180.386C339.881 180.402 339.846 180.418 339.809 180.433C339.773 180.449 339.737 180.464 339.7 180.479C339.663 180.494 339.626 180.509 339.589 180.524C339.551 180.539 339.514 180.553 339.475 180.568C339.437 180.582 339.399 180.596 339.36 180.61C339.321 180.624 339.282 180.638 339.242 180.652C339.202 180.666 339.162 180.679 339.122 180.692C339.082 180.706 339.041 180.719 339 180.732C338.959 180.745 338.917 180.758 338.875 180.771C338.833 180.783 338.791 180.796 338.748 180.809C338.706 180.821 338.663 180.833 338.619 180.845C338.576 180.858 338.532 180.87 338.488 180.881C338.444 180.893 338.399 180.905 338.354 180.917C338.309 180.928 338.264 180.94 338.218 180.951C338.172 180.962 338.126 180.973 338.079 180.984C338.033 180.995 337.986 181.006 337.938 181.017C337.891 181.028 337.843 181.039 337.795 181.049C337.747 181.06 337.698 181.07 337.649 181.08C337.6 181.091 337.551 181.101 337.501 181.111C337.451 181.121 337.4 181.131 337.35 181.141C337.299 181.151 337.248 181.161 337.196 181.17C337.145 181.18 337.092 181.189 337.04 181.199C336.988 181.208 336.935 181.218 336.881 181.227C336.828 181.236 336.774 181.245 336.72 181.254C336.666 181.264 336.611 181.273 336.556 181.281C336.501 181.29 336.445 181.299 336.389 181.308C336.333 181.317 336.277 181.325 336.22 181.334C336.163 181.342 336.106 181.351 336.048 181.359C335.99 181.368 335.932 181.376 335.873 181.384C335.814 181.393 335.755 181.401 335.695 181.409C335.635 181.417 335.575 181.425 335.515 181.433C335.454 181.441 335.393 181.449 335.331 181.457C335.27 181.465 335.208 181.473 335.145 181.48C335.083 181.488 335.019 181.496 334.956 181.504C334.892 181.511 334.828 181.519 334.764 181.526C334.7 181.534 334.635 181.541 334.569 181.549C334.503 181.556 334.438 181.564 334.371 181.571C334.305 181.579 334.238 181.586 334.17 181.593C334.103 181.601 334.035 181.608 333.966 181.615C333.898 181.623 333.829 181.63 333.759 181.637C333.69 181.644 333.62 181.651 333.549 181.659C333.479 181.666 333.408 181.673 333.336 181.68C333.265 181.687 333.193 181.694 333.12 181.701C333.047 181.709 332.974 181.716 332.901 181.723C332.827 181.73 332.753 181.737 332.678 181.744C332.604 181.751 332.528 181.758 332.452 181.765C332.529 181.776 332.604 181.787 332.679 181.797C332.754 181.808 332.829 181.819 332.903 181.829C332.977 181.84 333.05 181.851 333.123 181.861C333.196 181.872 333.268 181.883 333.34 181.893C333.412 181.904 333.483 181.914 333.554 181.925C333.625 181.936 333.695 181.946 333.765 181.957C333.835 181.967 333.904 181.978 333.973 181.989C334.042 181.999 334.11 182.01 334.178 182.02C334.246 182.031 334.313 182.042 334.38 182.052C334.447 182.063 334.513 182.074 334.579 182.084C334.644 182.095 334.71 182.106 334.774 182.116C334.839 182.127 334.904 182.138 334.968 182.149C335.031 182.159 335.095 182.17 335.158 182.181C335.22 182.192 335.283 182.203 335.345 182.213C335.407 182.224 335.468 182.235 335.529 182.246C335.59 182.257 335.651 182.268 335.711 182.279C335.771 182.29 335.83 182.301 335.889 182.312C335.948 182.323 336.007 182.335 336.065 182.346C336.123 182.357 336.181 182.368 336.238 182.38C336.296 182.391 336.353 182.402 336.409 182.414C336.465 182.425 336.521 182.437 336.577 182.448C336.632 182.46 336.687 182.472 336.742 182.483C336.797 182.495 336.851 182.507 336.904 182.519C336.958 182.531 337.011 182.542 337.064 182.554C337.117 182.566 337.17 182.579 337.221 182.591C337.273 182.603 337.325 182.615 337.376 182.628C337.427 182.64 337.478 182.652 337.528 182.665C337.579 182.677 337.629 182.69 337.678 182.703C337.727 182.715 337.777 182.728 337.825 182.741C337.874 182.754 337.922 182.767 337.97 182.78C338.018 182.793 338.065 182.806 338.112 182.82C338.159 182.833 338.206 182.846 338.252 182.86C338.298 182.873 338.344 182.887 338.389 182.901C338.435 182.915 338.48 182.929 338.524 182.943C338.569 182.957 338.614 182.971 338.657 182.985C338.701 182.999 338.745 183.014 338.788 183.028C338.831 183.043 338.874 183.057 338.916 183.072C338.958 183.087 339 183.102 339.042 183.117C339.084 183.132 339.125 183.147 339.166 183.162C339.207 183.178 339.247 183.193 339.287 183.209C339.328 183.225 339.367 183.24 339.407 183.256C339.446 183.272 339.485 183.288 339.524 183.305C339.563 183.321 339.601 183.337 339.639 183.354C339.677 183.37 339.715 183.387 339.752 183.404C339.79 183.421 339.826 183.438 339.863 183.455C339.9 183.472 339.936 183.49 339.972 183.507C340.008 183.525 340.044 183.543 340.079 183.561C340.114 183.579 340.149 183.597 340.184 183.615C340.218 183.633 340.253 183.652 340.287 183.67C340.321 183.689 340.355 183.708 340.388 183.727C340.421 183.746 340.454 183.765 340.487 183.785C340.52 183.804 340.552 183.824 340.584 183.843C340.616 183.863 340.648 183.883 340.68 183.904C340.711 183.924 340.742 183.944 340.773 183.965C340.804 183.985 340.835 184.006 340.865 184.027C340.895 184.048 340.925 184.07 340.955 184.091C340.985 184.113 341.014 184.134 341.043 184.156C341.072 184.178 341.101 184.201 341.13 184.223C341.158 184.245 341.187 184.268 341.215 184.291C341.243 184.314 341.27 184.337 341.298 184.36C341.325 184.383 341.352 184.407 341.379 184.431C341.406 184.454 341.433 184.478 341.459 184.503C341.485 184.527 341.511 184.551 341.537 184.576C341.563 184.601 341.589 184.626 341.614 184.651C341.639 184.677 341.664 184.702 341.689 184.728C341.714 184.754 341.738 184.78 341.763 184.806C341.787 184.832 341.811 184.859 341.835 184.886C341.859 184.913 341.882 184.94 341.906 184.967C341.929 184.994 341.952 185.022 341.975 185.05C341.998 185.078 342.02 185.106 342.043 185.134C342.065 185.163 342.087 185.192 342.109 185.22C342.131 185.25 342.153 185.279 342.174 185.308C342.196 185.338 342.217 185.368 342.238 185.398C342.259 185.428 342.28 185.459 342.301 185.489C342.321 185.52 342.342 185.551 342.362 185.583C342.382 185.614 342.402 185.646 342.422 185.678C342.441 185.71 342.461 185.742 342.481 185.774C342.5 185.807 342.519 185.84 342.538 185.873C342.557 185.906 342.576 185.94 342.594 185.974C342.613 186.007 342.631 186.042 342.649 186.076C342.668 186.111 342.686 186.145 342.704 186.181C342.721 186.216 342.739 186.251 342.756 186.287C342.774 186.323 342.791 186.359 342.808 186.395C342.826 186.432 342.843 186.468 342.859 186.506C342.876 186.543 342.893 186.58 342.909 186.618C342.926 186.656 342.942 186.694 342.958 186.732C342.974 186.771 342.99 186.81 343.006 186.849C343.022 186.888 343.037 186.928 343.053 186.968C343.068 187.008 343.084 187.048 343.099 187.088C343.114 187.129 343.129 187.17 343.144 187.212C343.159 187.253 343.174 187.295 343.188 187.337C343.203 187.379 343.217 187.421 343.232 187.464C343.246 187.507 343.26 187.55 343.274 187.594C343.288 187.637 343.302 187.681 343.316 187.726C343.33 187.77 343.344 187.815 343.357 187.86C343.371 187.905 343.384 187.951 343.398 187.997C343.411 188.042 343.424 188.089 343.437 188.136C343.45 188.182 343.464 188.229 343.476 188.277C343.489 188.324 343.502 188.372 343.515 188.421C343.527 188.469 343.54 188.518 343.552 188.567C343.565 188.616 343.577 188.665 343.59 188.715C343.602 188.765 343.614 188.816 343.626 188.866C343.638 188.917 343.65 188.968 343.662 189.02C343.674 189.072 343.686 189.124 343.698 189.176C343.709 189.229 343.721 189.282 343.733 189.335C343.744 189.388 343.756 189.442 343.767 189.496C343.779 189.55 343.79 189.605 343.801 189.66C343.813 189.715 343.824 189.771 343.835 189.827C343.846 189.883 343.857 189.939 343.868 189.996C343.879 190.053 343.89 190.11 343.901 190.168C343.912 190.226 343.923 190.284 343.934 190.343C343.945 190.401 343.955 190.46 343.966 190.52C343.977 190.58 343.987 190.64 343.998 190.7C344.009 190.761 344.019 190.822 344.03 190.883C344.04 190.945 344.051 191.006 344.061 191.069C344.072 191.131 344.082 191.194 344.093 191.258C344.103 191.321 344.113 191.385 344.124 191.449C344.134 191.513 344.144 191.578 344.155 191.644C344.165 191.709 344.175 191.775 344.186 191.841C344.196 191.907 344.206 191.974 344.216 192.041C344.227 192.109 344.237 192.176 344.247 192.245C344.257 192.313 344.267 192.382 344.278 192.451C344.288 192.52 344.298 192.59 344.308 192.66C344.318 192.73 344.329 192.801 344.339 192.873C344.349 192.944 344.359 193.016 344.369 193.088C344.38 193.16 344.39 193.233 344.4 193.307C344.41 193.38 344.421 193.454 344.431 193.528C344.441 193.603 344.452 193.678 344.462 193.753C344.47 193.678 344.477 193.604 344.485 193.53C344.492 193.456 344.5 193.382 344.508 193.309C344.515 193.236 344.523 193.164 344.531 193.092C344.539 193.02 344.546 192.949 344.554 192.878C344.562 192.807 344.569 192.737 344.577 192.667C344.585 192.597 344.592 192.528 344.6 192.459C344.608 192.39 344.616 192.321 344.623 192.254C344.631 192.186 344.639 192.118 344.647 192.052C344.655 191.985 344.663 191.918 344.671 191.853C344.679 191.787 344.687 191.721 344.694 191.657C344.703 191.592 344.71 191.527 344.719 191.463C344.727 191.4 344.735 191.336 344.743 191.273C344.751 191.21 344.759 191.148 344.768 191.086C344.776 191.024 344.784 190.963 344.793 190.902C344.801 190.84 344.809 190.78 344.818 190.72C344.826 190.66 344.835 190.6 344.844 190.541C344.852 190.482 344.861 190.423 344.87 190.365C344.878 190.307 344.887 190.249 344.896 190.192C344.905 190.135 344.914 190.078 344.923 190.021C344.932 189.965 344.941 189.909 344.95 189.854C344.959 189.798 344.969 189.743 344.978 189.689C344.987 189.634 344.997 189.58 345.006 189.526C345.016 189.473 345.025 189.419 345.035 189.366C345.045 189.314 345.055 189.261 345.065 189.209C345.074 189.157 345.084 189.106 345.094 189.055C345.105 189.004 345.115 188.953 345.125 188.903C345.135 188.852 345.146 188.803 345.156 188.753C345.167 188.704 345.177 188.655 345.188 188.606C345.199 188.558 345.21 188.51 345.221 188.462C345.232 188.414 345.243 188.367 345.254 188.32C345.265 188.273 345.277 188.226 345.288 188.18C345.299 188.134 345.311 188.089 345.323 188.043C345.335 187.998 345.346 187.953 345.358 187.909C345.37 187.864 345.383 187.82 345.395 187.776C345.407 187.732 345.419 187.689 345.432 187.646C345.445 187.603 345.457 187.561 345.47 187.518C345.483 187.476 345.496 187.434 345.509 187.393C345.522 187.352 345.535 187.31 345.549 187.27C345.562 187.229 345.576 187.189 345.59 187.149C345.604 187.109 345.617 187.069 345.631 187.03C345.646 186.991 345.66 186.952 345.674 186.914C345.689 186.875 345.703 186.837 345.718 186.799C345.733 186.762 345.748 186.724 345.763 186.687C345.778 186.65 345.793 186.614 345.809 186.577C345.824 186.541 345.84 186.505 345.856 186.469C345.872 186.433 345.888 186.398 345.904 186.363C345.92 186.328 345.937 186.294 345.953 186.259C345.97 186.225 345.987 186.191 346.004 186.157C346.021 186.124 346.038 186.091 346.055 186.058C346.073 186.025 346.09 185.992 346.108 185.96C346.126 185.927 346.144 185.895 346.162 185.864C346.18 185.832 346.199 185.801 346.217 185.77C346.236 185.739 346.255 185.708 346.274 185.678C346.293 185.647 346.312 185.617 346.332 185.587C346.351 185.558 346.371 185.528 346.391 185.499C346.411 185.47 346.431 185.441 346.452 185.412C346.472 185.384 346.493 185.355 346.514 185.327C346.535 185.299 346.556 185.272 346.577 185.244C346.599 185.217 346.62 185.19 346.642 185.163C346.664 185.136 346.686 185.11 346.709 185.083C346.731 185.057 346.754 185.031 346.777 185.006C346.8 184.98 346.823 184.954 346.846 184.929C346.869 184.904 346.893 184.879 346.917 184.855C346.941 184.83 346.965 184.806 346.989 184.782C347.014 184.758 347.038 184.734 347.063 184.71C347.088 184.687 347.114 184.664 347.139 184.641C347.165 184.617 347.191 184.595 347.217 184.572C347.243 184.55 347.269 184.528 347.296 184.505C347.322 184.483 347.349 184.462 347.376 184.44C347.404 184.419 347.431 184.397 347.459 184.376C347.487 184.355 347.515 184.335 347.543 184.314C347.571 184.294 347.6 184.273 347.629 184.253C347.658 184.233 347.687 184.213 347.717 184.194C347.746 184.174 347.776 184.155 347.806 184.135C347.837 184.116 347.867 184.097 347.898 184.079C347.929 184.06 347.96 184.041 347.991 184.023C348.023 184.005 348.055 183.987 348.087 183.969C348.119 183.951 348.151 183.934 348.184 183.916C348.216 183.898 348.249 183.881 348.283 183.864C348.316 183.847 348.35 183.83 348.384 183.814C348.418 183.797 348.452 183.781 348.487 183.765C348.522 183.748 348.557 183.732 348.592 183.717C348.627 183.701 348.663 183.685 348.699 183.67C348.735 183.654 348.772 183.639 348.809 183.624C348.845 183.609 348.882 183.594 348.92 183.579C348.957 183.564 348.995 183.55 349.033 183.535C349.072 183.521 349.11 183.507 349.149 183.493C349.188 183.479 349.227 183.465 349.267 183.451C349.307 183.437 349.347 183.424 349.387 183.41C349.427 183.397 349.468 183.384 349.509 183.371C349.55 183.358 349.592 183.345 349.634 183.332C349.676 183.319 349.718 183.307 349.76 183.294C349.803 183.282 349.846 183.27 349.89 183.257C349.933 183.245 349.977 183.233 350.021 183.222C350.065 183.21 350.11 183.198 350.155 183.186C350.2 183.175 350.245 183.163 350.291 183.152C350.337 183.141 350.383 183.129 350.429 183.118C350.476 183.107 350.523 183.097 350.57 183.086C350.618 183.075 350.666 183.064 350.714 183.054C350.762 183.043 350.811 183.033 350.86 183.022C350.909 183.012 350.958 183.002 351.008 182.992C351.058 182.982 351.108 182.972 351.159 182.962C351.21 182.952 351.261 182.942 351.313 182.932C351.364 182.923 351.416 182.913 351.469 182.904C351.521 182.894 351.574 182.885 351.628 182.876C351.681 182.867 351.735 182.857 351.789 182.848C351.843 182.839 351.898 182.83 351.953 182.821C352.008 182.813 352.064 182.804 352.12 182.795C352.176 182.786 352.232 182.778 352.289 182.769C352.346 182.76 352.403 182.752 352.461 182.744C352.519 182.735 352.577 182.727 352.636 182.719C352.695 182.71 352.754 182.702 352.814 182.694C352.873 182.686 352.934 182.678 352.994 182.67C353.055 182.662 353.116 182.654 353.178 182.646C353.239 182.638 353.301 182.63 353.364 182.623C353.426 182.615 353.489 182.607 353.553 182.599C353.616 182.592 353.68 182.584 353.745 182.577C353.809 182.569 353.874 182.561 353.94 182.554C354.005 182.546 354.071 182.539 354.138 182.532C354.204 182.524 354.271 182.517 354.339 182.51C354.406 182.502 354.474 182.495 354.543 182.488C354.611 182.48 354.68 182.473 354.749 182.466C354.819 182.459 354.889 182.452 354.96 182.444C355.03 182.437 355.101 182.43 355.173 182.423C355.244 182.416 355.316 182.409 355.389 182.402C355.461 182.395 355.535 182.387 355.608 182.38C355.682 182.373 355.756 182.366 355.831 182.359C355.906 182.352 355.981 182.345 356.056 182.338Z" fill="#fadade" fill-rule="nonzero" opacity="1" stroke="#fadade" stroke-linecap="round" stroke-linejoin="round" stroke-width="0.513281"/>
<path d="M179.066 121.484C177.087 121.44 175.004 121.749 172.82 122.454C165.026 124.969 156.285 133.938 161.349 145.522L161.463 145.737C163.897 150.425 168.206 153.406 173.274 155.277C175.37 156.051 177.704 156.441 179.691 157.433C180.007 157.591 180.374 157.795 180.77 157.972C181.604 158.231 183.463 159.77 184.006 160.397C187.104 163.978 186.057 168.507 184.006 172.632C183.595 173.46 181.631 175.899 179.52 176.944C175.646 178.784 169.658 177.606 166.914 174.518C166.179 173.691 165.271 172.132 165.268 170.745C165.224 168.833 166.097 166.607 167.15 165.241C167.465 164.801 167.587 164.369 167.596 163.746C167.603 163.271 167.001 162.774 167.001 162.774C167.001 162.774 166.575 162.248 165.075 162.253C163.357 162.258 161.592 163.808 160.441 165.086C157.01 168.899 158.206 175.266 161.463 178.776L161.577 178.83C166.385 184.106 177.147 184.997 182.076 182.98C189.946 179.76 193.465 172.055 193.603 165.517C193.645 163.499 193.386 161.588 192.808 159.966C191.092 155.081 187.921 152.191 184.006 150.103C181.253 148.634 177.111 146.976 174.978 146.222C168.18 143.734 165.457 136.069 170.265 130.538C170.239 130.544 171.244 129.575 171.457 129.407C172.378 128.681 173.534 128.155 174.694 127.898C177.994 127.166 183.119 128.17 184.006 131.778L183.836 131.778C184.284 132.477 183.18 133.9 183.495 134.796C184.01 136.261 185.637 136.485 186.959 136.305C189.775 135.924 193.074 134.391 192.183 131.293L192.183 131.239C189.789 124.993 185.004 121.614 179.066 121.484Z" fill="#fadade" fill-rule="nonzero" opacity="1" stroke="#fadade" stroke-linecap="round" stroke-linejoin="round" stroke-width="0.968217"/>
<path d="M234.305 156.515L223.259 163.884L223.263 163.884C223.497 161.743 223.742 157.682 225.416 154.944C226.568 153.061 228.135 152.023 229.64 151.713C230.871 151.458 232.05 151.571 233.014 153.12C233.525 153.941 233.967 155.063 234.305 156.535C234.305 156.535 241.864 157.746 241.864 157.746C241.864 154.385 240.695 151.083 239.145 149.268C232.882 141.93 223.431 145.548 218.302 153.935C214.201 160.641 215.541 169.624 216.968 174.416L216.931 174.289C217.352 175.855 218.649 178.189 220.595 180.107C221.728 181.222 223.137 182.265 224.613 182.928C228.017 184.458 232.359 184.202 235.866 182.299C237.716 181.295 240.584 179.48 241.912 177.243C242.771 175.797 243.056 175.019 243.509 173.659C243.938 172.372 243.609 170.049 242.895 168.826C242.574 168.277 241.924 168.068 241.608 168.436L240.896 169.526C240.306 170.399 240.468 170.172 239.889 171.065C238.804 172.737 235.528 176.262 232.072 176.94C228.92 177.558 225.283 176.48 223.943 173.875C223.636 173.278 223.007 171.618 223.258 170.327L223.259 170.314L241.864 157.746" fill="#fadade" fill-rule="nonzero" opacity="1" stroke="#fadade" stroke-linecap="round" stroke-linejoin="round" stroke-width="0.901868"/>
<path d="M209.197 120.409C203.05 122.57 203.06 122.553 196.913 124.714C199.297 125.67 200.923 125.717 201.008 128.736C201.146 133.691 201.134 138.622 201.14 143.578L190.705 143.578L190.705 149.017L201.206 149.017C201.166 158.442 201.008 174.799 201.008 183.969C205.106 182.877 205.099 182.852 209.197 181.76C209.197 167.398 209.197 158.233 209.197 149.017L218.311 149.017L218.311 143.578L209.197 143.578C209.197 136.855 209.197 130.572 209.197 120.409Z" fill="#fadade" fill-rule="nonzero" opacity="1" stroke="#fadade" stroke-linecap="butt" stroke-linejoin="round" stroke-width="0.513281"/>
<path d="M256.023 120.43C249.862 122.559 249.862 122.559 243.7 124.688C246.436 125.992 247.804 125.747 247.846 128.73C248.104 147.144 247.846 165.56 247.846 183.974C251.934 182.87 251.934 182.87 256.023 181.765C256.023 151.097 256.023 151.097 256.023 120.43Z" fill="#fadade" fill-rule="nonzero" opacity="1" stroke="#fadade" stroke-linecap="butt" stroke-linejoin="round" stroke-width="0.513281"/>
<path d="M269.935 120.378C263.774 122.507 263.774 122.507 257.613 124.636C260.348 125.94 261.716 125.695 261.758 128.678C261.8 131.687 261.829 134.695 261.847 137.704C261.891 145.16 261.872 152.616 261.84 160.073C261.806 168.023 261.758 175.973 261.758 183.922C265.847 182.817 265.847 182.817 269.935 181.712C269.935 151.045 269.935 151.045 269.935 120.378Z" fill="#fadade" fill-rule="nonzero" opacity="1" stroke="#fadade" stroke-linecap="butt" stroke-linejoin="round" stroke-width="0.513281"/>
<path d="M353.802 103.922L344.81 111.928L337.363 118.197C337.363 118.197 337.465 118.501 338.136 121.894C339.226 127.413 341.246 137.19 342.363 144.168C343.619 152.015 344.81 159.421 344.81 167.357C348.899 166.254 343.71 167.649 347.798 166.546C347.798 135.928 353.802 103.922 353.802 103.922Z" fill="#77437f" fill-rule="nonzero" opacity="1" stroke="#77437f" stroke-linecap="butt" stroke-linejoin="round" stroke-width="0.513281"/>
<path d="M353.802 103.922L342.911 112.358L335.464 118.637C335.464 118.637 335.566 118.941 336.237 122.34C337.327 127.868 339.347 137.66 340.464 144.649C341.72 152.509 342.911 159.927 342.911 167.877C347 166.772 341.81 168.169 345.899 167.064C345.899 136.396 353.802 103.922 353.802 103.922Z" fill="#fadade" fill-rule="nonzero" opacity="1" stroke="#fadade" stroke-linecap="butt" stroke-linejoin="round" stroke-width="0.513281"/>
<path d="M287.958 145.109C286.711 145.281 284.371 145.811 281.484 147.481C281.262 147.609 276.147 151.362 276.146 151.361C275.92 151.707 275.834 152.928 275.919 154.272C276.045 156.257 276.497 158.364 277.112 158.045C277.168 158.005 277.224 157.978 277.282 157.937C281.073 155.237 288.812 148.969 292.42 154.989C292.241 155.147 292.563 154.754 292.387 154.919C292.406 156.112 292.432 157.337 292.444 158.53C292.445 158.728 292.442 158.925 292.444 159.123C291.558 157.446 289.15 156.659 287.333 156.697C282.759 156.793 279.329 159.506 277.112 163.165C275.397 165.993 274.69 169.442 274.897 172.705C275.254 178.319 280.105 185.416 286.879 183.646C289.626 182.927 291.13 181.589 292.387 180.196C292.383 181.435 292.387 182.674 292.387 183.915C296.085 183.307 296.072 183.337 299.769 182.729C299.769 167.473 299.769 164.881 299.769 152.224C299.755 152.188 299.06 152.483 299.046 152.447L299.712 152.385C299.783 152.181 299.495 151.833 299.485 151.523C299.459 151.453 299.778 152.112 299.753 152.043C299.77 151.146 299.484 149.492 298.86 148.882C296.474 145.976 292.274 144.514 287.958 145.109ZM288.014 160.739C289.063 160.612 289.986 160.909 290.797 161.171C291.108 161.271 291.773 161.669 292.444 162.087C292.453 164.996 292.464 167.904 292.444 170.818C292.436 171.844 292.45 172.866 292.444 173.89C290.532 176.887 286.658 178.491 283.755 175.13C281.031 171.975 281.905 164.531 285.232 161.925C286.567 160.879 287.226 160.835 288.014 160.739Z" fill="#fadade" fill-rule="nonzero" opacity="1" stroke="#fadade" stroke-linecap="butt" stroke-linejoin="round" stroke-width="0.513281"/>
<path d="M315.72 144.384C309.559 145.708 309.559 145.701 303.398 147.025C306.134 147.836 307.501 147.703 307.543 149.558C307.585 151.429 307.639 153.292 307.657 155.163C307.701 159.801 307.689 164.431 307.657 169.069C307.623 174.013 307.543 179 307.543 183.944C311.632 183.257 311.632 183.23 315.72 182.543C315.72 171.875 315.72 166.609 315.72 161.2C315.879 157.714 318.834 154.169 321.683 153.223C323.263 152.698 325.071 152.65 326.225 153.169C328.902 154.374 326.642 156.557 328.667 158.182C332.052 160.897 336.549 157.097 336.219 153.87C335.668 148.477 329.222 144.742 323.159 145.354C320.799 145.592 318.004 146.747 315.72 148.588C315.72 146.899 315.72 146.485 315.72 144.384Z" fill="#fadade" fill-rule="nonzero" opacity="1" stroke="#fadade" stroke-linecap="round" stroke-linejoin="round" stroke-width="0.513281"/>
</g>
</g>
</g>
</svg>
