<svg width="174" height="94" viewBox="0 0 174 94" fill="none" xmlns="http://www.w3.org/2000/svg">
<path d="M0 29C0 17.9543 8.95431 9 20 9H154C165.046 9 174 17.9543 174 29V74C174 85.0457 165.046 94 154 94H20C8.95431 94 0 85.0457 0 74V29Z" fill="#110420"/>
<path d="M0 20C0 8.9543 8.95431 0 20 0H154C165.046 0 174 8.95431 174 20V64C174 75.0457 165.046 84 154 84H20C8.95431 84 0 75.0457 0 64V20Z" fill="#E2C8DC"/>
<path d="M10 29C10 17.9543 18.9543 9 30 9H143C154.046 9 163 17.9543 163 29V56C163 67.0457 154.046 76 143 76H30C18.9543 76 10 67.0457 10 56V29Z" fill="#D52623"/>
<path d="M83.26 27.86V57H79.74C79.22 57 78.78 56.92 78.42 56.76C78.0733 56.5867 77.7267 56.2933 77.38 55.88L63.64 38.5C63.6933 39.02 63.7267 39.5267 63.74 40.02C63.7667 40.5 63.78 40.9533 63.78 41.38V57H57.82V27.86H61.38C61.6733 27.86 61.92 27.8733 62.12 27.9C62.32 27.9267 62.5 27.98 62.66 28.06C62.82 28.1267 62.9733 28.2267 63.12 28.36C63.2667 28.4933 63.4333 28.6733 63.62 28.9L77.48 46.4C77.4133 45.84 77.3667 45.3 77.34 44.78C77.3133 44.2467 77.3 43.7467 77.3 43.28V27.86H83.26Z" fill="#E2C8DC"/>
<path d="M117.514 42.42C117.514 44.5267 117.147 46.4867 116.414 48.3C115.694 50.1133 114.674 51.6933 113.354 53.04C112.034 54.3733 110.44 55.42 108.574 56.18C106.72 56.94 104.66 57.32 102.394 57.32C100.127 57.32 98.0604 56.94 96.1937 56.18C94.3271 55.42 92.7271 54.3733 91.3938 53.04C90.0738 51.6933 89.0471 50.1133 88.3138 48.3C87.5938 46.4867 87.2337 44.5267 87.2337 42.42C87.2337 40.3133 87.5938 38.3533 88.3138 36.54C89.0471 34.7267 90.0738 33.1533 91.3938 31.82C92.7271 30.4867 94.3271 29.44 96.1937 28.68C98.0604 27.92 100.127 27.54 102.394 27.54C104.66 27.54 106.72 27.9267 108.574 28.7C110.44 29.46 112.034 30.5067 113.354 31.84C114.674 33.1733 115.694 34.7467 116.414 36.56C117.147 38.3733 117.514 40.3267 117.514 42.42ZM110.594 42.42C110.594 40.98 110.407 39.6867 110.034 38.54C109.66 37.38 109.12 36.4 108.414 35.6C107.72 34.8 106.867 34.1867 105.854 33.76C104.84 33.3333 103.687 33.12 102.394 33.12C101.087 33.12 99.9204 33.3333 98.8938 33.76C97.8804 34.1867 97.0204 34.8 96.3138 35.6C95.6204 36.4 95.0871 37.38 94.7138 38.54C94.3404 39.6867 94.1537 40.98 94.1537 42.42C94.1537 43.8733 94.3404 45.18 94.7138 46.34C95.0871 47.4867 95.6204 48.46 96.3138 49.26C97.0204 50.06 97.8804 50.6733 98.8938 51.1C99.9204 51.5133 101.087 51.72 102.394 51.72C103.687 51.72 104.84 51.5133 105.854 51.1C106.867 50.6733 107.72 50.06 108.414 49.26C109.12 48.46 109.66 47.4867 110.034 46.34C110.407 45.18 110.594 43.8733 110.594 42.42Z" fill="#E2C8DC"/>
</svg>
