<svg width="127" height="128" viewBox="0 0 127 128" fill="none" xmlns="http://www.w3.org/2000/svg">
<path d="M127 64C127 99.3462 98.5701 128 63.5 128C28.4299 128 0 99.3462 0 64C0 28.6538 28.4299 0 63.5 0C98.5701 0 127 28.6538 127 64Z" fill="url(#paint0_radial_33_4)" fill-opacity="0.5"/>
<path d="M65.7238 64.579L63.4999 24L61.2762 64.579L24 67L61.2762 69.421L63.4999 110L65.7238 69.421L103 67L65.7238 64.579Z" fill="#CFAEC7"/>
<path d="M65.7238 64.579L63.4999 24L61.2762 64.579L24 67L61.2762 69.421L63.4999 110L65.7238 69.421L103 67L65.7238 64.579Z" fill="url(#paint1_linear_33_4)" fill-opacity="0.2"/>
<path d="M65.4705 66.4999L81 48L63.5001 64.4167L46 48L61.5294 66.4999L46 85L63.4999 68.5829L81 85L65.4705 66.4999Z" fill="#CFAEC7"/>
<path d="M65.4705 66.4999L81 48L63.5001 64.4167L46 48L61.5294 66.4999L46 85L63.4999 68.5829L81 85L65.4705 66.4999Z" fill="url(#paint2_linear_33_4)" fill-opacity="0.2"/>
<defs>
<radialGradient id="paint0_radial_33_4" cx="0" cy="0" r="1" gradientUnits="userSpaceOnUse" gradientTransform="translate(63.5 64) rotate(90) scale(64 63.5)">
<stop stop-color="#E5C7DE"/>
<stop offset="1" stop-color="#CFAEC7" stop-opacity="0"/>
</radialGradient>
<linearGradient id="paint1_linear_33_4" x1="63.5" y1="48" x2="63.5" y2="85" gradientUnits="userSpaceOnUse">
<stop stop-color="#E2C8DC" stop-opacity="0"/>
<stop offset="0.495" stop-color="#FE5F0B" stop-opacity="0.495"/>
<stop offset="1" stop-color="#FE5F0B"/>
</linearGradient>
<linearGradient id="paint2_linear_33_4" x1="63.5" y1="48" x2="63.5" y2="85" gradientUnits="userSpaceOnUse">
<stop stop-color="#E2C8DC" stop-opacity="0"/>
<stop offset="0.495" stop-color="#FE5F0B" stop-opacity="0.495"/>
<stop offset="1" stop-color="#FE5F0B"/>
</linearGradient>
</defs>
</svg>
