<svg width="87" height="89" viewBox="0 0 87 89" fill="none" xmlns="http://www.w3.org/2000/svg">
<path d="M87 44.5C87 69.0767 67.5244 89 43.5 89C19.4756 89 0 69.0767 0 44.5C0 19.9233 19.4756 0 43.5 0C67.5244 0 87 19.9233 87 44.5Z" fill="url(#paint0_radial_33_11)" fill-opacity="0.5"/>
<path d="M43.5001 5C43.4806 5.27087 43.4613 5.53959 43.442 5.80655C43.4227 6.07351 43.4032 6.33832 43.3839 6.60117C43.3645 6.86402 43.345 7.12511 43.3257 7.38404C43.3064 7.64298 43.2869 7.90014 43.2674 8.15516C43.2479 8.41018 43.2284 8.66344 43.2089 8.91474C43.1894 9.16604 43.1696 9.41539 43.1501 9.66278C43.1304 9.91016 43.1107 10.1558 43.0908 10.3995C43.0711 10.6431 43.0511 10.8848 43.031 11.1248C43.0111 11.3647 42.991 11.6027 42.9707 11.8388C42.9503 12.075 42.93 12.3093 42.9097 12.5418C42.8892 12.7743 42.8686 13.0049 42.8477 13.2336C42.827 13.4624 42.806 13.6895 42.7849 13.9145C42.7637 14.1398 42.7426 14.3631 42.7211 14.5847C42.6997 14.8062 42.678 15.026 42.6562 15.2441C42.6345 15.4621 42.6123 15.6784 42.5902 15.8927C42.568 16.107 42.5455 16.3199 42.5227 16.5309C42.5 16.7419 42.477 16.9511 42.4538 17.1586C42.4306 17.366 42.4073 17.5717 42.3835 17.7759C42.3597 17.98 42.3357 18.1824 42.3115 18.383C42.2873 18.5836 42.2628 18.7826 42.238 18.9799C42.2132 19.1772 42.188 19.3727 42.1625 19.5667C42.1371 19.7606 42.1113 19.9528 42.0853 20.1435C42.0593 20.3341 42.0327 20.523 42.006 20.7103C41.9792 20.8976 41.9522 21.0833 41.9245 21.2673C41.8971 21.4512 41.8693 21.6339 41.841 21.8147C41.8128 21.9955 41.7841 22.1748 41.755 22.3525C41.726 22.5303 41.6965 22.7062 41.6668 22.8808C41.637 23.0554 41.6067 23.2282 41.576 23.3996C41.5453 23.5711 41.5142 23.7408 41.4827 23.9091C41.4512 24.0774 41.4191 24.2441 41.3866 24.4093C41.354 24.5745 41.3211 24.7383 41.2878 24.9004C41.2543 25.0626 41.2205 25.2233 41.186 25.3824C41.1516 25.5416 41.1167 25.6993 41.0813 25.8555C41.0459 26.0117 41.01 26.1665 40.9736 26.3197C40.9372 26.473 40.9002 26.6248 40.8626 26.7752C40.825 26.9257 40.787 27.0746 40.7484 27.222C40.7098 27.3696 40.6705 27.5156 40.6307 27.6604C40.5909 27.805 40.5506 27.9483 40.5096 28.0902C40.4685 28.2321 40.4271 28.3726 40.3848 28.5116C40.3427 28.6507 40.2998 28.7883 40.2565 28.9247C40.2132 29.0611 40.1691 29.196 40.1244 29.3297C40.0797 29.4633 40.0344 29.5957 39.9884 29.7266C39.9425 29.8575 39.8958 29.9871 39.8484 30.1155C39.8011 30.2439 39.7531 30.3707 39.7043 30.4965C39.6555 30.6224 39.6061 30.7467 39.5561 30.8698C39.5062 30.9929 39.4553 31.1146 39.4037 31.2352C39.3521 31.3558 39.2999 31.4749 39.2468 31.593C39.1938 31.711 39.1401 31.8278 39.0856 31.9433C39.0312 32.0588 38.9759 32.1731 38.9198 32.2862C38.8637 32.3993 38.807 32.5111 38.7493 32.6218C38.6916 32.7324 38.6332 32.8418 38.5741 32.9501C38.5149 33.0583 38.4548 33.1654 38.394 33.2712C38.3332 33.3771 38.2714 33.4818 38.2088 33.5854C38.1462 33.6889 38.083 33.7913 38.0188 33.8924C37.9546 33.9936 37.8895 34.0938 37.8235 34.1927C37.7576 34.2917 37.6908 34.3896 37.6231 34.4863C37.5554 34.5829 37.4867 34.6786 37.4172 34.7732C37.3477 34.8677 37.2772 34.9611 37.2058 35.0534C37.1345 35.1458 37.0621 35.237 36.989 35.3273C36.9158 35.4175 36.8416 35.5065 36.7664 35.5946C36.6912 35.6827 36.6152 35.7698 36.5382 35.8557C36.4611 35.9416 36.3831 36.0268 36.304 36.1107C36.225 36.1947 36.1451 36.2777 36.064 36.3595C35.9829 36.4413 35.901 36.5223 35.8179 36.6024C35.735 36.6824 35.6508 36.7613 35.5656 36.8394C35.4805 36.9173 35.3943 36.9944 35.3071 37.0705C35.2199 37.1466 35.1317 37.2218 35.0423 37.296C34.9531 37.3701 34.8626 37.4434 34.7712 37.5158C34.6797 37.5882 34.587 37.6594 34.4935 37.7301C34.4001 37.8007 34.3051 37.8702 34.2092 37.9389C34.1133 38.0076 34.0163 38.0755 33.9182 38.1425C33.82 38.2094 33.7206 38.2755 33.6202 38.3407C33.5198 38.4059 33.4182 38.4703 33.3153 38.5339C33.2125 38.5973 33.1086 38.6601 33.0034 38.722C32.8983 38.7838 32.792 38.8449 32.6845 38.905C32.577 38.9653 32.4682 39.0246 32.3582 39.0833C32.2483 39.1418 32.1371 39.1997 32.0247 39.2567C31.9123 39.3138 31.7987 39.37 31.6839 39.4254C31.569 39.481 31.4528 39.5356 31.3355 39.5896C31.2182 39.6436 31.0994 39.6968 30.9794 39.7493C30.8595 39.8018 30.7382 39.8536 30.6156 39.9045C30.4931 39.9556 30.3691 40.0059 30.2441 40.0554C30.1189 40.1051 29.9925 40.154 29.8647 40.2022C29.7368 40.2505 29.6076 40.2981 29.4771 40.3449C29.3466 40.3918 29.2147 40.438 29.0813 40.4836C28.948 40.5292 28.8135 40.5741 28.6775 40.6185C28.5415 40.6627 28.4041 40.7064 28.2653 40.7494C28.1265 40.7925 27.9863 40.8348 27.8448 40.8766C27.7032 40.9185 27.5603 40.9596 27.4157 41.0001C27.2712 41.0406 27.1255 41.0808 26.9782 41.1201C26.8308 41.1596 26.682 41.1984 26.5318 41.2368C26.3816 41.2751 26.2298 41.3129 26.0766 41.3501C25.9233 41.3873 25.7687 41.4239 25.6126 41.4601C25.4565 41.4963 25.2988 41.5319 25.1396 41.5669C24.9805 41.602 24.8197 41.6366 24.6575 41.6707C24.4953 41.7047 24.3315 41.7384 24.1663 41.7715C24.0011 41.8045 23.8342 41.8372 23.6657 41.8695C23.4972 41.9016 23.3273 41.9333 23.1558 41.9646C22.9842 41.9959 22.811 42.0267 22.6363 42.0572C22.4615 42.0875 22.2851 42.1175 22.1072 42.147C21.9294 42.1766 21.7497 42.2058 21.5684 42.2345C21.3871 42.2633 21.2044 42.2917 21.0198 42.3195C20.8353 42.3474 20.6491 42.3751 20.4613 42.4023C20.2736 42.4295 20.0841 42.4563 19.8929 42.4827C19.7018 42.5091 19.5089 42.5353 19.3144 42.5612C19.1199 42.587 18.9238 42.6124 18.7258 42.6375C18.5279 42.6626 18.3283 42.6874 18.1269 42.7119C17.9255 42.7363 17.7224 42.7606 17.5176 42.7845C17.3127 42.8084 17.1062 42.8321 16.8977 42.8553C16.6893 42.8786 16.4792 42.9017 16.2672 42.9246C16.0552 42.9475 15.8416 42.97 15.6262 42.9923C15.4107 43.0146 15.1934 43.0368 14.9743 43.0587C14.7553 43.0806 14.5343 43.1021 14.3118 43.1237C14.0892 43.1452 13.8644 43.1663 13.638 43.1873C13.4116 43.2082 13.1834 43.2292 12.9533 43.2497C12.7232 43.2703 12.4913 43.2908 12.2574 43.3112C12.0235 43.3315 11.7879 43.3517 11.5503 43.3717C11.3127 43.3916 11.0733 43.4116 10.8318 43.4311C10.5904 43.4509 10.3471 43.4705 10.1018 43.4898C9.85645 43.5092 9.60932 43.5286 9.36034 43.548C9.11117 43.5672 8.86015 43.5863 8.60711 43.6055C8.35407 43.6247 8.09922 43.6437 7.84211 43.6625C7.58521 43.6815 7.32627 43.7002 7.06531 43.719C6.80434 43.7378 6.54155 43.7566 6.27652 43.7754C6.01149 43.7942 5.74462 43.8128 5.47573 43.8316C5.20683 43.8502 4.93591 43.869 4.66275 43.8876C4.38979 43.9062 4.11461 43.9248 3.83759 43.9435C3.56036 43.9621 3.28129 43.9809 3 43.9995C3.28129 44.0181 3.56036 44.0369 3.83759 44.0555C4.11481 44.0741 4.38979 44.0929 4.66275 44.1115C4.93571 44.13 5.20683 44.1488 5.47573 44.1674C5.74462 44.186 6.01169 44.2048 6.27652 44.2236C6.54135 44.2424 6.80434 44.2612 7.06531 44.28C7.32627 44.2988 7.58521 44.3177 7.84211 44.3365C8.09901 44.3555 8.35407 44.3745 8.60711 44.3937C8.86015 44.4127 9.11117 44.4319 9.36034 44.4512C9.60952 44.4704 9.85665 44.4898 10.1018 44.5094C10.3471 44.5289 10.5904 44.5485 10.8318 44.5683C11.0733 44.588 11.3127 44.6078 11.5503 44.6278C11.7879 44.6477 12.0237 44.6679 12.2574 44.6882C12.4911 44.7086 12.7232 44.7289 12.9533 44.7497C13.1834 44.7702 13.4116 44.7912 13.638 44.8121C13.8644 44.8331 14.089 44.8544 14.3118 44.8757C14.5345 44.8971 14.7555 44.9188 14.9743 44.9407C15.1934 44.9626 15.4107 44.9848 15.6262 45.0071C15.8416 45.0294 16.0552 45.0519 16.2672 45.0748C16.4792 45.0977 16.6891 45.1208 16.8977 45.1441C17.106 45.1673 17.3127 45.191 17.5176 45.2149C17.7224 45.2388 17.9255 45.2631 18.1269 45.2875C18.3283 45.312 18.5279 45.3368 18.7258 45.3619C18.9238 45.3871 19.1199 45.4126 19.3144 45.4384C19.5089 45.4643 19.7018 45.4903 19.8929 45.5169C20.0841 45.5433 20.2736 45.5701 20.4613 45.5974C20.6491 45.6246 20.8353 45.6521 21.0198 45.6801C21.2044 45.7081 21.3871 45.7365 21.5684 45.7653C21.7497 45.7941 21.9292 45.8232 22.1072 45.8528C22.2853 45.8823 22.4615 45.9123 22.6363 45.9426C22.811 45.9729 22.9842 46.0038 23.1558 46.0352C23.3273 46.0665 23.4974 46.0982 23.6657 46.1303C23.834 46.1624 24.0011 46.1951 24.1663 46.2282C24.3315 46.2612 24.4953 46.2949 24.6575 46.3289C24.8197 46.363 24.9805 46.3976 25.1396 46.4327C25.2988 46.4677 25.4565 46.5033 25.6126 46.5395C25.7687 46.5757 25.9233 46.6123 26.0766 46.6495C26.2298 46.6867 26.3814 46.7245 26.5318 46.7628C26.682 46.8012 26.8308 46.84 26.9782 46.8795C27.1255 46.9188 27.2714 46.9589 27.4157 46.9995C27.5603 47.04 27.7032 47.0813 27.8448 47.123C27.9865 47.1647 28.1265 47.2071 28.2653 47.2502C28.4041 47.2932 28.5415 47.3369 28.6775 47.3811C28.8135 47.4254 28.948 47.4704 29.0813 47.516C29.2147 47.5616 29.3464 47.6078 29.4771 47.6547C29.6076 47.7017 29.7368 47.7493 29.8647 47.7974C29.9925 47.8458 30.1189 47.8947 30.2441 47.9442C30.3693 47.9939 30.4931 48.0442 30.6156 48.0951C30.7382 48.1462 30.8595 48.1979 30.9794 48.2505C31.0994 48.303 31.218 48.3562 31.3355 48.4102C31.453 48.4642 31.569 48.5188 31.6839 48.5744C31.7987 48.63 31.9123 48.6862 32.0247 48.7431C32.1371 48.8001 32.2483 48.858 32.3582 48.9165C32.4682 48.975 32.577 49.0345 32.6845 49.0948C32.792 49.1551 32.8983 49.216 33.0034 49.2778C33.1084 49.3397 33.2125 49.4023 33.3153 49.4659C33.4182 49.5293 33.5198 49.5937 33.6202 49.6591C33.7206 49.7243 33.82 49.7904 33.9182 49.8573C34.0163 49.9243 34.1133 49.9922 34.2092 50.0609C34.3051 50.1296 34.3998 50.1993 34.4935 50.2697C34.5872 50.3402 34.6797 50.4116 34.7712 50.484C34.8626 50.5565 34.9531 50.6296 35.0423 50.7038C35.1315 50.778 35.2199 50.8532 35.3071 50.9293C35.3943 51.0054 35.4805 51.0823 35.5656 51.1604C35.6508 51.2383 35.7348 51.3174 35.8179 51.3974C35.901 51.4775 35.9829 51.5583 36.064 51.6403C36.1451 51.7223 36.225 51.8051 36.304 51.8891C36.3831 51.973 36.4611 52.058 36.5382 52.1441C36.6152 52.2302 36.6912 52.3171 36.7664 52.4052C36.8416 52.4933 36.9156 52.5825 36.989 52.6726C37.0621 52.7628 37.1345 52.854 37.2058 52.9464C37.2772 53.0387 37.3477 53.1321 37.4172 53.2266C37.4867 53.3211 37.5554 53.4169 37.6231 53.5136C37.6908 53.6102 37.7576 53.7081 37.8235 53.8071C37.8895 53.9062 37.9546 54.0062 38.0188 54.1073C38.083 54.2085 38.1464 54.3109 38.2088 54.4144C38.2714 54.518 38.333 54.6227 38.394 54.7286C38.4548 54.8345 38.5149 54.9415 38.5741 55.0497C38.6332 55.158 38.6918 55.2674 38.7493 55.378C38.8068 55.4885 38.8637 55.6005 38.9198 55.7134C38.9759 55.8263 39.0312 55.9408 39.0856 56.0563C39.1401 56.1718 39.194 56.2886 39.2468 56.4067C39.2999 56.5247 39.3521 56.6441 39.4037 56.7644C39.4553 56.885 39.5062 57.0067 39.5561 57.1298C39.6061 57.2529 39.6557 57.3772 39.7043 57.5031C39.7531 57.6287 39.8011 57.7557 39.8484 57.8841C39.8958 58.0125 39.9423 58.1421 39.9884 58.273C40.0344 58.404 40.0797 58.5362 40.1244 58.6699C40.1691 58.8036 40.2132 58.9386 40.2565 59.0749C40.3 59.2113 40.3427 59.3489 40.3848 59.488C40.4271 59.6272 40.4685 59.7675 40.5096 59.9094C40.5504 60.0513 40.5909 60.1946 40.6307 60.3392C40.6705 60.4838 40.7098 60.6301 40.7484 60.7774C40.787 60.9248 40.825 61.0739 40.8626 61.2242C40.9002 61.3746 40.9372 61.5264 40.9736 61.6799C41.01 61.8331 41.0459 61.9879 41.0813 62.1441C41.1167 62.3003 41.1516 62.458 41.186 62.6172C41.2203 62.7763 41.2543 62.9372 41.2878 63.0992C41.3211 63.2615 41.3542 63.4251 41.3866 63.5903C41.4191 63.7555 41.451 63.9222 41.4827 64.0905C41.5142 64.2588 41.5453 64.4287 41.576 64.6C41.6067 64.7714 41.637 64.9443 41.6668 65.1188C41.6967 65.2934 41.7262 65.4694 41.755 65.6471C41.7841 65.8248 41.8128 66.0041 41.841 66.1849C41.8693 66.3657 41.8971 66.5481 41.9245 66.7323C41.952 66.9165 41.9792 67.102 42.006 67.2893C42.0329 67.4766 42.0593 67.6657 42.0853 67.8561C42.1113 68.0468 42.1371 68.239 42.1625 68.4329C42.188 68.6269 42.2132 68.8224 42.238 69.0197C42.2628 69.217 42.2873 69.4158 42.3115 69.6166C42.3357 69.8174 42.3597 70.0196 42.3835 70.2237C42.4073 70.4279 42.4306 70.6336 42.4538 70.841C42.477 71.0485 42.5 71.2577 42.5227 71.4687C42.5455 71.6797 42.5678 71.8924 42.5902 72.1069C42.6125 72.3214 42.6345 72.5377 42.6562 72.7557C42.678 72.9738 42.6997 73.1936 42.7211 73.4151C42.7426 73.6367 42.7637 73.86 42.7849 74.0853C42.806 74.3105 42.827 74.5374 42.8477 74.7662C42.8684 74.995 42.8892 75.2255 42.9097 75.458C42.9302 75.6905 42.9505 75.9248 42.9707 76.161C42.9908 76.3973 43.0109 76.6353 43.031 76.8752C43.0511 77.1152 43.0708 77.3569 43.0908 77.6005C43.1107 77.8442 43.1304 78.0896 43.1501 78.3372C43.1698 78.5846 43.1894 78.834 43.2089 79.0853C43.2284 79.3366 43.2479 79.5896 43.2674 79.8448C43.2869 80.1001 43.3062 80.357 43.3257 80.616C43.345 80.8749 43.3645 81.136 43.3839 81.3988C43.4032 81.6617 43.4227 81.9267 43.442 82.1935C43.4613 82.4604 43.4808 82.7291 43.5001 83C43.5194 82.7291 43.5389 82.4604 43.5582 82.1935C43.5775 81.9267 43.5971 81.6617 43.6164 81.3988C43.6357 81.136 43.6552 80.8749 43.6745 80.616C43.6938 80.357 43.7133 80.0999 43.7328 79.8448C43.7523 79.5898 43.7718 79.3366 43.7914 79.0853C43.8109 78.834 43.8306 78.5846 43.8501 78.3372C43.8698 78.0898 43.8895 77.8442 43.9092 77.6005C43.9289 77.3569 43.9489 77.1152 43.969 76.8752C43.9889 76.6353 44.009 76.3973 44.0294 76.161C44.0495 75.9248 44.07 75.6905 44.0903 75.458C44.1108 75.2255 44.1314 74.995 44.1521 74.7662C44.1728 74.5374 44.1938 74.3103 44.2149 74.0853C44.236 73.86 44.2572 73.6367 44.2787 73.4151C44.3001 73.1936 44.3218 72.9738 44.3436 72.7557C44.3653 72.5377 44.3875 72.3214 44.4096 72.1069C44.4318 71.8924 44.4543 71.6797 44.4771 71.4687C44.4999 71.2577 44.5228 71.0485 44.546 70.841C44.5692 70.6336 44.5925 70.4277 44.6163 70.2237C44.6401 70.0198 44.6641 69.8174 44.6883 69.6166C44.7125 69.416 44.7371 69.217 44.7619 69.0197C44.7866 68.8224 44.8118 68.6269 44.8372 68.4329C44.8627 68.239 44.8885 68.0468 44.9145 67.8561C44.9405 67.6655 44.9671 67.4766 44.9938 67.2893C45.0206 67.102 45.0476 66.9163 45.0753 66.7323C45.1029 66.5483 45.1305 66.3657 45.1588 66.1849C45.187 66.0041 45.2157 65.8248 45.2448 65.6471C45.2738 65.4694 45.3033 65.2934 45.333 65.1188C45.3626 64.9443 45.3931 64.7714 45.4238 64.6C45.4545 64.4285 45.4856 64.2588 45.5171 64.0905C45.5486 63.9222 45.5807 63.7555 45.6132 63.5903C45.6458 63.4251 45.6787 63.2613 45.712 63.0992C45.7455 62.937 45.7793 62.7763 45.8139 62.6172C45.8482 62.458 45.8831 62.3003 45.9185 62.1441C45.9539 61.9879 45.9898 61.8331 46.0262 61.6799C46.0626 61.5266 46.0996 61.3748 46.1372 61.2242C46.1748 61.0739 46.2128 60.925 46.2514 60.7774C46.29 60.6299 46.3293 60.4838 46.3691 60.3392C46.4089 60.1946 46.4492 60.0513 46.4902 59.9094C46.5313 59.7675 46.5727 59.627 46.615 59.488C46.6571 59.3489 46.7 59.2113 46.7433 59.0749C46.7868 58.9384 46.8307 58.8036 46.8754 58.6699C46.9201 58.5362 46.9654 58.404 47.0114 58.273C47.0573 58.1421 47.104 58.0125 47.1514 57.8841C47.1987 57.7557 47.2467 57.6289 47.2955 57.5031C47.3443 57.3774 47.3937 57.2529 47.4437 57.1298C47.4939 57.0067 47.5447 56.885 47.5961 56.7644C47.6477 56.6439 47.6999 56.5247 47.753 56.4067C47.806 56.2886 47.8597 56.1718 47.9144 56.0563C47.9688 55.9408 48.0241 55.8265 48.0802 55.7134C48.1363 55.6003 48.193 55.4885 48.2507 55.378C48.3083 55.2674 48.3668 55.1578 48.4259 55.0497C48.4851 54.9415 48.5452 54.8345 48.606 54.7286C48.6668 54.6227 48.7286 54.518 48.791 54.4144C48.8536 54.3109 48.9168 54.2085 48.981 54.1073C49.0452 54.0062 49.1103 53.906 49.1763 53.8071C49.2422 53.7081 49.309 53.6102 49.3767 53.5136C49.4444 53.4169 49.5131 53.3211 49.5826 53.2266C49.6521 53.1321 49.7226 53.0387 49.794 52.9464C49.8653 52.854 49.9377 52.7628 50.0108 52.6726C50.084 52.5823 50.1582 52.4933 50.2334 52.4052C50.3086 52.3171 50.3846 52.23 50.4616 52.1441C50.5387 52.0582 50.6167 51.973 50.6958 51.8891C50.7748 51.8051 50.8547 51.7221 50.9358 51.6403C51.0169 51.5583 51.0988 51.4775 51.1819 51.3974C51.2651 51.3176 51.349 51.2385 51.4342 51.1604C51.5193 51.0823 51.6055 51.0054 51.6925 50.9293C51.7797 50.8532 51.8679 50.778 51.9573 50.7038C52.0465 50.6296 52.137 50.5565 52.2284 50.484C52.3199 50.4116 52.4126 50.3404 52.5063 50.2697C52.6 50.1993 52.6947 50.1296 52.7906 50.0609C52.8865 49.9922 52.9835 49.9243 53.0816 49.8573C53.1798 49.7904 53.279 49.7243 53.3796 49.6591C53.48 49.5939 53.5816 49.5295 53.6845 49.4659C53.7873 49.4025 53.8912 49.3397 53.9964 49.2778C54.1015 49.216 54.2078 49.1549 54.3154 49.0948C54.4229 49.0345 54.5316 48.9752 54.6416 48.9165C54.7515 48.858 54.8627 48.8001 54.9751 48.7431C55.0875 48.6862 55.2011 48.6298 55.3159 48.5744C55.4308 48.519 55.547 48.4642 55.6645 48.4102C55.782 48.3562 55.9007 48.303 56.0206 48.2505C56.1405 48.1981 56.2618 48.1462 56.3844 48.0951C56.5069 48.044 56.6307 47.9937 56.7559 47.9442C56.8811 47.8945 57.0075 47.8456 57.1354 47.7974C57.2632 47.7493 57.3925 47.7015 57.523 47.6547C57.6534 47.6078 57.7853 47.5616 57.9187 47.516C58.052 47.4704 58.1865 47.4256 58.3225 47.3811C58.4585 47.3369 58.5959 47.2932 58.7347 47.2502C58.8735 47.2071 59.0135 47.1647 59.1552 47.123C59.2969 47.0813 59.4397 47.04 59.5843 46.9995C59.7288 46.9588 59.8745 46.9188 60.0219 46.8795C60.1692 46.84 60.318 46.8012 60.4682 46.7628C60.6184 46.7245 60.7702 46.6867 60.9232 46.6495C61.0765 46.6123 61.2311 46.5755 61.3872 46.5395C61.5435 46.5033 61.701 46.4677 61.8604 46.4327C62.0195 46.3976 62.1803 46.363 62.3425 46.3289C62.5047 46.2949 62.6685 46.2612 62.8337 46.2282C62.999 46.1951 63.1658 46.1624 63.3343 46.1303C63.5028 46.0982 63.6727 46.0663 63.8442 46.0352C64.0158 46.0038 64.189 45.9731 64.3637 45.9426C64.5385 45.9123 64.715 45.8823 64.8928 45.8528C65.0706 45.8232 65.2503 45.7941 65.4316 45.7653C65.6129 45.7365 65.7956 45.7081 65.9801 45.6801C66.1647 45.6521 66.3509 45.6246 66.5387 45.5974C66.7265 45.5701 66.9159 45.5433 67.1071 45.5169C67.2982 45.4905 67.4911 45.4643 67.6856 45.4384C67.8801 45.4126 68.0764 45.3871 68.2742 45.3619C68.4721 45.3368 68.6717 45.312 68.8731 45.2875C69.0745 45.2631 69.2776 45.2388 69.4825 45.2149C69.6873 45.191 69.8938 45.1673 70.1023 45.1441C70.3107 45.1208 70.5208 45.0977 70.7328 45.0748C70.9448 45.0519 71.1584 45.0294 71.3738 45.0071C71.5893 44.9848 71.8066 44.9626 72.0257 44.9407C72.2447 44.9188 72.4657 44.8973 72.6884 44.8757C72.9112 44.8542 73.1358 44.8331 73.362 44.8121C73.5882 44.7912 73.8166 44.7702 74.0467 44.7497C74.2768 44.7289 74.5087 44.7086 74.7426 44.6882C74.9766 44.6679 75.2121 44.6477 75.4497 44.6278C75.6873 44.6078 75.9269 44.5878 76.1682 44.5683C76.4094 44.5487 76.6529 44.5289 76.8982 44.5094C77.1435 44.49 77.3907 44.4706 77.6397 44.4512C77.8889 44.4319 78.1399 44.4129 78.3929 44.3937C78.6459 44.3745 78.9008 44.3555 79.1579 44.3365C79.4148 44.3175 79.6737 44.2988 79.9347 44.28C80.1957 44.2612 80.4585 44.2424 80.7235 44.2236C80.9883 44.2048 81.2554 44.1862 81.5243 44.1674C81.7932 44.1488 82.0643 44.13 82.3372 44.1115C82.6102 44.0929 82.8854 44.0741 83.1624 44.0555C83.4397 44.0369 83.7187 44.0181 84 43.9995C83.7187 43.9807 83.4397 43.9621 83.1624 43.9435C82.8852 43.9249 82.6102 43.9062 82.3372 43.8876C82.0643 43.869 81.7932 43.8502 81.5243 43.8316C81.2554 43.813 80.9883 43.7942 80.7235 43.7754C80.4587 43.7566 80.1957 43.7378 79.9347 43.719C79.6737 43.7002 79.4148 43.6813 79.1579 43.6625C78.901 43.6435 78.6459 43.6245 78.3929 43.6055C78.1399 43.5863 77.8889 43.5674 77.6397 43.548C77.3905 43.5286 77.1433 43.5092 76.8982 43.4898C76.6529 43.4705 76.4096 43.4507 76.1682 43.4311C75.9267 43.4114 75.6873 43.3916 75.4497 43.3717C75.2121 43.3517 74.9764 43.3315 74.7426 43.3112C74.5087 43.2908 74.2768 43.2705 74.0467 43.2497C73.8166 43.2292 73.5884 43.2082 73.362 43.1873C73.1356 43.1663 72.911 43.145 72.6884 43.1237C72.4659 43.1023 72.2447 43.0806 72.0257 43.0587C71.8066 43.0368 71.5893 43.0146 71.3738 42.9923C71.1584 42.97 70.9448 42.9475 70.7328 42.9246C70.5208 42.9017 70.3109 42.8786 70.1023 42.8553C69.894 42.8321 69.6873 42.8084 69.4825 42.7845C69.2776 42.7606 69.0745 42.7363 68.8731 42.7119C68.6717 42.6874 68.4721 42.6626 68.2742 42.6375C68.0762 42.6123 67.8801 42.5868 67.6856 42.5612C67.4911 42.5353 67.2982 42.5093 67.1071 42.4827C66.9159 42.4563 66.7265 42.4295 66.5387 42.4023C66.3509 42.3751 66.1647 42.3474 65.9801 42.3195C65.7956 42.2915 65.6129 42.2631 65.4316 42.2345C65.2503 42.2058 65.0708 42.1766 64.8928 42.147C64.7147 42.1175 64.5385 42.0875 64.3637 42.0572C64.189 42.0269 64.0158 41.9959 63.8442 41.9646C63.6727 41.9333 63.5026 41.9016 63.3343 41.8695C63.1658 41.8372 62.999 41.8047 62.8337 41.7715C62.6685 41.7384 62.5047 41.7047 62.3425 41.6707C62.1803 41.6366 62.0195 41.602 61.8604 41.5669C61.7012 41.5319 61.5435 41.4963 61.3872 41.4601C61.2311 41.4239 61.0765 41.3873 60.9232 41.3501C60.77 41.3129 60.6184 41.2751 60.4682 41.2368C60.318 41.1984 60.1692 41.1596 60.0219 41.1201C59.8745 41.0808 59.7286 41.0406 59.5843 41.0001C59.4399 40.9596 59.2969 40.9183 59.1552 40.8766C59.0135 40.8348 58.8735 40.7925 58.7347 40.7494C58.5959 40.7064 58.4585 40.6627 58.3225 40.6185C58.1865 40.5743 58.052 40.5292 57.9187 40.4836C57.7853 40.438 57.6536 40.3918 57.523 40.3449C57.3925 40.2979 57.2632 40.2503 57.1354 40.2022C57.0075 40.154 56.8811 40.1051 56.7559 40.0554C56.6307 40.0057 56.5069 39.9554 56.3844 39.9045C56.2618 39.8534 56.1405 39.8018 56.0206 39.7493C55.9007 39.6968 55.782 39.6436 55.6645 39.5896C55.547 39.5356 55.431 39.481 55.3159 39.4254C55.2011 39.37 55.0875 39.3136 54.9751 39.2567C54.8627 39.1997 54.7515 39.1418 54.6416 39.0833C54.5316 39.0248 54.4229 38.9653 54.3154 38.905C54.2078 38.8447 54.1015 38.7838 53.9964 38.722C53.8914 38.6601 53.7873 38.5975 53.6845 38.5339C53.5816 38.4705 53.48 38.4061 53.3796 38.3407C53.2792 38.2755 53.1798 38.2094 53.0816 38.1425C52.9835 38.0755 52.8865 38.0076 52.7906 37.9389C52.6947 37.8702 52.6 37.8005 52.5063 37.7301C52.4126 37.6596 52.3201 37.5882 52.2284 37.5158C52.137 37.4434 52.0465 37.3701 51.9573 37.296C51.8679 37.2218 51.7797 37.1466 51.6925 37.0705C51.6053 36.9944 51.5191 36.9175 51.4342 36.8394C51.349 36.7613 51.2651 36.6824 51.1819 36.6024C51.099 36.5223 51.0169 36.4415 50.9358 36.3595C50.8547 36.2775 50.7748 36.1945 50.6958 36.1107C50.6167 36.0268 50.5387 35.9418 50.4616 35.8557C50.3846 35.7698 50.3086 35.6827 50.2334 35.5946C50.1582 35.5065 50.0842 35.4173 50.0108 35.3273C49.9377 35.237 49.8653 35.1458 49.794 35.0534C49.7226 34.9611 49.6521 34.8677 49.5826 34.7732C49.5131 34.6786 49.4444 34.5829 49.3767 34.4863C49.309 34.3896 49.2422 34.2917 49.1763 34.1927C49.1103 34.0936 49.0452 33.9936 48.981 33.8924C48.9168 33.7913 48.8534 33.6889 48.791 33.5854C48.7286 33.4818 48.6668 33.3771 48.606 33.2712C48.5452 33.1654 48.4851 33.0583 48.4259 32.9501C48.3668 32.8418 48.3083 32.7324 48.2507 32.6218C48.193 32.5113 48.1363 32.3993 48.0802 32.2862C48.0241 32.1731 47.9688 32.0588 47.9144 31.9433C47.8599 31.8278 47.806 31.711 47.753 31.593C47.6999 31.4749 47.6477 31.3558 47.5961 31.2352C47.5445 31.1146 47.4937 30.9929 47.4437 30.8698C47.3937 30.7467 47.3441 30.6222 47.2955 30.4965C47.2467 30.3709 47.1987 30.2439 47.1514 30.1155C47.104 29.9871 47.0575 29.8575 47.0114 29.7266C46.9654 29.5957 46.9201 29.4633 46.8754 29.3297C46.8307 29.196 46.7866 29.0611 46.7433 28.9247C46.6998 28.7883 46.6571 28.6507 46.615 28.5116C46.5727 28.3724 46.5313 28.2321 46.4902 28.0902C46.4492 27.9483 46.4089 27.805 46.3691 27.6604C46.3293 27.5158 46.29 27.3696 46.2514 27.222C46.2128 27.0744 46.1746 26.9255 46.1372 26.7752C46.0996 26.6248 46.0626 26.473 46.0262 26.3197C45.9898 26.1665 45.9539 26.0117 45.9185 25.8555C45.8831 25.6993 45.8482 25.5416 45.8139 25.3824C45.7795 25.2231 45.7455 25.0624 45.712 24.9004C45.6787 24.7381 45.6458 24.5745 45.6132 24.4093C45.5807 24.2441 45.5488 24.0774 45.5171 23.9091C45.4856 23.7408 45.4545 23.5711 45.4238 23.3996C45.3931 23.2282 45.3628 23.0554 45.333 22.8808C45.3031 22.7062 45.2736 22.5303 45.2448 22.3525C45.2157 22.1748 45.187 21.9955 45.1588 21.8147C45.1305 21.6339 45.1027 21.4514 45.0753 21.2673C45.0478 21.0831 45.0206 20.8976 44.9938 20.7103C44.9669 20.523 44.9405 20.3339 44.9145 20.1435C44.8883 19.9528 44.8627 19.7606 44.8372 19.5667C44.8118 19.3727 44.7866 19.1772 44.7619 18.9799C44.7371 18.7826 44.7125 18.5838 44.6883 18.383C44.6641 18.1824 44.6401 17.98 44.6163 17.7759C44.5925 17.5719 44.5692 17.366 44.546 17.1586C44.5228 16.9511 44.4999 16.7419 44.4771 16.5309C44.4543 16.3199 44.432 16.1072 44.4096 15.8927C44.3873 15.6782 44.3653 15.4619 44.3436 15.2441C44.3218 15.0262 44.3001 14.8062 44.2787 14.5847C44.2574 14.3631 44.236 14.1398 44.2149 13.9145C44.1938 13.6893 44.1728 13.4624 44.1521 13.2336C44.1314 13.0049 44.1106 12.7741 44.0903 12.5418C44.0698 12.3093 44.0495 12.075 44.0294 11.8388C44.0092 11.6025 43.9891 11.3645 43.969 11.1248C43.9489 10.8848 43.9291 10.6431 43.9092 10.3995C43.8893 10.1558 43.8696 9.91036 43.8501 9.66278C43.8304 9.41539 43.8109 9.16604 43.7914 8.91474C43.7718 8.66344 43.7523 8.41038 43.7328 8.15516C43.7133 7.90014 43.694 7.64298 43.6745 7.38404C43.6552 7.12511 43.6357 6.86402 43.6164 6.60117C43.5971 6.33832 43.5778 6.07331 43.5582 5.80655C43.5387 5.53959 43.5194 5.27087 43.5001 5Z" fill="#CFAEC7"/>
<path d="M43.5001 5C43.4806 5.27087 43.4613 5.53959 43.442 5.80655C43.4227 6.07351 43.4032 6.33832 43.3839 6.60117C43.3645 6.86402 43.345 7.12511 43.3257 7.38404C43.3064 7.64298 43.2869 7.90014 43.2674 8.15516C43.2479 8.41018 43.2284 8.66344 43.2089 8.91474C43.1894 9.16604 43.1696 9.41539 43.1501 9.66278C43.1304 9.91016 43.1107 10.1558 43.0908 10.3995C43.0711 10.6431 43.0511 10.8848 43.031 11.1248C43.0111 11.3647 42.991 11.6027 42.9707 11.8388C42.9503 12.075 42.93 12.3093 42.9097 12.5418C42.8892 12.7743 42.8686 13.0049 42.8477 13.2336C42.827 13.4624 42.806 13.6895 42.7849 13.9145C42.7637 14.1398 42.7426 14.3631 42.7211 14.5847C42.6997 14.8062 42.678 15.026 42.6562 15.2441C42.6345 15.4621 42.6123 15.6784 42.5902 15.8927C42.568 16.107 42.5455 16.3199 42.5227 16.5309C42.5 16.7419 42.477 16.9511 42.4538 17.1586C42.4306 17.366 42.4073 17.5717 42.3835 17.7759C42.3597 17.98 42.3357 18.1824 42.3115 18.383C42.2873 18.5836 42.2628 18.7826 42.238 18.9799C42.2132 19.1772 42.188 19.3727 42.1625 19.5667C42.1371 19.7606 42.1113 19.9528 42.0853 20.1435C42.0593 20.3341 42.0327 20.523 42.006 20.7103C41.9792 20.8976 41.9522 21.0833 41.9245 21.2673C41.8971 21.4512 41.8693 21.6339 41.841 21.8147C41.8128 21.9955 41.7841 22.1748 41.755 22.3525C41.726 22.5303 41.6965 22.7062 41.6668 22.8808C41.637 23.0554 41.6067 23.2282 41.576 23.3996C41.5453 23.5711 41.5142 23.7408 41.4827 23.9091C41.4512 24.0774 41.4191 24.2441 41.3866 24.4093C41.354 24.5745 41.3211 24.7383 41.2878 24.9004C41.2543 25.0626 41.2205 25.2233 41.186 25.3824C41.1516 25.5416 41.1167 25.6993 41.0813 25.8555C41.0459 26.0117 41.01 26.1665 40.9736 26.3197C40.9372 26.473 40.9002 26.6248 40.8626 26.7752C40.825 26.9257 40.787 27.0746 40.7484 27.222C40.7098 27.3696 40.6705 27.5156 40.6307 27.6604C40.5909 27.805 40.5506 27.9483 40.5096 28.0902C40.4685 28.2321 40.4271 28.3726 40.3848 28.5116C40.3427 28.6507 40.2998 28.7883 40.2565 28.9247C40.2132 29.0611 40.1691 29.196 40.1244 29.3297C40.0797 29.4633 40.0344 29.5957 39.9884 29.7266C39.9425 29.8575 39.8958 29.9871 39.8484 30.1155C39.8011 30.2439 39.7531 30.3707 39.7043 30.4965C39.6555 30.6224 39.6061 30.7467 39.5561 30.8698C39.5062 30.9929 39.4553 31.1146 39.4037 31.2352C39.3521 31.3558 39.2999 31.4749 39.2468 31.593C39.1938 31.711 39.1401 31.8278 39.0856 31.9433C39.0312 32.0588 38.9759 32.1731 38.9198 32.2862C38.8637 32.3993 38.807 32.5111 38.7493 32.6218C38.6916 32.7324 38.6332 32.8418 38.5741 32.9501C38.5149 33.0583 38.4548 33.1654 38.394 33.2712C38.3332 33.3771 38.2714 33.4818 38.2088 33.5854C38.1462 33.6889 38.083 33.7913 38.0188 33.8924C37.9546 33.9936 37.8895 34.0938 37.8235 34.1927C37.7576 34.2917 37.6908 34.3896 37.6231 34.4863C37.5554 34.5829 37.4867 34.6786 37.4172 34.7732C37.3477 34.8677 37.2772 34.9611 37.2058 35.0534C37.1345 35.1458 37.0621 35.237 36.989 35.3273C36.9158 35.4175 36.8416 35.5065 36.7664 35.5946C36.6912 35.6827 36.6152 35.7698 36.5382 35.8557C36.4611 35.9416 36.3831 36.0268 36.304 36.1107C36.225 36.1947 36.1451 36.2777 36.064 36.3595C35.9829 36.4413 35.901 36.5223 35.8179 36.6024C35.735 36.6824 35.6508 36.7613 35.5656 36.8394C35.4805 36.9173 35.3943 36.9944 35.3071 37.0705C35.2199 37.1466 35.1317 37.2218 35.0423 37.296C34.9531 37.3701 34.8626 37.4434 34.7712 37.5158C34.6797 37.5882 34.587 37.6594 34.4935 37.7301C34.4001 37.8007 34.3051 37.8702 34.2092 37.9389C34.1133 38.0076 34.0163 38.0755 33.9182 38.1425C33.82 38.2094 33.7206 38.2755 33.6202 38.3407C33.5198 38.4059 33.4182 38.4703 33.3153 38.5339C33.2125 38.5973 33.1086 38.6601 33.0034 38.722C32.8983 38.7838 32.792 38.8449 32.6845 38.905C32.577 38.9653 32.4682 39.0246 32.3582 39.0833C32.2483 39.1418 32.1371 39.1997 32.0247 39.2567C31.9123 39.3138 31.7987 39.37 31.6839 39.4254C31.569 39.481 31.4528 39.5356 31.3355 39.5896C31.2182 39.6436 31.0994 39.6968 30.9794 39.7493C30.8595 39.8018 30.7382 39.8536 30.6156 39.9045C30.4931 39.9556 30.3691 40.0059 30.2441 40.0554C30.1189 40.1051 29.9925 40.154 29.8647 40.2022C29.7368 40.2505 29.6076 40.2981 29.4771 40.3449C29.3466 40.3918 29.2147 40.438 29.0813 40.4836C28.948 40.5292 28.8135 40.5741 28.6775 40.6185C28.5415 40.6627 28.4041 40.7064 28.2653 40.7494C28.1265 40.7925 27.9863 40.8348 27.8448 40.8766C27.7032 40.9185 27.5603 40.9596 27.4157 41.0001C27.2712 41.0406 27.1255 41.0808 26.9782 41.1201C26.8308 41.1596 26.682 41.1984 26.5318 41.2368C26.3816 41.2751 26.2298 41.3129 26.0766 41.3501C25.9233 41.3873 25.7687 41.4239 25.6126 41.4601C25.4565 41.4963 25.2988 41.5319 25.1396 41.5669C24.9805 41.602 24.8197 41.6366 24.6575 41.6707C24.4953 41.7047 24.3315 41.7384 24.1663 41.7715C24.0011 41.8045 23.8342 41.8372 23.6657 41.8695C23.4972 41.9016 23.3273 41.9333 23.1558 41.9646C22.9842 41.9959 22.811 42.0267 22.6363 42.0572C22.4615 42.0875 22.2851 42.1175 22.1072 42.147C21.9294 42.1766 21.7497 42.2058 21.5684 42.2345C21.3871 42.2633 21.2044 42.2917 21.0198 42.3195C20.8353 42.3474 20.6491 42.3751 20.4613 42.4023C20.2736 42.4295 20.0841 42.4563 19.8929 42.4827C19.7018 42.5091 19.5089 42.5353 19.3144 42.5612C19.1199 42.587 18.9238 42.6124 18.7258 42.6375C18.5279 42.6626 18.3283 42.6874 18.1269 42.7119C17.9255 42.7363 17.7224 42.7606 17.5176 42.7845C17.3127 42.8084 17.1062 42.8321 16.8977 42.8553C16.6893 42.8786 16.4792 42.9017 16.2672 42.9246C16.0552 42.9475 15.8416 42.97 15.6262 42.9923C15.4107 43.0146 15.1934 43.0368 14.9743 43.0587C14.7553 43.0806 14.5343 43.1021 14.3118 43.1237C14.0892 43.1452 13.8644 43.1663 13.638 43.1873C13.4116 43.2082 13.1834 43.2292 12.9533 43.2497C12.7232 43.2703 12.4913 43.2908 12.2574 43.3112C12.0235 43.3315 11.7879 43.3517 11.5503 43.3717C11.3127 43.3916 11.0733 43.4116 10.8318 43.4311C10.5904 43.4509 10.3471 43.4705 10.1018 43.4898C9.85645 43.5092 9.60932 43.5286 9.36034 43.548C9.11117 43.5672 8.86015 43.5863 8.60711 43.6055C8.35407 43.6247 8.09922 43.6437 7.84211 43.6625C7.58521 43.6815 7.32627 43.7002 7.06531 43.719C6.80434 43.7378 6.54155 43.7566 6.27652 43.7754C6.01149 43.7942 5.74462 43.8128 5.47573 43.8316C5.20683 43.8502 4.93591 43.869 4.66275 43.8876C4.38979 43.9062 4.11461 43.9248 3.83759 43.9435C3.56036 43.9621 3.28129 43.9809 3 43.9995C3.28129 44.0181 3.56036 44.0369 3.83759 44.0555C4.11481 44.0741 4.38979 44.0929 4.66275 44.1115C4.93571 44.13 5.20683 44.1488 5.47573 44.1674C5.74462 44.186 6.01169 44.2048 6.27652 44.2236C6.54135 44.2424 6.80434 44.2612 7.06531 44.28C7.32627 44.2988 7.58521 44.3177 7.84211 44.3365C8.09901 44.3555 8.35407 44.3745 8.60711 44.3937C8.86015 44.4127 9.11117 44.4319 9.36034 44.4512C9.60952 44.4704 9.85665 44.4898 10.1018 44.5094C10.3471 44.5289 10.5904 44.5485 10.8318 44.5683C11.0733 44.588 11.3127 44.6078 11.5503 44.6278C11.7879 44.6477 12.0237 44.6679 12.2574 44.6882C12.4911 44.7086 12.7232 44.7289 12.9533 44.7497C13.1834 44.7702 13.4116 44.7912 13.638 44.8121C13.8644 44.8331 14.089 44.8544 14.3118 44.8757C14.5345 44.8971 14.7555 44.9188 14.9743 44.9407C15.1934 44.9626 15.4107 44.9848 15.6262 45.0071C15.8416 45.0294 16.0552 45.0519 16.2672 45.0748C16.4792 45.0977 16.6891 45.1208 16.8977 45.1441C17.106 45.1673 17.3127 45.191 17.5176 45.2149C17.7224 45.2388 17.9255 45.2631 18.1269 45.2875C18.3283 45.312 18.5279 45.3368 18.7258 45.3619C18.9238 45.3871 19.1199 45.4126 19.3144 45.4384C19.5089 45.4643 19.7018 45.4903 19.8929 45.5169C20.0841 45.5433 20.2736 45.5701 20.4613 45.5974C20.6491 45.6246 20.8353 45.6521 21.0198 45.6801C21.2044 45.7081 21.3871 45.7365 21.5684 45.7653C21.7497 45.7941 21.9292 45.8232 22.1072 45.8528C22.2853 45.8823 22.4615 45.9123 22.6363 45.9426C22.811 45.9729 22.9842 46.0038 23.1558 46.0352C23.3273 46.0665 23.4974 46.0982 23.6657 46.1303C23.834 46.1624 24.0011 46.1951 24.1663 46.2282C24.3315 46.2612 24.4953 46.2949 24.6575 46.3289C24.8197 46.363 24.9805 46.3976 25.1396 46.4327C25.2988 46.4677 25.4565 46.5033 25.6126 46.5395C25.7687 46.5757 25.9233 46.6123 26.0766 46.6495C26.2298 46.6867 26.3814 46.7245 26.5318 46.7628C26.682 46.8012 26.8308 46.84 26.9782 46.8795C27.1255 46.9188 27.2714 46.9589 27.4157 46.9995C27.5603 47.04 27.7032 47.0813 27.8448 47.123C27.9865 47.1647 28.1265 47.2071 28.2653 47.2502C28.4041 47.2932 28.5415 47.3369 28.6775 47.3811C28.8135 47.4254 28.948 47.4704 29.0813 47.516C29.2147 47.5616 29.3464 47.6078 29.4771 47.6547C29.6076 47.7017 29.7368 47.7493 29.8647 47.7974C29.9925 47.8458 30.1189 47.8947 30.2441 47.9442C30.3693 47.9939 30.4931 48.0442 30.6156 48.0951C30.7382 48.1462 30.8595 48.1979 30.9794 48.2505C31.0994 48.303 31.218 48.3562 31.3355 48.4102C31.453 48.4642 31.569 48.5188 31.6839 48.5744C31.7987 48.63 31.9123 48.6862 32.0247 48.7431C32.1371 48.8001 32.2483 48.858 32.3582 48.9165C32.4682 48.975 32.577 49.0345 32.6845 49.0948C32.792 49.1551 32.8983 49.216 33.0034 49.2778C33.1084 49.3397 33.2125 49.4023 33.3153 49.4659C33.4182 49.5293 33.5198 49.5937 33.6202 49.6591C33.7206 49.7243 33.82 49.7904 33.9182 49.8573C34.0163 49.9243 34.1133 49.9922 34.2092 50.0609C34.3051 50.1296 34.3998 50.1993 34.4935 50.2697C34.5872 50.3402 34.6797 50.4116 34.7712 50.484C34.8626 50.5565 34.9531 50.6296 35.0423 50.7038C35.1315 50.778 35.2199 50.8532 35.3071 50.9293C35.3943 51.0054 35.4805 51.0823 35.5656 51.1604C35.6508 51.2383 35.7348 51.3174 35.8179 51.3974C35.901 51.4775 35.9829 51.5583 36.064 51.6403C36.1451 51.7223 36.225 51.8051 36.304 51.8891C36.3831 51.973 36.4611 52.058 36.5382 52.1441C36.6152 52.2302 36.6912 52.3171 36.7664 52.4052C36.8416 52.4933 36.9156 52.5825 36.989 52.6726C37.0621 52.7628 37.1345 52.854 37.2058 52.9464C37.2772 53.0387 37.3477 53.1321 37.4172 53.2266C37.4867 53.3211 37.5554 53.4169 37.6231 53.5136C37.6908 53.6102 37.7576 53.7081 37.8235 53.8071C37.8895 53.9062 37.9546 54.0062 38.0188 54.1073C38.083 54.2085 38.1464 54.3109 38.2088 54.4144C38.2714 54.518 38.333 54.6227 38.394 54.7286C38.4548 54.8345 38.5149 54.9415 38.5741 55.0497C38.6332 55.158 38.6918 55.2674 38.7493 55.378C38.8068 55.4885 38.8637 55.6005 38.9198 55.7134C38.9759 55.8263 39.0312 55.9408 39.0856 56.0563C39.1401 56.1718 39.194 56.2886 39.2468 56.4067C39.2999 56.5247 39.3521 56.6441 39.4037 56.7644C39.4553 56.885 39.5062 57.0067 39.5561 57.1298C39.6061 57.2529 39.6557 57.3772 39.7043 57.5031C39.7531 57.6287 39.8011 57.7557 39.8484 57.8841C39.8958 58.0125 39.9423 58.1421 39.9884 58.273C40.0344 58.404 40.0797 58.5362 40.1244 58.6699C40.1691 58.8036 40.2132 58.9386 40.2565 59.0749C40.3 59.2113 40.3427 59.3489 40.3848 59.488C40.4271 59.6272 40.4685 59.7675 40.5096 59.9094C40.5504 60.0513 40.5909 60.1946 40.6307 60.3392C40.6705 60.4838 40.7098 60.6301 40.7484 60.7774C40.787 60.9248 40.825 61.0739 40.8626 61.2242C40.9002 61.3746 40.9372 61.5264 40.9736 61.6799C41.01 61.8331 41.0459 61.9879 41.0813 62.1441C41.1167 62.3003 41.1516 62.458 41.186 62.6172C41.2203 62.7763 41.2543 62.9372 41.2878 63.0992C41.3211 63.2615 41.3542 63.4251 41.3866 63.5903C41.4191 63.7555 41.451 63.9222 41.4827 64.0905C41.5142 64.2588 41.5453 64.4287 41.576 64.6C41.6067 64.7714 41.637 64.9443 41.6668 65.1188C41.6967 65.2934 41.7262 65.4694 41.755 65.6471C41.7841 65.8248 41.8128 66.0041 41.841 66.1849C41.8693 66.3657 41.8971 66.5481 41.9245 66.7323C41.952 66.9165 41.9792 67.102 42.006 67.2893C42.0329 67.4766 42.0593 67.6657 42.0853 67.8561C42.1113 68.0468 42.1371 68.239 42.1625 68.4329C42.188 68.6269 42.2132 68.8224 42.238 69.0197C42.2628 69.217 42.2873 69.4158 42.3115 69.6166C42.3357 69.8174 42.3597 70.0196 42.3835 70.2237C42.4073 70.4279 42.4306 70.6336 42.4538 70.841C42.477 71.0485 42.5 71.2577 42.5227 71.4687C42.5455 71.6797 42.5678 71.8924 42.5902 72.1069C42.6125 72.3214 42.6345 72.5377 42.6562 72.7557C42.678 72.9738 42.6997 73.1936 42.7211 73.4151C42.7426 73.6367 42.7637 73.86 42.7849 74.0853C42.806 74.3105 42.827 74.5374 42.8477 74.7662C42.8684 74.995 42.8892 75.2255 42.9097 75.458C42.9302 75.6905 42.9505 75.9248 42.9707 76.161C42.9908 76.3973 43.0109 76.6353 43.031 76.8752C43.0511 77.1152 43.0708 77.3569 43.0908 77.6005C43.1107 77.8442 43.1304 78.0896 43.1501 78.3372C43.1698 78.5846 43.1894 78.834 43.2089 79.0853C43.2284 79.3366 43.2479 79.5896 43.2674 79.8448C43.2869 80.1001 43.3062 80.357 43.3257 80.616C43.345 80.8749 43.3645 81.136 43.3839 81.3988C43.4032 81.6617 43.4227 81.9267 43.442 82.1935C43.4613 82.4604 43.4808 82.7291 43.5001 83C43.5194 82.7291 43.5389 82.4604 43.5582 82.1935C43.5775 81.9267 43.5971 81.6617 43.6164 81.3988C43.6357 81.136 43.6552 80.8749 43.6745 80.616C43.6938 80.357 43.7133 80.0999 43.7328 79.8448C43.7523 79.5898 43.7718 79.3366 43.7914 79.0853C43.8109 78.834 43.8306 78.5846 43.8501 78.3372C43.8698 78.0898 43.8895 77.8442 43.9092 77.6005C43.9289 77.3569 43.9489 77.1152 43.969 76.8752C43.9889 76.6353 44.009 76.3973 44.0294 76.161C44.0495 75.9248 44.07 75.6905 44.0903 75.458C44.1108 75.2255 44.1314 74.995 44.1521 74.7662C44.1728 74.5374 44.1938 74.3103 44.2149 74.0853C44.236 73.86 44.2572 73.6367 44.2787 73.4151C44.3001 73.1936 44.3218 72.9738 44.3436 72.7557C44.3653 72.5377 44.3875 72.3214 44.4096 72.1069C44.4318 71.8924 44.4543 71.6797 44.4771 71.4687C44.4999 71.2577 44.5228 71.0485 44.546 70.841C44.5692 70.6336 44.5925 70.4277 44.6163 70.2237C44.6401 70.0198 44.6641 69.8174 44.6883 69.6166C44.7125 69.416 44.7371 69.217 44.7619 69.0197C44.7866 68.8224 44.8118 68.6269 44.8372 68.4329C44.8627 68.239 44.8885 68.0468 44.9145 67.8561C44.9405 67.6655 44.9671 67.4766 44.9938 67.2893C45.0206 67.102 45.0476 66.9163 45.0753 66.7323C45.1029 66.5483 45.1305 66.3657 45.1588 66.1849C45.187 66.0041 45.2157 65.8248 45.2448 65.6471C45.2738 65.4694 45.3033 65.2934 45.333 65.1188C45.3626 64.9443 45.3931 64.7714 45.4238 64.6C45.4545 64.4285 45.4856 64.2588 45.5171 64.0905C45.5486 63.9222 45.5807 63.7555 45.6132 63.5903C45.6458 63.4251 45.6787 63.2613 45.712 63.0992C45.7455 62.937 45.7793 62.7763 45.8139 62.6172C45.8482 62.458 45.8831 62.3003 45.9185 62.1441C45.9539 61.9879 45.9898 61.8331 46.0262 61.6799C46.0626 61.5266 46.0996 61.3748 46.1372 61.2242C46.1748 61.0739 46.2128 60.925 46.2514 60.7774C46.29 60.6299 46.3293 60.4838 46.3691 60.3392C46.4089 60.1946 46.4492 60.0513 46.4902 59.9094C46.5313 59.7675 46.5727 59.627 46.615 59.488C46.6571 59.3489 46.7 59.2113 46.7433 59.0749C46.7868 58.9384 46.8307 58.8036 46.8754 58.6699C46.9201 58.5362 46.9654 58.404 47.0114 58.273C47.0573 58.1421 47.104 58.0125 47.1514 57.8841C47.1987 57.7557 47.2467 57.6289 47.2955 57.5031C47.3443 57.3774 47.3937 57.2529 47.4437 57.1298C47.4939 57.0067 47.5447 56.885 47.5961 56.7644C47.6477 56.6439 47.6999 56.5247 47.753 56.4067C47.806 56.2886 47.8597 56.1718 47.9144 56.0563C47.9688 55.9408 48.0241 55.8265 48.0802 55.7134C48.1363 55.6003 48.193 55.4885 48.2507 55.378C48.3083 55.2674 48.3668 55.1578 48.4259 55.0497C48.4851 54.9415 48.5452 54.8345 48.606 54.7286C48.6668 54.6227 48.7286 54.518 48.791 54.4144C48.8536 54.3109 48.9168 54.2085 48.981 54.1073C49.0452 54.0062 49.1103 53.906 49.1763 53.8071C49.2422 53.7081 49.309 53.6102 49.3767 53.5136C49.4444 53.4169 49.5131 53.3211 49.5826 53.2266C49.6521 53.1321 49.7226 53.0387 49.794 52.9464C49.8653 52.854 49.9377 52.7628 50.0108 52.6726C50.084 52.5823 50.1582 52.4933 50.2334 52.4052C50.3086 52.3171 50.3846 52.23 50.4616 52.1441C50.5387 52.0582 50.6167 51.973 50.6958 51.8891C50.7748 51.8051 50.8547 51.7221 50.9358 51.6403C51.0169 51.5583 51.0988 51.4775 51.1819 51.3974C51.2651 51.3176 51.349 51.2385 51.4342 51.1604C51.5193 51.0823 51.6055 51.0054 51.6925 50.9293C51.7797 50.8532 51.8679 50.778 51.9573 50.7038C52.0465 50.6296 52.137 50.5565 52.2284 50.484C52.3199 50.4116 52.4126 50.3404 52.5063 50.2697C52.6 50.1993 52.6947 50.1296 52.7906 50.0609C52.8865 49.9922 52.9835 49.9243 53.0816 49.8573C53.1798 49.7904 53.279 49.7243 53.3796 49.6591C53.48 49.5939 53.5816 49.5295 53.6845 49.4659C53.7873 49.4025 53.8912 49.3397 53.9964 49.2778C54.1015 49.216 54.2078 49.1549 54.3154 49.0948C54.4229 49.0345 54.5316 48.9752 54.6416 48.9165C54.7515 48.858 54.8627 48.8001 54.9751 48.7431C55.0875 48.6862 55.2011 48.6298 55.3159 48.5744C55.4308 48.519 55.547 48.4642 55.6645 48.4102C55.782 48.3562 55.9007 48.303 56.0206 48.2505C56.1405 48.1981 56.2618 48.1462 56.3844 48.0951C56.5069 48.044 56.6307 47.9937 56.7559 47.9442C56.8811 47.8945 57.0075 47.8456 57.1354 47.7974C57.2632 47.7493 57.3925 47.7015 57.523 47.6547C57.6534 47.6078 57.7853 47.5616 57.9187 47.516C58.052 47.4704 58.1865 47.4256 58.3225 47.3811C58.4585 47.3369 58.5959 47.2932 58.7347 47.2502C58.8735 47.2071 59.0135 47.1647 59.1552 47.123C59.2969 47.0813 59.4397 47.04 59.5843 46.9995C59.7288 46.9588 59.8745 46.9188 60.0219 46.8795C60.1692 46.84 60.318 46.8012 60.4682 46.7628C60.6184 46.7245 60.7702 46.6867 60.9232 46.6495C61.0765 46.6123 61.2311 46.5755 61.3872 46.5395C61.5435 46.5033 61.701 46.4677 61.8604 46.4327C62.0195 46.3976 62.1803 46.363 62.3425 46.3289C62.5047 46.2949 62.6685 46.2612 62.8337 46.2282C62.999 46.1951 63.1658 46.1624 63.3343 46.1303C63.5028 46.0982 63.6727 46.0663 63.8442 46.0352C64.0158 46.0038 64.189 45.9731 64.3637 45.9426C64.5385 45.9123 64.715 45.8823 64.8928 45.8528C65.0706 45.8232 65.2503 45.7941 65.4316 45.7653C65.6129 45.7365 65.7956 45.7081 65.9801 45.6801C66.1647 45.6521 66.3509 45.6246 66.5387 45.5974C66.7265 45.5701 66.9159 45.5433 67.1071 45.5169C67.2982 45.4905 67.4911 45.4643 67.6856 45.4384C67.8801 45.4126 68.0764 45.3871 68.2742 45.3619C68.4721 45.3368 68.6717 45.312 68.8731 45.2875C69.0745 45.2631 69.2776 45.2388 69.4825 45.2149C69.6873 45.191 69.8938 45.1673 70.1023 45.1441C70.3107 45.1208 70.5208 45.0977 70.7328 45.0748C70.9448 45.0519 71.1584 45.0294 71.3738 45.0071C71.5893 44.9848 71.8066 44.9626 72.0257 44.9407C72.2447 44.9188 72.4657 44.8973 72.6884 44.8757C72.9112 44.8542 73.1358 44.8331 73.362 44.8121C73.5882 44.7912 73.8166 44.7702 74.0467 44.7497C74.2768 44.7289 74.5087 44.7086 74.7426 44.6882C74.9766 44.6679 75.2121 44.6477 75.4497 44.6278C75.6873 44.6078 75.9269 44.5878 76.1682 44.5683C76.4094 44.5487 76.6529 44.5289 76.8982 44.5094C77.1435 44.49 77.3907 44.4706 77.6397 44.4512C77.8889 44.4319 78.1399 44.4129 78.3929 44.3937C78.6459 44.3745 78.9008 44.3555 79.1579 44.3365C79.4148 44.3175 79.6737 44.2988 79.9347 44.28C80.1957 44.2612 80.4585 44.2424 80.7235 44.2236C80.9883 44.2048 81.2554 44.1862 81.5243 44.1674C81.7932 44.1488 82.0643 44.13 82.3372 44.1115C82.6102 44.0929 82.8854 44.0741 83.1624 44.0555C83.4397 44.0369 83.7187 44.0181 84 43.9995C83.7187 43.9807 83.4397 43.9621 83.1624 43.9435C82.8852 43.9249 82.6102 43.9062 82.3372 43.8876C82.0643 43.869 81.7932 43.8502 81.5243 43.8316C81.2554 43.813 80.9883 43.7942 80.7235 43.7754C80.4587 43.7566 80.1957 43.7378 79.9347 43.719C79.6737 43.7002 79.4148 43.6813 79.1579 43.6625C78.901 43.6435 78.6459 43.6245 78.3929 43.6055C78.1399 43.5863 77.8889 43.5674 77.6397 43.548C77.3905 43.5286 77.1433 43.5092 76.8982 43.4898C76.6529 43.4705 76.4096 43.4507 76.1682 43.4311C75.9267 43.4114 75.6873 43.3916 75.4497 43.3717C75.2121 43.3517 74.9764 43.3315 74.7426 43.3112C74.5087 43.2908 74.2768 43.2705 74.0467 43.2497C73.8166 43.2292 73.5884 43.2082 73.362 43.1873C73.1356 43.1663 72.911 43.145 72.6884 43.1237C72.4659 43.1023 72.2447 43.0806 72.0257 43.0587C71.8066 43.0368 71.5893 43.0146 71.3738 42.9923C71.1584 42.97 70.9448 42.9475 70.7328 42.9246C70.5208 42.9017 70.3109 42.8786 70.1023 42.8553C69.894 42.8321 69.6873 42.8084 69.4825 42.7845C69.2776 42.7606 69.0745 42.7363 68.8731 42.7119C68.6717 42.6874 68.4721 42.6626 68.2742 42.6375C68.0762 42.6123 67.8801 42.5868 67.6856 42.5612C67.4911 42.5353 67.2982 42.5093 67.1071 42.4827C66.9159 42.4563 66.7265 42.4295 66.5387 42.4023C66.3509 42.3751 66.1647 42.3474 65.9801 42.3195C65.7956 42.2915 65.6129 42.2631 65.4316 42.2345C65.2503 42.2058 65.0708 42.1766 64.8928 42.147C64.7147 42.1175 64.5385 42.0875 64.3637 42.0572C64.189 42.0269 64.0158 41.9959 63.8442 41.9646C63.6727 41.9333 63.5026 41.9016 63.3343 41.8695C63.1658 41.8372 62.999 41.8047 62.8337 41.7715C62.6685 41.7384 62.5047 41.7047 62.3425 41.6707C62.1803 41.6366 62.0195 41.602 61.8604 41.5669C61.7012 41.5319 61.5435 41.4963 61.3872 41.4601C61.2311 41.4239 61.0765 41.3873 60.9232 41.3501C60.77 41.3129 60.6184 41.2751 60.4682 41.2368C60.318 41.1984 60.1692 41.1596 60.0219 41.1201C59.8745 41.0808 59.7286 41.0406 59.5843 41.0001C59.4399 40.9596 59.2969 40.9183 59.1552 40.8766C59.0135 40.8348 58.8735 40.7925 58.7347 40.7494C58.5959 40.7064 58.4585 40.6627 58.3225 40.6185C58.1865 40.5743 58.052 40.5292 57.9187 40.4836C57.7853 40.438 57.6536 40.3918 57.523 40.3449C57.3925 40.2979 57.2632 40.2503 57.1354 40.2022C57.0075 40.154 56.8811 40.1051 56.7559 40.0554C56.6307 40.0057 56.5069 39.9554 56.3844 39.9045C56.2618 39.8534 56.1405 39.8018 56.0206 39.7493C55.9007 39.6968 55.782 39.6436 55.6645 39.5896C55.547 39.5356 55.431 39.481 55.3159 39.4254C55.2011 39.37 55.0875 39.3136 54.9751 39.2567C54.8627 39.1997 54.7515 39.1418 54.6416 39.0833C54.5316 39.0248 54.4229 38.9653 54.3154 38.905C54.2078 38.8447 54.1015 38.7838 53.9964 38.722C53.8914 38.6601 53.7873 38.5975 53.6845 38.5339C53.5816 38.4705 53.48 38.4061 53.3796 38.3407C53.2792 38.2755 53.1798 38.2094 53.0816 38.1425C52.9835 38.0755 52.8865 38.0076 52.7906 37.9389C52.6947 37.8702 52.6 37.8005 52.5063 37.7301C52.4126 37.6596 52.3201 37.5882 52.2284 37.5158C52.137 37.4434 52.0465 37.3701 51.9573 37.296C51.8679 37.2218 51.7797 37.1466 51.6925 37.0705C51.6053 36.9944 51.5191 36.9175 51.4342 36.8394C51.349 36.7613 51.2651 36.6824 51.1819 36.6024C51.099 36.5223 51.0169 36.4415 50.9358 36.3595C50.8547 36.2775 50.7748 36.1945 50.6958 36.1107C50.6167 36.0268 50.5387 35.9418 50.4616 35.8557C50.3846 35.7698 50.3086 35.6827 50.2334 35.5946C50.1582 35.5065 50.0842 35.4173 50.0108 35.3273C49.9377 35.237 49.8653 35.1458 49.794 35.0534C49.7226 34.9611 49.6521 34.8677 49.5826 34.7732C49.5131 34.6786 49.4444 34.5829 49.3767 34.4863C49.309 34.3896 49.2422 34.2917 49.1763 34.1927C49.1103 34.0936 49.0452 33.9936 48.981 33.8924C48.9168 33.7913 48.8534 33.6889 48.791 33.5854C48.7286 33.4818 48.6668 33.3771 48.606 33.2712C48.5452 33.1654 48.4851 33.0583 48.4259 32.9501C48.3668 32.8418 48.3083 32.7324 48.2507 32.6218C48.193 32.5113 48.1363 32.3993 48.0802 32.2862C48.0241 32.1731 47.9688 32.0588 47.9144 31.9433C47.8599 31.8278 47.806 31.711 47.753 31.593C47.6999 31.4749 47.6477 31.3558 47.5961 31.2352C47.5445 31.1146 47.4937 30.9929 47.4437 30.8698C47.3937 30.7467 47.3441 30.6222 47.2955 30.4965C47.2467 30.3709 47.1987 30.2439 47.1514 30.1155C47.104 29.9871 47.0575 29.8575 47.0114 29.7266C46.9654 29.5957 46.9201 29.4633 46.8754 29.3297C46.8307 29.196 46.7866 29.0611 46.7433 28.9247C46.6998 28.7883 46.6571 28.6507 46.615 28.5116C46.5727 28.3724 46.5313 28.2321 46.4902 28.0902C46.4492 27.9483 46.4089 27.805 46.3691 27.6604C46.3293 27.5158 46.29 27.3696 46.2514 27.222C46.2128 27.0744 46.1746 26.9255 46.1372 26.7752C46.0996 26.6248 46.0626 26.473 46.0262 26.3197C45.9898 26.1665 45.9539 26.0117 45.9185 25.8555C45.8831 25.6993 45.8482 25.5416 45.8139 25.3824C45.7795 25.2231 45.7455 25.0624 45.712 24.9004C45.6787 24.7381 45.6458 24.5745 45.6132 24.4093C45.5807 24.2441 45.5488 24.0774 45.5171 23.9091C45.4856 23.7408 45.4545 23.5711 45.4238 23.3996C45.3931 23.2282 45.3628 23.0554 45.333 22.8808C45.3031 22.7062 45.2736 22.5303 45.2448 22.3525C45.2157 22.1748 45.187 21.9955 45.1588 21.8147C45.1305 21.6339 45.1027 21.4514 45.0753 21.2673C45.0478 21.0831 45.0206 20.8976 44.9938 20.7103C44.9669 20.523 44.9405 20.3339 44.9145 20.1435C44.8883 19.9528 44.8627 19.7606 44.8372 19.5667C44.8118 19.3727 44.7866 19.1772 44.7619 18.9799C44.7371 18.7826 44.7125 18.5838 44.6883 18.383C44.6641 18.1824 44.6401 17.98 44.6163 17.7759C44.5925 17.5719 44.5692 17.366 44.546 17.1586C44.5228 16.9511 44.4999 16.7419 44.4771 16.5309C44.4543 16.3199 44.432 16.1072 44.4096 15.8927C44.3873 15.6782 44.3653 15.4619 44.3436 15.2441C44.3218 15.0262 44.3001 14.8062 44.2787 14.5847C44.2574 14.3631 44.236 14.1398 44.2149 13.9145C44.1938 13.6893 44.1728 13.4624 44.1521 13.2336C44.1314 13.0049 44.1106 12.7741 44.0903 12.5418C44.0698 12.3093 44.0495 12.075 44.0294 11.8388C44.0092 11.6025 43.9891 11.3645 43.969 11.1248C43.9489 10.8848 43.9291 10.6431 43.9092 10.3995C43.8893 10.1558 43.8696 9.91036 43.8501 9.66278C43.8304 9.41539 43.8109 9.16604 43.7914 8.91474C43.7718 8.66344 43.7523 8.41038 43.7328 8.15516C43.7133 7.90014 43.694 7.64298 43.6745 7.38404C43.6552 7.12511 43.6357 6.86402 43.6164 6.60117C43.5971 6.33832 43.5778 6.07331 43.5582 5.80655C43.5387 5.53959 43.5194 5.27087 43.5001 5Z" fill="url(#paint1_linear_33_11)" fill-opacity="0.2"/>
<path d="M65 24.0004C64.8404 24.1297 64.6819 24.258 64.5245 24.3852C64.3672 24.5125 64.2109 24.6387 64.0555 24.7641C63.9002 24.8894 63.7462 25.0135 63.5931 25.1368C63.4401 25.26 63.288 25.3823 63.137 25.5035C62.986 25.6246 62.8362 25.7448 62.6872 25.8641C62.5384 25.9833 62.3904 26.1014 62.2437 26.2186C62.097 26.3358 61.951 26.452 61.8061 26.5671C61.6612 26.6821 61.5175 26.7963 61.3747 26.9094C61.2318 27.0226 61.09 27.1347 60.9489 27.2458C60.8079 27.3569 60.6681 27.467 60.5291 27.576C60.3901 27.6851 60.2519 27.7933 60.1147 27.9003C59.9776 28.0074 59.8412 28.1134 59.7061 28.2184C59.5708 28.3234 59.4365 28.4275 59.3028 28.5305C59.1693 28.6334 59.0366 28.7356 58.9047 28.8365C58.7731 28.9375 58.642 29.0374 58.512 29.1366C58.382 29.2357 58.2527 29.3336 58.1243 29.4306C57.9959 29.5275 57.8686 29.6236 57.7418 29.7184C57.615 29.8134 57.4893 29.9073 57.3641 30.0004C57.239 30.0933 57.1149 30.1852 56.9914 30.2762C56.8679 30.367 56.7452 30.4571 56.6233 30.546C56.5014 30.6349 56.3801 30.7227 56.2597 30.8097C56.1392 30.8965 56.0196 30.9824 55.9008 31.0674C55.7818 31.1523 55.6638 31.2361 55.5462 31.319C55.4288 31.4018 55.312 31.4837 55.1958 31.5645C55.0797 31.6452 54.9643 31.7251 54.8498 31.8039C54.735 31.8828 54.6211 31.9605 54.5078 32.0373C54.3945 32.1141 54.2817 32.1898 54.1696 32.2646C54.0576 32.3393 53.9463 32.4131 53.8354 32.4859C53.7245 32.5587 53.6145 32.6304 53.505 32.7011C53.3956 32.7718 53.2865 32.8415 53.1783 32.9102C53.0701 32.9788 52.9623 33.0465 52.8551 33.1132C52.7479 33.18 52.6413 33.2456 52.5353 33.3102C52.4293 33.3749 52.3238 33.4386 52.219 33.5011C52.114 33.5637 52.0097 33.6253 51.9057 33.686C51.8018 33.7467 51.6985 33.8062 51.5958 33.8648C51.4928 33.9234 51.3905 33.981 51.2888 34.0375C51.1869 34.094 51.0856 34.1495 50.9848 34.2041C50.8839 34.2587 50.7834 34.3122 50.6835 34.3647C50.5837 34.4172 50.484 34.4688 50.3849 34.5192C50.2859 34.5697 50.1872 34.6193 50.089 34.6677C49.9908 34.7162 49.8929 34.7636 49.7955 34.8101C49.6981 34.8565 49.6011 34.902 49.5045 34.9464C49.4079 34.9907 49.3117 35.0344 49.2159 35.0766C49.1201 35.1191 49.0245 35.1604 48.9293 35.2008C48.8342 35.2412 48.7394 35.2806 48.645 35.3189C48.5505 35.3574 48.4565 35.3948 48.3625 35.431C48.2688 35.4674 48.1752 35.5027 48.0821 35.537C47.989 35.5713 47.896 35.6047 47.8033 35.6369C47.7106 35.6693 47.6183 35.7006 47.5263 35.7307C47.4342 35.7611 47.3425 35.7903 47.2508 35.8187C47.1593 35.8469 47.068 35.8743 46.9769 35.9006C46.8858 35.927 46.7949 35.9522 46.7042 35.9764C46.6135 36.0007 46.523 36.0238 46.4327 36.0462C46.3424 36.0684 46.2523 36.0896 46.1625 36.1099C46.0726 36.1302 45.9829 36.1493 45.8932 36.1675C45.8035 36.1857 45.7143 36.2028 45.625 36.2191C45.5357 36.2352 45.4467 36.2504 45.3576 36.2646C45.2686 36.2788 45.1797 36.2919 45.0908 36.304C45.002 36.3162 44.9133 36.3274 44.8246 36.3374C44.736 36.3475 44.6475 36.3566 44.5591 36.3647C44.4706 36.3729 44.3822 36.3799 44.2939 36.3859C44.2057 36.392 44.1174 36.3971 44.0292 36.4011C43.9409 36.4051 43.8527 36.4081 43.7646 36.4102C43.6764 36.4123 43.5884 36.4133 43.5001 36.4133C43.4119 36.4133 43.3238 36.4123 43.2355 36.4102C43.1473 36.4081 43.0593 36.4051 42.971 36.4011C42.8828 36.3971 42.7945 36.392 42.7063 36.3859C42.618 36.3799 42.5296 36.3729 42.4411 36.3647C42.3527 36.3566 42.2642 36.3475 42.1756 36.3374C42.0869 36.3274 41.9982 36.3162 41.9096 36.304C41.8207 36.2919 41.7319 36.2788 41.6428 36.2646C41.5537 36.2504 41.4647 36.2354 41.3754 36.2191C41.2861 36.203 41.1967 36.1857 41.1072 36.1675C41.0177 36.1493 40.9279 36.1302 40.838 36.1099C40.7481 36.0896 40.658 36.0684 40.5677 36.0462C40.4774 36.024 40.3869 36.0007 40.2962 35.9764C40.2055 35.9522 40.1147 35.927 40.0236 35.9006C39.9325 35.8743 39.8411 35.8471 39.7496 35.8187C39.6581 35.7903 39.5662 35.7611 39.4741 35.7307C39.382 35.7004 39.2896 35.6691 39.1971 35.6367C39.1046 35.6043 39.0116 35.5711 38.9183 35.5368C38.8252 35.5025 38.7316 35.467 38.6379 35.4308C38.5441 35.3946 38.4499 35.3571 38.3554 35.3188C38.2608 35.2805 38.166 35.241 38.0711 35.2006C37.9759 35.1603 37.8805 35.1187 37.7845 35.0763C37.6887 35.0338 37.5923 34.9904 37.4957 34.946C37.3991 34.9016 37.3021 34.8561 37.2047 34.8097C37.1073 34.7632 37.0094 34.7159 36.9112 34.6673C36.813 34.6188 36.7143 34.5693 36.6153 34.5189C36.5162 34.4684 36.4168 34.4169 36.3167 34.3643C36.2168 34.3118 36.1164 34.2584 36.0155 34.2038C35.9146 34.1492 35.8133 34.0936 35.7114 34.0371C35.6095 33.9806 35.5072 33.923 35.4044 33.8644C35.3015 33.8058 35.1982 33.7463 35.0945 33.6856C34.9905 33.625 34.8862 33.5633 34.7812 33.5008C34.6762 33.4382 34.5709 33.3745 34.4649 33.3098C34.3589 33.2452 34.2523 33.1796 34.1451 33.1129C34.0379 33.0461 33.9303 32.9784 33.8219 32.9098C33.7135 32.8412 33.6046 32.7714 33.4952 32.7007C33.3857 32.63 33.2755 32.5583 33.1648 32.4855C33.0541 32.4127 32.9426 32.3389 32.8306 32.2642C32.7185 32.1895 32.6058 32.1137 32.4924 32.0369C32.3791 31.9601 32.2652 31.8824 32.1505 31.8036C32.0357 31.7247 31.9204 31.6449 31.8044 31.5641C31.6884 31.4833 31.5716 31.4014 31.454 31.3186C31.3366 31.2357 31.2184 31.1519 31.0994 31.067C30.9804 30.9821 30.8608 30.8962 30.7403 30.8093C30.6199 30.7225 30.4988 30.6345 30.3767 30.5456C30.2548 30.4567 30.1321 30.3668 30.0086 30.2758C29.8851 30.185 29.7608 30.0931 29.6359 30.0002C29.5107 29.9073 29.385 29.8132 29.2582 29.7182C29.1314 29.6233 29.0041 29.5273 28.8757 29.4302C28.7473 29.3334 28.618 29.2353 28.488 29.1362C28.358 29.037 28.2271 28.9371 28.0953 28.8363C27.9636 28.7352 27.8309 28.6332 27.6972 28.5301C27.5637 28.4271 27.4292 28.3231 27.2939 28.218C27.1586 28.113 27.0224 28.0068 26.8853 27.8999C26.7481 27.7927 26.6101 27.6847 26.4709 27.5757C26.3317 27.4667 26.1919 27.3565 26.0511 27.2454C25.9101 27.1343 25.7682 27.0223 25.6253 26.9091C25.4825 26.7959 25.3386 26.6818 25.1939 26.5667C25.049 26.4516 24.9033 26.3354 24.7563 26.2182C24.6096 26.101 24.4616 25.9829 24.3128 25.8637C24.164 25.7444 24.014 25.6242 23.863 25.5031C23.712 25.3819 23.5602 25.2596 23.4069 25.1364C23.2538 25.0132 23.0998 24.889 22.9445 24.7637C22.7894 24.6383 22.633 24.5121 22.4755 24.3849C22.3181 24.2577 22.1596 24.1293 22 24C22.139 24.1484 22.277 24.296 22.4137 24.4423C22.5505 24.5887 22.6862 24.7341 22.821 24.8786C22.9557 25.023 23.0892 25.1664 23.2216 25.3087C23.3541 25.4511 23.4856 25.5926 23.6158 25.733C23.746 25.8735 23.8753 26.0129 24.0034 26.1515C24.1316 26.2899 24.2586 26.4275 24.3846 26.5642C24.5105 26.7007 24.6354 26.8365 24.7591 26.9713C24.8829 27.1061 25.0056 27.2399 25.1272 27.3726C25.2489 27.5055 25.3694 27.6375 25.4888 27.7687C25.6082 27.8999 25.7266 28.0299 25.8438 28.1592C25.961 28.2885 26.0774 28.4171 26.1923 28.5447C26.3073 28.6723 26.4214 28.7989 26.5343 28.9248C26.6472 29.0507 26.7591 29.1758 26.8698 29.3C26.9805 29.4242 27.0903 29.5476 27.1989 29.6701C27.3076 29.7927 27.415 29.9145 27.5214 30.0354C27.6278 30.1564 27.7331 30.2766 27.8375 30.396C27.9416 30.5155 28.0449 30.634 28.1469 30.7519C28.249 30.8698 28.3498 30.9868 28.4499 31.1032C28.5498 31.2196 28.6486 31.3351 28.7465 31.45C28.8443 31.5649 28.9409 31.679 29.0365 31.7924C29.1321 31.9057 29.2264 32.0185 29.32 32.1306C29.4133 32.2426 29.5056 32.3539 29.5969 32.4645C29.6882 32.5752 29.7783 32.685 29.8674 32.7943C29.9565 32.9036 30.0445 33.0122 30.1313 33.1203C30.2181 33.2281 30.304 33.3356 30.3887 33.4422C30.4735 33.5487 30.5571 33.6549 30.6396 33.7603C30.7222 33.8657 30.8035 33.9706 30.884 34.0748C30.9643 34.1791 31.0436 34.2826 31.1218 34.3858C31.2001 34.4887 31.2771 34.5913 31.3531 34.6931C31.4292 34.7949 31.5042 34.8963 31.5779 34.997C31.6517 35.0977 31.7245 35.198 31.7962 35.2977C31.868 35.3974 31.9385 35.4966 32.008 35.5952C32.0775 35.6937 32.146 35.792 32.2132 35.8894C32.2805 35.987 32.3467 36.0841 32.4119 36.1808C32.4772 36.2775 32.5412 36.3736 32.6041 36.4692C32.6671 36.5649 32.7291 36.6601 32.7898 36.7547C32.8505 36.8495 32.9103 36.9437 32.969 37.0376C33.0276 37.1314 33.0851 37.2249 33.1416 37.3178C33.198 37.4107 33.2535 37.5034 33.3077 37.5955C33.3619 37.6877 33.4151 37.7794 33.4673 37.8708C33.5194 37.9622 33.5704 38.0532 33.6203 38.1438C33.6702 38.2345 33.7192 38.3247 33.7668 38.4146C33.8145 38.5044 33.8614 38.5939 33.9069 38.683C33.9525 38.7721 33.997 38.8611 34.0404 38.9496C34.0838 39.0381 34.1262 39.1263 34.1673 39.2141C34.2085 39.3018 34.2489 39.3894 34.2878 39.4768C34.3269 39.564 34.3648 39.6511 34.4017 39.7377C34.4386 39.8244 34.4745 39.9108 34.5091 39.9971C34.544 40.0831 34.5776 40.1692 34.6102 40.2547C34.6428 40.3404 34.6742 40.4258 34.7048 40.5111C34.7351 40.5962 34.7645 40.6811 34.7928 40.7659C34.8209 40.8506 34.8483 40.9352 34.8744 41.0196C34.9004 41.1039 34.9253 41.1881 34.9493 41.2721C34.9732 41.3561 34.996 41.4399 35.0178 41.5235C35.0396 41.6071 35.0602 41.6905 35.0798 41.7739C35.0993 41.8572 35.1179 41.9404 35.1352 42.0234C35.1525 42.1065 35.1688 42.1893 35.1841 42.2722C35.1994 42.355 35.2135 42.4377 35.2265 42.5204C35.2396 42.603 35.2516 42.6855 35.2624 42.7679C35.2732 42.8504 35.283 42.9327 35.2917 43.015C35.3005 43.0973 35.308 43.1795 35.3146 43.2616C35.3211 43.3437 35.3266 43.4258 35.3309 43.5079C35.3352 43.59 35.3384 43.6721 35.3407 43.754C35.3429 43.8361 35.3439 43.918 35.3439 44.0001C35.3439 44.082 35.3429 44.1641 35.3407 44.2462C35.3384 44.3283 35.3352 44.4102 35.3309 44.4923C35.3266 44.5744 35.3211 44.6565 35.3146 44.7386C35.308 44.8206 35.3005 44.9029 35.2917 44.9852C35.283 45.0675 35.2732 45.1498 35.2624 45.2322C35.2516 45.3147 35.2396 45.3972 35.2265 45.4797C35.2135 45.5623 35.1994 45.645 35.1841 45.7278C35.1688 45.8107 35.1527 45.8935 35.1352 45.9766C35.1179 46.0596 35.0993 46.1429 35.0798 46.2261C35.0602 46.3093 35.0396 46.3929 35.0178 46.4765C34.996 46.5601 34.9732 46.6439 34.9493 46.7279C34.9255 46.8119 34.9004 46.8961 34.8744 46.9804C34.8483 47.0648 34.8212 47.1494 34.7928 47.2341C34.7647 47.3189 34.7353 47.4038 34.7048 47.4889C34.6744 47.5741 34.6428 47.6596 34.6102 47.7453C34.5776 47.831 34.544 47.9169 34.5093 48.0029C34.4745 48.089 34.4388 48.1755 34.4017 48.2623C34.3648 48.3489 34.3267 48.436 34.2878 48.5232C34.2487 48.6104 34.2085 48.698 34.1673 48.7859C34.1262 48.8739 34.0838 48.9621 34.0404 49.0504C33.997 49.139 33.9523 49.2277 33.9069 49.317C33.8612 49.4061 33.8145 49.4956 33.7668 49.5854C33.7192 49.6753 33.6702 49.7656 33.6203 49.8562C33.5704 49.9468 33.5194 50.0378 33.4673 50.1292C33.4151 50.2206 33.3619 50.3123 33.3077 50.4045C33.2535 50.4966 33.198 50.5891 33.1416 50.6822C33.0851 50.7753 33.0276 50.8686 32.969 50.9624C32.9103 51.0563 32.8505 51.1505 32.7898 51.2453C32.7291 51.3401 32.6671 51.4353 32.6041 51.5308C32.5412 51.6266 32.4772 51.7227 32.4119 51.8192C32.3467 51.9159 32.2805 52.013 32.2132 52.1106C32.146 52.2082 32.0775 52.3063 32.008 52.4048C31.9385 52.5034 31.868 52.6026 31.7962 52.7023C31.7245 52.802 31.6517 52.9021 31.5779 53.003C31.5042 53.1039 31.4292 53.2051 31.3531 53.3069C31.2771 53.4087 31.2001 53.5113 31.1218 53.6142C31.0436 53.7172 30.9643 53.8209 30.884 53.9252C30.8037 54.0294 30.7222 54.1343 30.6396 54.2397C30.5571 54.3451 30.4735 54.4513 30.3887 54.5578C30.304 54.6646 30.2183 54.7719 30.1313 54.8797C30.0443 54.9876 29.9565 55.0963 29.8674 55.2057C29.7783 55.3149 29.6882 55.4248 29.5969 55.5355C29.5056 55.6463 29.4133 55.7576 29.32 55.8696C29.2266 55.9817 29.1321 56.0943 29.0365 56.2078C28.9409 56.3212 28.8443 56.4353 28.7465 56.5502C28.6486 56.6651 28.55 56.7808 28.4499 56.897C28.35 57.0134 28.249 57.1304 28.1469 57.2483C28.0447 57.3662 27.9416 57.4847 27.8375 57.6042C27.7331 57.7236 27.628 57.8438 27.5214 57.9648C27.415 58.0857 27.3074 58.2074 27.1989 58.3301C27.0903 58.4528 26.9807 58.576 26.8698 58.7004C26.7591 58.8246 26.6472 58.9497 26.5343 59.0756C26.4214 59.2015 26.3073 59.3281 26.1923 59.4557C26.0772 59.5833 25.961 59.7119 25.8438 59.8412C25.7266 59.9705 25.6082 60.1007 25.4888 60.2317C25.3694 60.3629 25.2489 60.4949 25.1272 60.6278C25.0056 60.7607 24.8829 60.8945 24.7591 61.0291C24.6354 61.1637 24.5105 61.2995 24.3846 61.4362C24.2586 61.5729 24.1316 61.7103 24.0034 61.8487C23.8753 61.9873 23.746 62.1267 23.6158 62.2671C23.4856 62.4076 23.3541 62.5489 23.2216 62.6913C23.0892 62.8336 22.9557 62.977 22.821 63.1215C22.6862 63.2659 22.5505 63.4111 22.4137 63.5577C22.277 63.704 22.139 63.8516 22 64C22.1596 63.8707 22.3181 63.7424 22.4755 63.6152C22.6328 63.4879 22.7892 63.3617 22.9445 63.2363C23.0998 63.111 23.2538 62.9868 23.4069 62.8636C23.56 62.7404 23.712 62.6181 23.8628 62.4969C24.0138 62.3758 24.1636 62.2556 24.3126 62.1363C24.4616 62.0171 24.6094 61.899 24.7561 61.7818C24.9031 61.6646 25.0488 61.5484 25.1937 61.4333C25.3386 61.3182 25.4823 61.2041 25.6251 61.0909C25.768 60.9777 25.9098 60.8657 26.0509 60.7546C26.1917 60.6435 26.3317 60.5333 26.4707 60.4243C26.6097 60.3153 26.7479 60.2071 26.8851 60.1001C27.0222 59.9932 27.1584 59.887 27.2937 59.782C27.429 59.677 27.5633 59.5729 27.697 59.4699C27.8305 59.367 27.9632 59.2648 28.0951 59.1639C28.2267 59.0629 28.3578 58.963 28.4878 58.8638C28.6178 58.7648 28.7471 58.6668 28.8755 58.5699C29.0039 58.4729 29.1313 58.377 29.258 58.282C29.3848 58.187 29.5105 58.0931 29.6357 58.0002C29.7608 57.9073 29.8849 57.8154 30.0084 57.7244C30.1319 57.6336 30.2546 57.5435 30.3765 57.4546C30.4984 57.3657 30.6197 57.2779 30.7401 57.1909C30.8606 57.1039 30.9802 57.0182 31.0992 56.9332C31.218 56.8483 31.3362 56.7645 31.4538 56.6816C31.5712 56.5988 31.688 56.5169 31.8042 56.4361C31.9203 56.3553 32.0357 56.2755 32.1502 56.1967C32.265 56.1178 32.3789 56.04 32.4922 55.9633C32.6056 55.8865 32.7183 55.8108 32.8304 55.7359C32.9424 55.6611 33.0537 55.5875 33.1646 55.5147C33.2753 55.4419 33.3855 55.3702 33.495 55.2995C33.6044 55.2288 33.7135 55.159 33.8217 55.0904C33.9299 55.0217 34.0377 54.9541 34.1449 54.8873C34.2521 54.8206 34.3587 54.755 34.4647 54.6903C34.5707 54.6257 34.6762 54.562 34.781 54.4994C34.886 54.4369 34.9903 54.3753 35.0943 54.3146C35.1982 54.2539 35.3015 54.1944 35.4042 54.1358C35.507 54.0772 35.6095 54.0196 35.7112 53.9631C35.8131 53.9066 35.9144 53.851 36.0152 53.7964C36.1161 53.7418 36.2166 53.6884 36.3165 53.6358C36.4163 53.5833 36.516 53.5318 36.6151 53.4813C36.7141 53.4309 36.8128 53.3814 36.911 53.3329C37.0092 53.2844 37.1071 53.2369 37.2045 53.1905C37.3019 53.144 37.3989 53.0985 37.4955 53.0542C37.5921 53.0098 37.6883 52.9662 37.7843 52.9239C37.8801 52.8815 37.9757 52.8401 38.0709 52.7998C38.166 52.7594 38.2608 52.7199 38.3552 52.6816C38.4497 52.6433 38.5437 52.6058 38.6377 52.5696C38.7316 52.5334 38.825 52.4979 38.9181 52.4636C39.0112 52.4293 39.1042 52.3959 39.1969 52.3635C39.2894 52.3313 39.382 52.2998 39.4739 52.2697C39.566 52.2393 39.6577 52.2101 39.7494 52.1817C39.8409 52.1534 39.9325 52.1261 40.0236 52.0998C40.1147 52.0734 40.2055 52.0482 40.2962 52.0239C40.3869 51.9997 40.4774 51.9765 40.5677 51.9542C40.658 51.932 40.7481 51.9108 40.838 51.8905C40.9279 51.8702 41.0175 51.8511 41.1072 51.8329C41.1969 51.8147 41.2861 51.7974 41.3754 51.7813C41.4647 51.7652 41.5537 51.75 41.6428 51.7358C41.7319 51.7215 41.8207 51.7085 41.9096 51.6963C41.9984 51.6842 42.0871 51.6732 42.1758 51.663C42.2644 51.6529 42.3529 51.6438 42.4413 51.6357C42.5298 51.6275 42.6182 51.6205 42.7065 51.6144C42.7947 51.6084 42.883 51.6033 42.9712 51.5993C43.0595 51.5953 43.1477 51.5923 43.2358 51.5902C43.324 51.5881 43.4121 51.5871 43.5003 51.5871C43.5886 51.5871 43.6766 51.5881 43.7648 51.5902C43.8531 51.5923 43.9411 51.5953 44.0294 51.5993C44.1176 51.6033 44.2059 51.6084 44.2941 51.6144C44.3824 51.6205 44.4708 51.6275 44.5593 51.6357C44.6477 51.6438 44.7362 51.6529 44.8249 51.663C44.9135 51.673 45.0022 51.6842 45.0908 51.6963C45.1797 51.7085 45.2685 51.7215 45.3574 51.7358C45.4465 51.75 45.5355 51.765 45.6248 51.7813C45.7141 51.7974 45.8035 51.8147 45.893 51.8329C45.9827 51.8511 46.0724 51.8702 46.1623 51.8905C46.2521 51.9108 46.3422 51.932 46.4325 51.9542C46.5228 51.9764 46.6133 51.9997 46.704 52.0239C46.7947 52.0482 46.8856 52.0734 46.9767 52.0998C47.0678 52.1261 47.1591 52.1533 47.2506 52.1817C47.3421 52.2099 47.434 52.2393 47.5261 52.2697C47.6182 52.3 47.7106 52.3313 47.8031 52.3635C47.8958 52.3959 47.9886 52.4291 48.0819 52.4636C48.175 52.4979 48.2686 52.5334 48.3623 52.5696C48.4561 52.6058 48.5503 52.6433 48.6448 52.6816C48.7394 52.7201 48.8342 52.7594 48.9291 52.7998C49.0241 52.8401 49.1197 52.8816 49.2157 52.9239C49.3115 52.9664 49.4077 53.0098 49.5043 53.0542C49.6009 53.0985 49.6979 53.144 49.7953 53.1905C49.8927 53.2369 49.9906 53.2844 50.0886 53.3329C50.1868 53.3814 50.2855 53.4309 50.3845 53.4813C50.4836 53.5318 50.5831 53.5833 50.6831 53.6358C50.783 53.6884 50.8834 53.742 50.9843 53.7964C51.0852 53.851 51.1865 53.9066 51.2884 53.9631C51.3903 54.0196 51.4926 54.0772 51.5954 54.1358C51.6983 54.1944 51.8016 54.2539 51.9053 54.3146C52.0093 54.3753 52.1136 54.4369 52.2186 54.4994C52.3236 54.562 52.4289 54.6257 52.5349 54.6903C52.6409 54.755 52.7475 54.8206 52.8547 54.8873C52.9619 54.9541 53.0695 55.0217 53.1779 55.0904C53.2861 55.159 53.3952 55.2288 53.5046 55.2995C53.6141 55.3702 53.7243 55.4419 53.835 55.5147C53.9459 55.5875 54.0572 55.6611 54.1693 55.7359C54.2813 55.8106 54.394 55.8865 54.5074 55.9633C54.6207 56.04 54.7346 56.1178 54.8493 56.1967C54.9641 56.2755 55.0794 56.3553 55.1954 56.4361C55.3116 56.5169 55.4284 56.5988 55.5457 56.6816C55.6633 56.7645 55.7814 56.8483 55.9004 56.9332C56.0192 57.0182 56.1391 57.1039 56.2593 57.1909C56.3795 57.2779 56.5008 57.3657 56.6229 57.4546C56.7448 57.5435 56.8675 57.6334 56.991 57.7244C57.1145 57.8152 57.2388 57.9071 57.3637 58.0002C57.4889 58.0931 57.6146 58.1872 57.7414 58.282C57.8682 58.377 57.9955 58.4729 58.1239 58.5699C58.2523 58.6668 58.3815 58.7648 58.5116 58.8638C58.6416 58.9628 58.7724 59.0629 58.9043 59.1639C59.0362 59.265 59.1686 59.367 59.3023 59.4699C59.4358 59.5731 59.5703 59.677 59.7057 59.782C59.841 59.887 59.9773 59.9932 60.1143 60.1001C60.2515 60.2073 60.3897 60.3153 60.5287 60.4243C60.6677 60.5333 60.8077 60.6435 60.9485 60.7546C61.0893 60.8657 61.2314 60.9777 61.3743 61.0909C61.5171 61.2041 61.661 61.3182 61.8057 61.4333C61.9504 61.5484 62.0963 61.6646 62.2433 61.7818C62.3902 61.899 62.538 62.0171 62.6868 62.1363C62.8358 62.2556 62.9855 62.3758 63.1366 62.4969C63.2876 62.6181 63.4396 62.7404 63.5927 62.8636C63.7458 62.9868 63.8999 63.111 64.0552 63.2363C64.2103 63.3617 64.3666 63.4879 64.5241 63.6152C64.6817 63.7424 64.84 63.8707 64.9996 64C64.8606 63.8516 64.7226 63.704 64.5859 63.5577C64.4491 63.4113 64.3134 63.2659 64.1786 63.1215C64.0439 62.977 63.9104 62.8336 63.778 62.6913C63.6455 62.5489 63.514 62.4074 63.3838 62.267C63.2536 62.1265 63.1243 61.9871 62.9962 61.8485C62.868 61.7099 62.741 61.5725 62.615 61.436C62.4891 61.2993 62.3641 61.1637 62.2404 61.0289C62.1167 60.8941 61.994 60.7605 61.8724 60.6276C61.7507 60.4947 61.6302 60.3627 61.5108 60.2315C61.3914 60.1003 61.273 59.9703 61.1558 59.841C61.0386 59.7116 60.9222 59.5831 60.8073 59.4555C60.6921 59.3279 60.5782 59.2011 60.4653 59.0754C60.3524 58.9495 60.2405 58.8244 60.1298 58.7002C60.0191 58.576 59.9093 58.4526 59.8007 58.3299C59.692 58.2074 59.5846 58.0855 59.4782 57.9646C59.3718 57.8436 59.2665 57.7234 59.1621 57.604C59.058 57.4845 58.9547 57.3661 58.8527 57.2481C58.7506 57.1302 58.6497 57.0132 58.5497 56.8968C58.4498 56.7804 58.351 56.6649 58.2533 56.5501C58.1555 56.4352 58.0589 56.321 57.9633 56.2076C57.8677 56.0943 57.7734 55.9815 57.6798 55.8694C57.5865 55.7574 57.4942 55.6461 57.4029 55.5355C57.3116 55.4248 57.2215 55.3149 57.1324 55.2057C57.0433 55.0964 56.9555 54.9878 56.8685 54.8797C56.7817 54.7717 56.6958 54.6644 56.6111 54.5578C56.5263 54.4511 56.4427 54.3451 56.3602 54.2397C56.2776 54.1343 56.1963 54.0294 56.1158 53.9252C56.0355 53.8209 55.9562 53.7174 55.878 53.6142C55.7997 53.5113 55.7227 53.4087 55.6466 53.3069C55.5706 53.2051 55.4956 53.1037 55.4219 53.003C55.3481 52.9023 55.2753 52.802 55.2036 52.7023C55.1318 52.6026 55.0613 52.5034 54.9918 52.4048C54.9223 52.3063 54.8538 52.208 54.7866 52.1106C54.7193 52.013 54.6529 51.9159 54.5879 51.8192C54.5226 51.7225 54.4586 51.6264 54.3957 51.5308C54.3327 51.4351 54.2707 51.3399 54.21 51.2453C54.1493 51.1505 54.0893 51.0563 54.0308 50.9624C53.9724 50.8686 53.9147 50.7751 53.8582 50.6822C53.8018 50.5893 53.7463 50.4966 53.6921 50.4045C53.6379 50.3123 53.5847 50.2206 53.5326 50.1292C53.4804 50.0378 53.4294 49.9468 53.3795 49.8564C53.3296 49.7657 53.2806 49.6755 53.233 49.5856C53.1853 49.4958 53.1384 49.4063 53.0929 49.317C53.0473 49.2279 53.0028 49.139 52.9594 49.0504C52.916 48.9619 52.8736 48.8737 52.8325 48.7859C52.7911 48.6982 52.7509 48.6106 52.712 48.5233C52.6729 48.4361 52.635 48.3491 52.5981 48.2625C52.5612 48.1758 52.5253 48.0894 52.4907 48.0031C52.4558 47.9168 52.4222 47.831 52.3898 47.7455C52.3572 47.6598 52.3258 47.5745 52.2952 47.4891C52.2647 47.4038 52.2355 47.3191 52.2072 47.2343C52.1788 47.1496 52.1517 47.065 52.1256 46.9807C52.0996 46.8963 52.0747 46.8121 52.0507 46.7281C52.0266 46.6441 52.004 46.5603 51.9822 46.4767C51.9606 46.3931 51.9398 46.3097 51.9202 46.2263C51.9007 46.143 51.8823 46.0598 51.8648 45.9768C51.8475 45.8937 51.8312 45.8109 51.8159 45.728C51.8006 45.6452 51.7865 45.5625 51.7735 45.4799C51.7604 45.3972 51.7484 45.3147 51.7376 45.2322C51.7268 45.1498 51.717 45.0675 51.7083 44.9852C51.6995 44.9029 51.692 44.8206 51.6854 44.7386C51.6789 44.6565 51.6734 44.5744 51.6691 44.4923C51.6648 44.4102 51.6616 44.3281 51.6593 44.2462C51.6571 44.1643 51.6561 44.0822 51.6561 44.0001C51.6561 43.918 51.6571 43.8361 51.6593 43.754C51.6616 43.6719 51.6648 43.59 51.6691 43.5079C51.6734 43.4258 51.6789 43.3437 51.6854 43.2616C51.692 43.1795 51.6995 43.0973 51.7083 43.015C51.717 42.9327 51.7266 42.8504 51.7376 42.7679C51.7484 42.6855 51.7604 42.603 51.7735 42.5204C51.7865 42.4377 51.8006 42.355 51.8159 42.2722C51.8312 42.1893 51.8475 42.1065 51.8648 42.0234C51.8821 41.9404 51.9007 41.8572 51.9202 41.7739C51.9398 41.6905 51.9604 41.6071 51.9822 41.5235C52.004 41.4399 52.0268 41.3561 52.0507 41.2721C52.0745 41.1881 52.0996 41.1039 52.1256 41.0196C52.1517 40.9352 52.1788 40.8506 52.2072 40.7659C52.2355 40.6811 52.2647 40.5962 52.2952 40.5111C52.3256 40.4259 52.3572 40.3404 52.3898 40.2547C52.4224 40.169 52.456 40.0831 52.4907 39.9971C52.5253 39.911 52.5612 39.8246 52.5981 39.7377C52.635 39.6509 52.6731 39.564 52.712 39.4768C52.7511 39.3896 52.7913 39.302 52.8325 39.2141C52.8736 39.1263 52.916 39.0381 52.9594 38.9496C53.0028 38.8611 53.0475 38.7723 53.0929 38.683C53.1386 38.5939 53.1853 38.5044 53.233 38.4146C53.2806 38.3247 53.3296 38.2345 53.3795 38.1438C53.4294 38.0532 53.4806 37.9622 53.5326 37.871C53.5845 37.7798 53.6379 37.6879 53.6921 37.5957C53.7463 37.5036 53.8018 37.4111 53.8582 37.318C53.9147 37.2251 53.9722 37.1316 54.0308 37.0378C54.0895 36.9439 54.1493 36.8497 54.21 36.7549C54.2707 36.6601 54.3327 36.5649 54.3957 36.4694C54.4586 36.3736 54.5226 36.2775 54.5879 36.181C54.6531 36.0843 54.7193 35.9872 54.7866 35.8898C54.8538 35.7922 54.9223 35.6941 54.9918 35.5956C55.0613 35.497 55.1318 35.3978 55.2036 35.2981C55.2753 35.1984 55.3481 35.0982 55.4219 34.9974C55.4956 34.8967 55.5706 34.7953 55.6466 34.6935C55.7227 34.5917 55.7997 34.4891 55.878 34.3861C55.9562 34.2832 56.0353 34.1795 56.1158 34.0752C56.1961 33.9709 56.2776 33.8661 56.3602 33.7607C56.4427 33.6553 56.5263 33.5491 56.6111 33.4426C56.6958 33.3358 56.7817 33.2285 56.8685 33.1206C56.9553 33.0128 57.0433 32.9041 57.1324 32.7947C57.2215 32.6855 57.3116 32.5755 57.4029 32.4648C57.4942 32.3541 57.5865 32.2428 57.6798 32.131C57.7732 32.0189 57.8677 31.9063 57.9633 31.7927C58.0589 31.6794 58.1555 31.5652 58.2533 31.4503C58.351 31.3354 58.4498 31.2198 58.5497 31.1036C58.6495 30.9872 58.7506 30.8702 58.8527 30.7523C58.9549 30.6343 59.058 30.5159 59.1621 30.3964C59.2663 30.277 59.3716 30.1568 59.4782 30.0358C59.5846 29.9148 59.6922 29.7931 59.8007 29.6705C59.9093 29.5478 60.0189 29.4246 60.1298 29.3002C60.2405 29.176 60.3524 29.0509 60.4653 28.925C60.5782 28.7991 60.6923 28.6723 60.8073 28.5449C60.9222 28.4175 61.0386 28.2889 61.1558 28.1594C61.273 28.0301 61.3914 27.8999 61.5108 27.7689C61.6302 27.6377 61.7507 27.5057 61.8724 27.3728C61.994 27.2399 62.1167 27.1061 62.2404 26.9714C62.3641 26.8368 62.4891 26.7011 62.615 26.5644C62.741 26.4277 62.868 26.2902 62.9962 26.1518C63.1243 26.0133 63.2536 25.8739 63.3838 25.7334C63.514 25.5929 63.6455 25.4515 63.778 25.3091C63.9104 25.1667 64.0439 25.0234 64.1786 24.8789C64.3134 24.7345 64.4491 24.5892 64.5859 24.4427C64.723 24.2963 64.861 24.1488 65 24.0004Z" fill="#CFAEC7"/>
<path d="M65 24.0004C64.8404 24.1297 64.6819 24.258 64.5245 24.3852C64.3672 24.5125 64.2109 24.6387 64.0555 24.7641C63.9002 24.8894 63.7462 25.0135 63.5931 25.1368C63.4401 25.26 63.288 25.3823 63.137 25.5035C62.986 25.6246 62.8362 25.7448 62.6872 25.8641C62.5384 25.9833 62.3904 26.1014 62.2437 26.2186C62.097 26.3358 61.951 26.452 61.8061 26.5671C61.6612 26.6821 61.5175 26.7963 61.3747 26.9094C61.2318 27.0226 61.09 27.1347 60.9489 27.2458C60.8079 27.3569 60.6681 27.467 60.5291 27.576C60.3901 27.6851 60.2519 27.7933 60.1147 27.9003C59.9776 28.0074 59.8412 28.1134 59.7061 28.2184C59.5708 28.3234 59.4365 28.4275 59.3028 28.5305C59.1693 28.6334 59.0366 28.7356 58.9047 28.8365C58.7731 28.9375 58.642 29.0374 58.512 29.1366C58.382 29.2357 58.2527 29.3336 58.1243 29.4306C57.9959 29.5275 57.8686 29.6236 57.7418 29.7184C57.615 29.8134 57.4893 29.9073 57.3641 30.0004C57.239 30.0933 57.1149 30.1852 56.9914 30.2762C56.8679 30.367 56.7452 30.4571 56.6233 30.546C56.5014 30.6349 56.3801 30.7227 56.2597 30.8097C56.1392 30.8965 56.0196 30.9824 55.9008 31.0674C55.7818 31.1523 55.6638 31.2361 55.5462 31.319C55.4288 31.4018 55.312 31.4837 55.1958 31.5645C55.0797 31.6452 54.9643 31.7251 54.8498 31.8039C54.735 31.8828 54.6211 31.9605 54.5078 32.0373C54.3945 32.1141 54.2817 32.1898 54.1696 32.2646C54.0576 32.3393 53.9463 32.4131 53.8354 32.4859C53.7245 32.5587 53.6145 32.6304 53.505 32.7011C53.3956 32.7718 53.2865 32.8415 53.1783 32.9102C53.0701 32.9788 52.9623 33.0465 52.8551 33.1132C52.7479 33.18 52.6413 33.2456 52.5353 33.3102C52.4293 33.3749 52.3238 33.4386 52.219 33.5011C52.114 33.5637 52.0097 33.6253 51.9057 33.686C51.8018 33.7467 51.6985 33.8062 51.5958 33.8648C51.4928 33.9234 51.3905 33.981 51.2888 34.0375C51.1869 34.094 51.0856 34.1495 50.9848 34.2041C50.8839 34.2587 50.7834 34.3122 50.6835 34.3647C50.5837 34.4172 50.484 34.4688 50.3849 34.5192C50.2859 34.5697 50.1872 34.6193 50.089 34.6677C49.9908 34.7162 49.8929 34.7636 49.7955 34.8101C49.6981 34.8565 49.6011 34.902 49.5045 34.9464C49.4079 34.9907 49.3117 35.0344 49.2159 35.0766C49.1201 35.1191 49.0245 35.1604 48.9293 35.2008C48.8342 35.2412 48.7394 35.2806 48.645 35.3189C48.5505 35.3574 48.4565 35.3948 48.3625 35.431C48.2688 35.4674 48.1752 35.5027 48.0821 35.537C47.989 35.5713 47.896 35.6047 47.8033 35.6369C47.7106 35.6693 47.6183 35.7006 47.5263 35.7307C47.4342 35.7611 47.3425 35.7903 47.2508 35.8187C47.1593 35.8469 47.068 35.8743 46.9769 35.9006C46.8858 35.927 46.7949 35.9522 46.7042 35.9764C46.6135 36.0007 46.523 36.0238 46.4327 36.0462C46.3424 36.0684 46.2523 36.0896 46.1625 36.1099C46.0726 36.1302 45.9829 36.1493 45.8932 36.1675C45.8035 36.1857 45.7143 36.2028 45.625 36.2191C45.5357 36.2352 45.4467 36.2504 45.3576 36.2646C45.2686 36.2788 45.1797 36.2919 45.0908 36.304C45.002 36.3162 44.9133 36.3274 44.8246 36.3374C44.736 36.3475 44.6475 36.3566 44.5591 36.3647C44.4706 36.3729 44.3822 36.3799 44.2939 36.3859C44.2057 36.392 44.1174 36.3971 44.0292 36.4011C43.9409 36.4051 43.8527 36.4081 43.7646 36.4102C43.6764 36.4123 43.5884 36.4133 43.5001 36.4133C43.4119 36.4133 43.3238 36.4123 43.2355 36.4102C43.1473 36.4081 43.0593 36.4051 42.971 36.4011C42.8828 36.3971 42.7945 36.392 42.7063 36.3859C42.618 36.3799 42.5296 36.3729 42.4411 36.3647C42.3527 36.3566 42.2642 36.3475 42.1756 36.3374C42.0869 36.3274 41.9982 36.3162 41.9096 36.304C41.8207 36.2919 41.7319 36.2788 41.6428 36.2646C41.5537 36.2504 41.4647 36.2354 41.3754 36.2191C41.2861 36.203 41.1967 36.1857 41.1072 36.1675C41.0177 36.1493 40.9279 36.1302 40.838 36.1099C40.7481 36.0896 40.658 36.0684 40.5677 36.0462C40.4774 36.024 40.3869 36.0007 40.2962 35.9764C40.2055 35.9522 40.1147 35.927 40.0236 35.9006C39.9325 35.8743 39.8411 35.8471 39.7496 35.8187C39.6581 35.7903 39.5662 35.7611 39.4741 35.7307C39.382 35.7004 39.2896 35.6691 39.1971 35.6367C39.1046 35.6043 39.0116 35.5711 38.9183 35.5368C38.8252 35.5025 38.7316 35.467 38.6379 35.4308C38.5441 35.3946 38.4499 35.3571 38.3554 35.3188C38.2608 35.2805 38.166 35.241 38.0711 35.2006C37.9759 35.1603 37.8805 35.1187 37.7845 35.0763C37.6887 35.0338 37.5923 34.9904 37.4957 34.946C37.3991 34.9016 37.3021 34.8561 37.2047 34.8097C37.1073 34.7632 37.0094 34.7159 36.9112 34.6673C36.813 34.6188 36.7143 34.5693 36.6153 34.5189C36.5162 34.4684 36.4168 34.4169 36.3167 34.3643C36.2168 34.3118 36.1164 34.2584 36.0155 34.2038C35.9146 34.1492 35.8133 34.0936 35.7114 34.0371C35.6095 33.9806 35.5072 33.923 35.4044 33.8644C35.3015 33.8058 35.1982 33.7463 35.0945 33.6856C34.9905 33.625 34.8862 33.5633 34.7812 33.5008C34.6762 33.4382 34.5709 33.3745 34.4649 33.3098C34.3589 33.2452 34.2523 33.1796 34.1451 33.1129C34.0379 33.0461 33.9303 32.9784 33.8219 32.9098C33.7135 32.8412 33.6046 32.7714 33.4952 32.7007C33.3857 32.63 33.2755 32.5583 33.1648 32.4855C33.0541 32.4127 32.9426 32.3389 32.8306 32.2642C32.7185 32.1895 32.6058 32.1137 32.4924 32.0369C32.3791 31.9601 32.2652 31.8824 32.1505 31.8036C32.0357 31.7247 31.9204 31.6449 31.8044 31.5641C31.6884 31.4833 31.5716 31.4014 31.454 31.3186C31.3366 31.2357 31.2184 31.1519 31.0994 31.067C30.9804 30.9821 30.8608 30.8962 30.7403 30.8093C30.6199 30.7225 30.4988 30.6345 30.3767 30.5456C30.2548 30.4567 30.1321 30.3668 30.0086 30.2758C29.8851 30.185 29.7608 30.0931 29.6359 30.0002C29.5107 29.9073 29.385 29.8132 29.2582 29.7182C29.1314 29.6233 29.0041 29.5273 28.8757 29.4302C28.7473 29.3334 28.618 29.2353 28.488 29.1362C28.358 29.037 28.2271 28.9371 28.0953 28.8363C27.9636 28.7352 27.8309 28.6332 27.6972 28.5301C27.5637 28.4271 27.4292 28.3231 27.2939 28.218C27.1586 28.113 27.0224 28.0068 26.8853 27.8999C26.7481 27.7927 26.6101 27.6847 26.4709 27.5757C26.3317 27.4667 26.1919 27.3565 26.0511 27.2454C25.9101 27.1343 25.7682 27.0223 25.6253 26.9091C25.4825 26.7959 25.3386 26.6818 25.1939 26.5667C25.049 26.4516 24.9033 26.3354 24.7563 26.2182C24.6096 26.101 24.4616 25.9829 24.3128 25.8637C24.164 25.7444 24.014 25.6242 23.863 25.5031C23.712 25.3819 23.5602 25.2596 23.4069 25.1364C23.2538 25.0132 23.0998 24.889 22.9445 24.7637C22.7894 24.6383 22.633 24.5121 22.4755 24.3849C22.3181 24.2577 22.1596 24.1293 22 24C22.139 24.1484 22.277 24.296 22.4137 24.4423C22.5505 24.5887 22.6862 24.7341 22.821 24.8786C22.9557 25.023 23.0892 25.1664 23.2216 25.3087C23.3541 25.4511 23.4856 25.5926 23.6158 25.733C23.746 25.8735 23.8753 26.0129 24.0034 26.1515C24.1316 26.2899 24.2586 26.4275 24.3846 26.5642C24.5105 26.7007 24.6354 26.8365 24.7591 26.9713C24.8829 27.1061 25.0056 27.2399 25.1272 27.3726C25.2489 27.5055 25.3694 27.6375 25.4888 27.7687C25.6082 27.8999 25.7266 28.0299 25.8438 28.1592C25.961 28.2885 26.0774 28.4171 26.1923 28.5447C26.3073 28.6723 26.4214 28.7989 26.5343 28.9248C26.6472 29.0507 26.7591 29.1758 26.8698 29.3C26.9805 29.4242 27.0903 29.5476 27.1989 29.6701C27.3076 29.7927 27.415 29.9145 27.5214 30.0354C27.6278 30.1564 27.7331 30.2766 27.8375 30.396C27.9416 30.5155 28.0449 30.634 28.1469 30.7519C28.249 30.8698 28.3498 30.9868 28.4499 31.1032C28.5498 31.2196 28.6486 31.3351 28.7465 31.45C28.8443 31.5649 28.9409 31.679 29.0365 31.7924C29.1321 31.9057 29.2264 32.0185 29.32 32.1306C29.4133 32.2426 29.5056 32.3539 29.5969 32.4645C29.6882 32.5752 29.7783 32.685 29.8674 32.7943C29.9565 32.9036 30.0445 33.0122 30.1313 33.1203C30.2181 33.2281 30.304 33.3356 30.3887 33.4422C30.4735 33.5487 30.5571 33.6549 30.6396 33.7603C30.7222 33.8657 30.8035 33.9706 30.884 34.0748C30.9643 34.1791 31.0436 34.2826 31.1218 34.3858C31.2001 34.4887 31.2771 34.5913 31.3531 34.6931C31.4292 34.7949 31.5042 34.8963 31.5779 34.997C31.6517 35.0977 31.7245 35.198 31.7962 35.2977C31.868 35.3974 31.9385 35.4966 32.008 35.5952C32.0775 35.6937 32.146 35.792 32.2132 35.8894C32.2805 35.987 32.3467 36.0841 32.4119 36.1808C32.4772 36.2775 32.5412 36.3736 32.6041 36.4692C32.6671 36.5649 32.7291 36.6601 32.7898 36.7547C32.8505 36.8495 32.9103 36.9437 32.969 37.0376C33.0276 37.1314 33.0851 37.2249 33.1416 37.3178C33.198 37.4107 33.2535 37.5034 33.3077 37.5955C33.3619 37.6877 33.4151 37.7794 33.4673 37.8708C33.5194 37.9622 33.5704 38.0532 33.6203 38.1438C33.6702 38.2345 33.7192 38.3247 33.7668 38.4146C33.8145 38.5044 33.8614 38.5939 33.9069 38.683C33.9525 38.7721 33.997 38.8611 34.0404 38.9496C34.0838 39.0381 34.1262 39.1263 34.1673 39.2141C34.2085 39.3018 34.2489 39.3894 34.2878 39.4768C34.3269 39.564 34.3648 39.6511 34.4017 39.7377C34.4386 39.8244 34.4745 39.9108 34.5091 39.9971C34.544 40.0831 34.5776 40.1692 34.6102 40.2547C34.6428 40.3404 34.6742 40.4258 34.7048 40.5111C34.7351 40.5962 34.7645 40.6811 34.7928 40.7659C34.8209 40.8506 34.8483 40.9352 34.8744 41.0196C34.9004 41.1039 34.9253 41.1881 34.9493 41.2721C34.9732 41.3561 34.996 41.4399 35.0178 41.5235C35.0396 41.6071 35.0602 41.6905 35.0798 41.7739C35.0993 41.8572 35.1179 41.9404 35.1352 42.0234C35.1525 42.1065 35.1688 42.1893 35.1841 42.2722C35.1994 42.355 35.2135 42.4377 35.2265 42.5204C35.2396 42.603 35.2516 42.6855 35.2624 42.7679C35.2732 42.8504 35.283 42.9327 35.2917 43.015C35.3005 43.0973 35.308 43.1795 35.3146 43.2616C35.3211 43.3437 35.3266 43.4258 35.3309 43.5079C35.3352 43.59 35.3384 43.6721 35.3407 43.754C35.3429 43.8361 35.3439 43.918 35.3439 44.0001C35.3439 44.082 35.3429 44.1641 35.3407 44.2462C35.3384 44.3283 35.3352 44.4102 35.3309 44.4923C35.3266 44.5744 35.3211 44.6565 35.3146 44.7386C35.308 44.8206 35.3005 44.9029 35.2917 44.9852C35.283 45.0675 35.2732 45.1498 35.2624 45.2322C35.2516 45.3147 35.2396 45.3972 35.2265 45.4797C35.2135 45.5623 35.1994 45.645 35.1841 45.7278C35.1688 45.8107 35.1527 45.8935 35.1352 45.9766C35.1179 46.0596 35.0993 46.1429 35.0798 46.2261C35.0602 46.3093 35.0396 46.3929 35.0178 46.4765C34.996 46.5601 34.9732 46.6439 34.9493 46.7279C34.9255 46.8119 34.9004 46.8961 34.8744 46.9804C34.8483 47.0648 34.8212 47.1494 34.7928 47.2341C34.7647 47.3189 34.7353 47.4038 34.7048 47.4889C34.6744 47.5741 34.6428 47.6596 34.6102 47.7453C34.5776 47.831 34.544 47.9169 34.5093 48.0029C34.4745 48.089 34.4388 48.1755 34.4017 48.2623C34.3648 48.3489 34.3267 48.436 34.2878 48.5232C34.2487 48.6104 34.2085 48.698 34.1673 48.7859C34.1262 48.8739 34.0838 48.9621 34.0404 49.0504C33.997 49.139 33.9523 49.2277 33.9069 49.317C33.8612 49.4061 33.8145 49.4956 33.7668 49.5854C33.7192 49.6753 33.6702 49.7656 33.6203 49.8562C33.5704 49.9468 33.5194 50.0378 33.4673 50.1292C33.4151 50.2206 33.3619 50.3123 33.3077 50.4045C33.2535 50.4966 33.198 50.5891 33.1416 50.6822C33.0851 50.7753 33.0276 50.8686 32.969 50.9624C32.9103 51.0563 32.8505 51.1505 32.7898 51.2453C32.7291 51.3401 32.6671 51.4353 32.6041 51.5308C32.5412 51.6266 32.4772 51.7227 32.4119 51.8192C32.3467 51.9159 32.2805 52.013 32.2132 52.1106C32.146 52.2082 32.0775 52.3063 32.008 52.4048C31.9385 52.5034 31.868 52.6026 31.7962 52.7023C31.7245 52.802 31.6517 52.9021 31.5779 53.003C31.5042 53.1039 31.4292 53.2051 31.3531 53.3069C31.2771 53.4087 31.2001 53.5113 31.1218 53.6142C31.0436 53.7172 30.9643 53.8209 30.884 53.9252C30.8037 54.0294 30.7222 54.1343 30.6396 54.2397C30.5571 54.3451 30.4735 54.4513 30.3887 54.5578C30.304 54.6646 30.2183 54.7719 30.1313 54.8797C30.0443 54.9876 29.9565 55.0963 29.8674 55.2057C29.7783 55.3149 29.6882 55.4248 29.5969 55.5355C29.5056 55.6463 29.4133 55.7576 29.32 55.8696C29.2266 55.9817 29.1321 56.0943 29.0365 56.2078C28.9409 56.3212 28.8443 56.4353 28.7465 56.5502C28.6486 56.6651 28.55 56.7808 28.4499 56.897C28.35 57.0134 28.249 57.1304 28.1469 57.2483C28.0447 57.3662 27.9416 57.4847 27.8375 57.6042C27.7331 57.7236 27.628 57.8438 27.5214 57.9648C27.415 58.0857 27.3074 58.2074 27.1989 58.3301C27.0903 58.4528 26.9807 58.576 26.8698 58.7004C26.7591 58.8246 26.6472 58.9497 26.5343 59.0756C26.4214 59.2015 26.3073 59.3281 26.1923 59.4557C26.0772 59.5833 25.961 59.7119 25.8438 59.8412C25.7266 59.9705 25.6082 60.1007 25.4888 60.2317C25.3694 60.3629 25.2489 60.4949 25.1272 60.6278C25.0056 60.7607 24.8829 60.8945 24.7591 61.0291C24.6354 61.1637 24.5105 61.2995 24.3846 61.4362C24.2586 61.5729 24.1316 61.7103 24.0034 61.8487C23.8753 61.9873 23.746 62.1267 23.6158 62.2671C23.4856 62.4076 23.3541 62.5489 23.2216 62.6913C23.0892 62.8336 22.9557 62.977 22.821 63.1215C22.6862 63.2659 22.5505 63.4111 22.4137 63.5577C22.277 63.704 22.139 63.8516 22 64C22.1596 63.8707 22.3181 63.7424 22.4755 63.6152C22.6328 63.4879 22.7892 63.3617 22.9445 63.2363C23.0998 63.111 23.2538 62.9868 23.4069 62.8636C23.56 62.7404 23.712 62.6181 23.8628 62.4969C24.0138 62.3758 24.1636 62.2556 24.3126 62.1363C24.4616 62.0171 24.6094 61.899 24.7561 61.7818C24.9031 61.6646 25.0488 61.5484 25.1937 61.4333C25.3386 61.3182 25.4823 61.2041 25.6251 61.0909C25.768 60.9777 25.9098 60.8657 26.0509 60.7546C26.1917 60.6435 26.3317 60.5333 26.4707 60.4243C26.6097 60.3153 26.7479 60.2071 26.8851 60.1001C27.0222 59.9932 27.1584 59.887 27.2937 59.782C27.429 59.677 27.5633 59.5729 27.697 59.4699C27.8305 59.367 27.9632 59.2648 28.0951 59.1639C28.2267 59.0629 28.3578 58.963 28.4878 58.8638C28.6178 58.7648 28.7471 58.6668 28.8755 58.5699C29.0039 58.4729 29.1313 58.377 29.258 58.282C29.3848 58.187 29.5105 58.0931 29.6357 58.0002C29.7608 57.9073 29.8849 57.8154 30.0084 57.7244C30.1319 57.6336 30.2546 57.5435 30.3765 57.4546C30.4984 57.3657 30.6197 57.2779 30.7401 57.1909C30.8606 57.1039 30.9802 57.0182 31.0992 56.9332C31.218 56.8483 31.3362 56.7645 31.4538 56.6816C31.5712 56.5988 31.688 56.5169 31.8042 56.4361C31.9203 56.3553 32.0357 56.2755 32.1502 56.1967C32.265 56.1178 32.3789 56.04 32.4922 55.9633C32.6056 55.8865 32.7183 55.8108 32.8304 55.7359C32.9424 55.6611 33.0537 55.5875 33.1646 55.5147C33.2753 55.4419 33.3855 55.3702 33.495 55.2995C33.6044 55.2288 33.7135 55.159 33.8217 55.0904C33.9299 55.0217 34.0377 54.9541 34.1449 54.8873C34.2521 54.8206 34.3587 54.755 34.4647 54.6903C34.5707 54.6257 34.6762 54.562 34.781 54.4994C34.886 54.4369 34.9903 54.3753 35.0943 54.3146C35.1982 54.2539 35.3015 54.1944 35.4042 54.1358C35.507 54.0772 35.6095 54.0196 35.7112 53.9631C35.8131 53.9066 35.9144 53.851 36.0152 53.7964C36.1161 53.7418 36.2166 53.6884 36.3165 53.6358C36.4163 53.5833 36.516 53.5318 36.6151 53.4813C36.7141 53.4309 36.8128 53.3814 36.911 53.3329C37.0092 53.2844 37.1071 53.2369 37.2045 53.1905C37.3019 53.144 37.3989 53.0985 37.4955 53.0542C37.5921 53.0098 37.6883 52.9662 37.7843 52.9239C37.8801 52.8815 37.9757 52.8401 38.0709 52.7998C38.166 52.7594 38.2608 52.7199 38.3552 52.6816C38.4497 52.6433 38.5437 52.6058 38.6377 52.5696C38.7316 52.5334 38.825 52.4979 38.9181 52.4636C39.0112 52.4293 39.1042 52.3959 39.1969 52.3635C39.2894 52.3313 39.382 52.2998 39.4739 52.2697C39.566 52.2393 39.6577 52.2101 39.7494 52.1817C39.8409 52.1534 39.9325 52.1261 40.0236 52.0998C40.1147 52.0734 40.2055 52.0482 40.2962 52.0239C40.3869 51.9997 40.4774 51.9765 40.5677 51.9542C40.658 51.932 40.7481 51.9108 40.838 51.8905C40.9279 51.8702 41.0175 51.8511 41.1072 51.8329C41.1969 51.8147 41.2861 51.7974 41.3754 51.7813C41.4647 51.7652 41.5537 51.75 41.6428 51.7358C41.7319 51.7215 41.8207 51.7085 41.9096 51.6963C41.9984 51.6842 42.0871 51.6732 42.1758 51.663C42.2644 51.6529 42.3529 51.6438 42.4413 51.6357C42.5298 51.6275 42.6182 51.6205 42.7065 51.6144C42.7947 51.6084 42.883 51.6033 42.9712 51.5993C43.0595 51.5953 43.1477 51.5923 43.2358 51.5902C43.324 51.5881 43.4121 51.5871 43.5003 51.5871C43.5886 51.5871 43.6766 51.5881 43.7648 51.5902C43.8531 51.5923 43.9411 51.5953 44.0294 51.5993C44.1176 51.6033 44.2059 51.6084 44.2941 51.6144C44.3824 51.6205 44.4708 51.6275 44.5593 51.6357C44.6477 51.6438 44.7362 51.6529 44.8249 51.663C44.9135 51.673 45.0022 51.6842 45.0908 51.6963C45.1797 51.7085 45.2685 51.7215 45.3574 51.7358C45.4465 51.75 45.5355 51.765 45.6248 51.7813C45.7141 51.7974 45.8035 51.8147 45.893 51.8329C45.9827 51.8511 46.0724 51.8702 46.1623 51.8905C46.2521 51.9108 46.3422 51.932 46.4325 51.9542C46.5228 51.9764 46.6133 51.9997 46.704 52.0239C46.7947 52.0482 46.8856 52.0734 46.9767 52.0998C47.0678 52.1261 47.1591 52.1533 47.2506 52.1817C47.3421 52.2099 47.434 52.2393 47.5261 52.2697C47.6182 52.3 47.7106 52.3313 47.8031 52.3635C47.8958 52.3959 47.9886 52.4291 48.0819 52.4636C48.175 52.4979 48.2686 52.5334 48.3623 52.5696C48.4561 52.6058 48.5503 52.6433 48.6448 52.6816C48.7394 52.7201 48.8342 52.7594 48.9291 52.7998C49.0241 52.8401 49.1197 52.8816 49.2157 52.9239C49.3115 52.9664 49.4077 53.0098 49.5043 53.0542C49.6009 53.0985 49.6979 53.144 49.7953 53.1905C49.8927 53.2369 49.9906 53.2844 50.0886 53.3329C50.1868 53.3814 50.2855 53.4309 50.3845 53.4813C50.4836 53.5318 50.5831 53.5833 50.6831 53.6358C50.783 53.6884 50.8834 53.742 50.9843 53.7964C51.0852 53.851 51.1865 53.9066 51.2884 53.9631C51.3903 54.0196 51.4926 54.0772 51.5954 54.1358C51.6983 54.1944 51.8016 54.2539 51.9053 54.3146C52.0093 54.3753 52.1136 54.4369 52.2186 54.4994C52.3236 54.562 52.4289 54.6257 52.5349 54.6903C52.6409 54.755 52.7475 54.8206 52.8547 54.8873C52.9619 54.9541 53.0695 55.0217 53.1779 55.0904C53.2861 55.159 53.3952 55.2288 53.5046 55.2995C53.6141 55.3702 53.7243 55.4419 53.835 55.5147C53.9459 55.5875 54.0572 55.6611 54.1693 55.7359C54.2813 55.8106 54.394 55.8865 54.5074 55.9633C54.6207 56.04 54.7346 56.1178 54.8493 56.1967C54.9641 56.2755 55.0794 56.3553 55.1954 56.4361C55.3116 56.5169 55.4284 56.5988 55.5457 56.6816C55.6633 56.7645 55.7814 56.8483 55.9004 56.9332C56.0192 57.0182 56.1391 57.1039 56.2593 57.1909C56.3795 57.2779 56.5008 57.3657 56.6229 57.4546C56.7448 57.5435 56.8675 57.6334 56.991 57.7244C57.1145 57.8152 57.2388 57.9071 57.3637 58.0002C57.4889 58.0931 57.6146 58.1872 57.7414 58.282C57.8682 58.377 57.9955 58.4729 58.1239 58.5699C58.2523 58.6668 58.3815 58.7648 58.5116 58.8638C58.6416 58.9628 58.7724 59.0629 58.9043 59.1639C59.0362 59.265 59.1686 59.367 59.3023 59.4699C59.4358 59.5731 59.5703 59.677 59.7057 59.782C59.841 59.887 59.9773 59.9932 60.1143 60.1001C60.2515 60.2073 60.3897 60.3153 60.5287 60.4243C60.6677 60.5333 60.8077 60.6435 60.9485 60.7546C61.0893 60.8657 61.2314 60.9777 61.3743 61.0909C61.5171 61.2041 61.661 61.3182 61.8057 61.4333C61.9504 61.5484 62.0963 61.6646 62.2433 61.7818C62.3902 61.899 62.538 62.0171 62.6868 62.1363C62.8358 62.2556 62.9855 62.3758 63.1366 62.4969C63.2876 62.6181 63.4396 62.7404 63.5927 62.8636C63.7458 62.9868 63.8999 63.111 64.0552 63.2363C64.2103 63.3617 64.3666 63.4879 64.5241 63.6152C64.6817 63.7424 64.84 63.8707 64.9996 64C64.8606 63.8516 64.7226 63.704 64.5859 63.5577C64.4491 63.4113 64.3134 63.2659 64.1786 63.1215C64.0439 62.977 63.9104 62.8336 63.778 62.6913C63.6455 62.5489 63.514 62.4074 63.3838 62.267C63.2536 62.1265 63.1243 61.9871 62.9962 61.8485C62.868 61.7099 62.741 61.5725 62.615 61.436C62.4891 61.2993 62.3641 61.1637 62.2404 61.0289C62.1167 60.8941 61.994 60.7605 61.8724 60.6276C61.7507 60.4947 61.6302 60.3627 61.5108 60.2315C61.3914 60.1003 61.273 59.9703 61.1558 59.841C61.0386 59.7116 60.9222 59.5831 60.8073 59.4555C60.6921 59.3279 60.5782 59.2011 60.4653 59.0754C60.3524 58.9495 60.2405 58.8244 60.1298 58.7002C60.0191 58.576 59.9093 58.4526 59.8007 58.3299C59.692 58.2074 59.5846 58.0855 59.4782 57.9646C59.3718 57.8436 59.2665 57.7234 59.1621 57.604C59.058 57.4845 58.9547 57.3661 58.8527 57.2481C58.7506 57.1302 58.6497 57.0132 58.5497 56.8968C58.4498 56.7804 58.351 56.6649 58.2533 56.5501C58.1555 56.4352 58.0589 56.321 57.9633 56.2076C57.8677 56.0943 57.7734 55.9815 57.6798 55.8694C57.5865 55.7574 57.4942 55.6461 57.4029 55.5355C57.3116 55.4248 57.2215 55.3149 57.1324 55.2057C57.0433 55.0964 56.9555 54.9878 56.8685 54.8797C56.7817 54.7717 56.6958 54.6644 56.6111 54.5578C56.5263 54.4511 56.4427 54.3451 56.3602 54.2397C56.2776 54.1343 56.1963 54.0294 56.1158 53.9252C56.0355 53.8209 55.9562 53.7174 55.878 53.6142C55.7997 53.5113 55.7227 53.4087 55.6466 53.3069C55.5706 53.2051 55.4956 53.1037 55.4219 53.003C55.3481 52.9023 55.2753 52.802 55.2036 52.7023C55.1318 52.6026 55.0613 52.5034 54.9918 52.4048C54.9223 52.3063 54.8538 52.208 54.7866 52.1106C54.7193 52.013 54.6529 51.9159 54.5879 51.8192C54.5226 51.7225 54.4586 51.6264 54.3957 51.5308C54.3327 51.4351 54.2707 51.3399 54.21 51.2453C54.1493 51.1505 54.0893 51.0563 54.0308 50.9624C53.9724 50.8686 53.9147 50.7751 53.8582 50.6822C53.8018 50.5893 53.7463 50.4966 53.6921 50.4045C53.6379 50.3123 53.5847 50.2206 53.5326 50.1292C53.4804 50.0378 53.4294 49.9468 53.3795 49.8564C53.3296 49.7657 53.2806 49.6755 53.233 49.5856C53.1853 49.4958 53.1384 49.4063 53.0929 49.317C53.0473 49.2279 53.0028 49.139 52.9594 49.0504C52.916 48.9619 52.8736 48.8737 52.8325 48.7859C52.7911 48.6982 52.7509 48.6106 52.712 48.5233C52.6729 48.4361 52.635 48.3491 52.5981 48.2625C52.5612 48.1758 52.5253 48.0894 52.4907 48.0031C52.4558 47.9168 52.4222 47.831 52.3898 47.7455C52.3572 47.6598 52.3258 47.5745 52.2952 47.4891C52.2647 47.4038 52.2355 47.3191 52.2072 47.2343C52.1788 47.1496 52.1517 47.065 52.1256 46.9807C52.0996 46.8963 52.0747 46.8121 52.0507 46.7281C52.0266 46.6441 52.004 46.5603 51.9822 46.4767C51.9606 46.3931 51.9398 46.3097 51.9202 46.2263C51.9007 46.143 51.8823 46.0598 51.8648 45.9768C51.8475 45.8937 51.8312 45.8109 51.8159 45.728C51.8006 45.6452 51.7865 45.5625 51.7735 45.4799C51.7604 45.3972 51.7484 45.3147 51.7376 45.2322C51.7268 45.1498 51.717 45.0675 51.7083 44.9852C51.6995 44.9029 51.692 44.8206 51.6854 44.7386C51.6789 44.6565 51.6734 44.5744 51.6691 44.4923C51.6648 44.4102 51.6616 44.3281 51.6593 44.2462C51.6571 44.1643 51.6561 44.0822 51.6561 44.0001C51.6561 43.918 51.6571 43.8361 51.6593 43.754C51.6616 43.6719 51.6648 43.59 51.6691 43.5079C51.6734 43.4258 51.6789 43.3437 51.6854 43.2616C51.692 43.1795 51.6995 43.0973 51.7083 43.015C51.717 42.9327 51.7266 42.8504 51.7376 42.7679C51.7484 42.6855 51.7604 42.603 51.7735 42.5204C51.7865 42.4377 51.8006 42.355 51.8159 42.2722C51.8312 42.1893 51.8475 42.1065 51.8648 42.0234C51.8821 41.9404 51.9007 41.8572 51.9202 41.7739C51.9398 41.6905 51.9604 41.6071 51.9822 41.5235C52.004 41.4399 52.0268 41.3561 52.0507 41.2721C52.0745 41.1881 52.0996 41.1039 52.1256 41.0196C52.1517 40.9352 52.1788 40.8506 52.2072 40.7659C52.2355 40.6811 52.2647 40.5962 52.2952 40.5111C52.3256 40.4259 52.3572 40.3404 52.3898 40.2547C52.4224 40.169 52.456 40.0831 52.4907 39.9971C52.5253 39.911 52.5612 39.8246 52.5981 39.7377C52.635 39.6509 52.6731 39.564 52.712 39.4768C52.7511 39.3896 52.7913 39.302 52.8325 39.2141C52.8736 39.1263 52.916 39.0381 52.9594 38.9496C53.0028 38.8611 53.0475 38.7723 53.0929 38.683C53.1386 38.5939 53.1853 38.5044 53.233 38.4146C53.2806 38.3247 53.3296 38.2345 53.3795 38.1438C53.4294 38.0532 53.4806 37.9622 53.5326 37.871C53.5845 37.7798 53.6379 37.6879 53.6921 37.5957C53.7463 37.5036 53.8018 37.4111 53.8582 37.318C53.9147 37.2251 53.9722 37.1316 54.0308 37.0378C54.0895 36.9439 54.1493 36.8497 54.21 36.7549C54.2707 36.6601 54.3327 36.5649 54.3957 36.4694C54.4586 36.3736 54.5226 36.2775 54.5879 36.181C54.6531 36.0843 54.7193 35.9872 54.7866 35.8898C54.8538 35.7922 54.9223 35.6941 54.9918 35.5956C55.0613 35.497 55.1318 35.3978 55.2036 35.2981C55.2753 35.1984 55.3481 35.0982 55.4219 34.9974C55.4956 34.8967 55.5706 34.7953 55.6466 34.6935C55.7227 34.5917 55.7997 34.4891 55.878 34.3861C55.9562 34.2832 56.0353 34.1795 56.1158 34.0752C56.1961 33.9709 56.2776 33.8661 56.3602 33.7607C56.4427 33.6553 56.5263 33.5491 56.6111 33.4426C56.6958 33.3358 56.7817 33.2285 56.8685 33.1206C56.9553 33.0128 57.0433 32.9041 57.1324 32.7947C57.2215 32.6855 57.3116 32.5755 57.4029 32.4648C57.4942 32.3541 57.5865 32.2428 57.6798 32.131C57.7732 32.0189 57.8677 31.9063 57.9633 31.7927C58.0589 31.6794 58.1555 31.5652 58.2533 31.4503C58.351 31.3354 58.4498 31.2198 58.5497 31.1036C58.6495 30.9872 58.7506 30.8702 58.8527 30.7523C58.9549 30.6343 59.058 30.5159 59.1621 30.3964C59.2663 30.277 59.3716 30.1568 59.4782 30.0358C59.5846 29.9148 59.6922 29.7931 59.8007 29.6705C59.9093 29.5478 60.0189 29.4246 60.1298 29.3002C60.2405 29.176 60.3524 29.0509 60.4653 28.925C60.5782 28.7991 60.6923 28.6723 60.8073 28.5449C60.9222 28.4175 61.0386 28.2889 61.1558 28.1594C61.273 28.0301 61.3914 27.8999 61.5108 27.7689C61.6302 27.6377 61.7507 27.5057 61.8724 27.3728C61.994 27.2399 62.1167 27.1061 62.2404 26.9714C62.3641 26.8368 62.4891 26.7011 62.615 26.5644C62.741 26.4277 62.868 26.2902 62.9962 26.1518C63.1243 26.0133 63.2536 25.8739 63.3838 25.7334C63.514 25.5929 63.6455 25.4515 63.778 25.3091C63.9104 25.1667 64.0439 25.0234 64.1786 24.8789C64.3134 24.7345 64.4491 24.5892 64.5859 24.4427C64.723 24.2963 64.861 24.1488 65 24.0004Z" fill="url(#paint2_linear_33_11)" fill-opacity="0.2"/>
<defs>
<radialGradient id="paint0_radial_33_11" cx="0" cy="0" r="1" gradientUnits="userSpaceOnUse" gradientTransform="translate(43.5 44.5) rotate(90) scale(44.5 43.5)">
<stop stop-color="#E5C7DE"/>
<stop offset="1" stop-color="#CFAEC7" stop-opacity="0"/>
</radialGradient>
<linearGradient id="paint1_linear_33_11" x1="43.5" y1="24" x2="43.5" y2="64" gradientUnits="userSpaceOnUse">
<stop stop-color="#E2C8DC" stop-opacity="0"/>
<stop offset="0.495" stop-color="#FE5F0B" stop-opacity="0.495"/>
<stop offset="1" stop-color="#FE5F0B"/>
</linearGradient>
<linearGradient id="paint2_linear_33_11" x1="43.5" y1="24" x2="43.5" y2="64" gradientUnits="userSpaceOnUse">
<stop stop-color="#E2C8DC" stop-opacity="0"/>
<stop offset="0.495" stop-color="#FE5F0B" stop-opacity="0.495"/>
<stop offset="1" stop-color="#FE5F0B"/>
</linearGradient>
</defs>
</svg>
