<svg width="72" height="73" viewBox="0 0 72 73" fill="none" xmlns="http://www.w3.org/2000/svg">
<path d="M72 36.5C72 56.6584 55.8823 73 36 73C16.1177 73 0 56.6584 0 36.5C0 16.3416 16.1177 0 36 0C55.8823 0 72 16.3416 72 36.5Z" fill="url(#paint0_radial_33_5)" fill-opacity="0.5"/>
<path d="M51 22L36.0001 32.3127L30.7266 28.6872L21 22L29.0013 32.8751L31.6684 36.5001L23.4171 47.7149L21.6668 50.0936L21.5835 50.207L21 50.9999L26.039 47.5355L36 40.6874L51 51L47.5828 46.3555L45.4159 43.4101L45.1657 43.0704L43.0821 40.2383L42.9988 40.125L40.3317 36.5001L42.332 33.7812L51 22Z" fill="#CFAEC7"/>
<path d="M51 22L36.0001 32.3127L30.7266 28.6872L21 22L29.0013 32.8751L31.6684 36.5001L23.4171 47.7149L21.6668 50.0936L21.5835 50.207L21 50.9999L26.039 47.5355L36 40.6874L51 51L47.5828 46.3555L45.4159 43.4101L45.1657 43.0704L43.0821 40.2383L42.9988 40.125L40.3317 36.5001L42.332 33.7812L51 22Z" fill="url(#paint1_linear_33_5)" fill-opacity="0.2"/>
<defs>
<radialGradient id="paint0_radial_33_5" cx="0" cy="0" r="1" gradientUnits="userSpaceOnUse" gradientTransform="translate(36 36.5) rotate(90) scale(36.5 36)">
<stop stop-color="#E5C7DE"/>
<stop offset="1" stop-color="#CFAEC7" stop-opacity="0"/>
</radialGradient>
<linearGradient id="paint1_linear_33_5" x1="36" y1="22" x2="36" y2="51" gradientUnits="userSpaceOnUse">
<stop stop-color="#E2C8DC" stop-opacity="0"/>
<stop offset="0.495" stop-color="#FE5F0B" stop-opacity="0.495"/>
<stop offset="1" stop-color="#FE5F0B"/>
</linearGradient>
</defs>
</svg>
