<svg width="54" height="42" viewBox="0 0 54 42" fill="none" xmlns="http://www.w3.org/2000/svg">
<path d="M2.12554 19.0063C4.40415 16.7277 8.09851 16.7277 10.3771 19.0063L22.7545 31.3837C25.0331 33.6623 25.0331 37.3566 22.7545 39.6352C20.4759 41.9138 16.7815 41.9138 14.5029 39.6352L2.12554 27.2579C-0.153066 24.9793 -0.153066 21.2849 2.12554 19.0063Z" fill="#E2C8DC"/>
<path d="M51.635 2.50315C53.9136 4.78176 53.9136 8.47611 51.635 10.7547L22.7545 39.6352C20.4759 41.9138 16.7815 41.9138 14.5029 39.6352C12.2243 37.3566 12.2243 33.6623 14.5029 31.3837L43.3834 2.50315C45.662 0.224537 49.3564 0.224538 51.635 2.50315Z" fill="#E2C8DC"/>
</svg>
