<svg width="174" height="94" viewBox="0 0 174 94" fill="none" xmlns="http://www.w3.org/2000/svg">
<path d="M0 29C0 17.9543 8.95431 9 20 9H154C165.046 9 174 17.9543 174 29V74C174 85.0457 165.046 94 154 94H20C8.95431 94 0 85.0457 0 74V29Z" fill="#110420"/>
<path d="M0 20C0 8.9543 8.95431 0 20 0H154C165.046 0 174 8.95431 174 20V64C174 75.0457 165.046 84 154 84H20C8.95431 84 0 75.0457 0 64V20Z" fill="#E2C8DC"/>
<path d="M10 29C10 17.9543 18.9543 9 30 9H143C154.046 9 163 17.9543 163 29V56C163 67.0457 154.046 76 143 76H30C18.9543 76 10 67.0457 10 56V29Z" fill="#1EB713"/>
<path d="M64.78 45.92V57H58.02V45.92L47.46 27.86H53.42C54.0067 27.86 54.4667 28 54.8 28.28C55.1467 28.5467 55.4333 28.8933 55.66 29.32L59.78 37.8C60.1267 38.4667 60.44 39.0933 60.72 39.68C61 40.2533 61.2467 40.82 61.46 41.38C61.66 40.8067 61.8867 40.2333 62.14 39.66C62.4067 39.0733 62.7133 38.4533 63.06 37.8L67.14 29.32C67.2333 29.1467 67.3467 28.9733 67.48 28.8C67.6133 28.6267 67.7667 28.4733 67.94 28.34C68.1267 28.1933 68.3333 28.08 68.56 28C68.8 27.9067 69.06 27.86 69.34 27.86H75.34L64.78 45.92Z" fill="#E2C8DC"/>
<path d="M84.4169 33.06V39.86H93.5769V44.86H84.4169V51.8H96.3769V57H77.6169V27.86H96.3769V33.06H84.4169Z" fill="#E2C8DC"/>
<path d="M116.647 33.78C116.447 34.1 116.233 34.34 116.007 34.5C115.793 34.66 115.513 34.74 115.167 34.74C114.86 34.74 114.527 34.6467 114.167 34.46C113.82 34.26 113.42 34.04 112.967 33.8C112.527 33.56 112.02 33.3467 111.447 33.16C110.873 32.96 110.22 32.86 109.487 32.86C108.22 32.86 107.273 33.1333 106.647 33.68C106.033 34.2133 105.727 34.94 105.727 35.86C105.727 36.4467 105.913 36.9333 106.287 37.32C106.66 37.7067 107.147 38.04 107.747 38.32C108.36 38.6 109.053 38.86 109.827 39.1C110.613 39.3267 111.413 39.5867 112.227 39.88C113.04 40.16 113.833 40.4933 114.607 40.88C115.393 41.2667 116.087 41.76 116.687 42.36C117.3 42.96 117.793 43.6933 118.167 44.56C118.54 45.4133 118.727 46.4467 118.727 47.66C118.727 49.0067 118.493 50.2667 118.027 51.44C117.56 52.6133 116.88 53.64 115.987 54.52C115.107 55.3867 114.013 56.0733 112.707 56.58C111.413 57.0733 109.94 57.32 108.287 57.32C107.38 57.32 106.453 57.2267 105.507 57.04C104.573 56.8533 103.667 56.5933 102.787 56.26C101.907 55.9133 101.08 55.5067 100.307 55.04C99.5332 54.5733 98.8599 54.0533 98.2866 53.48L100.287 50.32C100.447 50.0933 100.653 49.9067 100.907 49.76C101.173 49.6 101.46 49.52 101.767 49.52C102.167 49.52 102.567 49.6467 102.967 49.9C103.38 50.1533 103.84 50.4333 104.347 50.74C104.867 51.0467 105.46 51.3267 106.127 51.58C106.793 51.8333 107.58 51.96 108.487 51.96C109.713 51.96 110.667 51.6933 111.347 51.16C112.027 50.6133 112.367 49.7533 112.367 48.58C112.367 47.9 112.18 47.3467 111.807 46.92C111.433 46.4933 110.94 46.14 110.327 45.86C109.727 45.58 109.04 45.3333 108.267 45.12C107.493 44.9067 106.7 44.6733 105.887 44.42C105.073 44.1533 104.28 43.8333 103.507 43.46C102.733 43.0733 102.04 42.5733 101.427 41.96C100.827 41.3333 100.34 40.56 99.9666 39.64C99.5932 38.7067 99.4066 37.56 99.4066 36.2C99.4066 35.1067 99.6266 34.04 100.067 33C100.507 31.96 101.153 31.0333 102.007 30.22C102.86 29.4067 103.907 28.76 105.147 28.28C106.387 27.7867 107.807 27.54 109.407 27.54C110.3 27.54 111.167 27.6133 112.007 27.76C112.86 27.8933 113.667 28.1 114.427 28.38C115.187 28.6467 115.893 28.9733 116.547 29.36C117.213 29.7333 117.807 30.16 118.327 30.64L116.647 33.78Z" fill="#E2C8DC"/>
</svg>
