<svg width="127" height="128" viewBox="0 0 127 128" fill="none" xmlns="http://www.w3.org/2000/svg">
<path d="M127 64C127 99.3462 98.5701 128 63.5 128C28.4299 128 0 99.3462 0 64C0 28.6538 28.4299 0 63.5 0C98.5701 0 127 28.6538 127 64Z" fill="url(#paint0_radial_33_9)"/>
<path d="M102 64C102 85.5391 84.5391 103 63 103C41.4609 103 24 85.5391 24 64C24 42.4609 41.4609 25 63 25C84.5391 25 102 42.4609 102 64Z" fill="url(#paint1_linear_33_9)"/>
<path d="M102 64C102 85.5391 84.5391 103 63 103C41.4609 103 24 85.5391 24 64C24 42.4609 41.4609 25 63 25C84.5391 25 102 42.4609 102 64Z" fill="url(#paint2_linear_33_9)" fill-opacity="0.2"/>
<defs>
<radialGradient id="paint0_radial_33_9" cx="0" cy="0" r="1" gradientUnits="userSpaceOnUse" gradientTransform="translate(63.5 64) rotate(90) scale(64 63.5)">
<stop stop-color="#E5C7DE"/>
<stop offset="1" stop-color="#CFAEC7" stop-opacity="0"/>
</radialGradient>
<linearGradient id="paint1_linear_33_9" x1="63" y1="25" x2="63" y2="103" gradientUnits="userSpaceOnUse">
<stop stop-color="#AEC0CF"/>
<stop offset="1" stop-color="#92397C"/>
</linearGradient>
<linearGradient id="paint2_linear_33_9" x1="63" y1="25" x2="63" y2="103" gradientUnits="userSpaceOnUse">
<stop stop-color="#E2C8DC" stop-opacity="0"/>
<stop offset="0.8" stop-color="#FE5F0B" stop-opacity="0.495"/>
<stop offset="1" stop-color="#0BFE91"/>
</linearGradient>
</defs>
</svg>
