<svg width="155" height="156" viewBox="0 0 155 156" fill="none" xmlns="http://www.w3.org/2000/svg">
<path d="M155 78C155 121.078 120.302 156 77.5 156C34.6979 156 0 121.078 0 78C0 34.9218 34.6979 0 77.5 0C120.302 0 155 34.9218 155 78Z" fill="url(#paint0_radial_33_8)"/>
<path d="M131 77.5C131 107.047 107.047 131 77.5 131C47.9528 131 24 107.047 24 77.5C24 47.9528 47.9528 24 77.5 24C107.047 24 131 47.9528 131 77.5Z" fill="url(#paint1_linear_33_8)"/>
<path d="M131 77.5C131 107.047 107.047 131 77.5 131C47.9528 131 24 107.047 24 77.5C24 47.9528 47.9528 24 77.5 24C107.047 24 131 47.9528 131 77.5Z" fill="url(#paint2_linear_33_8)" fill-opacity="0.2"/>
<defs>
<radialGradient id="paint0_radial_33_8" cx="0" cy="0" r="1" gradientUnits="userSpaceOnUse" gradientTransform="translate(77.5 78) rotate(90) scale(78 77.5)">
<stop stop-color="#E5C7DE"/>
<stop offset="1" stop-color="#CFAEC7" stop-opacity="0"/>
</radialGradient>
<linearGradient id="paint1_linear_33_8" x1="77.5" y1="24" x2="77.5" y2="131" gradientUnits="userSpaceOnUse">
<stop stop-color="#CFAEC7"/>
<stop offset="1" stop-color="#92397C"/>
</linearGradient>
<linearGradient id="paint2_linear_33_8" x1="77.5" y1="24" x2="77.5" y2="131" gradientUnits="userSpaceOnUse">
<stop stop-color="#E2C8DC" stop-opacity="0"/>
<stop offset="0.8" stop-color="#FE5F0B" stop-opacity="0.495"/>
<stop offset="1" stop-color="#FE5F0B"/>
</linearGradient>
</defs>
</svg>
