<svg xmlns="http://www.w3.org/2000/svg" xmlns:xlink="http://www.w3.org/1999/xlink" stroke-miterlimit="10" style="fill-rule:nonzero;clip-rule:evenodd;stroke-linecap:round;stroke-linejoin:round;" version="1.1" xml:space="preserve" viewBox="309.85 67.16 681.26 653.21">
<defs>
<radialGradient cx="0" cy="0" gradientTransform="matrix(251.484 0 0 251.484 651.126 393.757)" gradientUnits="userSpaceOnUse" id="RadialGradient" r="1">
<stop offset="0" stop-color="#fe5f0b"/>
<stop offset="0.670833" stop-color="#7000ef" stop-opacity="0.495"/>
<stop offset="1" stop-color="#b33d98" stop-opacity="0"/>
</radialGradient>
<radialGradient cx="0" cy="0" gradientTransform="matrix(154.54 0 0 154.54 651.126 388.625)" gradientUnits="userSpaceOnUse" id="RadialGradient_2" r="1">
<stop offset="0" stop-color="#fadade"/>
<stop offset="0.272917" stop-color="#fadade"/>
<stop offset="0.779167" stop-color="#a80000" stop-opacity="0"/>
</radialGradient>
<linearGradient gradientTransform="matrix(0 847.875 -847.875 0 293.924 -39.5636)" gradientUnits="userSpaceOnUse" id="LinearGradient" x1="0" x2="1" y1="0" y2="0">
<stop offset="0" stop-color="#e2c8dc" stop-opacity="0"/>
<stop offset="0.495" stop-color="#fe5f0b" stop-opacity="0.495"/>
<stop offset="1" stop-color="#fe5f0b"/>
</linearGradient>
<linearGradient gradientTransform="matrix(-599.538 599.538 -599.538 -599.538 704.952 -165.226)" gradientUnits="userSpaceOnUse" id="LinearGradient_2" x1="0" x2="1" y1="0" y2="0">
<stop offset="0" stop-color="#e2c8dc" stop-opacity="0"/>
<stop offset="0.495" stop-color="#fe5f0b" stop-opacity="0.495"/>
<stop offset="1" stop-color="#fe5f0b"/>
</linearGradient>
</defs>
<g id="Layer-1">
<path d="M890.504 163.614L661.729 338.13L650.477 346.712L410.455 163.614L601.411 393.756L410.455 623.9L650.477 440.806L890.501 623.9L699.545 393.756L890.504 163.614Z" fill="#e2c8dc" fill-rule="nonzero" opacity="1" stroke="none"/>
<path d="M669.657 375.371L650.481 67.1551L631.303 375.371L309.852 393.759L631.303 412.147L650.481 720.363L669.657 412.147L991.107 393.759L669.657 375.371Z" fill="#e2c8dc" fill-rule="nonzero" opacity="1" stroke="none"/>
<g opacity="1">
<g opacity="1">
<path d="M399.642 393.757C399.642 258.476 512.235 148.809 651.126 148.809C790.017 148.809 902.61 258.476 902.61 393.757C902.61 529.039 790.017 638.706 651.126 638.706C512.235 638.706 399.642 529.039 399.642 393.757Z" fill="url(#RadialGradient)" fill-rule="nonzero" opacity="1" stroke="none"/>
</g>
</g>
<path d="M812.82 238.102L658.088 356.135L650.478 361.939L488.139 238.102L617.292 393.758L488.139 549.416L650.478 425.58L812.818 549.416L683.665 393.758L812.82 238.102Z" fill="#fadade" fill-rule="nonzero" opacity="1" stroke="none"/>
<g opacity="1">
<g opacity="1">
<g opacity="1">
<path d="M496.586 388.625C496.586 305.493 565.776 238.102 651.126 238.102C736.476 238.102 805.666 305.493 805.666 388.625C805.666 471.758 736.476 539.149 651.126 539.149C565.776 539.149 496.586 471.758 496.586 388.625Z" fill="url(#RadialGradient_2)" fill-rule="nonzero" opacity="1" stroke="none"/>
</g>
</g>
</g>
<path d="M771.779 278.071L656.781 365.795L651.125 370.109L530.473 278.071L626.461 393.757L530.473 509.444L651.125 417.407L771.778 509.444L675.79 393.757L771.779 278.071Z" fill="#fadade" fill-rule="nonzero" opacity="1" stroke="none"/>
<path d="M663.45 381.322L650.481 172.86L637.509 381.322L420.096 393.759L637.509 406.196L650.481 614.658L663.45 406.196L880.863 393.759L663.45 381.322Z" fill="#fadade" fill-rule="nonzero" opacity="1" stroke="none"/>
<path d="M667.753 388.588L732.108 189.885L643.618 379.078L436.782 310.946L634.499 402.22L570.146 600.924L658.634 411.73L865.47 479.863L667.753 388.588Z" fill="#fadade" fill-rule="nonzero" opacity="1" stroke="none"/>
<path d="M667.703 402.343L853.713 307.344L657.361 378.552L559.283 184.12L634.549 388.468L448.54 483.468L644.891 412.259L742.969 606.691L667.703 402.343Z" fill="#fadade" fill-rule="nonzero" opacity="1" stroke="none"/>
<path d="M727.726 320.311C727.175 320.728 726.627 321.141 726.083 321.551C725.539 321.961 724.999 322.368 724.462 322.772C723.924 323.175 723.391 323.576 722.86 323.973C722.33 324.37 721.803 324.764 721.28 325.155C720.756 325.545 720.236 325.932 719.719 326.317C719.202 326.701 718.689 327.082 718.178 327.459C717.668 327.837 717.161 328.211 716.657 328.582C716.153 328.953 715.652 329.321 715.155 329.686C714.657 330.05 714.162 330.411 713.671 330.77C713.179 331.128 712.691 331.482 712.206 331.834C711.72 332.185 711.238 332.534 710.758 332.879C710.279 333.223 709.802 333.565 709.329 333.904C708.855 334.242 708.384 334.577 707.917 334.909C707.449 335.241 706.984 335.57 706.521 335.896C706.059 336.221 705.6 336.544 705.143 336.862C704.686 337.181 704.232 337.497 703.781 337.809C703.329 338.121 702.881 338.431 702.435 338.737C701.989 339.043 701.546 339.345 701.105 339.645C700.664 339.944 700.226 340.24 699.791 340.533C699.355 340.826 698.921 341.116 698.491 341.402C698.06 341.689 697.632 341.972 697.205 342.252C696.779 342.532 696.356 342.808 695.935 343.082C695.514 343.355 695.095 343.625 694.678 343.892C694.262 344.159 693.848 344.422 693.436 344.683C693.024 344.944 692.614 345.201 692.206 345.455C691.799 345.709 691.393 345.959 690.99 346.207C690.587 346.454 690.185 346.698 689.787 346.939C689.387 347.18 688.99 347.417 688.595 347.652C688.2 347.886 687.807 348.117 687.416 348.345C687.025 348.573 686.636 348.797 686.248 349.019C685.861 349.24 685.476 349.458 685.092 349.673C684.709 349.887 684.327 350.099 683.947 350.307C683.567 350.516 683.189 350.721 682.813 350.923C682.436 351.125 682.061 351.323 681.689 351.518C681.316 351.713 680.944 351.905 680.575 352.094C680.205 352.283 679.837 352.468 679.47 352.651C679.103 352.833 678.738 353.012 678.375 353.188C678.012 353.363 677.65 353.536 677.289 353.705C676.929 353.874 676.569 354.041 676.212 354.203C675.854 354.366 675.498 354.525 675.143 354.681C674.788 354.838 674.435 354.991 674.082 355.141C673.73 355.291 673.379 355.436 673.029 355.58C672.679 355.723 672.33 355.863 671.983 356C671.635 356.136 671.289 356.27 670.944 356.4C670.599 356.53 670.255 356.657 669.912 356.781C669.569 356.905 669.227 357.025 668.886 357.142C668.545 357.259 668.205 357.373 667.866 357.484C667.527 357.594 667.189 357.702 666.852 357.806C666.515 357.91 666.178 358.011 665.843 358.109C665.508 358.206 665.174 358.3 664.84 358.392C664.506 358.483 664.173 358.571 663.84 358.656C663.508 358.74 663.177 358.822 662.846 358.899C662.515 358.978 662.184 359.052 661.855 359.124C661.525 359.196 661.196 359.264 660.868 359.329C660.539 359.394 660.211 359.456 659.884 359.515C659.556 359.573 659.23 359.629 658.903 359.681C658.577 359.733 658.25 359.782 657.925 359.827C657.599 359.873 657.274 359.915 656.949 359.954C656.624 359.993 656.3 360.029 655.976 360.062C655.651 360.094 655.327 360.123 655.004 360.149C654.68 360.176 654.356 360.198 654.033 360.218C653.71 360.237 653.386 360.253 653.063 360.267C652.741 360.28 652.417 360.289 652.094 360.296C651.771 360.302 651.449 360.305 651.126 360.305C650.803 360.305 650.48 360.302 650.157 360.296C649.834 360.289 649.511 360.28 649.188 360.267C648.865 360.253 648.542 360.237 648.218 360.218C647.895 360.198 647.571 360.175 647.248 360.149C646.924 360.123 646.6 360.094 646.276 360.062C645.951 360.029 645.627 359.993 645.302 359.954C644.977 359.915 644.652 359.873 644.326 359.827C644.001 359.782 643.675 359.733 643.348 359.681C643.022 359.629 642.695 359.573 642.368 359.515C642.04 359.456 641.712 359.394 641.384 359.329C641.056 359.264 640.726 359.196 640.397 359.124C640.067 359.052 639.737 358.978 639.406 358.899C639.075 358.821 638.743 358.74 638.411 358.656C638.079 358.571 637.746 358.483 637.412 358.392C637.078 358.301 636.743 358.207 636.408 358.109C636.072 358.011 635.736 357.91 635.399 357.806C635.062 357.702 634.724 357.594 634.385 357.484C634.047 357.373 633.706 357.259 633.366 357.142C633.025 357.025 632.682 356.905 632.339 356.781C631.997 356.657 631.653 356.53 631.307 356.4C630.962 356.27 630.616 356.136 630.268 356C629.921 355.863 629.572 355.723 629.222 355.58C628.873 355.436 628.521 355.29 628.169 355.141C627.817 354.991 627.463 354.838 627.108 354.681C626.753 354.525 626.397 354.366 626.04 354.203C625.682 354.041 625.323 353.874 624.962 353.705C624.602 353.536 624.24 353.363 623.876 353.188C623.513 353.012 623.148 352.833 622.781 352.651C622.415 352.468 622.046 352.283 621.677 352.094C621.307 351.905 620.936 351.713 620.563 351.518C620.19 351.323 619.815 351.124 619.439 350.923C619.062 350.721 618.684 350.516 618.304 350.307C617.924 350.099 617.543 349.888 617.159 349.673C616.776 349.458 616.39 349.24 616.003 349.019C615.616 348.797 615.227 348.573 614.835 348.345C614.444 348.117 614.051 347.886 613.656 347.652C613.261 347.417 612.864 347.179 612.465 346.939C612.065 346.698 611.664 346.454 611.261 346.207C610.858 345.959 610.452 345.709 610.044 345.455C609.637 345.201 609.227 344.944 608.815 344.684C608.403 344.423 607.989 344.159 607.572 343.893C607.155 343.626 606.737 343.356 606.315 343.082C605.894 342.809 605.47 342.532 605.045 342.252C604.619 341.973 604.191 341.689 603.76 341.403C603.329 341.117 602.896 340.827 602.46 340.534C602.024 340.241 601.586 339.944 601.145 339.645C600.704 339.346 600.261 339.043 599.815 338.737C599.369 338.431 598.921 338.122 598.469 337.81C598.018 337.497 597.564 337.181 597.107 336.863C596.651 336.544 596.191 336.221 595.729 335.896C595.267 335.571 594.802 335.242 594.334 334.91C593.866 334.578 593.395 334.243 592.922 333.904C592.448 333.565 591.971 333.223 591.492 332.879C591.013 332.534 590.53 332.185 590.045 331.834C589.559 331.482 589.071 331.128 588.579 330.77C588.088 330.411 587.593 330.05 587.096 329.686C586.598 329.321 586.097 328.953 585.593 328.582C585.089 328.211 584.582 327.837 584.072 327.459C583.561 327.081 583.048 326.701 582.531 326.317C582.015 325.933 581.494 325.545 580.971 325.155C580.447 324.764 579.92 324.37 579.39 323.973C578.86 323.576 578.326 323.176 577.789 322.773C577.251 322.369 576.711 321.962 576.167 321.552C575.623 321.142 575.075 320.728 574.524 320.311C574.959 320.84 575.39 321.365 575.818 321.887C576.245 322.408 576.67 322.927 577.091 323.442C577.512 323.957 577.929 324.468 578.343 324.977C578.757 325.485 579.168 325.99 579.575 326.492C579.982 326.994 580.386 327.493 580.787 327.989C581.188 328.484 581.585 328.977 581.979 329.466C582.373 329.955 582.763 330.442 583.15 330.925C583.537 331.408 583.921 331.888 584.301 332.365C584.681 332.842 585.058 333.316 585.431 333.788C585.805 334.259 586.174 334.727 586.541 335.193C586.908 335.658 587.271 336.12 587.631 336.58C587.991 337.04 588.347 337.497 588.7 337.951C589.053 338.405 589.403 338.857 589.749 339.305C590.095 339.753 590.438 340.199 590.777 340.642C591.117 341.085 591.453 341.526 591.785 341.964C592.118 342.402 592.448 342.837 592.773 343.27C593.099 343.703 593.421 344.133 593.741 344.56C594.06 344.988 594.375 345.413 594.688 345.835C595 346.258 595.309 346.678 595.615 347.096C595.92 347.514 596.222 347.929 596.521 348.342C596.82 348.756 597.115 349.166 597.407 349.575C597.699 349.983 597.987 350.389 598.272 350.793C598.557 351.197 598.839 351.598 599.118 351.998C599.396 352.397 599.671 352.794 599.943 353.19C600.214 353.585 600.483 353.977 600.747 354.368C601.012 354.759 601.273 355.148 601.531 355.535C601.789 355.922 602.044 356.307 602.295 356.689C602.546 357.072 602.794 357.453 603.038 357.831C603.283 358.21 603.524 358.587 603.761 358.962C603.999 359.337 604.233 359.711 604.464 360.082C604.695 360.453 604.922 360.823 605.146 361.19C605.37 361.558 605.591 361.924 605.808 362.288C606.025 362.652 606.239 363.015 606.45 363.376C606.66 363.737 606.867 364.096 607.071 364.454C607.274 364.811 607.475 365.167 607.672 365.522C607.869 365.876 608.062 366.229 608.252 366.581C608.442 366.932 608.629 367.282 608.812 367.631C608.995 367.979 609.175 368.326 609.352 368.672C609.528 369.018 609.702 369.362 609.871 369.705C610.041 370.048 610.207 370.39 610.37 370.73C610.533 371.071 610.692 371.409 610.849 371.747C611.005 372.085 611.158 372.422 611.307 372.757C611.457 373.093 611.602 373.427 611.745 373.76C611.887 374.094 612.026 374.425 612.162 374.756C612.298 375.087 612.43 375.417 612.559 375.746C612.688 376.075 612.814 376.403 612.936 376.73C613.058 377.057 613.177 377.383 613.293 377.708C613.408 378.032 613.52 378.357 613.629 378.68C613.737 379.003 613.843 379.325 613.944 379.647C614.046 379.969 614.144 380.289 614.24 380.609C614.334 380.93 614.426 381.249 614.515 381.568C614.603 381.886 614.688 382.204 614.769 382.522C614.851 382.839 614.929 383.155 615.003 383.471C615.078 383.788 615.149 384.103 615.217 384.418C615.285 384.733 615.349 385.047 615.411 385.361C615.472 385.675 615.53 385.989 615.584 386.302C615.638 386.615 615.689 386.927 615.737 387.239C615.784 387.552 615.828 387.864 615.869 388.175C615.909 388.486 615.947 388.797 615.981 389.109C616.015 389.42 616.045 389.73 616.073 390.04C616.1 390.351 616.124 390.661 616.144 390.971C616.164 391.281 616.181 391.591 616.195 391.901C616.209 392.21 616.218 392.521 616.225 392.83C616.232 393.14 616.235 393.449 616.235 393.759C616.235 394.068 616.232 394.378 616.225 394.688C616.218 394.997 616.209 395.307 616.195 395.617C616.181 395.927 616.164 396.237 616.144 396.547C616.123 396.857 616.099 397.167 616.073 397.477C616.045 397.788 616.015 398.099 615.981 398.409C615.947 398.72 615.91 399.031 615.869 399.343C615.828 399.655 615.784 399.966 615.737 400.278C615.689 400.59 615.638 400.903 615.584 401.216C615.53 401.529 615.472 401.842 615.411 402.156C615.349 402.47 615.285 402.785 615.217 403.1C615.149 403.414 615.078 403.73 615.003 404.046C614.929 404.362 614.851 404.679 614.769 404.996C614.687 405.313 614.603 405.632 614.515 405.95C614.427 406.268 614.335 406.587 614.24 406.908C614.145 407.228 614.046 407.549 613.944 407.87C613.843 408.192 613.737 408.514 613.629 408.837C613.52 409.161 613.408 409.485 613.293 409.81C613.177 410.134 613.058 410.461 612.936 410.787C612.814 411.114 612.688 411.442 612.559 411.771C612.43 412.1 612.298 412.43 612.162 412.761C612.026 413.092 611.887 413.424 611.745 413.757C611.602 414.09 611.456 414.424 611.307 414.76C611.157 415.095 611.005 415.432 610.849 415.77C610.693 416.108 610.533 416.447 610.37 416.787C610.207 417.127 610.041 417.469 609.871 417.812C609.701 418.155 609.528 418.499 609.351 418.844C609.175 419.19 608.995 419.537 608.811 419.886C608.628 420.234 608.441 420.584 608.252 420.936C608.061 421.287 607.868 421.64 607.671 421.995C607.474 422.349 607.274 422.705 607.07 423.063C606.866 423.421 606.659 423.78 606.449 424.141C606.238 424.502 606.025 424.864 605.808 425.228C605.591 425.593 605.37 425.959 605.145 426.326C604.922 426.694 604.694 427.064 604.463 427.435C604.233 427.806 603.998 428.179 603.761 428.555C603.523 428.93 603.282 429.306 603.038 429.685C602.793 430.064 602.546 430.445 602.294 430.828C602.043 431.211 601.789 431.595 601.531 431.982C601.273 432.368 601.011 432.757 600.746 433.148C600.482 433.539 600.213 433.932 599.942 434.327C599.67 434.721 599.395 435.119 599.117 435.518C598.839 435.918 598.557 436.319 598.272 436.723C597.987 437.127 597.698 437.533 597.407 437.941C597.115 438.35 596.819 438.761 596.521 439.174C596.222 439.587 595.92 440.002 595.614 440.42C595.309 440.838 594.999 441.258 594.688 441.681C594.375 442.103 594.06 442.529 593.741 442.956C593.421 443.384 593.099 443.813 592.773 444.246C592.447 444.679 592.118 445.114 591.785 445.552C591.453 445.99 591.117 446.43 590.777 446.874C590.438 447.317 590.095 447.763 589.749 448.212C589.403 448.66 589.053 449.112 588.7 449.566C588.347 450.02 587.991 450.477 587.631 450.936C587.271 451.396 586.908 451.858 586.541 452.324C586.174 452.79 585.805 453.258 585.431 453.729C585.058 454.2 584.681 454.674 584.301 455.152C583.921 455.629 583.537 456.109 583.15 456.592C582.763 457.075 582.373 457.562 581.979 458.051C581.585 458.54 581.188 459.033 580.788 459.528C580.387 460.024 579.983 460.523 579.576 461.025C579.169 461.527 578.758 462.032 578.344 462.54C577.93 463.049 577.512 463.56 577.091 464.076C576.671 464.591 576.246 465.109 575.818 465.63C575.391 466.152 574.959 466.677 574.525 467.206C575.076 466.789 575.624 466.376 576.168 465.966C576.712 465.556 577.252 465.149 577.79 464.745C578.327 464.342 578.861 463.941 579.391 463.544C579.921 463.147 580.448 462.753 580.972 462.362C581.495 461.972 582.015 461.585 582.532 461.2C583.049 460.816 583.562 460.435 584.073 460.058C584.583 459.68 585.09 459.306 585.595 458.935C586.099 458.564 586.599 458.196 587.097 457.832C587.594 457.467 588.089 457.106 588.58 456.748C589.072 456.39 589.56 456.036 590.046 455.684C590.531 455.333 591.013 454.984 591.493 454.639C591.973 454.294 592.449 453.952 592.923 453.614C593.396 453.275 593.867 452.94 594.335 452.608C594.802 452.277 595.268 451.948 595.73 451.622C596.192 451.296 596.652 450.975 597.108 450.655C597.565 450.336 598.019 450.021 598.471 449.709C598.922 449.396 599.37 449.087 599.816 448.781C600.262 448.475 600.705 448.172 601.146 447.873C601.587 447.573 602.025 447.277 602.461 446.984C602.896 446.692 603.33 446.402 603.761 446.115C604.192 445.829 604.62 445.546 605.046 445.266C605.472 444.986 605.895 444.709 606.316 444.436C606.738 444.162 607.156 443.892 607.573 443.625C607.99 443.358 608.404 443.094 608.816 442.834C609.228 442.574 609.638 442.316 610.045 442.063C610.453 441.809 610.859 441.558 611.262 441.311C611.665 441.064 612.066 440.82 612.465 440.579C612.864 440.338 613.262 440.1 613.657 439.866C614.052 439.632 614.445 439.4 614.836 439.173C615.227 438.945 615.616 438.72 616.004 438.499C616.391 438.278 616.776 438.06 617.16 437.845C617.543 437.63 617.925 437.419 618.305 437.21C618.685 437.002 619.063 436.797 619.439 436.595C619.816 436.393 620.19 436.195 620.563 436C620.936 435.805 621.308 435.612 621.677 435.423C622.047 435.235 622.415 435.049 622.782 434.867C623.148 434.685 623.513 434.506 623.877 434.33C624.24 434.154 624.602 433.982 624.963 433.812C625.323 433.643 625.682 433.477 626.04 433.314C626.398 433.152 626.754 432.992 627.109 432.836C627.464 432.68 627.818 432.527 628.17 432.377C628.522 432.227 628.873 432.081 629.223 431.938C629.573 431.794 629.922 431.654 630.27 431.518C630.617 431.381 630.963 431.248 631.308 431.118C631.653 430.987 631.998 430.861 632.341 430.737C632.683 430.613 633.025 430.493 633.367 430.376C633.707 430.259 634.048 430.144 634.386 430.034C634.725 429.923 635.063 429.816 635.4 429.712C635.737 429.608 636.073 429.506 636.409 429.409C636.744 429.312 637.079 429.217 637.413 429.126C637.747 429.035 638.08 428.947 638.412 428.862C638.744 428.777 639.076 428.696 639.407 428.618C639.738 428.54 640.068 428.465 640.398 428.393C640.727 428.322 641.056 428.254 641.385 428.188C641.713 428.123 642.041 428.062 642.369 428.003C642.696 427.944 643.023 427.889 643.349 427.837C643.676 427.784 644.002 427.736 644.327 427.69C644.653 427.645 644.978 427.603 645.303 427.564C645.628 427.525 645.952 427.489 646.277 427.456C646.601 427.423 646.925 427.394 647.249 427.368C647.573 427.342 647.896 427.319 648.219 427.3C648.543 427.28 648.866 427.264 649.189 427.251C649.512 427.238 649.835 427.228 650.158 427.222C650.481 427.215 650.804 427.212 651.127 427.212C651.45 427.212 651.772 427.216 652.095 427.222C652.418 427.228 652.741 427.238 653.065 427.251C653.387 427.264 653.711 427.28 654.034 427.3C654.358 427.32 654.681 427.342 655.005 427.368C655.329 427.394 655.653 427.423 655.977 427.456C656.301 427.488 656.626 427.524 656.951 427.564C657.276 427.603 657.601 427.645 657.926 427.69C658.252 427.736 658.578 427.785 658.904 427.837C659.231 427.889 659.557 427.944 659.885 428.003C660.212 428.062 660.54 428.123 660.869 428.188C661.197 428.254 661.526 428.322 661.856 428.393C662.186 428.465 662.516 428.54 662.847 428.618C663.177 428.696 663.509 428.778 663.842 428.862C664.174 428.946 664.507 429.035 664.841 429.126C665.175 429.217 665.509 429.311 665.845 429.409C666.18 429.506 666.516 429.608 666.853 429.712C667.19 429.816 667.528 429.923 667.867 430.034C668.206 430.144 668.546 430.259 668.887 430.376C669.228 430.493 669.569 430.613 669.913 430.737C670.256 430.861 670.6 430.987 670.945 431.118C671.291 431.248 671.637 431.381 671.984 431.518C672.332 431.655 672.68 431.795 673.03 431.938C673.38 432.081 673.731 432.228 674.083 432.377C674.436 432.527 674.789 432.68 675.144 432.836C675.499 432.992 675.855 433.152 676.213 433.314C676.571 433.477 676.93 433.643 677.291 433.812C677.651 433.982 678.013 434.154 678.377 434.33C678.74 434.506 679.105 434.685 679.472 434.867C679.838 435.049 680.206 435.235 680.576 435.423C680.946 435.612 681.317 435.804 681.69 436C682.063 436.195 682.438 436.394 682.814 436.595C683.191 436.797 683.569 437.002 683.949 437.21C684.328 437.418 684.71 437.63 685.094 437.845C685.477 438.06 685.863 438.278 686.25 438.499C686.637 438.72 687.026 438.945 687.418 439.173C687.809 439.4 688.202 439.632 688.597 439.866C688.992 440.1 689.389 440.338 689.788 440.579C690.188 440.82 690.589 441.064 690.992 441.311C691.395 441.558 691.801 441.809 692.208 442.063C692.616 442.317 693.025 442.574 693.437 442.834C693.849 443.095 694.264 443.358 694.68 443.625C695.097 443.892 695.516 444.162 695.937 444.436C696.358 444.709 696.782 444.986 697.208 445.265C697.634 445.545 698.062 445.828 698.493 446.115C698.924 446.401 699.356 446.691 699.793 446.984C700.228 447.277 700.666 447.573 701.107 447.873C701.548 448.172 701.992 448.475 702.437 448.781C702.883 449.087 703.332 449.396 703.783 449.709C704.234 450.021 704.688 450.337 705.145 450.655C705.602 450.974 706.061 451.297 706.523 451.622C706.986 451.948 707.45 452.276 707.919 452.608C708.386 452.94 708.857 453.275 709.331 453.614C709.804 453.952 710.281 454.294 710.76 454.639C711.24 454.984 711.722 455.333 712.208 455.684C712.693 456.036 713.182 456.39 713.673 456.749C714.164 457.107 714.659 457.468 715.157 457.832C715.654 458.197 716.155 458.565 716.659 458.936C717.163 459.307 717.67 459.681 718.18 460.059C718.69 460.437 719.204 460.818 719.721 461.201C720.237 461.585 720.758 461.973 721.281 462.363C721.805 462.754 722.332 463.148 722.862 463.545C723.392 463.942 723.926 464.342 724.463 464.746C725 465.149 725.541 465.556 726.085 465.966C726.629 466.376 727.177 466.789 727.728 467.206C727.293 466.678 726.862 466.153 726.434 465.631C726.006 465.109 725.582 464.591 725.161 464.076C724.74 463.561 724.323 463.049 723.909 462.541C723.495 462.032 723.084 461.527 722.677 461.025C722.269 460.523 721.865 460.025 721.465 459.529C721.064 459.033 720.667 458.541 720.273 458.052C719.879 457.562 719.489 457.076 719.102 456.593C718.715 456.109 718.331 455.629 717.951 455.152C717.571 454.675 717.194 454.201 716.821 453.73C716.447 453.258 716.077 452.79 715.71 452.325C715.344 451.859 714.98 451.397 714.621 450.937C714.261 450.477 713.904 450.02 713.551 449.566C713.198 449.112 712.849 448.661 712.503 448.212C712.157 447.764 711.814 447.318 711.474 446.875C711.134 446.431 710.798 445.991 710.466 445.553C710.133 445.115 709.804 444.68 709.478 444.247C709.152 443.814 708.83 443.385 708.511 442.957C708.192 442.529 707.876 442.104 707.564 441.682C707.251 441.259 706.943 440.839 706.637 440.421C706.332 440.003 706.029 439.588 705.731 439.175C705.432 438.762 705.137 438.351 704.845 437.943C704.553 437.534 704.264 437.128 703.979 436.724C703.694 436.32 703.412 435.919 703.134 435.519C702.855 435.12 702.58 434.723 702.309 434.327C702.037 433.933 701.769 433.54 701.504 433.149C701.24 432.758 700.978 432.369 700.72 431.983C700.462 431.596 700.208 431.212 699.956 430.829C699.705 430.446 699.458 430.065 699.213 429.686C698.969 429.308 698.728 428.931 698.49 428.556C698.252 428.18 698.018 427.808 697.787 427.436C697.557 427.065 697.329 426.695 697.105 426.327C696.881 425.96 696.661 425.594 696.443 425.229C696.226 424.865 696.012 424.503 695.802 424.142C695.591 423.781 695.384 423.421 695.181 423.064C694.977 422.706 694.777 422.35 694.58 421.996C694.383 421.641 694.189 421.288 693.999 420.937C693.809 420.585 693.623 420.235 693.439 419.887C693.256 419.538 693.076 419.191 692.9 418.845C692.723 418.5 692.55 418.156 692.38 417.813C692.211 417.47 692.044 417.128 691.881 416.788C691.719 416.448 691.559 416.109 691.403 415.771C691.246 415.433 691.093 415.097 690.944 414.761C690.795 414.425 690.649 414.091 690.507 413.758C690.364 413.425 690.225 413.093 690.089 412.762C689.953 412.431 689.821 412.101 689.692 411.772C689.563 411.443 689.437 411.116 689.315 410.788C689.193 410.462 689.074 410.135 688.959 409.811C688.843 409.486 688.731 409.162 688.623 408.838C688.514 408.515 688.409 408.193 688.307 407.871C688.206 407.55 688.107 407.229 688.012 406.909C687.916 406.588 687.825 406.269 687.737 405.951C687.648 405.632 687.563 405.314 687.482 404.997C687.401 404.68 687.323 404.363 687.248 404.047C687.173 403.731 687.102 403.416 687.034 403.101C686.966 402.786 686.902 402.472 686.841 402.157C686.78 401.844 686.722 401.53 686.667 401.217C686.613 400.904 686.562 400.591 686.515 400.279C686.467 399.967 686.423 399.655 686.383 399.344C686.342 399.032 686.305 398.721 686.27 398.41C686.236 398.099 686.206 397.788 686.179 397.478C686.151 397.168 686.128 396.858 686.108 396.548C686.088 396.237 686.07 395.927 686.057 395.618C686.043 395.308 686.033 394.998 686.026 394.689C686.019 394.379 686.016 394.069 686.016 393.76C686.016 393.45 686.019 393.141 686.026 392.831C686.033 392.522 686.043 392.212 686.057 391.902C686.07 391.592 686.087 391.282 686.108 390.972C686.128 390.662 686.152 390.352 686.179 390.041C686.206 389.731 686.236 389.42 686.27 389.11C686.305 388.799 686.341 388.487 686.383 388.176C686.423 387.864 686.467 387.553 686.515 387.241C686.562 386.928 686.613 386.616 686.667 386.303C686.722 385.99 686.78 385.676 686.841 385.362C686.902 385.048 686.966 384.734 687.034 384.419C687.102 384.104 687.173 383.789 687.248 383.472C687.323 383.156 687.401 382.84 687.482 382.523C687.564 382.205 687.649 381.887 687.737 381.569C687.825 381.25 687.917 380.931 688.012 380.61C688.106 380.29 688.205 379.97 688.307 379.648C688.409 379.326 688.514 379.004 688.623 378.681C688.731 378.358 688.843 378.033 688.959 377.709C689.074 377.384 689.193 377.058 689.315 376.731C689.437 376.404 689.563 376.076 689.692 375.747C689.821 375.418 689.953 375.089 690.089 374.757C690.225 374.426 690.364 374.094 690.507 373.761C690.649 373.428 690.795 373.094 690.944 372.758C691.093 372.423 691.247 372.086 691.403 371.748C691.559 371.41 691.718 371.072 691.881 370.731C692.045 370.391 692.211 370.049 692.38 369.706C692.55 369.363 692.723 369.019 692.9 368.673C693.076 368.327 693.256 367.98 693.439 367.632C693.623 367.283 693.809 366.933 693.999 366.582C694.189 366.23 694.383 365.877 694.58 365.523C694.777 365.168 694.977 364.812 695.181 364.455C695.385 364.097 695.592 363.738 695.802 363.377C696.012 363.016 696.226 362.653 696.443 362.289C696.66 361.925 696.881 361.559 697.105 361.191C697.329 360.824 697.557 360.454 697.787 360.083C698.018 359.712 698.252 359.338 698.49 358.963C698.728 358.588 698.969 358.211 699.213 357.832C699.458 357.454 699.705 357.073 699.956 356.69C700.208 356.307 700.462 355.922 700.72 355.536C700.978 355.149 701.24 354.76 701.504 354.369C701.769 353.979 702.037 353.586 702.309 353.191C702.58 352.796 702.855 352.398 703.134 351.999C703.412 351.599 703.693 351.198 703.979 350.794C704.264 350.39 704.552 349.984 704.845 349.576C705.137 349.167 705.432 348.757 705.731 348.343C706.029 347.93 706.332 347.515 706.637 347.097C706.943 346.679 707.252 346.259 707.564 345.837C707.876 345.414 708.192 344.989 708.511 344.561C708.83 344.134 709.152 343.704 709.478 343.271C709.804 342.838 710.133 342.403 710.466 341.965C710.799 341.527 711.135 341.087 711.474 340.643C711.813 340.2 712.156 339.754 712.503 339.306C712.849 338.858 713.198 338.406 713.551 337.952C713.904 337.498 714.261 337.041 714.621 336.581C714.98 336.122 715.344 335.659 715.71 335.194C716.077 334.728 716.447 334.26 716.821 333.789C717.194 333.318 717.571 332.844 717.951 332.366C718.331 331.889 718.715 331.409 719.102 330.926C719.489 330.443 719.879 329.956 720.273 329.468C720.667 328.978 721.064 328.486 721.465 327.99C721.865 327.495 722.269 326.996 722.677 326.494C723.084 325.992 723.495 325.487 723.909 324.978C724.323 324.47 724.74 323.958 725.161 323.443C725.582 322.928 726.006 322.41 726.434 321.888C726.861 321.364 727.292 320.839 727.726 320.311Z" fill="url(#LinearGradient)" fill-rule="nonzero" opacity="1" stroke="none"/>
<path d="M757.226 395.988C756.542 395.893 755.862 395.798 755.187 395.703C754.513 395.608 753.843 395.514 753.178 395.42C752.512 395.325 751.852 395.231 751.196 395.137C750.54 395.043 749.889 394.949 749.243 394.855C748.596 394.76 747.955 394.666 747.317 394.573C746.68 394.479 746.048 394.386 745.42 394.291C744.792 394.198 744.169 394.104 743.551 394.01C742.932 393.915 742.317 393.821 741.708 393.728C741.098 393.633 740.493 393.539 739.892 393.445C739.291 393.351 738.696 393.256 738.104 393.162C737.512 393.066 736.924 392.972 736.341 392.877C735.759 392.781 735.18 392.686 734.606 392.591C734.031 392.495 733.462 392.399 732.897 392.303C732.331 392.207 731.769 392.111 731.212 392.014C730.655 391.917 730.102 391.821 729.554 391.723C729.005 391.625 728.461 391.528 727.921 391.429C727.381 391.33 726.845 391.233 726.313 391.134C725.782 391.035 725.255 390.935 724.731 390.835C724.208 390.735 723.689 390.635 723.174 390.534C722.658 390.433 722.146 390.331 721.64 390.229C721.132 390.128 720.63 390.025 720.13 389.921C719.631 389.818 719.136 389.714 718.645 389.61C718.154 389.505 717.667 389.4 717.183 389.294C716.7 389.188 716.222 389.082 715.746 388.975C715.27 388.868 714.798 388.76 714.33 388.651C713.863 388.543 713.399 388.433 712.938 388.323C712.479 388.213 712.022 388.101 711.57 387.99C711.117 387.878 710.669 387.764 710.223 387.651C709.778 387.537 709.337 387.423 708.899 387.308C708.462 387.192 708.028 387.076 707.597 386.958C707.167 386.841 706.741 386.723 706.317 386.603C705.895 386.484 705.475 386.364 705.059 386.242C704.643 386.121 704.23 385.999 703.822 385.876C703.412 385.752 703.007 385.627 702.606 385.502C702.205 385.376 701.806 385.248 701.411 385.121C701.016 384.993 700.625 384.864 700.236 384.734C699.848 384.603 699.463 384.471 699.082 384.339C698.702 384.206 698.323 384.073 697.949 383.937C697.574 383.802 697.202 383.665 696.835 383.527C696.466 383.39 696.102 383.25 695.741 383.109C695.379 382.969 695.021 382.828 694.665 382.685C694.31 382.542 693.96 382.396 693.61 382.25C693.262 382.104 692.916 381.956 692.574 381.808C692.232 381.658 691.892 381.508 691.556 381.356C691.22 381.204 690.887 381.05 690.557 380.896C690.227 380.741 689.9 380.584 689.576 380.425C689.253 380.267 688.932 380.107 688.613 379.946C688.296 379.784 687.98 379.621 687.669 379.457C687.357 379.292 687.047 379.125 686.741 378.957C686.435 378.789 686.133 378.619 685.832 378.448C685.531 378.276 685.233 378.103 684.938 377.928C684.644 377.752 684.352 377.576 684.063 377.397C683.773 377.219 683.487 377.037 683.203 376.855C682.919 376.673 682.638 376.488 682.36 376.302C682.082 376.115 681.806 375.927 681.533 375.738C681.26 375.547 680.99 375.356 680.722 375.162C680.455 374.968 680.189 374.771 679.927 374.573C679.664 374.375 679.405 374.175 679.147 373.973C678.89 373.771 678.635 373.567 678.383 373.361C678.13 373.154 677.881 372.946 677.634 372.736C677.386 372.526 677.141 372.312 676.899 372.098C676.657 371.883 676.416 371.665 676.178 371.446C675.941 371.228 675.706 371.005 675.472 370.782C675.24 370.558 675.01 370.332 674.782 370.104C674.553 369.875 674.327 369.645 674.103 369.412C673.879 369.179 673.657 368.944 673.438 368.706C673.22 368.468 673.003 368.228 672.787 367.986C672.573 367.743 672.36 367.498 672.15 367.251C671.939 367.004 671.73 366.754 671.524 366.502C671.317 366.249 671.114 365.995 670.912 365.737C670.709 365.48 670.509 365.22 670.311 364.957C670.113 364.696 669.917 364.431 669.723 364.163C669.529 363.895 669.338 363.624 669.147 363.352C668.957 363.079 668.769 362.803 668.583 362.525C668.397 362.247 668.212 361.966 668.03 361.682C667.848 361.398 667.667 361.112 667.488 360.822C667.31 360.533 667.132 360.241 666.957 359.947C666.782 359.652 666.609 359.354 666.437 359.054C666.265 358.753 666.095 358.45 665.927 358.144C665.759 357.837 665.593 357.528 665.428 357.216C665.263 356.904 665.101 356.589 664.939 356.271C664.778 355.954 664.618 355.632 664.46 355.309C664.302 354.985 664.144 354.658 663.989 354.327C663.835 353.998 663.681 353.665 663.529 353.328C663.377 352.992 663.227 352.653 663.077 352.311C662.928 351.969 662.781 351.623 662.634 351.274C662.489 350.926 662.344 350.573 662.2 350.219C662.057 349.864 661.915 349.506 661.775 349.144C661.634 348.782 661.495 348.418 661.358 348.05C661.219 347.683 661.084 347.311 660.948 346.936C660.813 346.562 660.679 346.184 660.545 345.803C660.413 345.421 660.282 345.037 660.151 344.649C660.021 344.26 659.891 343.869 659.764 343.474C659.636 343.079 659.51 342.681 659.384 342.279C659.258 341.877 659.133 341.472 659.01 341.064C658.886 340.654 658.764 340.242 658.643 339.825C658.521 339.41 658.401 338.991 658.281 338.567C658.162 338.145 658.044 337.717 657.926 337.288C657.81 336.857 657.693 336.423 657.577 335.985C657.462 335.547 657.347 335.106 657.233 334.661C657.12 334.216 657.008 333.767 656.895 333.315C656.783 332.862 656.672 332.406 656.562 331.946C656.452 331.486 656.342 331.022 656.233 330.554C656.125 330.086 656.016 329.615 655.909 329.14C655.802 328.664 655.696 328.184 655.589 327.701C655.483 327.218 655.379 326.731 655.274 326.239C655.169 325.748 655.065 325.253 654.963 324.754C654.859 324.256 654.757 323.752 654.655 323.245C654.552 322.738 654.451 322.227 654.35 321.711C654.249 321.196 654.149 320.676 654.049 320.153C653.948 319.63 653.849 319.102 653.75 318.57C653.651 318.039 653.553 317.503 653.454 316.963C653.356 316.423 653.259 315.878 653.16 315.33C653.064 314.782 652.967 314.229 652.87 313.672C652.773 313.116 652.677 312.554 652.581 311.989C652.484 311.423 652.388 310.853 652.293 310.279C652.198 309.704 652.103 309.125 652.007 308.543C651.912 307.96 651.818 307.372 651.723 306.781C651.628 306.188 651.533 305.593 651.439 304.992C651.345 304.391 651.25 303.786 651.156 303.177C651.062 302.566 650.968 301.952 650.874 301.333C650.78 300.715 650.686 300.092 650.593 299.464C650.499 298.835 650.405 298.204 650.311 297.567C650.217 296.93 650.123 296.287 650.029 295.642C649.935 294.995 649.841 294.344 649.747 293.688C649.653 293.033 649.558 292.372 649.464 291.707C649.369 291.041 649.275 290.372 649.18 289.697C649.085 289.023 648.991 288.342 648.896 287.658C648.829 288.34 648.763 289.015 648.696 289.687C648.63 290.358 648.563 291.025 648.497 291.687C648.431 292.349 648.364 293.005 648.297 293.658C648.23 294.31 648.164 294.957 648.097 295.6C648.03 296.243 647.962 296.881 647.895 297.516C647.829 298.149 647.761 298.779 647.694 299.403C647.627 300.027 647.558 300.647 647.49 301.263C647.422 301.878 647.354 302.489 647.286 303.095C647.217 303.701 647.149 304.302 647.079 304.9C647.01 305.497 646.94 306.089 646.87 306.678C646.801 307.267 646.731 307.85 646.66 308.43C646.589 309.01 646.518 309.585 646.446 310.155C646.375 310.726 646.303 311.293 646.231 311.854C646.159 312.416 646.086 312.974 646.012 313.527C645.939 314.08 645.865 314.63 645.79 315.174C645.716 315.719 645.642 316.26 645.565 316.796C645.49 317.333 645.413 317.865 645.338 318.393C645.261 318.921 645.183 319.444 645.106 319.964C645.027 320.484 644.949 320.999 644.87 321.511C644.79 322.023 644.71 322.53 644.629 323.033C644.548 323.537 644.467 324.036 644.384 324.531C644.302 325.026 644.218 325.517 644.134 326.004C644.05 326.491 643.966 326.974 643.88 327.455C643.795 327.933 643.708 328.408 643.621 328.881C643.533 329.352 643.446 329.819 643.356 330.282C643.267 330.746 643.177 331.206 643.086 331.662C642.994 332.118 642.902 332.57 642.81 333.018C642.716 333.466 642.622 333.911 642.528 334.351C642.433 334.792 642.337 335.229 642.239 335.662C642.142 336.095 642.043 336.525 641.944 336.951C641.845 337.377 641.744 337.799 641.643 338.217C641.541 338.635 641.439 339.05 641.335 339.461C641.231 339.872 641.125 340.28 641.019 340.684C640.913 341.088 640.805 341.488 640.696 341.886C640.587 342.282 640.478 342.676 640.366 343.066C640.255 343.456 640.142 343.842 640.027 344.225C639.913 344.608 639.798 344.987 639.681 345.363C639.564 345.739 639.446 346.112 639.327 346.481C639.206 346.85 639.086 347.217 638.963 347.579C638.841 347.942 638.716 348.301 638.591 348.656C638.465 349.013 638.339 349.364 638.211 349.714C638.082 350.064 637.952 350.41 637.82 350.752C637.689 351.096 637.555 351.435 637.421 351.771C637.285 352.108 637.149 352.44 637.011 352.77C636.874 353.101 636.734 353.427 636.592 353.751C636.451 354.075 636.308 354.396 636.163 354.713C636.018 355.031 635.872 355.346 635.724 355.657C635.576 355.968 635.425 356.277 635.274 356.582C635.122 356.887 634.969 357.19 634.813 357.489C634.658 357.789 634.501 358.084 634.342 358.378C634.182 358.672 634.021 358.963 633.858 359.251C633.696 359.538 633.531 359.823 633.364 360.105C633.197 360.387 633.029 360.666 632.858 360.942C632.687 361.219 632.514 361.492 632.34 361.763C632.165 362.033 631.988 362.301 631.81 362.567C631.631 362.832 631.45 363.095 631.267 363.354C631.084 363.614 630.899 363.871 630.713 364.125C630.524 364.38 630.335 364.631 630.144 364.88C629.952 365.128 629.759 365.375 629.563 365.62C629.367 365.864 629.169 366.104 628.97 366.343C628.769 366.582 628.567 366.818 628.361 367.052C628.156 367.285 627.949 367.516 627.74 367.745C627.531 367.974 627.318 368.2 627.104 368.424C626.89 368.648 626.674 368.868 626.454 369.088C626.236 369.306 626.015 369.523 625.79 369.737C625.567 369.951 625.341 370.164 625.112 370.373C624.883 370.582 624.652 370.79 624.419 370.995C624.185 371.199 623.948 371.401 623.711 371.602C623.471 371.802 623.23 372.001 622.987 372.196C622.743 372.392 622.497 372.586 622.247 372.777C621.997 372.969 621.746 373.158 621.493 373.345C621.238 373.532 620.981 373.717 620.721 373.9C620.462 374.083 620.199 374.264 619.934 374.442C619.668 374.621 619.4 374.798 619.129 374.973C618.859 375.147 618.586 375.32 618.309 375.49C618.033 375.662 617.754 375.831 617.472 375.997C617.19 376.163 616.905 376.329 616.618 376.492C616.331 376.654 616.04 376.815 615.746 376.975C615.453 377.134 615.156 377.291 614.856 377.446C614.557 377.602 614.255 377.755 613.95 377.907C613.644 378.059 613.335 378.209 613.024 378.357C612.713 378.504 612.398 378.651 612.081 378.795C611.764 378.94 611.443 379.083 611.119 379.225C610.795 379.366 610.468 379.506 610.138 379.644C609.808 379.782 609.475 379.918 609.139 380.053C608.802 380.188 608.463 380.321 608.12 380.453C607.777 380.584 607.431 380.715 607.082 380.843C606.732 380.972 606.38 381.098 606.024 381.224C605.668 381.349 605.309 381.473 604.946 381.596C604.584 381.718 604.218 381.839 603.849 381.958C603.48 382.078 603.107 382.196 602.73 382.313C602.355 382.429 601.975 382.545 601.593 382.66C601.209 382.773 600.823 382.886 600.433 382.998C600.043 383.109 599.65 383.219 599.253 383.328C598.855 383.437 598.455 383.544 598.051 383.651C597.647 383.757 597.24 383.863 596.829 383.967C596.418 384.071 596.003 384.174 595.584 384.274C595.166 384.377 594.743 384.477 594.318 384.576C593.893 384.676 593.463 384.773 593.029 384.872C592.596 384.968 592.16 385.064 591.719 385.159C591.278 385.254 590.834 385.349 590.385 385.442C589.937 385.535 589.485 385.627 589.029 385.718C588.574 385.809 588.114 385.898 587.65 385.987C587.187 386.077 586.719 386.165 586.248 386.253C585.777 386.339 585.301 386.426 584.822 386.511C584.343 386.598 583.86 386.682 583.372 386.766C582.885 386.85 582.394 386.933 581.9 387.016C581.404 387.098 580.904 387.18 580.401 387.261C579.898 387.342 579.391 387.421 578.879 387.501C578.368 387.581 577.851 387.658 577.332 387.738C576.813 387.815 576.289 387.893 575.761 387.969C575.232 388.046 574.701 388.121 574.165 388.197C573.628 388.273 573.088 388.348 572.542 388.422C571.998 388.497 571.449 388.57 570.895 388.644C570.342 388.718 569.784 388.79 569.222 388.863C568.66 388.935 568.093 389.007 567.523 389.079C566.952 389.15 566.377 389.222 565.798 389.292C565.218 389.362 564.635 389.432 564.046 389.502C563.457 389.572 562.865 389.642 562.267 389.711C561.671 389.78 561.069 389.849 560.462 389.918C559.856 389.987 559.245 390.055 558.63 390.123C558.015 390.19 557.395 390.259 556.77 390.326C556.146 390.393 555.517 390.461 554.884 390.528C554.25 390.596 553.611 390.663 552.968 390.73C552.326 390.797 551.678 390.864 551.026 390.93C550.373 390.997 549.716 391.063 549.054 391.13C548.393 391.197 547.726 391.263 547.055 391.329C546.384 391.396 545.707 391.462 545.026 391.529C545.711 391.624 546.39 391.719 547.065 391.814C547.739 391.909 548.409 392.003 549.075 392.098C549.74 392.192 550.401 392.286 551.056 392.38C551.712 392.474 552.363 392.568 553.01 392.663C553.656 392.757 554.297 392.851 554.935 392.944C555.572 393.038 556.204 393.131 556.832 393.226C557.46 393.319 558.083 393.413 558.702 393.508C559.321 393.602 559.935 393.696 560.544 393.79C561.154 393.884 561.759 393.978 562.359 394.072C562.96 394.167 563.556 394.262 564.148 394.357C564.74 394.451 565.327 394.546 565.91 394.641C566.494 394.736 567.072 394.831 567.646 394.927C568.221 395.022 568.791 395.118 569.356 395.214C569.92 395.311 570.483 395.407 571.04 395.504C571.597 395.6 572.149 395.698 572.698 395.794C573.247 395.892 573.79 395.99 574.331 396.089C574.871 396.187 575.406 396.285 575.938 396.384C576.47 396.483 576.997 396.582 577.52 396.682C578.044 396.782 578.563 396.883 579.079 396.984C579.593 397.085 580.105 397.187 580.613 397.288C581.12 397.391 581.622 397.493 582.122 397.597C582.621 397.7 583.116 397.803 583.607 397.908C584.099 398.012 584.585 398.117 585.069 398.223C585.552 398.329 586.032 398.435 586.507 398.543C586.982 398.65 587.455 398.758 587.921 398.867C588.389 398.976 588.854 399.085 589.314 399.195C589.773 399.306 590.229 399.417 590.682 399.529C591.134 399.64 591.584 399.753 592.029 399.867C592.474 399.981 592.916 400.095 593.353 400.211C593.79 400.326 594.224 400.442 594.655 400.56C595.085 400.678 595.511 400.796 595.935 400.915C596.358 401.034 596.777 401.155 597.194 401.276C597.609 401.397 598.022 401.52 598.43 401.643C598.84 401.767 599.244 401.891 599.646 402.017C600.047 402.143 600.447 402.269 600.842 402.397C601.236 402.525 601.628 402.654 602.016 402.785C602.404 402.915 602.788 403.046 603.17 403.179C603.551 403.312 603.929 403.446 604.304 403.581C604.678 403.716 605.05 403.852 605.418 403.99C605.786 404.129 606.151 404.268 606.512 404.408C606.873 404.549 607.232 404.691 607.587 404.834C607.942 404.977 608.293 405.122 608.642 405.268C608.991 405.414 609.337 405.562 609.679 405.711C610.021 405.86 610.36 406.011 610.696 406.163C611.032 406.314 611.365 406.469 611.696 406.624C612.025 406.778 612.352 406.935 612.676 407.094C613 407.252 613.322 407.411 613.639 407.573C613.957 407.734 614.272 407.897 614.583 408.062C614.895 408.227 615.205 408.392 615.511 408.561C615.817 408.729 616.121 408.899 616.421 409.071C616.722 409.243 617.019 409.416 617.314 409.591C617.609 409.765 617.901 409.943 618.19 410.122C618.48 410.301 618.766 410.481 619.05 410.663C619.333 410.846 619.614 411.03 619.893 411.216C620.171 411.402 620.446 411.591 620.72 411.781C620.993 411.971 621.263 412.163 621.53 412.357C621.799 412.551 622.063 412.747 622.326 412.944C622.588 413.143 622.847 413.343 623.105 413.545C623.362 413.748 623.617 413.951 623.87 414.158C624.122 414.364 624.372 414.572 624.619 414.783C624.867 414.994 625.112 415.206 625.353 415.421C625.597 415.636 625.836 415.853 626.074 416.072C626.312 416.291 626.547 416.513 626.78 416.737C627.013 416.96 627.244 417.186 627.472 417.415C627.7 417.643 627.925 417.874 628.149 418.106C628.373 418.339 628.595 418.574 628.815 418.813C629.033 419.05 629.251 419.29 629.465 419.533C629.68 419.776 629.893 420.02 630.104 420.267C630.314 420.515 630.523 420.764 630.729 421.017C630.935 421.269 631.14 421.524 631.341 421.782C631.543 422.039 631.744 422.299 631.942 422.56C632.14 422.823 632.335 423.089 632.529 423.356C632.724 423.624 632.915 423.893 633.105 424.167C633.295 424.44 633.484 424.715 633.67 424.994C633.856 425.272 634.04 425.553 634.223 425.836C634.406 426.121 634.586 426.407 634.765 426.696C634.943 426.985 635.12 427.278 635.296 427.572C635.471 427.867 635.644 428.165 635.816 428.465C635.988 428.766 636.157 429.069 636.326 429.375C636.494 429.681 636.659 429.991 636.824 430.303C636.989 430.614 637.152 430.929 637.313 431.247C637.475 431.565 637.634 431.886 637.793 432.21C637.951 432.534 638.108 432.86 638.263 433.191C638.418 433.521 638.572 433.854 638.723 434.19C638.876 434.527 639.027 434.865 639.175 435.208C639.324 435.551 639.472 435.896 639.618 436.244C639.764 436.593 639.909 436.945 640.052 437.299C640.196 437.655 640.337 438.013 640.478 438.374C640.618 438.735 640.757 439.1 640.896 439.468C641.034 439.836 641.17 440.208 641.306 440.582C641.44 440.957 641.574 441.335 641.707 441.717C641.84 442.098 641.971 442.482 642.102 442.871C642.232 443.258 642.361 443.65 642.489 444.044C642.617 444.44 642.744 444.838 642.869 445.24C642.995 445.642 643.119 446.048 643.243 446.456C643.367 446.865 643.489 447.277 643.611 447.693C643.732 448.108 643.852 448.528 643.972 448.952C644.09 449.375 644.209 449.802 644.327 450.232C644.444 450.662 644.56 451.096 644.676 451.534C644.792 451.971 644.906 452.413 645.019 452.858C645.133 453.303 645.246 453.752 645.357 454.204C645.47 454.657 645.581 455.113 645.691 455.573C645.802 456.033 645.911 456.497 646.019 456.965C646.128 457.433 646.236 457.904 646.343 458.379C646.45 458.855 646.557 459.334 646.663 459.817C646.769 460.301 646.874 460.788 646.978 461.279C647.083 461.77 647.187 462.266 647.291 462.764C647.394 463.264 647.496 463.766 647.598 464.274C647.701 464.781 647.801 465.292 647.903 465.808C648.003 466.323 648.104 466.842 648.204 467.366C648.304 467.889 648.404 468.417 648.502 468.948C648.601 469.48 648.7 470.016 648.798 470.556C648.896 471.095 648.993 471.64 649.092 472.188C649.189 472.737 649.285 473.29 649.382 473.846C649.479 474.404 649.575 474.964 649.672 475.53C649.768 476.095 649.864 476.665 649.959 477.24C650.055 477.814 650.15 478.393 650.245 478.975C650.34 479.559 650.434 480.146 650.53 480.738C650.624 481.33 650.719 481.926 650.813 482.527C650.907 483.128 651.002 483.733 651.096 484.342C651.19 484.952 651.284 485.566 651.378 486.185C651.472 486.804 651.566 487.427 651.659 488.055C651.753 488.683 651.847 489.316 651.941 489.952C652.035 490.588 652.129 491.231 652.223 491.877C652.317 492.524 652.411 493.175 652.505 493.83C652.599 494.486 652.694 495.146 652.788 495.812C652.882 496.476 652.977 497.147 653.072 497.821C653.167 498.496 653.262 499.175 653.357 499.86C653.423 499.179 653.489 498.503 653.556 497.831C653.622 497.159 653.689 496.493 653.755 495.832C653.822 495.17 653.889 494.513 653.955 493.861C654.022 493.208 654.089 492.56 654.156 491.918C654.222 491.274 654.289 490.636 654.357 490.003C654.424 489.369 654.491 488.74 654.558 488.116C654.626 487.49 654.694 486.871 654.762 486.256C654.831 485.64 654.898 485.029 654.967 484.423C655.036 483.817 655.104 483.215 655.174 482.619C655.243 482.02 655.312 481.428 655.381 480.839C655.452 480.251 655.521 479.667 655.593 479.088C655.664 478.508 655.734 477.933 655.806 477.362C655.877 476.791 655.949 476.226 656.022 475.663C656.094 475.102 656.167 474.544 656.24 473.99C656.313 473.436 656.387 472.887 656.462 472.343C656.536 471.798 656.611 471.257 656.687 470.721C656.762 470.184 656.838 469.653 656.915 469.125C656.992 468.597 657.069 468.073 657.147 467.554C657.225 467.033 657.304 466.518 657.383 466.006C657.463 465.495 657.542 464.988 657.624 464.485C657.704 463.981 657.786 463.482 657.868 462.987C657.951 462.491 658.034 462 658.118 461.513C658.202 461.026 658.286 460.543 658.372 460.063C658.457 459.584 658.544 459.109 658.632 458.637C658.718 458.166 658.807 457.699 658.896 457.235C658.986 456.772 659.075 456.311 659.166 455.856C659.257 455.4 659.349 454.949 659.442 454.5C659.535 454.051 659.63 453.607 659.724 453.166C659.819 452.726 659.915 452.289 660.012 451.856C660.11 451.422 660.207 450.993 660.307 450.567C660.407 450.142 660.507 449.719 660.609 449.3C660.71 448.882 660.813 448.468 660.917 448.056C661.021 447.645 661.126 447.238 661.233 446.834C661.339 446.429 661.447 446.029 661.556 445.633C661.665 445.235 661.775 444.842 661.886 444.452C661.998 444.062 662.11 443.675 662.224 443.293C662.339 442.91 662.455 442.531 662.571 442.154C662.688 441.778 662.806 441.405 662.926 441.036C663.045 440.667 663.166 440.302 663.288 439.939C663.411 439.577 663.535 439.217 663.66 438.861C663.786 438.506 663.913 438.154 664.041 437.804C664.169 437.454 664.299 437.108 664.431 436.765C664.563 436.423 664.696 436.083 664.831 435.747C664.966 435.411 665.102 435.078 665.24 434.747C665.378 434.417 665.518 434.09 665.659 433.767C665.801 433.443 665.943 433.122 666.088 432.804C666.233 432.487 666.38 432.172 666.528 431.862C666.675 431.55 666.825 431.242 666.978 430.936C667.129 430.631 667.283 430.329 667.438 430.029C667.594 429.73 667.751 429.433 667.91 429.14C668.069 428.845 668.23 428.555 668.393 428.268C668.556 427.98 668.72 427.695 668.887 427.413C669.054 427.132 669.223 426.853 669.393 426.576C669.564 426.3 669.736 426.027 669.911 425.756C670.086 425.485 670.262 425.218 670.442 424.952C670.62 424.687 670.801 424.424 670.984 424.164C671.167 423.905 671.352 423.647 671.54 423.393C671.726 423.139 671.916 422.887 672.107 422.639C672.299 422.389 672.493 422.143 672.688 421.899C672.884 421.655 673.082 421.413 673.283 421.175C673.482 420.936 673.685 420.701 673.89 420.467C674.096 420.233 674.302 420.001 674.511 419.774C674.721 419.545 674.933 419.318 675.146 419.095C675.361 418.871 675.578 418.649 675.796 418.431C676.015 418.212 676.236 417.995 676.46 417.781C676.684 417.568 676.91 417.355 677.139 417.146C677.367 416.936 677.599 416.729 677.833 416.525C678.066 416.319 678.302 416.117 678.541 415.916C678.78 415.716 679.021 415.518 679.264 415.322C679.509 415.127 679.755 414.932 680.004 414.742C680.253 414.55 680.504 414.361 680.759 414.174C681.013 413.986 681.27 413.801 681.53 413.618C681.79 413.436 682.053 413.255 682.318 413.076C682.583 412.897 682.85 412.72 683.121 412.546C683.392 412.371 683.665 412.198 683.942 412.027C684.219 411.857 684.497 411.689 684.779 411.522C685.062 411.355 685.346 411.19 685.634 411.027C685.921 410.864 686.212 410.704 686.506 410.544C686.799 410.384 687.095 410.228 687.395 410.072C687.695 409.917 687.997 409.763 688.302 409.612C688.607 409.46 688.916 409.309 689.227 409.162C689.538 409.014 689.853 408.867 690.17 408.722C690.488 408.577 690.809 408.435 691.133 408.293C691.457 408.152 691.783 408.012 692.113 407.874C692.444 407.736 692.777 407.599 693.113 407.465C693.449 407.33 693.789 407.197 694.132 407.065C694.474 406.933 694.821 406.804 695.17 406.675C695.52 406.547 695.871 406.42 696.227 406.294C696.584 406.17 696.943 406.045 697.305 405.922C697.668 405.8 698.033 405.679 698.403 405.559C698.772 405.439 699.145 405.321 699.52 405.204C699.897 405.088 700.276 404.972 700.659 404.858C701.042 404.743 701.429 404.631 701.819 404.52C702.209 404.408 702.602 404.298 702.999 404.19C703.396 404.081 703.796 403.973 704.2 403.867C704.604 403.76 705.012 403.654 705.423 403.551C705.833 403.447 706.249 403.344 706.667 403.242C707.085 403.141 707.508 403.041 707.933 402.941C708.359 402.842 708.788 402.743 709.222 402.646C709.655 402.549 710.092 402.453 710.533 402.358C710.973 402.264 711.418 402.169 711.866 402.076C712.315 401.983 712.767 401.89 713.222 401.8C713.678 401.709 714.138 401.619 714.602 401.529C715.065 401.441 715.532 401.352 716.004 401.265C716.475 401.177 716.951 401.091 717.43 401.006C717.909 400.919 718.392 400.835 718.88 400.751C719.367 400.667 719.858 400.584 720.353 400.502C720.849 400.419 721.347 400.338 721.852 400.257C722.354 400.176 722.862 400.096 723.373 400.016C723.885 399.937 724.401 399.859 724.92 399.781C725.439 399.702 725.963 399.625 726.492 399.548C727.019 399.472 727.551 399.396 728.088 399.32C728.624 399.244 729.164 399.169 729.71 399.095C730.255 399.021 730.804 398.947 731.357 398.873C731.91 398.799 732.468 398.727 733.03 398.655C733.592 398.583 734.158 398.51 734.729 398.439C735.299 398.367 735.875 398.297 736.455 398.226C737.033 398.155 737.618 398.085 738.206 398.015C738.795 397.945 739.387 397.876 739.985 397.807C740.581 397.738 741.183 397.67 741.79 397.6C742.396 397.532 743.007 397.464 743.622 397.396C744.237 397.328 744.857 397.259 745.481 397.193C746.106 397.125 746.735 397.058 747.369 396.991C748.002 396.924 748.64 396.856 749.284 396.79C749.927 396.723 750.574 396.656 751.227 396.589C751.879 396.523 752.536 396.455 753.198 396.389C753.859 396.322 754.526 396.256 755.197 396.19C755.87 396.121 756.546 396.054 757.226 395.988Z" fill="url(#LinearGradient_2)" fill-rule="nonzero" opacity="1" stroke="none"/>
<path d="M649.113 425.195L644.149 408.905L628.449 415.503L636.458 400.474L620.691 394.039L636.981 389.075L630.382 373.376L645.411 381.384L651.846 365.617L656.811 381.907L672.51 375.309L664.502 390.338L680.268 396.773L663.979 401.737L670.577 417.436L655.548 409.428L649.113 425.195Z" fill="#f4dbde" fill-rule="nonzero" opacity="1" stroke="none"/>
</g>
</svg>